<svg xmlns="http://www.w3.org/2000/svg" id="Layer_1" viewBox="0 0 371.599 371.599"><path d="M282.074 221.289l-11.073-17.113a32.585 32.585 0 0 1-5.228-17.704V114.59c0-28.693 2.079-89.823-79.842-89.823-66.643 0-87.251 35.516-93.623 57.483-2.53 8.721 3.415 17.601 12.448 18.533l25.83 2.665c6.08.627 11.91-2.6 14.547-8.114 5.007-10.473 13.735-26.07 40.668-26.07 10.434 0 25.106 4.413 25.106 17.316 0 18.722-.025 27.595-.025 27.595a6.988 6.988 0 0 1-6.986 7.113h-25.247c-19.05 0-91.438 9.769-91.438 82.157s76.813 64.059 81.913 62.864c9.515-2.23 27.342-8.741 44.096-24.717 2.815-2.684 7.306-2.45 9.751.575l13.529 16.742c5.259 6.508 14.933 7.192 21.056 1.49l22.239-20.713a14.43 14.43 0 0 0 2.279-18.397zm-111.046-4.034c-25.717 0-24.984-23.251-19.05-34.289 5.552-10.328 20.221-28.636 59.602-29.883l.345 19.212c.257 14.281-6.313 27.999-17.995 36.218-7.238 5.094-15.135 8.742-22.902 8.742z" fill="#171715"/><g fill="#ffac35"><path d="M1.534 283.353c-3.911-3.534.345-9.793 5.073-7.464 33.229 16.369 95.786 41.676 164.935 41.676 70.665 0 129.782-16.879 159.536-27.296 4.838-1.694 8.324 4.639 4.341 7.866-23.606 19.119-74.3 48.697-162.019 48.697-87.39 0-144.156-38.438-171.866-63.479z"/><path d="M299.936 273.051c9.218-6.825 32.12-18.591 66.348-8.303 3.145.945 5.289 3.855 5.313 7.139.083 11.229-2.337 37.593-24.318 59.502-1.526 1.521-4.096.028-3.531-2.052 3.754-13.824 11.385-43.476 8.964-47.613-2.776-4.743-37.465-4.969-51.52-4.864-2.051.016-2.904-2.589-1.256-3.809z"/></g></svg>