<svg xmlns="http://www.w3.org/2000/svg" id="Layer_1" viewBox="0 0 413.137 413.137"><g fill="#aac148"><path d="M311.358 136.395H101.779a8.44 8.44 0 0 0-8.441 8.441v175.749a8.44 8.44 0 0 0 8.441 8.441h37.363v59.228c0 13.742 11.14 24.883 24.883 24.883 13.742 0 24.883-11.14 24.883-24.883v-59.228h34.803v59.228c0 13.742 11.14 24.883 24.883 24.883 13.742 0 24.883-11.14 24.883-24.883v-59.228h37.882a8.44 8.44 0 0 0 8.441-8.441V144.836a8.442 8.442 0 0 0-8.442-8.441zM57.856 136.354c-13.742 0-24.883 11.14-24.883 24.883v101.065c0 13.742 11.14 24.883 24.883 24.883 13.742 0 24.883-11.14 24.883-24.883V161.237c-.001-13.742-11.141-24.883-24.883-24.883zM355.281 136.354c-13.742 0-24.883 11.14-24.883 24.883v101.065c0 13.742 11.14 24.883 24.883 24.883 13.742 0 24.883-11.14 24.883-24.883V161.237c0-13.742-11.14-24.883-24.883-24.883zM103.475 124.069h205.692c5.366 0 9.368-4.943 8.266-10.195-6.804-32.428-27.45-59.756-55.465-75.543l17.584-31.727a4.447 4.447 0 0 0-7.78-4.311l-17.717 31.966c-14.511-6.734-30.683-10.495-47.734-10.495-17.052 0-33.224 3.761-47.735 10.495L140.869 2.292a4.447 4.447 0 0 0-7.779 4.311l17.584 31.727c-28.015 15.788-48.661 43.115-55.465 75.544-1.103 5.252 2.899 10.195 8.266 10.195zm164.222-47.283c0 5.282-4.282 9.565-9.565 9.565-5.282 0-9.565-4.282-9.565-9.565 0-5.282 4.282-9.565 9.565-9.565 5.283 0 9.565 4.283 9.565 9.565zm-113.189-9.565c5.282 0 9.565 4.282 9.565 9.565 0 5.282-4.282 9.565-9.565 9.565-5.282 0-9.565-4.282-9.565-9.565 0-5.282 4.282-9.565 9.565-9.565z"/></g></svg>