<svg xmlns="http://www.w3.org/2000/svg" id="Layer_1" viewBox="0 0 458.443 458.443"><g fill="#0067ff"><path d="M194.019 206.642c7.935-12.351 12.466-27.086 12.204-42.884-.702-42.275-35.884-75.87-78.166-75.87H10.012C4.483 87.888 0 92.371 0 97.9v259.595c0 5.529 4.483 10.012 10.012 10.012h131.861c48.941 0 89.482-39.226 89.682-88.167.123-29.994-14.751-56.586-37.536-72.698zM51.787 139.675h77.278c13.995 0 25.382 11.386 25.382 25.382 0 13.995-11.386 25.382-25.382 25.382H51.787v-50.764zm91.236 176.045H51.787v-73.494H143.022c20.262 0 36.747 16.485 36.747 36.747s-16.484 36.747-36.746 36.747zM458.443 260.931c0-60.447-47.642-109.623-106.203-109.623s-106.203 49.177-106.203 109.623S293.68 370.555 352.24 370.555c35.534 0 68.552-18.216 88.324-48.729a110.651 110.651 0 0 0 6.691-11.876c1.442-2.974-.746-6.435-4.052-6.443l-52.206-.13c-1.155-.003-2.25.469-3.078 1.274-9.858 9.585-21.944 14.116-35.679 14.116-25.945 0-47.694-19.405-53.108-45.274H448.05c5.74 0 10.393-4.653 10.393-10.393v-2.169zM352.24 203.095c19.002 0 35.75 10.413 45.486 26.145h-90.971c9.735-15.732 26.484-26.145 45.485-26.145zM396.37 138.44h-94.197a7.958 7.958 0 0 1-7.958-7.958v-23.631a7.958 7.958 0 0 1 7.958-7.958h94.197a7.958 7.958 0 0 1 7.958 7.958v23.631a7.957 7.957 0 0 1-7.958 7.958z"/></g></svg>