<svg xmlns="http://www.w3.org/2000/svg" id="Layer_1" viewBox="0 0 355.467 355.467"><path d="M355.326 162.463L342.718 36.187c-1.382-13.846-12.55-24.676-26.431-25.633L194.552 2.161a28.536 28.536 0 0 0-21.867 8.021L8.631 169.883c-11.4 11.098-11.523 29.375-.273 40.624l134.508 134.508c11.038 11.038 28.897 11.158 40.082.269l163.888-159.541a28.53 28.53 0 0 0 8.49-23.28zm-94.021 41.135l-20.545 34.805-40.175-27.623c-2.65-1.822-6.232.223-6.01 3.431l3.366 48.639h-40.417l3.366-48.639c.222-3.208-3.36-5.254-6.01-3.431l-40.175 27.623-20.545-34.805 44.802-22.429c2.83-1.417 2.83-5.455 0-6.872L94.16 151.869l20.545-34.805 40.175 27.623c2.65 1.822 6.232-.223 6.01-3.431l-3.366-48.639h40.417l-3.366 48.639c-.222 3.208 3.36 5.254 6.01 3.431l40.175-27.623 20.545 34.805-51.665 25.864 51.665 25.865zm26.416-115.853c-11.001 0-19.918-8.918-19.918-19.918s8.918-19.918 19.918-19.918c11.001 0 19.918 8.918 19.918 19.918s-8.918 19.918-19.918 19.918z" fill="#90a358"/></svg>