<svg xmlns="http://www.w3.org/2000/svg" id="Layer_1" viewBox="0 0 425.276 425.276"><path d="M212.638 0C95.201 0 0 95.201 0 212.638s95.201 212.638 212.638 212.638 212.638-95.201 212.638-212.638S330.074 0 212.638 0zm171.961 197.347c-22.571-.907-65.28-.93-113.812 7.556a778.142 778.142 0 0 0-13.362-30.209 308.723 308.723 0 0 0 8.334-4.024c33.334-16.799 61.016-38.531 82.59-64.764 20.8 26.34 33.325 57.893 36.25 91.441zm-64.641-119.95c-20.137 25.651-46.978 46.245-80.323 61.637a791.26 791.26 0 0 0-11.036-20.102c-18.354-32.279-35.867-57.969-48.968-75.791A174.508 174.508 0 0 1 212.638 40c39.466 0 76.903 13.164 107.32 37.397zM90.564 90.564c14.403-14.403 30.905-25.942 48.814-34.344 12.573 16.328 33.28 45.133 54.976 83.412a751.214 751.214 0 0 1 7.587 13.735c-16.671 5.154-34.572 9.303-53.706 12.419-42.926 6.99-81.612 6.778-103.339 5.784 7.387-30.411 22.975-58.312 45.668-81.006zM40 212.638c0-.409.012-.817.015-1.225 7.377.393 16.766.715 27.711.715 23.124 0 53.197-1.44 85.907-6.694 23.596-3.791 45.835-9.141 66.534-15.992a740.427 740.427 0 0 1 10.902 24.214c-26.514 7.132-50.856 16.462-72.688 27.894-35.425 18.55-64.281 42.653-86.006 71.784C51.352 284.182 40 249.285 40 212.638zm59.989 130.835c30.377-44.489 79.347-75.482 145.902-92.392 13.348 36.702 24.769 77.743 31.354 121.738-20.261 8.169-42.103 12.457-64.607 12.457-41.8 0-81.333-14.756-112.649-41.803zm234.722-8.762a175.025 175.025 0 0 1-20.292 17.404c-6.83-39.082-17.103-75.734-28.934-109.105 41.931-6.576 78.823-6.412 98.035-5.643-5.236 36.73-22.106 70.642-48.809 97.344z" fill="#a6285f"/></svg>