<svg xmlns="http://www.w3.org/2000/svg" id="Layer_1" viewBox="0 0 352.666 352.666"><path d="M307.167 249.56l-12.035 38.705c-6.414 20.625-25.501 34.679-47.1 34.679h-92.153c-13.68 0-24.769-11.09-24.769-24.769V194.191h66.712c17.51 0 31.705 14.195 31.705 31.705v8.16a4.389 4.389 0 0 0 4.389 4.389h13.679a4.389 4.389 0 0 0 4.389-4.389V114.035a4.389 4.389 0 0 0-4.389-4.389h-13.679a4.389 4.389 0 0 0-4.389 4.389v12.784c0 17.51-14.195 31.705-31.705 31.705H131.11V54.492c0-13.68 11.09-24.769 24.769-24.769h87.518c22.617 0 40.952 18.335 40.952 40.952v24.674a4.389 4.389 0 0 0 4.389 4.389h15.995a4.388 4.388 0 0 0 4.375-4.042l6.737-84.769C316.313 5.037 311.66 0 305.752 0H27.792a6.989 6.989 0 0 0-6.989 6.989v15.745a6.989 6.989 0 0 0 6.989 6.989h17.78c13.68 0 24.769 11.09 24.769 24.769v243.682c0 13.68-11.09 24.769-24.769 24.769h-17.78a6.989 6.989 0 0 0-6.989 6.989v15.745a6.989 6.989 0 0 0 6.989 6.989h280.196c5.014 0 9.273-3.67 10.014-8.63l13.812-92.525a4.389 4.389 0 0 0-4.341-5.037h-16.114a4.389 4.389 0 0 0-4.192 3.086z" fill="#e65300"/></svg>