<svg xmlns="http://www.w3.org/2000/svg" id="Layer_1" viewBox="0 0 422.831 422.831"><path d="M351.473 16.308A46.457 46.457 0 0 0 316.098 0H106.729C81.077 0 60.208 20.869 60.208 46.521V401.55a21.28 21.28 0 0 0 37.2 14.121l112.289-126.584h75.355c23.023 0 42.347-16.504 45.948-39.244l31.048-196.045a46.461 46.461 0 0 0-10.575-37.49zm-52.026 102.443h-99.52c-11.93 0-21.982 9.763-21.756 21.692.219 11.563 9.661 20.869 21.276 20.869h90.013c6.547 0 11.546 5.849 10.526 12.316l-10.082 63.943a10.657 10.657 0 0 1-10.532 8.997l-79.247-.04a21.278 21.278 0 0 0-15.919 7.159l-81.439 91.807V46.521a3.961 3.961 0 0 1 3.961-3.961h200.68c6.494 0 11.479 5.76 10.546 12.187l-7.962 54.877a10.654 10.654 0 0 1-10.545 9.127z" fill="#ff4175"/></svg>