<svg xmlns="http://www.w3.org/2000/svg" id="Layer_1" viewBox="0 0 458.246 458.246"><g fill="#f34a38"><path d="M160.777 259.368h71.594c-12.567 35.53-46.603 61.004-86.45 60.71-48.349-.357-88.327-39.035-90.204-87.349-2.012-51.789 39.537-94.563 90.887-94.563 23.479 0 44.905 8.946 61.058 23.605 3.826 3.473 9.65 3.495 13.413-.047l26.296-24.749c4.112-3.871 4.127-10.408.027-14.292-25.617-24.269-59.981-39.396-97.876-40.136C68.696 80.969.567 147.238.004 228.078c-.568 81.447 65.285 147.649 146.6 147.649 78.199 0 142.081-61.229 146.36-138.358.114-.967.189-33.648.189-33.648H160.777c-5.426 0-9.824 4.398-9.824 9.824v35.999c0 5.426 4.399 9.824 9.824 9.824zM414.464 206.99v-35.173a8.609 8.609 0 0 0-8.609-8.609h-29.604a8.609 8.609 0 0 0-8.609 8.609v35.173h-35.173a8.609 8.609 0 0 0-8.609 8.609v29.604a8.609 8.609 0 0 0 8.609 8.609h35.173v35.173a8.609 8.609 0 0 0 8.609 8.609h29.604a8.609 8.609 0 0 0 8.609-8.609v-35.173h35.173a8.609 8.609 0 0 0 8.609-8.609v-29.604a8.609 8.609 0 0 0-8.609-8.609h-35.173z"/></g></svg>