<svg xmlns="http://www.w3.org/2000/svg" id="Layer_1" viewBox="0 0 393.541 393.541"><path d="M384.045 363.079L262.84 304.812l-.913-264.132c-.021-6.166 6.416-10.229 11.973-7.557l114.908 55.256a8.354 8.354 0 0 1 4.733 7.528v261.201c-.001 4.881-5.098 8.086-9.496 5.971z" fill="#00fd8d"/><path d="M262.84 304.812L131.66 241.74 257.948 33.818a8.354 8.354 0 0 1 10.759-3.192l116.514 56.029c4.454 2.142 6.085 7.661 3.51 11.879L262.84 304.812z" fill="#00e470"/><path d="M262.84 304.812L131.66 241.74 11.421 45.942c-3.35-5.455 2.479-11.914 8.248-9.14L131.66 90.655l131.18 214.157z" fill="#00c967"/><path d="M122.164 363.078l-118.41-56.94A6.626 6.626 0 0 1 0 300.167V37.548c0-4.726 4.937-7.831 9.197-5.782L131.66 90.655v266.452c0 4.881-5.098 8.086-9.496 5.971z" fill="#00ad6c"/></svg>