<svg xmlns="http://www.w3.org/2000/svg" id="Layer_1" viewBox="0 0 404.425 404.425"><path d="M202.213 0C114.396 0 43.206 71.189 43.206 159.006c0 104.378 129.295 245.419 159.006 245.419s159.006-137.069 159.006-245.419C361.219 71.189 290.03 0 202.213 0zm-.719 278.023c-62.507 0-113.178-50.672-113.178-113.179 0-62.506 50.672-113.178 113.178-113.178 62.507 0 113.178 50.672 113.178 113.178 0 62.507-50.671 113.179-113.178 113.179z" fill="#00a4c3"/><path d="M201.494 73.529c-2.809 0-5.583.147-8.328.395 6.741 7.785 10.828 17.93 10.828 29.036 0 24.518-19.875 44.393-44.393 44.393-17.169 0-32.051-9.753-39.436-24.015a90.893 90.893 0 0 0-9.987 41.507c0 50.432 40.883 91.315 91.315 91.315s91.315-40.883 91.315-91.315c.001-50.433-40.882-91.316-91.314-91.316z" fill="#ff4b30"/></svg>