<svg xmlns="http://www.w3.org/2000/svg" id="Layer_1" viewBox="0 0 412.439 412.439"><path d="M412.352 212.265C415.718 94.585 320.462-1.684 203.149.022 90.239 1.664-.858 94.912.006 207.831c.62 80.912 47.841 150.724 116.145 183.94 3.951 1.921 8.525-1.066 8.36-5.457-.498-13.268-.069-27.452 2.586-38.854 2.613-11.227 12.866-54.643 19.607-83.164 3.281-13.885 3.677-28.303 1.035-42.324a86.602 86.602 0 0 1-1.495-16.013c0-30.479 17.666-53.235 39.663-53.235 18.701 0 27.735 14.041 27.735 30.877 0 18.807-11.975 46.925-18.155 72.984-5.164 21.818 10.942 39.61 32.46 39.61 38.96 0 68.907-41.08 68.907-100.378 0-52.483-37.712-89.179-91.561-89.179-62.369 0-98.978 46.781-98.978 95.127 0 18.839 7.258 39.042 16.313 50.024 1.79 2.17 2.054 4.073 1.521 6.287-1.664 6.924-5.362 21.813-6.088 24.859-.957 4.013-3.177 4.863-7.33 2.932-27.379-12.744-44.494-52.769-44.494-84.919 0-69.147 50.239-132.647 144.833-132.647 76.04 0 135.134 54.184 135.134 126.599 0 75.545-47.633 136.343-113.747 136.343-17.471 0-34.12-7.14-43.908-16.821-3.01-2.977-8.099-1.621-9.173 2.474a28933.064 28933.064 0 0 0-10.814 41.284c-3.232 12.429-10.043 26.905-16.871 39.512-1.814 3.35.021 7.488 3.714 8.424 16.857 4.275 34.538 6.482 52.764 6.313 108.209-1.004 201.089-91.993 204.183-200.164z" fill="#9f1121"/></svg>