<svg xmlns="http://www.w3.org/2000/svg" id="Layer_1" viewBox="0 0 429.709 429.709"><path d="M429.709 196.618c0-29.803-24.16-53.962-53.963-53.962-14.926 0-28.41 6.085-38.176 15.881-30.177-19.463-68.73-31.866-111.072-33.801.026-17.978 8.078-34.737 22.104-45.989 14.051-11.271 32.198-15.492 49.775-11.588l2.414.536c-.024.605-.091 1.198-.091 1.809 0 24.878 20.168 45.046 45.046 45.046s45.046-20.168 45.046-45.046c0-24.879-20.168-45.046-45.046-45.046-15.997 0-30.01 8.362-38.002 20.929l-4.317-.959c-24.51-5.446-49.807.442-69.395 16.156-19.564 15.695-30.792 39.074-30.818 64.152-42.332 1.934-80.878 14.331-111.052 33.785-9.767-9.798-23.271-15.866-38.2-15.866C24.16 142.656 0 166.815 0 196.618c0 20.765 11.75 38.755 28.946 47.776a106.48 106.48 0 0 0-1.993 20.462c0 77.538 84.126 140.395 187.901 140.395s187.901-62.857 187.901-140.395c0-6.948-.687-13.775-1.991-20.452 17.197-9.023 28.945-27.019 28.945-47.786zM345.746 47.743c12 0 21.762 9.762 21.762 21.762 0 11.999-9.762 21.761-21.762 21.761s-21.762-9.762-21.762-21.761c0-12 9.763-21.762 21.762-21.762zM23.284 196.618c0-16.916 13.762-30.678 30.678-30.678 7.245 0 13.895 2.538 19.142 6.758-16.412 14.08-29.118 30.631-37.007 48.804-7.748-5.565-12.813-14.634-12.813-24.884zm310.5 148.859c-31.492 23.53-73.729 36.489-118.929 36.489s-87.437-12.959-118.929-36.489c-29.462-22.013-45.688-50.645-45.688-80.621 0-29.977 16.226-58.609 45.688-80.622 31.492-23.53 73.729-36.489 118.929-36.489s87.437 12.959 118.929 36.489c29.462 22.013 45.688 50.645 45.688 80.622-.001 29.976-16.226 58.608-45.688 80.621zm59.821-123.989c-7.891-18.17-20.596-34.716-37.005-48.794 5.247-4.22 11.901-6.754 19.147-6.754 16.916 0 30.678 13.762 30.678 30.678-.001 10.249-5.072 19.307-12.82 24.87z" fill="#181a1c"/><g fill="#d80000"><circle cx="146.22" cy="232.07" r="24.57"/><circle cx="283.48" cy="232.07" r="24.57"/></g><path d="M273.079 291.773c-17.32 15.78-39.773 24.47-63.224 24.47-26.332 0-50.729-10.612-68.696-29.881-4.384-4.704-11.751-4.96-16.454-.575-4.703 4.384-4.96 11.752-.575 16.454 22.095 23.695 53.341 37.285 85.726 37.285 29.266 0 57.288-10.847 78.905-30.543 4.752-4.33 5.096-11.694.765-16.446-4.329-4.749-11.688-5.097-16.447-.764z" fill="#181a1c"/></svg>