<svg xmlns="http://www.w3.org/2000/svg" id="Layer_1" viewBox="0 0 396.918 396.918"><path d="M0 22.652v351.614c0 12.51 10.141 22.652 22.652 22.652h351.614c12.51 0 22.652-10.141 22.652-22.652V22.652C396.917 10.141 386.776 0 374.266 0H22.652C10.141 0 0 10.141 0 22.652zm180.96 85.57h-62.29c-6.256 0-11.344 5.088-11.344 11.344v59.92H55.353v-59.92c0-34.912 28.405-63.317 63.317-63.317h62.291l-.001 51.973zm160.605 169.13c0 34.912-28.405 63.317-63.317 63.317h-62.291v-51.973h62.291c6.256 0 11.344-5.088 11.344-11.344v-59.92h51.973v59.92z" fill="#ff1a03"/></svg>