<svg width="40" height="41" viewBox="0 0 40 41" xmlns="http://www.w3.org/2000/svg"><title>slack</title><g id="Page-1" fill="none" fill-rule="evenodd"><g id="slack" fill-rule="nonzero"><g id="surface1"><path d="M27.2 6.602l-6.598 2.296-1.403-4.296C18.602 2.8 19.5.8 21.4.199c1.8-.597 3.8.301 4.402 2.2L27.2 6.602zm-2 16l6.6-2.301-2.3-7.102-6.602 2.301 2.302 7.102zM28.601 32.8c.5 1.398 1.898 2.398 3.296 2.398.403 0 .801-.097 1.102-.199 1.8-.602 2.8-2.602 2.2-4.398L34 27l-6.602 2.3 1.203 3.5z" id="Shape" fill="#FFB300"/><path d="M13.2 11.5l-6.598 2.3-1.403-4.198C4.602 7.8 5.5 5.8 7.4 5.199c1.8-.597 3.8.301 4.402 2.2L13.2 11.5zm1.402 26.3c.5 1.4 1.898 2.4 3.296 2.4.403 0 .801-.098 1.102-.2 1.8-.602 2.8-2.602 2.2-4.398L20 31.898 13.398 34.2l1.204 3.6zm.796-19.6l-6.597 2.3 2.3 7.102L17.7 25.3l-2.302-7.1z" fill="#00BFA5"/><path d="M29.398 13.3L27.2 6.7l4.102-1.4c1.8-.6 3.8.302 4.398 2.2.602 1.8-.3 3.8-2.199 4.398L29.398 13.3zm-6.597 2.302L20.6 9l-7.4 2.602 2.2 6.597 7.401-2.597zM2.398 15.3c-1.796.597-2.796 2.597-2.199 4.398A3.514 3.514 0 0 0 3.5 22.102c.398 0 .8-.102 1.102-.204L8.699 20.5 6.5 13.898 2.398 15.3z" fill="#00BCD4"/><path d="M11.102 27.5l2.199 6.602-4.7 1.597c-.402.102-.8.2-1.101.2-1.5 0-2.8-.899-3.3-2.399-.598-1.8.3-3.8 2.198-4.398l4.704-1.602zm28.597-6.2c-.597-1.8-2.597-2.8-4.398-2.198L31.8 20.3 34 27l3.602-1.2c1.796-.698 2.796-2.698 2.097-4.5zm-22 3.9l2.2 6.6 7.402-2.6-2.2-6.598-7.402 2.598z" fill="#E91E63"/><path fill="#388E3C" d="M29.398 13.3L27.2 6.603l-6.597 2.296 2.199 6.704z"/><path fill="#00897B" d="M13.2 11.5l-6.598 2.3 2.199 6.7 6.597-2.3z"/><path fill="#BF360C" d="M25.2 22.602l2.198 6.699L34 27l-2.2-6.7z"/><path fill="#4E342E" d="M11.102 27.5l2.199 6.7 6.597-2.302L17.7 25.2z"/></g></g></g></svg>