<svg xmlns="http://www.w3.org/2000/svg" id="Layer_1" viewBox="0 0 447.727 447.727"><linearGradient id="a" gradientUnits="userSpaceOnUse" x1="340.35" y1="311.84" x2="340.35" y2="132.57" gradientTransform="matrix(1 0 0 -1 0 450)"><stop offset="0" stop-color="#de9329"/><stop offset="1" stop-color="#d64c1b"/></linearGradient><path d="M447.601 263.733c-1.785-25.984-23.127-46.862-49.142-48.123-9.942-.482-19.306 1.84-27.373 6.24-1.075-51.745-43.328-93.368-95.33-93.368-13.755 0-26.82 2.923-38.627 8.168-2.541 1.129-4.16 3.673-4.16 6.454v169.067a7.073 7.073 0 0 0 7.073 7.073h155.837c29.846-.001 53.802-25.22 51.722-55.511z" fill="url(#a)"/><linearGradient id="b" gradientUnits="userSpaceOnUse" x1="219.18" y1="311.84" x2="219.18" y2="132.57" gradientTransform="matrix(1 0 0 -1 0 450)"><stop offset="0" stop-color="#de9329"/><stop offset="1" stop-color="#d64c1b"/></linearGradient><path d="M219.182 139.431a7.12 7.12 0 0 0-7.12 7.12v165.387a7.121 7.121 0 0 0 14.241 0V146.551a7.121 7.121 0 0 0-7.121-7.12z" fill="url(#b)"/><linearGradient id="c" gradientUnits="userSpaceOnUse" x1="195.62" y1="311.84" x2="195.62" y2="132.57" gradientTransform="matrix(1 0 0 -1 0 450)"><stop offset="0" stop-color="#de9329"/><stop offset="1" stop-color="#d64c1b"/></linearGradient><path d="M195.62 157.019a7.12 7.12 0 0 0-7.12 7.12v147.799a7.12 7.12 0 1 0 14.24 0V164.139a7.12 7.12 0 0 0-7.12-7.12z" fill="url(#c)"/><linearGradient id="d" gradientUnits="userSpaceOnUse" x1="172.06" y1="311.84" x2="172.06" y2="132.57" gradientTransform="matrix(1 0 0 -1 0 450)"><stop offset="0" stop-color="#de9329"/><stop offset="1" stop-color="#d64c1b"/></linearGradient><path d="M172.057 165.033a7.12 7.12 0 0 0-7.12 7.12v139.785a7.12 7.12 0 1 0 14.24 0V172.153a7.118 7.118 0 0 0-7.12-7.12z" fill="url(#d)"/><linearGradient id="e" gradientUnits="userSpaceOnUse" x1="148.5" y1="311.84" x2="148.5" y2="132.57" gradientTransform="matrix(1 0 0 -1 0 450)"><stop offset="0" stop-color="#de9329"/><stop offset="1" stop-color="#d64c1b"/></linearGradient><path d="M148.495 154.348a7.12 7.12 0 0 0-7.12 7.12v150.47a7.12 7.12 0 1 0 14.24 0v-150.47a7.12 7.12 0 0 0-7.12-7.12z" fill="url(#e)"/><linearGradient id="f" gradientUnits="userSpaceOnUse" x1="124.93" y1="311.84" x2="124.93" y2="132.57" gradientTransform="matrix(1 0 0 -1 0 450)"><stop offset="0" stop-color="#de9329"/><stop offset="1" stop-color="#d64c1b"/></linearGradient><path d="M124.932 161.471a7.12 7.12 0 0 0-7.12 7.12v143.347a7.12 7.12 0 1 0 14.24 0V168.591a7.12 7.12 0 0 0-7.12-7.12z" fill="url(#f)"/><linearGradient id="g" gradientUnits="userSpaceOnUse" x1="101.37" y1="311.84" x2="101.37" y2="132.57" gradientTransform="matrix(1 0 0 -1 0 450)"><stop offset="0" stop-color="#de9329"/><stop offset="1" stop-color="#d64c1b"/></linearGradient><path d="M101.37 175.718a7.12 7.12 0 0 0-7.12 7.12v129.1a7.12 7.12 0 1 0 14.24 0v-129.1a7.118 7.118 0 0 0-7.12-7.12z" fill="url(#g)"/><linearGradient id="h" gradientUnits="userSpaceOnUse" x1="77.81" y1="311.84" x2="77.81" y2="132.57" gradientTransform="matrix(1 0 0 -1 0 450)"><stop offset="0" stop-color="#de9329"/><stop offset="1" stop-color="#d64c1b"/></linearGradient><path d="M77.808 203.32a7.12 7.12 0 0 0-7.12 7.12v101.498a7.12 7.12 0 1 0 14.24 0V210.44a7.12 7.12 0 0 0-7.12-7.12z" fill="url(#h)"/><linearGradient id="i" gradientUnits="userSpaceOnUse" x1="54.24" y1="311.84" x2="54.24" y2="132.57" gradientTransform="matrix(1 0 0 -1 0 450)"><stop offset="0" stop-color="#de9329"/><stop offset="1" stop-color="#d64c1b"/></linearGradient><path d="M54.245 214.895a7.12 7.12 0 0 0-7.12 7.12v89.923a7.12 7.12 0 1 0 14.24 0v-89.923a7.12 7.12 0 0 0-7.12-7.12z" fill="url(#i)"/><linearGradient id="j" gradientUnits="userSpaceOnUse" x1="30.68" y1="311.84" x2="30.68" y2="132.57" gradientTransform="matrix(1 0 0 -1 0 450)"><stop offset="0" stop-color="#de9329"/><stop offset="1" stop-color="#d64c1b"/></linearGradient><path d="M30.683 217.551a7.12 7.12 0 0 0-7.12 7.12v84.611a7.12 7.12 0 1 0 14.24 0v-84.611a7.12 7.12 0 0 0-7.12-7.12z" fill="url(#j)"/><linearGradient id="k" gradientUnits="userSpaceOnUse" x1="7.12" y1="311.84" x2="7.12" y2="132.57" gradientTransform="matrix(1 0 0 -1 0 450)"><stop offset="0" stop-color="#de9329"/><stop offset="1" stop-color="#d64c1b"/></linearGradient><path d="M7.12 236.143a7.12 7.12 0 0 0-7.12 7.12v48.756a7.12 7.12 0 1 0 14.24 0v-48.756a7.12 7.12 0 0 0-7.12-7.12z" fill="url(#k)"/></svg>