<svg width="17" height="14" viewBox="0 0 17 14" xmlns="http://www.w3.org/2000/svg"><title>twitter-logo-3066aa0c580bd674</title><g id="Components-Design" fill="none" fill-rule="evenodd"><g id="CTA-Forms" transform="translate(-576 -3059)" fill-rule="nonzero" fill="#03A9F4"><g id="new" transform="translate(0 2743)"><g id="Group-15" transform="translate(244)"><g id="social-btns" transform="translate(241 301)"><g id="Group-17" transform="translate(78)"><g id="twi"><g id="twitter-logo-3066aa0c580bd674" transform="translate(13 15)"><path d="M17 1.576a6.867 6.867 0 0 1-1.95.533A3.395 3.395 0 0 0 16.541.244a6.802 6.802 0 0 1-2.155.817A3.389 3.389 0 0 0 11.911 0c-1.873 0-3.394 1.506-3.394 3.363 0 .262.03.52.088.767A9.661 9.661 0 0 1 1.611.614a3.354 3.354 0 0 0 1.05 4.494 3.444 3.444 0 0 1-1.538-.42v.04c0 1.63 1.17 2.99 2.72 3.3-.29.08-.59.12-.891.12-.22 0-.433-.025-.639-.062a3.397 3.397 0 0 0 3.17 2.336 6.862 6.862 0 0 1-5.026 1.393 9.706 9.706 0 0 0 5.204 1.51c6.242 0 9.657-5.126 9.657-9.574 0-.145-.005-.29-.012-.432A6.715 6.715 0 0 0 17 1.576" id="surface1"/></g></g></g></g></g></g></g></g></svg>