<svg xmlns="http://www.w3.org/2000/svg" id="Layer_1" viewBox="0 0 434.016 434.016"><path d="M416.049 52.27c-10.508-11.324-25.72-17.356-45.207-17.928-55.02-1.774-93.932 27.496-115.651 86.986a8.833 8.833 0 0 0 1.814 9.041 8.78 8.78 0 0 0 8.812 2.534c6.246-1.718 12.44-2.588 18.412-2.588 8.018 0 18.689 1.474 24.001 8.497 4.077 5.39 4.632 13.472 1.649 24.02-2.518 8.899-15.476 32.721-31.515 57.929-19.539 30.712-30.333 44.48-33.445 44.48-10.31 0-47.565-165.194-48.589-168.817-10.686-37.86-16.05-56.864-50.798-56.864-26.483 0-85.551 48.362-134.051 90.495-2.983 2.591-5.495 4.774-7.44 6.436a11.525 11.525 0 0 0-1.607 15.849l9.038 11.644a11.517 11.517 0 0 0 15.812 2.331l.497-.354c15.691-11.163 30.514-21.706 41.704-22.284 12.16-.597 22.711 18.4 35.29 63.605 23.957 87.803 60.355 192.468 97.709 192.468 39.036 0 85.605-33.091 145.802-111.429 54.482-70.902 83.655-127.135 85.529-168.048 1.407-30.901-4.57-53.78-17.766-68.003z" fill="#69b4e5"/></svg>