<svg xmlns="http://www.w3.org/2000/svg" id="Layer_1" viewBox="0 0 385.681 385.681"><path d="M374.858 189.487c-.836-5.859-6.17-9.996-12.052-9.345-4.455.493-8.986.841-13.344.841-28.698 0-69.664-2.172-94.991-19.074a76.211 76.211 0 0 1-6.277-4.836c-19.003-16.347-23.131-36.483-23.246-50.497-.153-18.543 4.237-32.215 13.048-40.636 7.831-7.485 17.401-9.048 20.815-9.048.174 0 .331.004.472.012 1.062.057 10.579.85 17.562 11.081 5.393 7.901 12.015 25.854 3.673 62.64-.893 3.938 1.284 7.905 5.07 9.31 13.135 4.877 29.678 6.856 42.494 7.633a8.024 8.024 0 0 0 8.318-6.294c3.853-17.737 5.457-34.174 4.776-49.108-1.001-21.94-6.835-40.868-17.34-56.257-14.431-21.14-37.426-34.53-61.514-35.818-17.289-.925-43.092 5.083-63.637 24.721-14.171 13.544-30.987 38.806-30.629 82.235.301 36.461 15.585 69.545 43.036 93.159 8.387 7.215 19.15 14.595 32.774 20.939-14.817 26.2-30.857 48.042-44.183 64.294-12.475 15.213-23.976 27.297-32.568 35.754-43.221-34.313-68.785-98.555-83.006-149.199-13.906-49.526-19.602-95.15-21.539-114.258-.534-5.271-5.156-9.163-10.442-8.806l-18.79 1.268 28.383-1.899-46.77 3.128c-5.537.37-9.67 5.238-9.13 10.76 2.005 20.518 7.996 69.578 23.224 124.156 11.727 42.032 26.563 78.711 44.096 109.017 23.038 39.822 50.984 69.014 83.064 86.764a28.406 28.406 0 0 0 13.768 3.557 28.433 28.433 0 0 0 18.083-6.483c1.022-.841 25.366-21.009 54.608-56.454 17.088-20.712 32.467-42.532 45.711-64.852a470.294 470.294 0 0 0 11.817-21.126c19.977 2.518 43.174 2.804 70.026-.244 6.123-.695 10.449-6.34 9.578-12.44l-4.938-34.595z" fill="#04b086"/></svg>