<svg xmlns="http://www.w3.org/2000/svg" id="Layer_1" viewBox="0 0 447.674 447.674"><g fill="#00769d"><path d="M134.289 138.16h-24.722l67.399 190.521 37.732-107.825-29.254-82.696H159.36v-18.154h115.508v18.154h-27.049l67.398 190.521 24.227-69.234c31.781-88.702-26.048-116.333-26.048-136.129s16.048-35.843 35.843-35.843c1.071 0 2.111.058 3.13.153-33.541-31.663-78.768-51.08-128.534-51.08-65.027 0-122.306 33.146-155.884 83.458h66.336v18.154h.002zM36.548 223.837c0 71.704 40.302 133.986 99.483 165.458l-84.52-238.919c-9.628 22.556-14.963 47.385-14.963 73.461zM386.833 131.547c2.679 15.774 1.868 33.503-2.243 51.301h.745l-2.832 8.092c-1.678 5.843-3.791 11.82-6.191 17.693l-64.444 180.541c59.057-31.51 99.256-93.725 99.256-165.338 0-33.557-8.834-65.048-24.291-92.289z"/><path d="M166.075 402.033c18.195 5.894 37.603 9.091 57.762 9.091 19.228 0 37.777-2.902 55.239-8.285l-54.784-154.862-58.217 154.056z"/><path d="M382.113 65.56C339.836 23.283 283.625 0 223.836 0S107.837 23.283 65.56 65.56 0 164.047 0 223.837c0 59.789 23.283 115.999 65.56 158.276s98.488 65.56 158.277 65.56 115.999-23.283 158.277-65.56c42.277-42.277 65.56-98.488 65.56-158.276-.001-59.79-23.284-116-65.561-158.277zM223.836 431.883c-114.717 0-208.046-93.329-208.046-208.046S109.119 15.79 223.836 15.79s208.046 93.33 208.046 208.047-93.328 208.046-208.046 208.046z"/></g></svg>