<svg width="31" height="35" viewBox="0 0 31 35" xmlns="http://www.w3.org/2000/svg"><g id="Components-Design" fill="none" fill-rule="evenodd"><g id="Clients-&amp;-Partners" transform="translate(-563 -812)" fill-rule="nonzero" fill="#999"><g id="02-appear-in-out" transform="translate(365 567)"><g id="Group-2" transform="translate(102 178)"><g id="apple" transform="translate(96 67)"><path d="M31 25.68c-.846 1.821-1.253 2.636-2.341 4.243-1.522 2.247-3.67 5.052-6.323 5.07-2.362.022-2.972-1.494-6.179-1.468-3.204.015-3.873 1.5-6.238 1.475-2.655-.024-4.687-2.55-6.21-4.794-4.258-6.292-4.708-13.67-2.076-17.592 1.862-2.782 4.806-4.417 7.572-4.417 2.82 0 4.59 1.501 6.918 1.501 2.26 0 3.636-1.504 6.896-1.504 2.463 0 5.067 1.302 6.93 3.55-6.09 3.238-5.1 11.676 1.051 13.935zM20.542 5.682C21.73 4.205 22.63 2.122 22.302 0c-1.933.128-4.194 1.325-5.514 2.877-1.198 1.415-2.19 3.513-1.805 5.543 2.111.065 4.295-1.157 5.56-2.737z" id="surface1"/></g></g></g></g></g></svg>