<svg width="27" height="27" viewBox="0 0 27 27" xmlns="http://www.w3.org/2000/svg"><title>dribbble</title><g id="Components-Design" fill="none" fill-rule="evenodd"><g id="Clients-&amp;-Partners" transform="translate(-753 -748)" fill-rule="nonzero" fill="#EC4989"><g id="02-appear-in-out" transform="translate(365 567)"><g id="Group-2" transform="translate(102 178)"><g id="dribbble" transform="translate(286 3)"><g id="Dribbble-color"><g id="Icons"><g id="Color-"><path d="M19.552 22.609c-.116-.681-.718-4-2.2-8.072 3.648-.584 6.81.417 7.044.493a11.306 11.306 0 0 1-4.844 7.579zm-6.316 1.93c-2.737 0-5.246-.973-7.202-2.591.15.12.254.197.254.197s2.166-4.724 8.87-7.06c.025-.01.051-.016.076-.024 1.591 4.132 2.246 7.593 2.414 8.581a11.272 11.272 0 0 1-4.412.897zM1.932 13.234c0-.12.005-.238.009-.356.2.004 5.785.13 11.605-1.611.323.633.633 1.28.916 1.922-.15.04-.297.086-.445.136-6.1 1.97-9.194 7.457-9.194 7.457s.005.004.005.006a11.259 11.259 0 0 1-2.896-7.553zm6.48-10.22c.152.201 2.242 3.035 4.198 6.512-5.427 1.442-10.139 1.385-10.435 1.38a11.305 11.305 0 0 1 6.237-7.891zm2.116-.753c0 .002-.002.003-.002.003l-.035.006c.013-.003.024-.004.037-.009zM20.7 4.754c-.028.042-1.637 2.494-5.904 4.092a57.41 57.41 0 0 0-4.225-6.594 11.304 11.304 0 0 1 2.665-.32c2.86 0 5.474 1.068 7.464 2.822zm3.835 8.368c-.163-.035-3.989-.859-7.872-.37-.08-.193-.16-.388-.244-.582a33.97 33.97 0 0 0-.752-1.64c4.463-1.823 6.275-4.442 6.297-4.473a11.258 11.258 0 0 1 2.571 7.065zm1.667-2.55a13.281 13.281 0 0 0-.773-2.489 13.077 13.077 0 0 0-1.22-2.247 13.227 13.227 0 0 0-3.574-3.573c-.708-.48-1.46-.889-2.248-1.222a13.26 13.26 0 0 0-10.304 0A13.268 13.268 0 0 0 2.26 5.837 13.168 13.168 0 0 0 0 13.234c-.004 1.77.35 3.523 1.042 5.153.332.788.74 1.541 1.22 2.25a13.26 13.26 0 0 0 5.821 4.792c.8.34 1.637.597 2.487.77.871.18 1.768.271 2.666.271.896 0 1.793-.09 2.664-.27a13.187 13.187 0 0 0 4.735-1.991 13.438 13.438 0 0 0 1.96-1.614 13.215 13.215 0 0 0 3.608-6.693 13.39 13.39 0 0 0 0-5.33z" id="Dribbble"/></g></g></g></g></g></g></g></g></svg>