<svg width="54" height="20" viewBox="0 0 54 20" xmlns="http://www.w3.org/2000/svg"><title>facebook</title><g id="Components-Design" fill="none" fill-rule="evenodd"><g id="Clients-&amp;-Partners" transform="translate(-740 -825)"><g id="02-appear-in-out" transform="translate(365 567)"><g id="Group-2" transform="translate(102 178)"><g id="facebook" transform="translate(273 80)"><g id="Group"><path id="Shape" d="M.098 19.283H53.82V.105H.098"/><path d="M.098.105H53.82v19.178H.098"/><path d="M.098.105H53.82v19.178H.098"/><path d="M0 0h53.82v19.282H0"/><path fill="#26559A" fill-rule="nonzero" d="M.098.105h53.891v19.282H.098"/><path d="M0 0h53.82v19.282H0"/><path d="M28.466 9.668c-.362 0-.622.113-.886.228v2.6c.253.024.397.024.638.024.868 0 .987-.379.987-.906V10.37c0-.39-.136-.703-.739-.703zm-5.762-.142c-.602 0-.738.315-.738.704v.219h1.477v-.219c0-.39-.137-.704-.739-.704zm-11.16 2.707c0 .308.152.468.49.468.36 0 .575-.112.839-.228v-.616h-.791c-.374 0-.539.066-.539.376zM34.07 9.668c-.603 0-.812.313-.812.703v1.423c0 .391.209.705.812.705.6 0 .812-.314.812-.705v-1.423c0-.39-.211-.703-.812-.703zm-25.483 4.16H6.817V9.746H5.93V8.338h.886v-.844c0-1.148.5-1.83 1.92-1.83H9.92V7.07h-.74c-.552 0-.589.196-.589.563l-.003.704h1.34l-.156 1.407H8.588v4.083zm6.058.01h-1.477l-.064-.355a3.525 3.525 0 0 1-1.673.413c-1.084 0-1.66-.688-1.66-1.64 0-1.124.672-1.526 1.876-1.526h1.225v-.243c0-.573-.07-.742-.996-.742h-1.515l.148-1.407h1.656c2.034 0 2.48.612 2.48 2.16v3.34zm5.023-3.99c-.92-.15-1.183-.182-1.625-.182-.795 0-1.035.167-1.035.809v1.214c0 .642.24.81 1.035.81.442 0 .706-.033 1.625-.184v1.372c-.806.172-1.33.217-1.773.217-1.903 0-2.659-.952-2.659-2.328v-.986c0-1.377.756-2.331 2.66-2.331.442 0 .967.046 1.772.218v1.372zm5.546 1.728h-3.25v.113c0 .642.24.81 1.035.81.714 0 1.15-.033 2.067-.184v1.372c-.885.172-1.345.217-2.214.217-1.903 0-2.66-.952-2.66-2.328v-1.127c0-1.204.562-2.19 2.512-2.19s2.51.975 2.51 2.19v1.127zm5.762.026c0 1.33-.4 2.3-2.819 2.3-.872 0-1.386-.074-2.35-.215V6.086l1.772-.281v2.658c.382-.135.878-.204 1.33-.204 1.772 0 2.067.756 2.067 1.971v1.372zm5.68.029c0 1.147-.498 2.26-2.58 2.26-2.084 0-2.59-1.113-2.59-2.26v-1.108c0-1.147.506-2.26 2.59-2.26 2.082 0 2.58 1.113 2.58 2.26v1.108zm5.674 0c0 1.147-.498 2.26-2.579 2.26-2.083 0-2.59-1.113-2.59-2.26v-1.108c0-1.147.507-2.26 2.59-2.26 2.081 0 2.58 1.113 2.58 2.26v1.108zm5.826 2.197h-1.921l-1.625-2.58v2.58H42.84V6.086l1.771-.281v4.984l1.625-2.45h1.92l-1.773 2.673 1.774 2.816zm-8.411-4.16c-.602 0-.81.313-.81.703v1.423c0 .391.208.705.81.705.601 0 .814-.314.814-.705v-1.423c0-.39-.213-.703-.814-.703zm9.422 3.197c.298 0 .536.232.536.521a.526.526 0 0 1-.538.523.53.53 0 0 1-.542-.523c0-.29.243-.52.542-.52h.002zm-.003.081a.439.439 0 0 0-.437.44.439.439 0 1 0 .877.003.438.438 0 0 0-.437-.443h-.003zm-.102.743h-.096v-.58c.05-.008.099-.014.172-.014.092 0 .153.018.19.044.036.025.055.064.055.12 0 .076-.053.123-.119.141v.005c.054.01.09.055.102.14.014.091.03.126.039.144h-.102a.402.402 0 0 1-.041-.147c-.015-.075-.053-.103-.132-.103h-.067v.25zm0-.321h.07c.08 0 .149-.028.149-.1 0-.051-.04-.102-.148-.102a.54.54 0 0 0-.07.005v.197z" fill="#FFF" fill-rule="nonzero"/></g></g></g></g></g></g></svg>