<svg width="47" height="19" viewBox="0 0 47 19" xmlns="http://www.w3.org/2000/svg"><title>ibm</title><g id="Components-Design" fill="none" fill-rule="evenodd"><g id="Clients-&amp;-Partners" transform="translate(-467 -752)" fill-rule="nonzero" fill="#1F70C1"><g id="02-appear-in-out" transform="translate(365 567)"><g id="Group-2" transform="translate(102 178)"><g id="ibm" transform="translate(0 7)"><path d="M0 0v1.241h9.148V0H0zm10.445 0v1.241h13.037S22.15 0 20.386 0h-9.941zm15.594 0v1.241h7.887L33.458 0H26.04zm13.542 0l-.468 1.241h7.815V0h-7.347zM0 2.414v1.24h9.148v-1.24H0zm10.445.001v1.24h14.55s-.17-.955-.467-1.24H10.445zm15.594 0v1.24h8.752l-.433-1.24h-8.319zm12.606 0l-.434 1.24h8.717v-1.24h-8.283zM2.629 4.827V6.07h3.962V4.827H2.629zm10.445 0V6.07h3.962V4.827h-3.962zm7.815 0V6.07h3.962s.252-.656.252-1.243h-4.214zm7.78 0V6.07h7.023l-.468-1.243h-6.556zm9.113 0l-.47 1.243h7.059V4.827h-6.59zM2.629 7.243v1.24h3.962v-1.24H2.629zm10.445 0v1.24h10.12s.846-.636 1.116-1.24H13.074zm15.594 0v1.24h3.962v-.69l.252.69h7.257l.27-.69v.69h3.962v-1.24h-7.437l-.395 1.051-.397-1.051h-7.474zM2.63 9.656v1.242h3.962V9.656H2.629zm10.445 0v1.242H24.31c-.27-.603-1.117-1.242-1.117-1.242h-10.12zm15.594 0v1.242h3.962V9.656h-3.962zm4.682 0l.479 1.242h5.442l.455-1.242H33.35zm7.059 0v1.242h3.962V9.656h-3.962zM2.629 12.07v1.241h3.962v-1.24H2.629zm10.445 0v1.241h3.962v-1.24h-3.962zm7.815 0v1.241h4.214c0-.585-.252-1.24-.252-1.24H20.89zm7.78 0v1.241h3.961v-1.24h-3.962zm5.58 0l.465 1.241h3.648l.468-1.24h-4.58zm6.16 0v1.241h3.962v-1.24h-3.962zM.072 14.484v1.243H9.22v-1.243H.072zm10.373 0v1.243h14.083c.297-.285.466-1.243.466-1.243h-14.55zm15.666 0v1.243h6.52v-1.243h-6.52zm9.04 0l.477 1.243h1.856l.448-1.243h-2.781zm5.258 0v1.243H47v-1.243h-6.591zM.072 16.899v1.241H9.22V16.9H.072zm10.373 0v1.24h9.941c1.764 0 3.096-1.24 3.096-1.24H10.445zm15.666 0v1.241h6.52V16.9h-6.52zm9.945 0l.459 1.238.079.002.466-1.24h-1.004zm4.353 0v1.241H47V16.9h-6.591z" id="Shape"/></g></g></g></g></g></svg>