<svg width="92" height="28" viewBox="0 0 92 28" xmlns="http://www.w3.org/2000/svg"><title>Instacart</title><g id="Components-Design" fill="none" fill-rule="evenodd"><g id="Testimonials" transform="translate(-684 -141)" stroke-width=".09" fill-rule="nonzero"><g id="1" transform="translate(45 109)"><g id="Group-2" transform="translate(610)"><g id="Instacart" transform="translate(30 33)"><g id="Group"><path d="M86.1 4.872a2.975 2.975 0 0 1 1.578-.384c-.078.48-.27.978-.654 1.296-.318.276-.678.51-1.074.666-.33.144-.69.216-1.008.384-.114.054-.204.162-.336.186.198-.87.708-1.692 1.494-2.148zM6.786 5.892c.768-.372 1.686-.36 2.49-.102.828.27 1.464.948 1.8 1.734.438.99.54 2.088.51 3.156-.054 1.224-.162 2.448-.402 3.654-.27 1.41-.666 2.82-1.404 4.062.528.192 1.116.102 1.584-.192.75-.456 1.236-1.236 1.572-2.028.558-1.374.702-2.88.672-4.356-.024-.396.15-.804.468-1.038.45-.354 1.158-.306 1.548.114.222.21.312.51.354.804.804-.858 1.98-1.368 3.162-1.338.75.012 1.542.21 2.1.738.516.474.78 1.17.846 1.86.042.612-.006 1.224-.048 1.83-.078.93-.12 1.86-.12 2.79-.018.288.192.558.462.642.366.072.726-.09 1.02-.288.492-.342.882-.81 1.2-1.314.882-1.392 1.296-3.042 1.362-4.68.018-.246-.024-.498.06-.738.132-.48.6-.834 1.098-.84a1.16 1.16 0 0 1 1.152.864c.15.588.558 1.056.978 1.464.744.69 1.59 1.308 2.13 2.184.51.816.666 1.83.486 2.766.66-.168 1.176-.696 1.464-1.296.438-.882.564-1.872.636-2.844.042-.438-.024-.87-.018-1.308-.276.012-.576-.036-.78-.24-.324-.3-.33-.87-.006-1.17.18-.192.456-.258.714-.246-.012-.51-.054-1.026-.048-1.536 0-.3-.036-.606.042-.9a1.383 1.383 0 0 1 1.056-.972 1.35 1.35 0 0 1 1.314.492c.252.3.324.696.306 1.074-.03.6-.024 1.194-.048 1.788.876-.006 1.752-.036 2.628-.024a.9.9 0 0 1 .768.534c.276.57-.198 1.314-.834 1.278-.876.006-1.746-.024-2.622-.018-.042 1.596-.084 3.198-.06 4.794.036.396.222.81.576 1.02.396.246.894.186 1.326.102 1.146-.24 2.04-1.338 2.034-2.508.006-1.02.216-2.058.738-2.94a4.863 4.863 0 0 1 2.958-2.25c.642-.168 1.314-.114 1.962 0 .48.09.948.252 1.374.504a1.18 1.18 0 0 1 1.074-.42c.492.054.924.462 1.002.954.072.462-.006.924 0 1.386-.03 1.608-.186 3.204-.144 4.812.03.24.228.456.462.516.48.084.948-.174 1.266-.522.432-.474.684-1.098.756-1.734.03-.564.018-1.134.138-1.686.198-1.074.714-2.118 1.56-2.826.87-.75 2.04-1.098 3.18-1.092.876-.006 1.806.192 2.484.774.474.384.48 1.146.12 1.608-.282.366-.774.534-1.224.474-.42-.132-.678-.558-1.122-.648a2.096 2.096 0 0 0-1.794.6c-.432.444-.648 1.05-.738 1.65-.102.774-.084 1.614.336 2.298.378.654 1.092 1.062 1.824 1.17.978.144 2.028-.054 2.838-.63.576-.408 1.038-1.002 1.212-1.692.066-.24.042-.486.054-.732.054-1.068.39-2.136 1.044-2.994.774-1.02 1.962-1.752 3.246-1.872.834-.03 1.686.096 2.442.456.096.036.186.126.288.132.282-.324.738-.48 1.164-.384.498.096.9.558.93 1.068.024 1.98-.186 3.954-.18 5.934a.672.672 0 0 0 .456.642c.348.072.708-.042 1.008-.228.522-.312.894-.828 1.158-1.368.36-.75.582-1.572.66-2.4-.648-.438-1.05-1.164-1.188-1.92-.108-.648-.162-1.35.132-1.956.18-.384.558-.66.984-.726.498-.084 1.074-.036 1.458.33.378.378.474.936.534 1.446.042.576.036 1.158.006 1.734 1.176-.006 2.4-.324 3.294-1.116.246-.198.402-.51.72-.606.528-.198 1.188.198 1.206.774.024 1.11-.414 2.148-.816 3.162-.258.666-.558 1.338-.594 2.058.006.228.054.474.21.648.228.264.618.33.948.258.51-.108.936-.456 1.26-.846.552-.672.87-1.506 1.068-2.346a9.238 9.238 0 0 0 .24-2.928c-.306.024-.648-.048-.84-.306-.276-.318-.234-.846.084-1.122.18-.18.438-.228.684-.216-.018-.714-.066-1.428-.048-2.142a1.37 1.37 0 0 1 .732-1.14c.36-.198.81-.21 1.182-.036.474.21.798.714.81 1.236.006.672-.042 1.344-.042 2.016.666.018 1.338-.024 2.004-.018.366.012.774-.078 1.086.162.414.288.498.93.174 1.314a.863.863 0 0 1-.66.336c-.888.012-1.782-.03-2.67-.012-.03 1.59-.102 3.186-.066 4.782.036.522.378 1.05.912 1.164.444.078.936.036 1.32-.222.306-.198.516-.498.732-.78a.725.725 0 0 1 .978-.102c.258.174.396.51.282.81-.348.942-1.08 1.746-2.01 2.142-.78.33-1.662.348-2.478.162-.876-.198-1.698-.798-2.01-1.668-.21.192-.384.432-.612.612a4.768 4.768 0 0 1-2.826 1.158c-.684.06-1.416-.012-2.028-.354a2.373 2.373 0 0 1-1.056-1.248c-.234-.606-.24-1.29-.114-1.92A5.697 5.697 0 0 1 76.92 14.4a5.168 5.168 0 0 1-2.31.378c-.21 1.314-.618 2.622-1.416 3.702-.648.882-1.602 1.548-2.682 1.758-.672.132-1.41.162-2.04-.15-.462-.21-.828-.582-1.104-.996l-.042-.006c-.588.564-1.326.996-2.13 1.158-.828.156-1.728.138-2.478-.282-.672-.348-1.164-.96-1.518-1.614-.126.096-.21.24-.318.354-.696.78-1.674 1.272-2.688 1.482a7.67 7.67 0 0 1-2.4.096c-1.278-.168-2.508-.84-3.222-1.932-.042-.102-.126 0-.144.054-.498.84-1.284 1.536-2.238 1.806-.624.168-1.314.192-1.914-.072a2.587 2.587 0 0 1-1.128-.93c-.036-.048-.066-.156-.144-.102-.642.618-1.47 1.062-2.364 1.182-.606.078-1.248.078-1.83-.15-.768-.27-1.386-.87-1.782-1.572-.042-.072-.078-.156-.144-.204-.612.918-1.578 1.614-2.664 1.854-.882.192-1.842.168-2.682-.192-.702-.3-1.29-.906-1.494-1.65-.108.048-.174.15-.264.222-.714.6-1.662.846-2.574.834-.174.012-.36-.042-.51.054-1.068.642-2.346.834-3.576.846-.576.012-1.182.012-1.704-.27a1.333 1.333 0 0 1-.642-.798c-.132.054-.234.162-.354.24-.672.462-1.458.786-2.28.828a2.536 2.536 0 0 1-2.01-.738 2.538 2.538 0 0 1-.744-1.824c.006-1.164.18-2.322.168-3.486.012-.414.06-.882-.204-1.236-.21-.294-.582-.408-.93-.408-.654 0-1.344.198-1.806.672-.408.39-.606.954-.636 1.506-.03 1.206.042 2.406.072 3.606 0 .3.036.606-.072.894a1.243 1.243 0 0 1-1.218.834c-.642.018-1.218-.546-1.236-1.188-.006-.462.012-.924.024-1.38-.066.054-.09.144-.132.216-.366.744-.804 1.512-1.53 1.956-.87.54-2.004.546-2.928.15-.108-.042-.222-.132-.336-.066-1.086.456-2.226.84-3.408.876-.792 0-1.62-.192-2.244-.708-.618-.486-1.014-1.206-1.26-1.944-.12-.36-.42-.636-.534-1.002-.162-.498-.156-1.08.132-1.53.18-.288.516-.444.846-.456.36-.024.774.012 1.032.288.3.318.33.804.258 1.218.264.258.81-.006 1.05.348.282.396.258.996-.066 1.356-.216.228-.546.174-.822.162.198.594.846.882 1.434.894.864.012 1.692-.396 2.322-.966-.54-.576-.936-1.272-1.26-1.986-.624-1.404-.984-2.916-1.152-4.44-.126-1.356-.114-2.76.3-4.068.258-.804.75-1.602 1.536-1.986zm.738 2.412c-.288.276-.402.678-.492 1.056-.174.906-.12 1.842-.024 2.754a15.12 15.12 0 0 0 .708 3.126c.21.582.444 1.164.792 1.68.144-.258.24-.54.342-.822.48-1.47.582-3.036.6-4.578a6.56 6.56 0 0 0-.294-2.154c-.132-.396-.3-.81-.636-1.086-.276-.234-.738-.24-.996.024zm65.082 3.456c.126.414.474.756.882.9.066-.336.144-.678.114-1.02-.018-.264-.24-.54-.522-.528-.324-.024-.582.348-.474.648zm-29.268 1.824c-.462.744-.522 1.656-.462 2.502.066.594.264 1.224.762 1.596.384.294.9.33 1.362.258.468-.066.924-.27 1.242-.618.39-.414.576-.984.576-1.548.018-.93.072-1.86.084-2.79-.588-.294-1.254-.372-1.902-.342-.66.036-1.308.378-1.662.942zm20.4-.132c-.45.594-.564 1.362-.582 2.088-.006.618.084 1.278.45 1.8.246.354.648.588 1.08.624.594.042 1.23-.09 1.698-.486.492-.414.738-1.062.738-1.698.018-.936.084-1.872.066-2.808-.576-.276-1.218-.354-1.848-.336-.612.03-1.236.306-1.602.816zm-36.102.84a9.986 9.986 0 0 1-.954 2.55c-.066.138-.162.264-.21.408.762-.012 1.524.078 2.274.204.102.012.204.054.312.024.126-.486.09-1.02-.126-1.47-.288-.6-.78-1.068-1.164-1.602-.036-.048-.066-.114-.132-.114zM2.148 15.954c.156.234.432.354.672.486.006-.276-.138-.588-.426-.666-.108-.066-.318.036-.246.18z" id="Shape" stroke="#00A870" fill="#00A870"/></g></g></g></g></g></g></svg>