<svg width="111" height="29" viewBox="0 0 111 29" xmlns="http://www.w3.org/2000/svg"><title>Intercom</title><g id="Components-Design" fill="none" fill-rule="evenodd"><g id="Testimonials" transform="translate(-75 -144)" fill-rule="nonzero" fill="#1F8DED"><g id="1" transform="translate(45 109)"><g id="Group-2"><g id="Intercom" transform="translate(30 35)"><g id="Layer_1"><path d="M37.727 18.342V10.12a.918.918 0 0 1 1.835 0v8.222a.918.918 0 0 1-.918.917.939.939 0 0 1-.917-.917zm10.5.348l-3.985-6.357v6.009a.918.918 0 0 1-1.834 0v-7.97c0-.663.537-1.233 1.233-1.233h.063c.411 0 .822.222 1.044.57L48.7 15.97v-5.914a.918.918 0 0 1 1.834 0v7.97c0 .664-.538 1.233-1.233 1.233-.443 0-.854-.19-1.076-.57zm8.696-7.78v7.527a.85.85 0 0 1-.854.854h-.126a.85.85 0 0 1-.854-.854V10.91H52.97a.85.85 0 0 1-.854-.854.85.85 0 0 1 .854-.853h6.104a.85.85 0 0 1 .853.853.85.85 0 0 1-.853.854h-2.15zm4.46 7.527V9.993c0-.443.379-.822.821-.822h5.534c.443 0 .823.38.823.822 0 .443-.38.822-.823.822h-4.522v2.34h3.89c.443 0 .822.38.822.823 0 .443-.38.822-.822.822h-3.89v2.751h4.522c.443 0 .823.38.823.823 0 .442-.38.822-.823.822h-5.534c-.442.063-.822-.285-.822-.76zm14.926.284l-1.455-3.257h-2.245v2.91a.918.918 0 0 1-.918.917h-.031a.918.918 0 0 1-.917-.917V10.12c0-.506.41-.917.917-.917h3.352c2.403 0 3.51 1.518 3.51 3.13 0 1.36-.727 2.404-1.834 2.815l1.265 2.846c.253.6-.158 1.265-.822 1.265-.348 0-.696-.19-.822-.538zm-1.265-7.937H72.64v3.004h2.435c1.044 0 1.645-.538 1.645-1.486-.032-.79-.633-1.518-1.676-1.518zm12.206 7.463a4.097 4.097 0 0 1-2.877 1.202c-1.076 0-2.088-.348-2.847-1.139-1.106-1.107-1.264-2.435-1.264-4.08 0-1.644.158-3.004 1.264-4.079.76-.759 1.771-1.138 2.847-1.138 1.075 0 2.118.41 2.877 1.17.253.285.475.57.633.917.285.6-.158 1.265-.822 1.265-.38 0-.696-.221-.854-.57-.063-.189-.19-.347-.316-.505-.317-.411-.886-.633-1.518-.633-.57 0-1.139.253-1.55.664-.696.728-.696 1.961-.696 2.91 0 .917 0 2.182.696 2.91.411.41.98.663 1.55.663.632 0 1.201-.221 1.518-.632.126-.158.253-.348.316-.538.126-.348.474-.569.854-.569.664 0 1.107.664.822 1.265-.158.348-.38.664-.633.917zm9.835.063c-.759.76-1.834 1.139-2.909 1.139-1.075 0-2.119-.38-2.91-1.139-1.106-1.107-1.264-2.435-1.264-4.08 0-1.644.19-3.004 1.265-4.079.759-.759 1.834-1.138 2.91-1.138 1.074 0 2.118.38 2.908 1.138 1.107 1.107 1.265 2.435 1.265 4.08.032 1.644-.158 3.004-1.265 4.08zm-1.296-6.957a2.31 2.31 0 0 0-1.581-.664c-.57 0-1.202.253-1.582.664-.695.727-.727 1.96-.727 2.91 0 .916.032 2.15.727 2.877a2.31 2.31 0 0 0 1.582.664c.569 0 1.201-.253 1.58-.664.697-.727.728-1.96.728-2.878 0-.948-.031-2.213-.727-2.909zm13.219 7.02V12.08l-2.372 6.42c-.127.38-.506.632-.917.632a.993.993 0 0 1-.917-.632l-2.372-6.515v6.389a.884.884 0 0 1-.886.885.884.884 0 0 1-.885-.885v-7.812c0-.759.632-1.391 1.391-1.391h.127c.57 0 1.107.348 1.297.917l2.308 6.262 2.34-6.262c.19-.538.728-.917 1.297-.917.759 0 1.391.632 1.391 1.391v7.812a.884.884 0 0 1-.885.885c-.538 0-.917-.38-.917-.885zM24.92 0H3.574C1.58 0 0 1.581 0 3.542v21.346a3.55 3.55 0 0 0 3.574 3.574H24.92a3.536 3.536 0 0 0 3.542-3.542V3.574C28.462 1.58 26.88 0 24.92 0zm-6.894 5.218c0-.538.41-.949.948-.949s.95.411.95.949v12.681a.932.932 0 0 1-.95.949.932.932 0 0 1-.948-.949V5.218zm-4.744-.474c0-.538.411-.95.949-.95.537 0 .948.412.948.95V18.5a.932.932 0 0 1-.948.949.932.932 0 0 1-.949-.949V4.744zm-4.744.474c0-.538.412-.949.95-.949.537 0 .948.411.948.949v12.681a.932.932 0 0 1-.949.949.932.932 0 0 1-.949-.949V5.218zM3.795 7.115c0-.537.411-.948.949-.948.537 0 .948.41.948.948v8.539a.932.932 0 0 1-.948.949.932.932 0 0 1-.95-.95V7.116zM24.35 21.6c-.158.127-3.668 3.068-10.12 3.068-6.45 0-9.96-2.941-10.119-3.068a.92.92 0 0 1-.095-1.328.92.92 0 0 1 1.328-.095c.064 0 3.194 2.593 8.887 2.593 5.755 0 8.854-2.593 8.854-2.625.412-.347 1.012-.284 1.329.095a.954.954 0 0 1-.064 1.36zm.317-5.945a.932.932 0 0 1-.95.949.932.932 0 0 1-.948-.95V7.116c0-.537.411-.948.949-.948s.949.41.949.948v8.539z" id="Shape"/></g></g></g></g></g></g></svg>