<svg width="30" height="29" viewBox="0 0 30 29" xmlns="http://www.w3.org/2000/svg"><title>invision</title><g id="Components-Design" fill="none" fill-rule="evenodd"><g id="Clients-&amp;-Partners" transform="translate(-565 -745)" fill-rule="nonzero"><g id="02-appear-in-out" transform="translate(365 567)"><g id="Group-2" transform="translate(102 178)"><g id="invision" transform="translate(98)"><g id="Group"><path d="M27.28 0H2.72C1.218 0 0 1.177 0 2.629V26.37C0 27.823 1.218 29 2.72 29h24.56c1.502 0 2.72-1.177 2.72-2.629V2.63C30 1.177 28.782 0 27.28 0" id="Shape" fill="#FF2A63"/><path d="M10.026 9.124c.997 0 1.833-.755 1.833-1.746 0-.99-.836-1.745-1.833-1.745s-1.832.756-1.832 1.745c0 .99.835 1.746 1.832 1.746m-3.8 9.348a5.806 5.806 0 0 0-.162 1.312c0 1.537.863 2.557 2.695 2.557 1.52 0 2.753-.872 3.64-2.28l-.542 2.1h3.018l1.725-6.687c.431-1.694 1.267-2.573 2.534-2.573.997 0 1.617.6 1.617 1.59 0 .286-.027.599-.135.937l-.89 3.075a4.477 4.477 0 0 0-.188 1.302c0 1.46.89 2.527 2.749 2.527 1.59 0 2.856-.99 3.557-3.36l-1.186-.443c-.592 1.589-1.105 1.876-1.509 1.876-.404 0-.62-.26-.62-.781 0-.235.054-.495.135-.808l.863-2.995a6.402 6.402 0 0 0 .296-1.9c0-2.24-1.402-3.41-3.1-3.41-1.59 0-3.207 1.386-4.015 2.846l.593-2.62h-4.608l-.647 2.307h2.156l-1.328 5.139c-1.043 2.24-2.958 2.277-3.198 2.225-.395-.086-.647-.231-.647-.727 0-.286.054-.697.188-1.192l2.022-7.751h-5.12l-.648 2.306h2.13l-1.375 5.428" fill="#FFF"/></g></g></g></g></g></g></svg>