<svg width="270" height="54" viewBox="0 0 270 54" xmlns="http://www.w3.org/2000/svg"><title>Group 8</title><g id="Components-Design" fill="none" fill-rule="evenodd"><g id="Posts" transform="translate(-82 -2466)" fill-rule="nonzero"><g id="5" transform="translate(0 2332)"><g id="Group-7" transform="translate(21 76)"><g id="Group-8" transform="translate(61 58)"><g id="mailchimp-freddie-wink-company-brand-logo-38cacba12c82e863"><g id="Group" fill="#664F44"><path d="M4.984 38.372v.021-.021zM3.68 36.316v-.022.022zm45.089-.36c-.021-.086-.042-.17-.042-.255-.021-.043-.021-.106-.042-.149-.043-.106-.085-.233-.127-.339a1.983 1.983 0 0 0-.441-.593c-.19-.17-.4-.297-.61-.36a1.655 1.655 0 0 0-.61-.128h-.147c.105-1.039-.274-1.78-.505-2.12.021-.021.021-.042.042-.042.21-.276.4-.53.547-.785l.02-.042c.127-.233.19-.445.232-.657.021-.17.042-.34.042-.467V29.807c0-.063-.02-.127-.02-.19a2.875 2.875 0 0 0-.421-1.124 2.227 2.227 0 0 0-.505-.594c-.21-.19-.463-.339-.757-.466-.021 0-.042-.021-.063-.021-.652-.764-1.367-1.315-1.998-1.739-.316-.212-.631-.381-.883-.53a9.896 9.896 0 0 0-.59-.318 5.734 5.734 0 0 0-.567-.275c-.21-.106-.379-.17-.484-.234-.084-.042-.126-.084-.126-.084s-.02-.022-.02-.064a1.83 1.83 0 0 1-.064-.276c-.042-.212-.063-.53-.084-.954-.042-.678-.084-1.59-.168-2.84a9.161 9.161 0 0 0-.126-1.124 7.46 7.46 0 0 0-.4-1.505c-.042-.106-.084-.212-.126-.297-.042-.064-.063-.127-.084-.17-.042-.063-.063-.127-.106-.19a.346.346 0 0 1-.063-.128c-.063-.084-.126-.19-.189-.296l-.02-.022-.043-.042-.021-.042c-.126-.17-.273-.318-.42-.467-.106-.275-.253-.678-.505-1.145a6.982 6.982 0 0 0-.842-1.272 3.987 3.987 0 0 0-.42-.424l.042-.042c.063-.064 1.325-1.802 2.23-3.964 1.682-4.028.693-6.233-.443-7.378l-.042-.042-.042-.022C37.665.466 36.298 0 34.7 0c-3.323 0-6.835 2.099-7.76 2.671L24.92.933a3.464 3.464 0 0 0-.567-.403A3.544 3.544 0 0 0 23.7.254a4.492 4.492 0 0 0-1.43-.212c-1.01 0-2.103.255-3.28.721-1.746.7-3.66 1.866-5.637 3.413-1.977 1.548-3.975 3.498-5.888 5.746-2.335 2.756-4.185 5.575-5.468 8.204C1.367 19.44.862 20.691.526 21.878.189 23.044 0 24.147 0 25.143c0 .721.105 1.4.315 1.993.106.254.21.509.358.742.19.297.42.572.673.806L3.449 30.4l.231.19v.022c-.02.042-.042.085-.042.127l-.063.19c-.02.043-.02.086-.042.128l-.063.19c-.021.043-.021.086-.042.128l-.063.19c-.021.043-.021.086-.042.128-.021.064-.021.127-.042.212 0 .042-.021.085-.021.127-.021.064-.021.149-.042.212v.064c0 .021 0 .042-.021.085 0 .063-.021.148-.021.212 0 .042-.021.084-.021.127v.89c0 .085 0 .191.02.276v.233c0 .064.022.127.022.19 0 .043 0 .086.02.128v.064c0 .042.022.084.022.127 0 .042.02.085.02.127 0 .042.022.064.022.106 0 .021.02.042.02.064 0 .042.022.084.022.127a.66.66 0 0 0 .042.17c0 .02 0 .042.02.063.022.042.022.106.043.148.02.043.02.085.042.149 0 .021.021.042.021.063 0 .022.021.064.021.085l.021.043c.021.042.021.084.063.148 0 .021.021.021.021.042.021.043.021.085.042.106l.021.043c0 .021.021.021.021.042l.021.043.021.042.021.021c0 .021.021.021.021.043l.021.042c.021.042.021.064.042.085.022.042.043.085.064.148v.021c0 .022.02.022.02.043a.346.346 0 0 0 .064.127c.02.042.042.085.084.148l.02.022c.022.042.043.063.064.106l.021.02c0 .022.021.043.042.064.021.022.021.043.042.085l.021.021a.161.161 0 0 1 .042.085c.021.021.021.043.042.064a.444.444 0 0 0 .084.127l.021.021c.021.021.021.043.042.064.021.021.043.042.043.063.02.022.042.064.084.128l.02.02c.022.022.022.043.043.064.02.022.042.064.063.085.02.021.042.064.084.106l.021.021.063.064c.021.021.042.064.063.085.021.021.042.063.084.106l.063.063.084.085.085.085.063.064.084.084.063.064.02.021c.043.043.085.064.127.106l.042.043.063.063c.042.043.084.085.126.106.021.021.043.021.064.043 0 0 .02.02.063.042l.02.021c.064.043.106.085.169.127h.02c.022 0 .043.022.064.043.063.042.147.106.21.148l.042.021.021.022.042.02c.064.043.127.064.169.107h.02a.065.065 0 0 0 .043.021h.02c.022 0 .043.021.043.021.042.021.105.064.147.085l.042.021.042.021.021.022c.042.02.105.042.147.084.021.022.043.022.085.043l.042.021.02.021h.022c.084.043.147.064.231.106l.042.021c.105.043.19.064.273.106h.022l.042.022c.042.02.084.02.126.042.02 0 .042.021.063.021.02 0 .063.021.084.021h.042c.042.022.084.022.126.043h.021c.042.021.105.021.147.042h.064c.02 0 .042 0 .063.021h.02c.064.022.148.022.21.043h.022c.105.021.21.042.315.042h.021c.106.021.19.021.274.021h.084c.084 0 .168.022.273.022h.253c.02.02.02.042.02.063.19.382.4.742.61 1.124 3.323 6.572 10.81 11.066 18.717 11.066 7.908 0 15.584-6.254 18.086-13.737.105-.297.21-.573.295-.848.294-.382.504-.785.63-1.188.169-.318.19-.805.106-1.187zm-3.218 12.55a.852.852 0 0 1-.63.254.867.867 0 0 1-.883-.89c-.001-.255.083-.488.272-.658.169-.17.379-.233.61-.233a.867.867 0 0 1 .883.89.73.73 0 0 1-.252.637zm-1.136-1.166a.692.692 0 0 0-.21.508c0 .212.063.382.21.53a.695.695 0 0 0 .526.212c.21 0 .379-.063.526-.212a.706.706 0 0 0 .21-.53.66.66 0 0 0-.21-.508.714.714 0 0 0-.526-.234.804.804 0 0 0-.526.234zm.8.975a.402.402 0 0 1-.253.085.49.49 0 0 1-.357-.149.513.513 0 0 1-.147-.381c0-.149.042-.276.126-.382.084-.106.21-.148.357-.148.084 0 .168.02.253.063.105.064.189.17.21.34h-.231c-.021-.064-.043-.128-.085-.149-.042-.021-.084-.042-.126-.042a.19.19 0 0 0-.168.084.455.455 0 0 0-.063.255c0 .106.02.19.063.233.042.042.105.085.168.085a.302.302 0 0 0 .147-.043l.064-.127h.21a.415.415 0 0 1-.168.276z" id="Shape"/></g><path d="M43.81 23.651s0-.314-.19-.586l-.043-.042-.021-.02-.064-.063c-.042-.042-.105-.063-.169-.105-.042-.021-.063-.021-.106-.042a.92.92 0 0 0-.36-.063c-.105 0-.21 0-.338.021-.042 0-.106.021-.148.021h-.021s0 .021.021.042c0 .02.021.042.042.084 0 .02.022.02.022.042.02.062.063.146.084.25 0 0 0 .022-.02.063v.021c-.043.147-.17.503-.487.984-.064.084-.106.168-.19.251-.91 1.193-3.005 3.014-7.68 4.458-1.586.419-3.088.628-4.379.628-1.925 0-3.405-.418-4.167-1.15l-.19-.19c-.043-.041-.085-.104-.127-.146-.021-.02-.021-.042-.042-.062a3.185 3.185 0 0 1-.593-1.507c-.063-.628.043-1.277.339-1.78.232-.418.55-.732.973-.92.211-.084.423-.147.656-.168h.93c.91 0 2.348-.042 4.062-.356 3.11-.586 7.129-2.072 10.471-5.881v-.021c-.021-.272-.127-.774-.529-1.13a.761.761 0 0 0-.254-.168c-.042-.02-.105-.063-.169-.083-.063-.021-.106-.042-.17-.063-.063-.042-.147-.063-.19-.105v-.02c-.02-.043-.063-.064-.084-.105-1.164-1.34-2.602-2.03-3.194-2.345-.275-.146-.445-.209-.445-.209-1.248-.565-1.438-.774-1.586-2.679-.042-.69-.085-1.59-.17-2.826 0-.167-.02-.314-.042-.46 0-.042 0-.063-.02-.105a16.365 16.365 0 0 0-.064-.397v-.084a6.746 6.746 0 0 0-.064-.293c0-.042-.02-.084-.02-.126a1.19 1.19 0 0 0-.086-.293c-.02-.042-.02-.104-.042-.146a1.015 1.015 0 0 0-.063-.147c-.021-.042-.043-.104-.064-.146-.02-.063-.042-.105-.063-.168 0-.02-.021-.042-.021-.063 0-.02-.022-.041-.022-.062V5.17l-.02-.063-.064-.126v-.02l-.021-.042-.021-.042a.752.752 0 0 0-.149-.21l-.042-.041c-.063-.063-.106-.126-.17-.189l-.02-.02-.021-.022c-.043-.042-.085-.083-.106-.125l-.042-.042c-.043-.042-.106-.084-.149-.126v-.104l-.02-.042v-.021c-.022-.084-.064-.168-.106-.293-.022-.021-.022-.063-.043-.084v-.02c-.02-.043-.02-.064-.042-.105-.042-.084-.064-.168-.106-.252-.021-.02-.021-.062-.042-.083-.021-.063-.064-.126-.085-.189-.02-.042-.042-.062-.063-.104a.455.455 0 0 0-.106-.168l-.063-.125c-.043-.063-.064-.126-.106-.168a.438.438 0 0 0-.085-.125 1.162 1.162 0 0 0-.127-.168c-.02-.042-.063-.084-.084-.104-.043-.063-.106-.126-.148-.189l-.085-.084c-.021-.02-.042-.041-.085-.062a1.364 1.364 0 0 0-.19-.168l-.042-.02c-.085-.064-.17-.147-.275-.19l-.022-.02a.443.443 0 0 1-.126-.084h-.022a.463.463 0 0 1-.105-.063h-.022c-.042-.02-.105-.041-.211-.083-.042 0-.064-.021-.106-.021-.19-.042-.444-.105-.74-.147h-.064a5.002 5.002 0 0 0-.804-.063h-.507c-.233 0-.444.021-.677.042h-.021a5.01 5.01 0 0 0-.846.189c.042-.126.211-.251.38-.377.212-.147.423-.272.423-.272-.127.02-.253.063-.38.105-.043.02-.085.02-.127.041-.021 0-.064.021-.085.021h-.021c-.021 0-.042.021-.064.021-.634.21-1.226.524-1.565.712l-.127.063-.021.02c-.042 0-.063.022-.106.022.19-.503.55-.796.825-.984.043-.021.085-.063.127-.084.021 0 .021-.02.042-.02.043-.022.064-.043.106-.043.064-.02.106-.042.106-.042-.021 0-.063.021-.085.021-.02 0-.042 0-.084.021-.043 0-.085.021-.106.021-.021 0-.042 0-.063.021a4.97 4.97 0 0 0-1.84.858c-.36.251-.657.524-.91.796-.064.02-.149.042-.233.083-.762.272-1.65.586-2.56 1.005-.338.147-.677.314-1.015.481-.275.126-.529.273-.804.419-.19.105-.38.21-.571.335-1.375.816-2.708 1.863-3.766 3.14a.376.376 0 0 0-.105.146c-.085.126-.17.23-.275.356-.043.042-.064.104-.106.146l-.127.189c-.19.293-.38.586-.529.9-.127.23-.233.46-.338.711l-.021.021a9.61 9.61 0 0 0-.53 1.612c-.063.293-.126.586-.169.879-.02.084-.02.167-.042.23v.042c-.042.335-.063.67-.063 1.005v.209c0 .167 0 .335.02.523 0 .168.022.314.022.482v.041c0 .084.021.168.021.252 0 .083.021.188.042.272v.063c.022.188.043.376.085.565v.02c.042.189.064.377.106.566.021.083.042.167.042.23 0 .02 0 .042.021.063 0 .042.021.083.043.125.042.21.105.419.169.65a.606.606 0 0 1 .042.187c.064.189.106.377.17.566 0 0-.064-.252-.085-.628v-.272c0-.21.02-.46.063-.712.021-.063.021-.126.043-.188 0-.021.02-.063.02-.084.043-.126.064-.23.128-.356.02.084.042.147.084.23v.063c0 .042.021.105.021.147.022.125.022.25.043.397l.063.482c.106.711.275 1.549.529 2.26 0 0-.127-1.318.063-1.507 0 0 .699 2.386 1.185 3.265.064.105.127.21.17.251l-.043-.25-.233-1.361v-.147c.339.524.72 1.047 1.164 1.591.127.147.232.293.36.46-.614.67-1.122 1.591-1.46 2.638-.043.167-.106.335-.148.523-.021.105-.043.21-.064.293 0 .042-.02.063-.02.105-.022.062-.022.146-.043.209 0 .042-.021.084-.021.105 0 .062-.022.146-.022.209 0 .042 0 .063-.02.105 0 .104-.022.209-.022.313 0 .105 0 .21-.021.314v.46c0 .085 0 .147.021.231v.105c0 .104.021.23.042.335v.02c.022.084.022.168.043.252.02.083.02.167.042.272v.063c.021.104.042.209.085.314 0 .041.02.062.02.104.022.063.043.147.064.23.021.042.021.084.043.126.02.063.042.126.063.21.021.041.021.083.042.125.022.063.043.126.085.188.021.042.042.084.042.126.021.063.064.125.085.188l.063.126c.022.063.064.125.106.21l.064.125c.042.083.084.146.127.23.02.042.042.063.063.105.127.209.254.418.402.648.021.042.042.063.063.105.064.084.106.147.17.23.02.042.063.084.084.126.043.063.106.125.17.21.042.041.063.083.105.125.064.063.106.125.17.188.042.042.084.084.105.126.064.063.127.125.17.188l.126.126.19.188.128.126c.063.062.148.146.232.209l.106.105c.106.104.233.188.36.293 0 0-.085-.084-.19-.23-.022-.022-.043-.063-.064-.084-.021-.042-.042-.063-.064-.105a.438.438 0 0 0-.084-.126 3.743 3.743 0 0 1-.487-1.465c.064.084.148.147.212.21.084.146.211.314.338.502.043.063.085.126.148.188.19.272.423.565.656.88.296.355.614.711.93 1.025 0 0-.401-.628-.57-1.047a1.04 1.04 0 0 1-.064-.293c.021.021.064.042.085.063.021.021.063.042.085.063.063.063.126.147.211.23l.042.042.127.126.17.167c.528.523 1.205 1.172 1.692 1.528.17.126.296.188.38.23l-.76-1.004c1.522.941 7.445 1.674 12.903-.628a18.63 18.63 0 0 0 1.946-.963c.38-.23.762-.46 1.142-.733l.064-.041c.254-.189.508-.377.761-.587.19-.146.381-.313.572-.48.317-.273.613-.566.91-.88.02-.02.041-.042.041-.063.297-.314.55-.649.804-.963.318-.44.614-.858.868-1.297l.02-.021a2.28 2.28 0 0 0 .17-.314l.021-.021c.021-.042.042-.063.064-.105.084-.146.169-.293.232-.46.021-.042.043-.063.043-.105.042-.084.063-.167.105-.23.022-.063.064-.126.085-.188.021-.063.063-.126.085-.189.042-.125.105-.23.148-.356a.3.3 0 0 0 .042-.146c.042-.084.063-.189.106-.272.02-.042.02-.084.042-.126l.021-.042c.043-.104.085-.23.106-.335v-.02c.17-.189.275-.377.38-.545.022-.02.022-.042.043-.062.19-.46.233-.796.212-1.089m-34.29.126c0-.021-.022-.042-.022-.084-.106-.356-.211-.712-.296-1.088 0-.021-.021-.042-.021-.084-.064.02-.127.126-.17.23-.02.042-.042.105-.063.147-.148.376-.254.9-.254.9 0-.168 0-.335-.02-.524v-.669c0-.21.02-.398.02-.586V21.747c0-.147.021-.294.021-.44 0-.126.022-.251.022-.356v-.523c0-.042 0-.084.02-.105v-.251l-.042.042c-.02.042-.063.063-.084.105l-.021.041c-.043.042-.064.105-.085.147l-.021.02c-.042.064-.064.126-.106.19l-.021.02c0 .021-.021.042-.021.042a.295.295 0 0 0-.043.126v.042l-.063.188c-.042.188-.085.356-.106.481 0 .042-.02.105-.02.147-.022.084-.022.167-.022.188v.021-.188c0-.105-.021-.23-.021-.335v-1.026c0-.063.02-.146.02-.209v-.021c0-.042 0-.105.022-.146v-.021c.021-.105.021-.21.042-.314V19.507c.022-.167.064-.335.106-.502v-.021c.021-.147.064-.272.106-.419v-.02c.021-.064.042-.126.042-.168.021-.084.043-.168.064-.272v-.021c0-.021.02-.084.042-.147 0-.02.021-.063.021-.084.021-.041.021-.104.042-.146l.022-.042.275-.69c.02-.022.02-.063.042-.084v-.021l.021-.042c.021-.084.064-.147.085-.23l.127-.314c.084-.21.148-.377.19-.482a.875.875 0 0 1 .042-.104c-.02 0-.127-.063-.317-.147a7.43 7.43 0 0 0-.91-.356c-.127-.042-.253-.083-.38-.104l-.508-.126c-.042 0-.085-.02-.127-.02l-.444-.064c-.106-.02-.212-.02-.318-.02-.084 0-.169 0-.253-.021H5.88c-.106 0-.233.02-.339.02a.47.47 0 0 0-.169.021c-.233.042-.486.084-.698.147l-.042.02a5.785 5.785 0 0 0-1.185.461c-.127.063-.254.126-.36.21-.042.02-.063.041-.105.062-.043.021-.085.042-.127.084a6.35 6.35 0 0 0-.994.837l-.022.021a5.426 5.426 0 0 0-.677.88c-.063.083-.105.188-.169.271-.063.105-.127.21-.169.335-.106.21-.19.44-.275.65-.021.083-.063.167-.085.23 0 .02 0 .02-.02.041a6.925 6.925 0 0 0-.255 1.633v.377c0 .083.022.167.022.272 0 .104.02.209.042.335v.041c.021.084.021.168.042.252v.041c0 .021 0 .042.021.063.021.063.021.126.043.189v.02c0 .042.02.063.02.105.022.063.022.126.043.168.021.041.021.083.042.125.022.063.043.105.064.168a.295.295 0 0 1 .042.125l.021.021.021.042.022.042.02.042.064.125c.021.042.043.084.064.147l.063.125.212.063c.02.042.042.063.042.084.021.042.042.084.085.125l.063.126c.021.021.021.042.042.063.022.02.022.042.043.063a.457.457 0 0 0 .063.104c.021.042.064.084.085.126.02.042.042.063.063.105.043.041.064.083.106.125.021.021.042.063.085.084a.556.556 0 0 1 .105.125c.022.021.043.063.085.084l.127.126c.021.02.042.042.063.083l.127.126.064.063c.042.042.106.084.148.125l.063.063c.043.042.106.084.148.126.022.02.043.042.064.042.063.041.106.083.17.125.02.021.041.021.063.042.063.042.126.084.169.126.02.02.042.02.063.041.064.042.127.084.19.105.022 0 .043.021.064.021.064.042.127.063.19.105l.043.02c.063.043.148.063.211.105l.043.021a.763.763 0 0 0 .232.084l.043.02c.084.022.148.064.232.085l.043.02c.084.021.169.042.253.084h.022l.253.063h.022l.253.063h.022c.042 0 .084.02.127.02.042 0 .084.022.148.022h.02c.085.02.191.02.276.02.084 0 .19.022.296.022.296 0 .592 0 .888-.042.064 0 .148-.021.212-.021.106-.021.19-.042.296-.063.127-.021.275-.063.402-.105.127-.042.233-.062.36-.104.19-.063.36-.126.528-.21.53-.23.974-.481 1.227-.732 0 0-.296-.796-.55-1.612.022 0 0-.084-.02-.167" transform="translate(4 12)" fill="#90694C"/><path d="M39.81 20.267s0-.32-.191-.598l-.042-.042-.021-.022-.064-.064c-.042-.042-.106-.064-.17-.106-.042-.022-.063-.022-.105-.043a.906.906 0 0 0-.36-.064c-.106 0-.211 0-.338.021-.043 0-.106.022-.149.022h-.02s0 .021.02.042c0 .022.022.043.043.086 0 .021.02.021.02.042.022.064.064.15.086.256 0 0 0 .022-.022.064v.022c-.042.149-.169.512-.486 1.002-.064.086-.106.171-.19.256-.91 1.216-3.006 3.072-7.683 4.544-1.588.427-3.09.64-4.381.64-1.926 0-3.408-.426-4.17-1.173l-.19-.192c-.043-.043-.085-.107-.127-.15-.021-.02-.021-.042-.042-.063a3.281 3.281 0 0 1-.593-1.536c-.064-.64.042-1.302.339-1.814.232-.426.55-.746.973-.938a2.29 2.29 0 0 1 .656-.171h.931c.91 0 2.35-.043 4.064-.363 3.111-.597 7.132-2.112 10.476-5.994v-.022c-.021-.277-.127-.789-.529-1.152a.76.76 0 0 0-.254-.17c-.042-.022-.106-.064-.17-.086-.063-.021-.105-.042-.169-.064-.063-.042-.148-.064-.19-.106v-.022c-.021-.042-.064-.064-.085-.106-1.164-1.366-2.603-2.07-3.196-2.39-.275-.149-.444-.213-.444-.213-1.249-.576-1.44-.79-1.587-2.73-.043-.705-.085-1.622-.17-2.88 0-.171-.02-.32-.042-.47 0-.043 0-.064-.021-.107-.021-.149-.042-.277-.064-.405v-.085c-.02-.107-.042-.214-.063-.299 0-.043-.021-.085-.021-.128-.021-.107-.043-.213-.085-.299-.021-.042-.021-.106-.042-.149a1.044 1.044 0 0 0-.064-.15c-.02-.042-.042-.106-.063-.149-.021-.064-.043-.106-.064-.17 0-.022-.02-.043-.02-.064 0-.022-.022-.043-.022-.064v-.022l-.021-.064-.064-.128v-.021l-.02-.043-.022-.042a.766.766 0 0 0-.148-.214l-.042-.042c-.064-.064-.106-.128-.17-.192l-.02-.022L30.18.64a.565.565 0 0 1-.106-.128l-.042-.043c-.043-.042-.106-.085-.148-.128-.064-.042-.127-.106-.19-.149a.63.63 0 0 0-.213-.085c-.02 0-.042-.022-.063-.022-.042-.021-.085-.021-.127-.042-.021 0-.042 0-.085-.022-.042 0-.084-.021-.127-.021h-.444c-.042 0-.064.021-.106.021-.021 0-.042 0-.063.022l-.043.021c-.02 0-.042.021-.063.021-.021 0-.043.022-.064.022a.3.3 0 0 1-.127.042l-.042.022a2.519 2.519 0 0 0-.339.17l-.042.022c-.042.021-.085.064-.127.085l-.042.043c-.043.021-.085.064-.127.085l-.043.043a.462.462 0 0 0-.105.085l-.043.043c-.042.042-.084.064-.127.106l-.042.043c-.042.043-.085.085-.127.107l-.021.021c-.043.043-.106.085-.148.128-.085.085-.19.17-.275.256-.085.064-.17.15-.233.213l-.043.043c-.084.064-.169.15-.254.213l-.042.043-.254.192-.042.043c-.085.064-.17.128-.275.192l-.043.021c-.084.064-.19.107-.275.17l-.042.022c-.106.043-.19.107-.296.15h-.022c-.105.042-.211.085-.338.106-.19.043-.381.085-.572.107a4.891 4.891 0 0 1-.973.042c-.106 0-.212 0-.339-.021h-.127a11.94 11.94 0 0 1-.868-.085c-.127-.022-.253-.022-.36-.043l-.592-.064c-.042 0-.085 0-.127-.021h-.085c-.042 0-.084 0-.127-.022h-.275c-.084 0-.19 0-.275-.021h-.931c-.063 0-.127.021-.19.021h-.106c-.085 0-.148.022-.233.043h-.064c-.084.021-.19.043-.275.064-.02 0-.042.021-.084.021-.064.022-.127.022-.19.043h-.022c-.042 0-.064.021-.106.021l-.19.064c-.043.022-.064.022-.106.043-.064.021-.127.043-.19.085-.043.022-.064.022-.106.043-.064.021-.127.064-.19.085-.022.022-.064.022-.086.043-.105.043-.19.107-.296.17a6.55 6.55 0 0 0-1.799 2.091c-.148.278-.275.555-.402.832a5.137 5.137 0 0 0-.296.918c-.021.085-.043.192-.064.277-.042.15-.063.32-.084.47v.042c-.022.17-.043.363-.064.533-.021.192-.021.384-.021.555v.299c.021.277.042.533.106.81 0 .022 0 .043.021.064.021.064.021.128.042.214.043.192.085.384.148.554a.76.76 0 0 0 .085.192l.064.192c.19.47.444.875.72 1.259 1.057 1.408 2.602 2.133 3.682 2.475.423.128.867.234 1.312.32l-.042.042c-.085.022-.17.064-.254.107-.149.064-.318.128-.508.235-.212.106-.445.213-.678.362-.635.363-1.354.854-1.947 1.494-.084.085-.148.17-.233.234-.126.15-.232.299-.338.448-.021.022-.021.043-.042.043-.022.021-.043.043-.043.064l-.127.192c-.02.021-.02.043-.042.085-.042.086-.106.171-.148.278-.043.085-.085.192-.127.277-.318.747-.445 1.621-.233 2.624v-.235c0-.021 0-.064.021-.106 0-.043.021-.086.021-.107v-.021c0-.043.021-.086.021-.128v-.022c0-.042.022-.085.043-.128v-.021c.02-.043.02-.107.042-.15v-.042c.021-.043.042-.107.064-.17a1.31 1.31 0 0 1 .105-.257c.022-.021.022-.064.043-.085l.02-.021c.043-.064.064-.128.107-.192.02-.064.063-.107.106-.171.02-.021.02-.043.042-.043.021-.042.063-.085.085-.128.02-.021.02-.042.042-.042a.926.926 0 0 1 .127-.15s-.656 2.176-.064 3.776V22.784c0-.064 0-.128.022-.17v-.022c0-.064.02-.128.02-.192 0-.021 0-.043.022-.064v-.043c.021-.042.021-.106.042-.149.021-.064.043-.15.064-.213 0-.022.02-.043.02-.064a.867.867 0 0 1 .107-.192s0 .512.105 1.13c.022.086.022.192.043.299.021.064.021.128.042.192.021.427.085.853.19 1.301a9.88 9.88 0 0 0 .847 2.304s-.402-.917-.106-1.92c.043.086.106.171.148.256.064.278.17.683.318 1.11.17.725.804 2.901 2.476 4.266 0 0-.656-.661-.677-1.642.085.128.148.234.212.32.317.448.93 1.28 1.566 1.834 0 0-.55-.81-.487-1.024 0 0 1.693 1.664 2.18 1.771l-.74-.939-.022-.021c2.328 1.301 5.312 1.493 8.804.043a18.412 18.412 0 0 0 1.841-.918c.381-.234.762-.469 1.143-.746l.064-.043c.254-.192.508-.384.762-.597.19-.15.38-.32.571-.491.318-.277.614-.576.91-.896.021-.021.042-.043.042-.064.297-.32.55-.661.805-.981.317-.448.613-.875.867-1.323l.022-.021c.063-.107.127-.214.169-.32l.021-.022c.021-.042.042-.064.064-.106.084-.15.169-.299.232-.47.022-.042.043-.064.043-.106.042-.086.063-.171.106-.235.02-.064.063-.128.084-.192.021-.064.064-.128.085-.192.042-.128.106-.235.148-.363a.31.31 0 0 0 .042-.149c.043-.085.064-.192.106-.277.021-.043.021-.086.042-.128l.022-.043a2.11 2.11 0 0 0 .105-.341v-.022c.17-.192.276-.384.381-.554.022-.022.022-.043.043-.064.084-.384.127-.726.106-1.024M5.164 19.115c-.063.021-.127.128-.17.234-.02.043-.042.107-.063.15-.148.384-.254.917-.254.917 0-.17 0-.341-.02-.533V19.2c0-.213.02-.405.02-.597V18.325c0-.149.021-.298.021-.448 0-.128.022-.256.022-.362V16.98c0-.042 0-.085.02-.106v-.257l-.042.043c-.02.043-.063.064-.084.107l-.021.043c-.043.042-.064.106-.085.149l-.021.021c-.043.064-.064.128-.106.192l-.021.022c0 .021-.021.042-.021.042-.022.043-.043.086-.043.128v.043l-.063.192c-.043.192-.085.363-.106.49 0 .043-.021.107-.021.15-.021.085-.021.17-.021.192v.021-.191c0-.107-.022-.235-.022-.342V16.875c0-.064.022-.15.022-.214v-.021c0-.043 0-.107.02-.15v-.02c.022-.107.022-.214.043-.32v-.107a4.4 4.4 0 0 1 .106-.512v-.022c.021-.149.063-.277.106-.426v-.022a.664.664 0 0 0 .042-.17c.021-.086.042-.171.064-.278v-.021c0-.021.02-.085.042-.15 0-.02.021-.063.021-.085.021-.042.021-.106.042-.149l.022-.043c-.022-.021-.064-.021-.106-.042h-.021l-.043-.022c-.211-.064-.423-.128-.635-.149h-.042c-.148-.021-.275-.021-.423-.021-.085 0-.17 0-.254.021-.064 0-.148.021-.212.021l-.317.064c-.043 0-.064.022-.085.022-.042.021-.106.021-.148.042-.021 0-.042.022-.064.022-.042.021-.063.021-.105.042-.064.022-.127.064-.19.086-.022.021-.064.021-.086.042-.084.043-.169.086-.254.15a.292.292 0 0 0-.084.064c-.043.021-.085.042-.106.085l-.042.021c-.043.022-.085.064-.127.086-.043.021-.064.064-.106.085-.042.043-.085.064-.127.107l-.064.064c-.063.064-.127.128-.19.213-.021.043-.064.064-.085.107-.042.064-.106.128-.148.192l-.021.042c-.021.043-.042.086-.064.107-.02.021-.02.043-.042.085-.085.171-.17.342-.233.512 0 .022-.02.043-.02.086l-.064.256c0 .042-.022.064-.022.106a1.258 1.258 0 0 0-.042.278v.085c0 .064-.021.128-.021.213v.299c0 .107.021.213.021.32.021.085.021.17.042.256v.043c0 .042.022.085.043.128.042.17.106.32.17.469.041.107.105.235.168.341.106.192.254.384.381.555.297.363.678.64 1.1.853.234.107.488.192.763.256.254.064.508.086.783.086h.19c.085 0 .19-.022.276-.022.084-.021.169-.042.253-.042.043 0 .085-.022.149-.022.127-.021.232-.064.338-.106h.021l.127-.064c.149-.064.276-.128.403-.214l.02-.021c.043-.021.064-.043.106-.064-.105-.363-.211-.725-.296-1.11.127 0 .106-.042.106-.063" transform="translate(8 16)" fill="#FCE9CD"/><path d="M4.476 2.585a2.3 2.3 0 0 0-.51-.123c-.105-.021-.233-.021-.339-.021H3.5c-.573.02-1.04.164-1.04.164-.105.041-.19.082-.296.123-.743.308-1.21.76-1.528 1.251C.382 4.37.233 4.8.17 5.19c0 .042-.022.062-.022.103-.02.103-.02.205-.042.308a5.794 5.794 0 0 0 0 .862c.021.328.085.533.085.533.106-.287.212-.574.318-.82.276-.637.594-1.17.933-1.6a5.75 5.75 0 0 1 1.952-1.621c.636-.308 1.082-.37 1.082-.37M13.448.452l-.02-.02a1.291 1.291 0 0 0-.34-.246c-.318-.164-.721-.206-1.273-.041 0 0-.636.225-.976.697 0 0 1.082-.615 2.397.082.128.062.234.144.361.226.127.082.255.184.382.307 0 0-.106-.512-.467-.902a.218.218 0 0 0-.064-.103M2.8 7.815a.559.559 0 0 1 .127-.102c.021-.02.043-.041.064-.041.042-.041.085-.062.127-.103.021-.02.043-.04.085-.061.042-.02.085-.062.127-.082.022-.02.064-.041.085-.062.043-.02.085-.061.127-.082.043-.02.064-.041.106-.061.043-.021.085-.042.149-.062l.127-.062c.043-.02.106-.04.149-.061a.404.404 0 0 1 .148-.041.314.314 0 0 1 .149-.041h.02a.646.646 0 0 1 .213-.041c.021 0 .042 0 .064-.02.042 0 .085-.021.127-.021h.064c.042 0 .084 0 .127-.02h.233c.085 0 .17 0 .255.02h.042c.085 0 .149.02.233.04h.043c.085.021.148.021.212.042h.021c.064.02.149.04.212.061.085.02.149.062.212.082.064.02.128.062.191.103-.106-.37-.424-1.17-1.315-1.374-.127-.02-.254-.041-.403-.041h-.106c-.127 0-.276.02-.424.061C2.715 6.195 2.63 7.55 2.65 8c.043-.041.085-.103.128-.144l.021-.04" transform="translate(25 18)" fill="#E9B784"/><path d="M45.917 35.687c0-.023-.02-.045-.02-.045-.022-.044-.022-.066-.042-.088a4.476 4.476 0 0 0-.437-.773c-.166-.22-.312-.33-.312-.33.021-.089.021-.177.021-.266 0-.11.021-.22.021-.33 0-.817-.27-1.391-.478-1.723a.465.465 0 0 1-.083-.132c-.104.11-.208.199-.312.31a17.918 17.918 0 0 1-7.065 4.039c-1.828.552-3.781.839-5.86.839h.042s-1.205.33-1.392 1.633h.02v.861c.167 1.126.749 1.788 1.351 2.075.603.155 1.33.243 2.12.243 1.371 0 2.909-.243 4.467-.728 2.078-.574 4.904-2.164 6.837-3.974.436-.42.831-.839 1.163-1.28l.021-.022.021-.022c-.02-.11-.042-.221-.083-.287" fill="#FFF"/><g fill="#F2D2AC"><path d="M21.045 9c-.1.05-.2.05-.35.1.15 0 .25-.05.35-.1h.05-.05" transform="translate(8 17)"/><path d="M21.198 13.598c.063-.043.147-.108.21-.15.021-.022.063-.044.084-.065.063-.043.147-.086.21-.15.042-.022.063-.043.104-.065.063-.043.147-.086.21-.129.042-.021.084-.043.105-.064.063-.043.147-.086.21-.13.042-.02.084-.042.125-.085.063-.043.147-.086.21-.129.042-.021.105-.064.147-.086a.97.97 0 0 1 .21-.107c.062-.022.104-.065.167-.086.063-.043.147-.065.21-.108.063-.021.126-.064.189-.085.063-.043.146-.065.21-.108.062-.043.125-.064.21-.107.062-.022.125-.065.209-.086.084-.043.147-.065.23-.108.063-.021.126-.064.19-.086.083-.043.167-.064.25-.107l.127-.064c.23-.924.985-3.223 2.683-3.674.19-.043.357-.086.504-.107.042 0 .083-.022.125-.022a2.55 2.55 0 0 1-.083-.386c-.168-.924.02-1.74.419-1.826.314-.065.608.365.67.515.148.28.273.623.357 1.031.063.366.084.71.042 1.01l.105.107c.461.452.608 1.139.65 1.633.147-.043.315-.064.461-.107.042 0 .084-.022.126-.022h.021c.021 0 .042 0 .063-.021.189-.043.398-.086.587-.13.44-.085.923-.171 1.384-.257-.273-.15-.44-.215-.44-.215-1.237-.58-1.426-.795-1.573-2.75-.042-.708-.084-1.632-.168-2.9 0-.171-.02-.322-.042-.472 0-.043 0-.064-.02-.107-.021-.15-.042-.28-.063-.409V2.3c-.021-.108-.042-.215-.063-.301 0-.043-.021-.086-.021-.13-.021-.107-.042-.214-.084-.3-.021-.043-.021-.107-.042-.15-.021-.065-.042-.108-.063-.15-.021-.044-.042-.108-.063-.151a2.49 2.49 0 0 0-.67-.58l-.043-.021-.042-.022h-.02a.456.456 0 0 1-.106-.064l-.125-.065a2.69 2.69 0 0 0-1.175-.258c-.23 0-.46.022-.691.043-.105.022-.231.043-.336.065a4.743 4.743 0 0 0-.88.3c-.084.086-.19.172-.273.258-.084.065-.168.15-.23.215l-.043.043c-.084.065-.168.15-.251.215l-.042.043-.252.193-.042.043a3.067 3.067 0 0 1-.272.194l-.042.021c-.084.064-.19.107-.273.172l-.042.021c-.105.043-.189.108-.293.15h-.021c-.105.044-.21.087-.336.108-.189.043-.377.086-.566.108a4.769 4.769 0 0 1-.965.042c-.104 0-.21 0-.335-.021h-.126a11.644 11.644 0 0 1-.86-.086c-.125-.021-.251-.021-.356-.043l-.587-.064c-.042 0-.084 0-.126-.022-.168.022-.314.065-.482.108h-.042c-.461.128-.923.3-1.363.515-.02.022-.042.022-.084.043-.063.043-.147.065-.21.108a1.907 1.907 0 0 0-.272.171 7.957 7.957 0 0 0-1.803 1.504 5.43 5.43 0 0 0-.608.773 8.748 8.748 0 0 0-.755 1.268c-.021.021-.021.043-.042.064-.105.237-.21.473-.294.71-.02.085-.063.171-.084.257v.021c-.083.28-.167.559-.23.86v.043c0 .043-.021.086-.021.129l-.063.386c-.021.13-.042.28-.042.408v.086c0 .086 0 .172-.021.258 0 .3 0 .602.042.902 0 .065.02.15.02.215.19.473.441.88.714 1.267 1.048 1.418 2.579 2.149 3.648 2.492.42.13.86.237 1.3.323l.021.021.021-.021.147-.15.063-.065c.063-.043.105-.108.168-.15.02-.022.041-.044.062-.044.063-.043.105-.107.168-.15.021-.021.042-.043.063-.043.063-.043.126-.107.189-.15.02-.022.042-.043.063-.043.063-.043.126-.108.188-.15.021-.022.042-.044.063-.044.063-.043.126-.107.189-.15l.063-.064c.063-.043.126-.108.21-.15.104-.022.125-.044.146-.065m7.025-11.73c.524-.192.943-.128 1.258.044.125.064.251.15.335.258l.021.021c.021.022.042.043.063.086.356.43.461.945.461.945-.126-.129-.251-.215-.377-.322-.126-.086-.252-.172-.357-.236-1.3-.73-2.369-.086-2.369-.086.336-.473.965-.71.965-.71M18.01 6.509a7.684 7.684 0 0 0-.922 1.676c-.105.28-.21.559-.315.86 0 0-.042-.215-.084-.559a4.303 4.303 0 0 1 0-.902c0-.107.021-.215.042-.322 0-.043.021-.065.021-.108.084-.408.21-.859.462-1.267a3.335 3.335 0 0 1 1.51-1.31c.083-.043.188-.086.293-.13 0 0 .461-.15 1.027-.171h.126c.105 0 .23 0 .335.021.168.022.336.065.504.13 0 0-.44.064-1.049.386-.587.3-1.3.816-1.95 1.697m.923 4.253c-.042.022-.084.022-.105 0-.063-.043.021-.322.315-.666-.021-.472.062-1.89 1.719-2.255.147-.022.293-.043.42-.065h.104c.147 0 .273.022.398.043.881.194 1.196 1.031 1.3 1.44.294.171.42.343.378.365-.021.043-.063.043-.126.043-.063.043-.23.064-.44.086-.42.043-1.07.086-1.782.279-.042.021-.105.021-.147.043-1.049.3-1.845.773-2.034.687m2.747-1.869h-.042.042M38.665 21.61a12.213 12.213 0 0 1-2.14 1.977c-.356.279-.733.515-1.09.73-.817.494-1.593.86-2.285 1.139-1.552.601-2.663.751-2.663.751.923.387 2.034.237 2.789.065.503-.129.86-.258.86-.258.02.322.02.645 0 .924a5.113 5.113 0 0 1-.147.88v.022c-.084.344-.21.644-.357.902-.02.022-.02.065-.042.086l.063-.043c.252-.193.503-.386.755-.601.189-.15.377-.323.566-.494.315-.28.608-.58.902-.903.02-.021.042-.043.042-.064.293-.322.545-.666.797-.988.314-.451.608-.88.86-1.332l.02-.022c.063-.107.126-.214.168-.322l.02-.021c.022-.043.043-.065.064-.108.084-.15.168-.3.23-.472.021-.043.042-.065.042-.108.042-.086.063-.171.105-.236.021-.064.063-.129.084-.193.021-.065.063-.13.084-.194.042-.128.105-.236.147-.365.02-.043.042-.086.042-.15.042-.086.063-.193.104-.28.021-.042.021-.085.042-.128l.021-.043a2.15 2.15 0 0 0 .105-.344.795.795 0 0 0-.188.193M18.64 15.445c-.21.108-.44.215-.67.365-.63.366-1.343.86-1.93 1.504-.084.086-.146.172-.23.236-.126.15-.231.301-.336.451-.02.022-.02.043-.042.043-.02.022-.042.043-.042.065l-.125.193c-.021.022-.021.043-.042.086-.042.086-.105.172-.147.28-.042.085-.084.193-.126.279-.315.752-.44 1.632-.23 2.642v-.236c0-.022 0-.065.02-.108 0-.043.021-.086.021-.107v-.022c0-.043.021-.086.021-.129v-.021c0-.043.021-.086.042-.129v-.021c.021-.043.021-.108.042-.15v-.044c.021-.043.042-.107.063-.172.021-.086.063-.171.105-.257.02-.022.02-.065.042-.086l.02-.022c.043-.064.064-.129.106-.193.02-.065.063-.108.104-.172.021-.021.021-.043.042-.043.021-.043.063-.086.084-.129.021-.021.021-.043.042-.043.042-.064.084-.107.126-.15 0 0-.65 2.19-.063 3.802V22.362c0-.064 0-.129.021-.172v-.021c0-.065.021-.129.021-.193 0-.022 0-.043.021-.065v-.043c.021-.043.021-.107.042-.15.02-.065.042-.15.063-.215 0-.022.02-.043.02-.064a.877.877 0 0 1 .106-.194s0 .516.104 1.139c.021.086.021.193.042.3.021.065.021.13.042.194-.042-.666 0-1.29.105-1.89.021-.172.063-.323.105-.495 0-.021 0-.043.021-.064l.126-.451c0-.022.02-.065.02-.086.043-.15.085-.28.148-.43 0-.021.02-.043.02-.064.105-.301.231-.559.357-.838 0-.021.02-.043.02-.064.043-.108.106-.194.148-.301.02-.022.02-.043.042-.086.02-.022.02-.043.042-.065.062-.107.125-.236.188-.343 0-.022.021-.043.021-.043.063-.108.147-.237.21-.344l.252-.387.188-.257c.021-.022.042-.065.063-.086.147-.194.294-.387.44-.537.42-.494.755-.795.86-.903-.084.022-.168.065-.251.108a1.485 1.485 0 0 0-.504.193" transform="translate(8 17)"/><path d="M30.068 9.301s-.021-.042-.042-.128c-.105-.301-.482-.989-1.636-.71-1.195.28-1.488 1.333-1.551 1.676-.021.065-.021.13-.021.13l.042.02c.146-.15.44-.171.713-.042.125.064.23.15.314.257.126.15.168.323.105.452-.021.021-.021.064-.042.085 0 0 .042.022.126.022.356.064 1.3.15 1.74-.602.021-.042.042-.064.063-.107-.105-.043-.189-.172-.21-.365a.626.626 0 0 1 0-.28c.063-.279.231-.472.399-.408m-4.907 9.882c-.755.258-1.426.473-1.95.623h.084c.902 0 2.328-.043 4.026-.365 3.082-.602 7.066-2.127 10.379-6.037v-.021c-.021-.28-.126-.795-.524-1.16a.753.753 0 0 0-.252-.172c-.02 0-.02-.021-.042-.021a3.375 3.375 0 0 1-.272-.13c-.063-.042-.147-.064-.189-.107v-.021a8.27 8.27 0 0 1-.671 1.074c-.084.129-.189.236-.294.365-.901 1.074-2.138 2.04-3.501 2.879-2.265 1.353-4.823 2.406-6.794 3.093M4.76 16.133c-.021.043-.063.064-.084.107l-.021.043c-.042.043-.063.107-.084.15l-.021.022c-.042.064-.063.129-.105.193l-.02.022c0 .021-.022.043-.022.043-.02.043-.042.086-.042.128v.043l-.063.194c-.042.193-.083.365-.104.494 0 .043-.021.107-.021.15-.021.086-.021.172-.021.194v.021V17.744c0-.108-.021-.237-.021-.344V16.347c0-.064.02-.15.02-.214v-.022c0-.043 0-.107.022-.15v-.022c.02-.107.02-.215.042-.322v-.107c.02-.172.062-.344.104-.516v-.021c.021-.15.063-.28.105-.43v-.022c.021-.064.042-.128.042-.171.021-.086.042-.172.063-.28v-.021c0-.022.021-.086.042-.15 0-.022.02-.065.02-.086.022-.043.022-.108.043-.15l.02-.044c-.02-.021-.062-.021-.104-.043h-.021l-.042-.021c-.21-.065-.42-.13-.629-.15h-.042c-.147-.022-.272-.022-.42-.022-.083 0-.167 0-.25.021-.064 0-.148.022-.21.022l-.315.064c-.042 0-.063.022-.084.022-.042.021-.105.021-.147.043-.02 0-.042.021-.063.021-.042.022-.062.022-.104.043-.063.022-.126.065-.19.086-.02.022-.062.022-.083.043-.084.043-.168.086-.252.15-.042.022-.063.043-.083.065-.042.021-.084.043-.105.086l-.042.021c-.042.022-.084.065-.126.086-.042.022-.063.065-.105.086-.042.043-.084.065-.126.108l-.063.064a1.921 1.921 0 0 0-.188.215c-.021.043-.063.064-.084.107-.042.065-.105.13-.147.194l-.02.043a.472.472 0 0 1-.064.107c-.02.021-.02.043-.042.086-.084.172-.168.344-.23.515 0 .022-.021.043-.021.086l-.063.258c0 .043-.021.065-.021.108 0 .021.02.043.02.064.043.064.064.15.106.215l.02.021.021.022c.042.064.063.129.105.215.105.193.231.386.336.537.02.021.042.043.042.064l.02.129.022.021c.084.108.167.215.23.301.105.13.21.237.273.301l.042.043.02.021.043.043c-.021-.043-.021-.064-.042-.107a5.46 5.46 0 0 1-.189-.795v-.043c-.02-.172-.042-.344-.042-.494a.436.436 0 0 0 .084.172l.126.258.02.021c.169.344.357.623.525.86.21.279.377.45.482.558.021.021.042.043.063.043l.042.043a4.085 4.085 0 0 1-.21-.838c-.02-.086-.02-.193-.042-.28-.02-.128-.02-.235-.02-.343.083.194.146.365.23.537v.022a6 6 0 0 0 .839 1.246l.02.021c.043.043.064.086.106.108l.063.064.042.043.02.021-.02-.043c-.021-.043-.021-.085-.042-.107-.042-.15-.084-.28-.105-.43-.021-.086-.042-.193-.063-.279-.021-.086-.021-.172-.042-.258v-.043c0-.043 0-.086-.021-.128v-.043c0-.108-.021-.237-.021-.344.02.064.063.15.084.215.02.043.042.107.063.15v.022l.02.021c.022.064.064.107.085.172.062.107.104.193.167.28.063.107.147.214.21.3a.653.653 0 0 1 .105.15c.042.065.084.108.126.172a.567.567 0 0 1 .104.129l.021.021.084.086.063.065.084.086.021.021v-.687c0-.215.021-.408.021-.602V17.894c0-.15.021-.3.021-.451 0-.129.021-.258.021-.365V16.54c0-.043 0-.086.02-.108v-.257l.169-.043m26.293 5.692c.273-.15.524-.258.713-.365.378-.215.587-.365.566-.408-.02-.043-.251.021-.67.172-.21.086-.462.15-.735.257-.146.065-.293.086-.46.15-.169.044-.336.108-.525.151-.357.108-.776.194-1.216.322-.21.043-.44.086-.671.15-.23.044-.482.087-.734.13-1.006.15-2.097.257-3.25.193-.608-.021-1.426-.215-2.034-.473h-.02c.188-1.267 1.404-1.59 1.404-1.59h-.986c-.754.044-1.09.753-1.195 1.032-.02.043-.02.086-.042.129-.083.258-.104.558-.104.88.041.58.251 1.182.754 1.676.336.322.86.58 1.531.752-.608-.3-1.174-.924-1.363-2.02.671.194 1.426.28 1.992.301a14.33 14.33 0 0 0 3.397-.236c.251-.064.503-.107.755-.172.23-.064.482-.129.692-.193.44-.129.838-.258 1.216-.408.188-.065.356-.13.524-.215.168-.086.335-.129.461-.215" transform="translate(8 17)"/></g><path d="M9.83 2.27c.638-.062 1.085.084 1.404.334a3.103 3.103 0 0 0-.043-.979 3.087 3.087 0 0 0-.361-1c-.064-.146-.362-.563-.681-.5-.404.083-.596.854-.426 1.77.043.126.064.25.107.376M2.426 4.146c.723-.208 1.404-.104 1.85-.042.213.042.384.063.469.063.064 0 .106-.021.127-.042.043-.042-.106-.208-.383-.354-.063-.042-.127-.063-.191-.104-.064-.021-.15-.063-.213-.084a2.722 2.722 0 0 0-.213-.062h-.02a.77.77 0 0 0-.214-.042h-.042c-.064-.02-.15-.02-.234-.042h-.043c-.085 0-.17-.02-.255-.02H2.83c-.043 0-.085 0-.128.02h-.064c-.042 0-.085.021-.127.021-.022 0-.043 0-.064.021-.064.021-.128.021-.192.042h-.021c-.043.02-.085.02-.149.042-.042.02-.106.02-.149.041-.042.021-.106.042-.149.063l-.127.062c-.043.021-.086.042-.15.063-.042.02-.084.041-.106.062-.042.021-.085.063-.127.083-.022.021-.064.042-.086.063-.042.02-.085.063-.127.083a.293.293 0 0 1-.085.063c-.043.042-.085.062-.128.104-.021.02-.042.042-.064.042-.042.041-.085.083-.127.104l-.043.042c-.043.041-.085.104-.128.145-.298.334-.383.625-.319.646.021.021.064.021.107 0 .276-.104.957-.729 1.978-1.042.085 0 .128-.02.17-.041m8.766.333c.022.167.107.313.213.354.17.063.32-.125.383-.416v-.084c.022-.25-.064-.479-.213-.541-.148-.063-.319.125-.383.416 0 .104-.02.188 0 .271m-2.808.792a.845.845 0 0 0 .34.25c.298.146.596.104.745-.042.021-.02.043-.042.043-.083.063-.125 0-.292-.107-.438-.085-.083-.191-.187-.319-.25-.298-.125-.596-.104-.723.042a.288.288 0 0 0-.064.083c-.085.146-.043.292.085.438m10.957 2.5l-.02.02.02-.02m.405 5.792a10.92 10.92 0 0 1-1.213 1.208c-1.979 1.708-4.894 3.208-7 3.75-1.596.458-3.17.687-4.575.687a9.61 9.61 0 0 1-2.17-.229c-.68-.166-1.234-.416-1.553-.729-.51-.458-.723-1.063-.766-1.625a2.304 2.304 0 0 1 .106-.854c.022-.042.022-.084.043-.125.106-.292.447-.959 1.213-1h.957c2.107 0 4.128-.271 6-.792 2.724-.75 5.15-2.02 7.234-3.812.107-.104.213-.188.32-.292l1.02-1.98C16 11.564 11.98 13.043 8.83 13.605c-1.724.313-3.17.354-4.085.354h-.936c-.235.021-.469.063-.66.167-.404.188-.745.52-.979.917a3.06 3.06 0 0 0-.34 1.77 3.15 3.15 0 0 0 .596 1.5c.02.021.02.042.042.063.043.042.085.104.128.146l.191.187c.766.709 2.256 1.146 4.192 1.146 1.298 0 2.808-.187 4.404-.625 4.702-1.437 6.787-3.229 7.723-4.437l.192-.25c.319-.48.447-.813.49-.98v-.02c.02-.042.02-.063.02-.063l-.063.084" transform="translate(27 22)" fill="#664F44"/><path d="M38.018 2.228c-.425-.38-.914-.635-1.425-.826-.085-.02-.191-.042-.276-.063-.043-.021-.106-.042-.149-.064a6.02 6.02 0 0 0-1.382-.17c-2.318-.02-4.826 1.123-6.251 1.886-.085.042-.149.085-.234.127a3.204 3.204 0 0 0-.361.212c-.213.127-.404.254-.617.381-.021.021-.064.042-.085.064l-.468-.424-.212-.19-.192-.17-.085-.085-1.743-1.588-.15-.149-.17-.169h-.02l-.426.148-.489.17c-.298-.106-.638-.149-1.02-.149-.766 0-1.744.191-2.807.615-1.063.423-2.254 1.037-3.487 1.842-2.488 1.631-5.167 3.982-7.676 6.863a50.662 50.662 0 0 0-2.424 3.05c-.702.974-1.36 1.97-1.914 2.922-1.148 1.949-1.998 3.792-2.466 5.423C1.17 22.964 1 23.938 1 24.764c0 .593.085 1.101.234 1.525.042.127.106.254.17.36.128.233.276.445.468.614l1.913 1.568.213.169v-.021c.043-.064.085-.127.149-.19l.021-.022c.021-.021.043-.042.043-.064.042-.063.085-.127.127-.169.021-.042.064-.064.085-.106.022-.042.064-.063.085-.106l.043-.042c.021-.042.064-.064.085-.106.042-.042.085-.106.127-.148l.086-.085.02-.021.15-.148.085-.085c.042-.043.106-.085.148-.148.022-.022.064-.064.107-.085.064-.043.106-.085.17-.127.042-.021.064-.043.106-.085.064-.042.128-.085.17-.127.043-.021.064-.042.107-.064l.042-.02c.043-.043.106-.064.149-.107.021-.02.064-.042.085-.063.043-.021.085-.064.128-.085l.127-.063.043-.022c.106-.063.191-.106.297-.148.043-.021.064-.021.107-.042.042-.021.063-.043.106-.043l.043-.02c.02 0 .042-.022.063-.022l.128-.064.042-.02c.043-.022.107-.043.15-.064.042-.021.106-.043.148-.064l.191-.063c.022 0 .043-.021.086-.021.02 0 .042-.022.085-.022a.623.623 0 0 1 .19-.042c.065-.021.107-.021.171-.042a.303.303 0 0 0 .128-.043c.02 0 .042 0 .042-.02.021 0 .043 0 .064-.022h.042c.213-.042.447-.064.723-.064h.043c.276 0 .553 0 .872.022.063 0 .148.02.212.02.022-.02.022-.063.043-.084l.383-.89a31.293 31.293 0 0 1 2.509-4.532c.297-.445.616-.89.935-1.313a26.268 26.268 0 0 1 3.912-4.194c.277-.233.553-.466.83-.678.361-.296.723-.55 1.063-.805.276-.19.531-.38.786-.55.426-.276.808-.509 1.149-.7.106-.063.212-.126.297-.169a7.79 7.79 0 0 1 .404-.211c-.106 0-.234 0-.34.02-.106 0-.213.022-.34.022h-.085c-.106.021-.234.021-.34.042-.213.043-.447.085-.66.149-.085.02-.148.042-.233.063a8.458 8.458 0 0 1 1.594-.868c.34-.148.68-.276 1.02-.381a8.24 8.24 0 0 1 1.298-.318c.276-.043.531-.085.765-.106.234-.021.468-.042.66-.042.701-.022 1.126.02 1.126.02a1.489 1.489 0 0 0-.404-.317c-.276-.17-.574-.254-.829-.339-.106-.021-.191-.042-.276-.063-.064-.022-.128-.022-.192-.022.107-.042.234-.063.34-.084.128-.021.234-.064.362-.085a9.303 9.303 0 0 1 2.53-.19c.808.042 1.297.19 1.297.19a1.732 1.732 0 0 0-.531-.508 2.395 2.395 0 0 0-.447-.254c.277.02.532.063.787.105.66.128 1.212.276 1.658.424.15.042.277.106.404.148.043.021.064.021.107.043.404.17.638.296.638.296-.085-.212-.256-.423-.426-.593l-.127-.127h.021c.021 0 .043 0 .085.021.043 0 .064.021.128.021.17.043.446.106.765.233.021 0 .021.022.043.022.042.02.085.042.127.042.107.042.234.085.34.148.107.043.213.106.34.17.064.02.128.063.17.084.128.064.256.149.383.233.128.085.256.17.383.276l.064.063c.085.064.17.148.255.233.17.148.319.318.468.509.17.211.319.465.446.74 0 .022.022.022.022.043.063-.085.148-.212.276-.402 1.063-1.589 4.167-6.65 1.616-9.214" fill="#132134"/><path d="M22.685 3.026l-.167-.832.314-.98.168-.065C22.706 1.043 22.37 1 21.993 1c-.755 0-1.72.192-2.768.618-1.049.427-2.223 1.045-3.44 1.856-2.474 1.62-5.117 3.988-7.591 6.888a50.856 50.856 0 0 0-2.391 3.07 36.364 36.364 0 0 0-1.888 2.943c-1.132 1.962-1.971 3.818-2.433 5.46-.314 1.087-.482 2.068-.482 2.9 0 .597.084 1.109.23 1.535.043.128.106.256.168.363.126.234.273.448.462.618l1.887 1.578.21.171v-.021c.042-.064.084-.128.147-.192l.02-.022c.022-.02.043-.042.043-.064.042-.064.084-.128.126-.17.02-.043.063-.064.084-.107.02-.042.062-.064.083-.106l.042-.043c.021-.043.063-.064.084-.107.042-.042.084-.106.126-.149l.084-.085.021-.022.147-.149.084-.085c.042-.043.105-.085.146-.15.021-.02.063-.063.105-.085.063-.042.105-.085.168-.128a.37.37 0 0 0 .105-.085c.063-.043.126-.085.168-.128.042-.021.063-.043.105-.064l.042-.021c.272-1.173.734-2.474 1.363-3.86a33.872 33.872 0 0 1 3.083-5.31 42.884 42.884 0 0 1 2.642-3.433 45.974 45.974 0 0 1 3.838-3.988c.881-.79 1.74-1.514 2.6-2.154l.252-.192c.231-.17.462-.32.692-.49.483-.342.986-.662 1.448-.939l-.273-.277-.042-.043-.357-.34-1.992-1.92-.168-1.45-.02-.022 1.174-.511 2.558.938" fill="#2F83C1"/><path d="M24 4l.15.05L24 4z" fill="#4D9ED7"/><path d="M23.982 1l-1.098.415.485 2.216-3.187-1.27L19 2.916l.021.023L23.158 7l.043-.023.042-.046.316-.277c.043-.023.064-.07.106-.092.148-.139.317-.254.464-.393l-1.752-1.73 2.66 1.015c.063-.046.148-.116.211-.162l-.443-1.915 1.287 1.292h.021c.085-.069.17-.138.275-.184l.021-.023.042-.024c.021 0 .021-.023.042-.023.043-.023.085-.046.106-.092 0 0 .021 0 .021-.023a3.63 3.63 0 0 1 .38-.254L23.982 1" fill="#FFD250"/><path d="M16.672.457l-.02-.083.02.083m-.02-.083l.164-.062c-.287-.104-.615-.146-.983-.146-.738 0-1.68.187-2.704.603-1.024.415-2.171 1.018-3.36 1.808-2.396 1.6-4.976 3.906-7.393 6.732A49.569 49.569 0 0 0 .04 12.301L3.81 16a51.394 51.394 0 0 1 2.56-3.304 46.734 46.734 0 0 1 3.83-3.969 32.527 32.527 0 0 1 3.728-2.95l-.881-2.556-.143-1.455-.02-.02 1.146-.5 2.478.936-.163-.81.307-.998" transform="translate(6 1)" fill="#4D9ED7"/><path d="M.695.182L.4 1.25l.168.886.61.25L.696.182zM.168 3.159l2.653 1-.884.727L.168 3.16zM2.59 2.114L3.032 4l.863-.636-1.306-1.25z" transform="translate(23 1)" fill="#132134"/><path d="M35.156 1.275l.45-.063a4.693 4.693 0 0 1 1.222.021H37c-.043-.021-.107-.042-.15-.063A6.126 6.126 0 0 0 35.456 1C33.12.98 30.59 2.122 29.153 2.883c-.086.043-.15.085-.236.127a3.238 3.238 0 0 0-.365.212c-.214.127-.407.254-.621.38-.022.022-.065.043-.086.064-.129.085-.258.148-.386.233 0 0-.022 0-.022.021-.042.021-.085.042-.107.085-.021 0-.021.02-.043.02l-.043.022-.021.021c-.086.064-.172.106-.279.17h-.021c-.022.02-.043.02-.065.042h-.021c-.021.02-.043.02-.043.042-.15.085-.279.19-.429.275-.107.064-.193.127-.3.19l-.021.022c-.065.042-.15.105-.215.148-.236.17-.471.338-.686.508-.021.02-.043.042-.064.042-.022.021-.043.021-.064.042-.022.021-.043.021-.065.043l-.021.02c-.15.128-.322.233-.472.36-.043.022-.086.064-.107.085l-.322.254-.043.042-.042.021c-.3.233-.58.487-.88.74-.471.403-.943.826-1.415 1.27-.064.064-.128.106-.171.17a50.522 50.522 0 0 0-3.474 3.618 71.382 71.382 0 0 0-3.28 4.04c-.557.699-1.03 1.334-1.437 1.863-.771 1.058-1.2 1.692-1.179 1.713 0 0 .086-.063.193-.232-.107.148-.193.296-.3.444a82.126 82.126 0 0 1 5.703-6.876 57.934 57.934 0 0 1 3.988-3.936c.6-.55 1.222-1.079 1.866-1.586.193-.17.407-.318.6-.487.107-.085.214-.148.3-.233.064-.042.107-.084.172-.127l.321-.254c.107-.084.215-.169.322-.232.064-.043.107-.085.171-.127.129-.106.28-.19.408-.297a1.79 1.79 0 0 1 .257-.169c.257-.19.536-.36.793-.529.022-.02.043-.02.065-.042.043-.021.085-.064.128-.085.065-.042.108-.063.172-.106.021-.02.043-.02.064-.042.043-.021.065-.042.107-.063 0 0 .022 0 .022-.021h.021c.107-.064.236-.149.343-.212.022-.021.043-.021.065-.042.043-.022.064-.043.107-.064a6.77 6.77 0 0 1 .407-.254c.043-.02.065-.042.107-.063.022-.021.043-.021.065-.043.043-.02.064-.042.107-.063.15-.085.3-.19.45-.275.129-.085.279-.148.408-.233.771-.423 1.479-.804 2.165-1.1 1.308-.635 2.444-.994 3.452-1.164" fill="#FFF"/></g><g id="mailchimp-logo-brand-development-tools-30f2bd394559429f"><path d="M55.974 23.785v-.001zm134.05 12.191l.068.001c4.036 0 6.877-2.805 6.908-6.82.015-1.987-.558-3.807-1.612-5.122-1.115-1.392-2.677-2.133-4.516-2.148h-.036c-2.482 0-4.787 1.889-7.046 5.775l-.18.31-.115-.337c-.57-1.666-1.079-3.054-1.382-3.884a20.17 20.17 0 0 1-.33-.924c-.108-.42-.466-.681-.936-.681-.289 0-.595.098-.886.283-.287.184-.448.408-.506.708l-.014.045c-2.261 7.075-4.125 10.509-5.705 10.509-.23-.002-.41-.077-.543-.227-.414-.459-.312-1.55-.172-3.06.103-1.109.221-2.365.172-3.698-.093-2.562-1.49-4.1-3.737-4.117-2.856-.001-4.706 3.05-5.558 4.868l-.255.542-.056-.598c-.213-2.25-.966-4.937-3.343-4.955-2.772 0-4.884 3.263-6.173 6.002l-.345.734.034-.81c.153-3.653.278-5.81.374-6.408.093-.6.044-1.003-.152-1.234-.185-.216-.535-.296-1.048-.264-.888.057-1.341.599-2.025 2.415-1.122 2.983-3.977 9.924-6.257 9.924-.452-.004-.81-.158-1.073-.46-.956-1.1-.573-4.072-.044-8.185l.04-.31c.25-1.948-.176-2.364-1.231-2.558a1.81 1.81 0 0 0-.32-.031c-.843 0-1.236.809-2.023 3.057-1.4 4-3.2 8.207-5.303 8.207-.078 0-.153-.006-.231-.018-1.115-.19-1.09-1.85-1.06-3.952.016-1.137.035-2.426-.14-3.59-.314-2.088-1.54-3.392-3.202-3.405-3.313 0-5.548 4.257-6.588 6.795l-.235.574-.079-.616a57.381 57.381 0 0 1-.402-4.908l-.003-.06.038-.049c6.202-7.832 8.985-13.483 9.022-18.325.024-3.094-1.398-4.952-3.805-4.971-1.76 0-5.944 1.47-7.399 15.09a78.993 78.993 0 0 0-.44 7.697v.051l-.029.042c-2.837 4.12-8.893 11.206-14.822 11.206-5.358 0-9.632-4.347-9.632-12.022 0-10.288 7.26-16.604 12.723-16.604h.045c1.187.008 2.205.341 2.943.961.767.644 1.17 1.547 1.161 2.61-.01 1.42-.472 2.15-.918 2.856-.114.182-.229.362-.333.553-.106.193-.202.473-.062.713.144.245.51.4.957.403 1.3 0 3.267-1.889 3.289-4.734.022-2.977-2.478-6.046-6.94-6.046-6.75 0-15.843 7.44-15.843 19.498 0 8.53 5.33 14.425 12.552 14.425 5.125 0 10.194-3.68 14.684-9.829l.275-.372.02.462c.095 2.25.257 4.024.376 5.319.077.832.132 1.433.13 1.765-.006.727.112 1.233.363 1.542.25.31.646.457 1.248.46 1.008 0 1.21-.689 1.61-2.39l.114-.485c.496-2.062 2.33-8.79 5.086-8.79.45.004.797.137 1.044.4.608.647.542 1.976.465 3.517-.049.96-.098 1.953-.002 2.92.26 2.61 1.383 3.886 3.434 3.9 2.106.001 4.304-2.275 5.464-4.39l.22-.398.085.448c.214 1.132 1.171 4.847 4.169 4.847 2.717 0 5.048-2.87 7.602-8.777l.335-.771-.02.841c-.055 2.238-.176 4.972-.177 7.085 0 1.635.164 2.258.917 2.258l.171.008c.723 0 1.213-.432 1.458-1.288 1.923-6.721 3.584-9.851 5.23-9.851 1.612.012 1.763 2.969 1.892 8.193l.01.366c.038 1.828.104 2.636 1.235 2.645.86 0 1.073-.677 1.517-2.343.085-.318.176-.666.285-1.042 1.553-5.403 2.84-7.607 4.441-7.607 1.372.01 1.448 1.43 1.474 1.895.052.998-.05 2.043-.149 3.052-.092.938-.187 1.908-.151 2.81.084 2.112 1.237 3.285 3.247 3.3 2.61 0 4.965-3.061 7.028-9.097l.143-.42.163.413c.375.95.863 2.233 1.313 3.766l.018.058-.025.055c-1.998 4.45-3.407 9.405-3.427 12.053-.027 3.488 1.546 5.754 4.007 5.773h.042c1.34 0 4.46-.54 4.52-5.53.026-2.045-.456-4.937-1.43-8.597l-.112-.419.36.24c1.246.828 2.648 1.27 4.057 1.282zM122.77 19.052c.055-1.25.16-2.468.31-3.62.966-7.419 2.98-12.6 4.903-12.6h.009c.916.007 1.374.702 1.365 2.065-.026 3.35-2.142 8.146-6.288 14.255l-.325.478.026-.578zm61.29 26.674c-.307.409-.732.616-1.266.616-.612-.005-1.073-.219-1.386-.639-.877-1.175-.63-3.939.801-8.955.172-.6.357-1.202.553-1.791l.166-.5.146.505c1.668 5.79 1.999 9.412.985 10.764zm.518-14.834l-.03-.056-.06-.192.027-.058c1.902-3.93 4.08-6.182 5.975-6.182h.02c2.14.016 3.62 1.949 3.6 4.697-.014 1.835-.82 2.891-1.494 3.454a4.438 4.438 0 0 1-2.808 1.01c-2.504-.019-4.224-1.465-5.23-2.673zm5.912-6.323v-.002.002zM63.322 35.327c2.935-.236 5.263-4.24 6.127-5.95l.223-.442.085.488c.415 2.405 1.72 6.448 5.8 6.48h.035c1.765 0 3.768-1.083 5.792-3.132l.149-.15.108.18c1.362 2.287 3.19 3.502 5.136 3.402 2.865-.15 4.604-2.186 4.757-3.6.04-.361-.056-.701-.261-.93-.258-.288-.632-.321-.906-.057l-.132.124c-.667.643-1.91 1.84-3.263 1.91-1.658.082-2.884-.913-3.676-2.965l-.033-.086.055-.072c4.56-5.982 7.758-15.109 7.442-21.23-.145-2.833-.966-6.211-4.051-6.211l-.23.006c-1.182.061-2.256.626-3.194 1.678-2.862 3.212-4.36 11.118-3.816 20.141.113 1.875.438 3.627.965 5.206l.03.09-.06.07c-1.692 1.984-3.361 3.076-4.7 3.076-3.223 0-3.115-5.42-2.86-9.915.055-.969.137-1.586-.15-1.937-.203-.252-.545-.376-1.044-.38h-.058c-1.147 0-1.386.237-1.973 1.944-1.22 3.546-3.63 9.498-6.054 9.498-.672-.006-1.185-.236-1.536-.685-1.176-1.505-.283-5.26.434-8.277a95.87 95.87 0 0 0 .359-1.546c.157-.715.109-1.237-.143-1.553-.253-.315-.758-.442-1.424-.39-1.038.084-1.701.52-2.022 2.5l-.065.412-.241-.293c-.453-.672-1.337-1.471-2.978-1.471a5.63 5.63 0 0 0-.446.018c-1.751.144-3.744 1.367-5.204 3.194-1.703 2.132-2.517 4.83-2.29 7.599.012.147.033.287.054.427l.012.077-.053.058c-1.02 1.113-2.058 1.679-3.086 1.679-1.588-.012-2.5-1.196-2.5-3.168 0-3.32 2.243-13.327 2.243-16.95 0-3.855-1.712-5.953-4.686-5.976h-.045c-4.343 0-7.727 4.942-10.965 15.112a166.56 166.56 0 0 0-.896 2.937l-.455 1.53.134-1.59c.293-3.41.498-6.825.614-10.245.162-4.914-.5-8.077-2.025-9.669-.822-.858-1.91-1.281-3.326-1.292h-.036c-5.313 0-7.859 8.99-9.713 15.333-.559 1.914-1.661 6.234-2.397 9.187l.436-.711c.327-3.719 1.274-13.032 1.212-18.085-.068-5.42-1.866-7.85-5.835-7.88h-.049c-2.12 0-3.59 1.056-4.45 1.943C.814 6.21-.047 8.29.001 10.086c.03 1.092.697 2.064 1.203 2.064.33 0 .512-.442.592-.705 1.228-4.071 2.817-6.051 4.855-6.051.846.006 1.476.256 1.946.764 1.594 1.715 1.304 6.344.779 14.75-.17 2.708-.362 5.777-.524 9.268a93.386 93.386 0 0 1-.1 1.727c-.155 2.424-.278 4.34.639 4.483 1.193.187 1.969-.3 2.366-1.483.59-1.757 1.91-6.56 4.467-15.335 2.453-8.421 4.307-11.485 6.678-11.485 2.74 0 2.943 4.718 2.441 14.675-.107 2.11-.25 4.501-.36 7.103-.015.365-.032.72-.05 1.06-.105 2.155-.188 3.854.425 4.506.192.203.452.303.796.305 1.187 0 1.545-1.044 2.136-2.775.105-.305.215-.632.34-.973 4.068-11.26 7.076-21.029 11.115-21.029 1.21 0 2.153.987 2.153 2.912 0 4.443-2.166 13.027-2.166 17.38 0 1.56.448 2.96 1.293 3.943.867 1.01 2.081 1.549 3.51 1.561h.031c1.351 0 2.759-.659 4.185-1.957l.134-.122.107.146c.94 1.266 2.455 1.947 4.091 1.82 2.51-.196 4.616-2.437 5.4-4.551l.153-.414.153.414c.582 1.568 1.841 3.459 4.532 3.24zM86.448 5.906l.043-.001c.287 0 .539.144.748.43.996 1.35 1.012 6.283-.702 11.896-.98 3.207-2.297 6.238-3.809 8.762l-.24.401-.062-.465c-.178-1.357-.266-2.77-.328-3.973-.437-8.483 2.121-16.934 4.35-17.05zM58.601 25.733c-.878 3.545-2.562 7.825-5.599 8.07l-.247.01c-1.26 0-1.966-.827-2.1-2.46-.166-2.042.711-4.434 2.236-6.094.97-1.058 2.066-1.64 3.084-1.64h.02c1.284.01 2.184 1.044 2.598 2.009l.022.05-.014.055zm14.085-12.997c-1.12 0-2.026.886-2.034 1.975-.01 1.097.89 1.997 2.004 2.005l.016.163v-.163c1.105 0 2.01-.886 2.019-1.974.008-1.098-.89-1.998-2.005-2.006zm70.483 0c-1.121 0-2.026.886-2.035 1.975-.009 1.097.89 1.997 2.005 2.005l.015.163v-.163c1.106 0 2.01-.886 2.02-1.974.008-1.098-.891-1.998-2.005-2.006z" fill="#010101" transform="translate(71 5)"/><path d="M197.5 34a1.503 1.503 0 0 0-1.5 1.501A1.502 1.502 0 0 0 197.5 37c.827 0 1.498-.671 1.5-1.499 0-.828-.672-1.5-1.5-1.501zm0 2.783c-.71 0-1.282-.57-1.282-1.281a1.281 1.281 0 1 1 2.565 0 1.28 1.28 0 0 1-1.283 1.281zm.664-1.674c0-.31-.152-.479-.543-.479h-.666v1.73h.218v-.758h.31l.517.758h.246l-.516-.758c.234-.04.434-.174.434-.493zm-.712.299h-.278v-.585h.387c.186 0 .388.064.388.285-.002.288-.26.3-.497.3z" fill="#020202" transform="translate(71 5)"/></g></g></g></g></g></g></svg>