<svg width="64" height="14" viewBox="0 0 64 14" xmlns="http://www.w3.org/2000/svg"><title>microsoft</title><g id="Components-Design" fill="none" fill-rule="evenodd"><g id="Clients-&amp;-Partners" transform="translate(-637 -755)" fill-rule="nonzero"><g id="02-appear-in-out" transform="translate(365 567)"><g id="Group-2" transform="translate(102 178)"><g id="microsoft" transform="translate(170 10)"><g id="Group"><path d="M63.554 6.138V5.02h-1.388V3.283l-.046.014-1.304.399-.026.008V5.02h-2.057v-.733c0-.342.076-.603.227-.777.149-.172.363-.26.635-.26.196 0 .4.046.604.137l.05.023V2.233l-.023-.009c-.19-.068-.45-.103-.771-.103a2.26 2.26 0 0 0-1.094.263 1.87 1.87 0 0 0-.75.742 2.211 2.211 0 0 0-.266 1.088v.806h-.966v1.118h.966v4.709h1.388V6.138h2.057V9.13c0 1.233.582 1.857 1.728 1.857.188 0 .387-.022.59-.065.205-.045.346-.089.428-.136l.018-.011V9.647l-.056.037a.972.972 0 0 1-.279.122 1.06 1.06 0 0 1-.274.047c-.269 0-.467-.073-.59-.216-.125-.144-.189-.396-.189-.748V6.138h1.388zM53.28 9.853c-.503 0-.9-.167-1.18-.496-.281-.33-.424-.802-.424-1.4 0-.619.143-1.102.424-1.439.28-.334.673-.503 1.17-.503.48 0 .863.162 1.137.481.276.322.416.801.416 1.426 0 .633-.131 1.12-.39 1.444-.259.323-.646.487-1.153.487zm.062-4.973c-.96 0-1.724.281-2.268.837-.544.555-.82 1.323-.82 2.284 0 .912.27 1.646.8 2.18.532.535 1.254.806 2.148.806.93 0 1.679-.285 2.223-.848.543-.563.819-1.324.819-2.262 0-.926-.259-1.666-.769-2.197-.51-.53-1.228-.8-2.133-.8zm-5.324 0c-.654 0-1.194.167-1.607.497a1.585 1.585 0 0 0-.626 1.292c0 .274.045.517.135.723.09.207.229.389.414.541.184.152.468.31.843.472.316.13.552.24.702.327.146.085.25.17.309.254a.57.57 0 0 1 .086.33c0 .391-.294.582-.897.582-.223 0-.479-.047-.758-.14a2.85 2.85 0 0 1-.777-.393l-.058-.041v1.335l.022.01c.196.09.443.167.735.227.291.06.556.091.786.091.709 0 1.28-.168 1.697-.5.419-.333.631-.778.631-1.323 0-.392-.114-.73-.34-1-.223-.27-.612-.517-1.154-.736-.432-.173-.709-.317-.823-.428-.11-.107-.166-.258-.166-.449a.5.5 0 0 1 .21-.415c.143-.11.342-.166.59-.166.232 0 .469.036.704.108.235.071.441.167.614.284l.056.039V5.134l-.021-.01a3.027 3.027 0 0 0-.624-.173 3.805 3.805 0 0 0-.683-.071zm-5.85 4.973c-.504 0-.901-.167-1.18-.496-.282-.33-.425-.802-.425-1.4 0-.619.143-1.102.425-1.439.28-.334.672-.503 1.169-.503.48 0 .863.162 1.138.481.275.322.415.801.415 1.426 0 .633-.131 1.12-.39 1.444-.258.323-.646.487-1.152.487zm.061-4.973c-.96 0-1.724.281-2.267.837-.544.555-.82 1.323-.82 2.284 0 .912.27 1.646.8 2.18.53.535 1.253.806 2.147.806.931 0 1.68-.285 2.223-.848.544-.563.82-1.324.82-2.262 0-.926-.26-1.666-.77-2.197-.51-.53-1.228-.8-2.133-.8zm-5.193 1.15V5.02h-1.37v5.827h1.37v-2.98c0-.508.115-.924.342-1.238.223-.311.522-.469.886-.469.123 0 .262.02.412.061.149.04.256.084.32.13l.057.041V5.01L39.031 5c-.128-.053-.308-.08-.537-.08-.344 0-.652.11-.916.328-.232.191-.4.454-.528.781h-.014zM33.21 4.88c-.629 0-1.19.135-1.667.4a2.7 2.7 0 0 0-1.099 1.13c-.25.483-.377 1.047-.377 1.675 0 .55.123 1.056.367 1.501.243.446.588.795 1.025 1.037.436.242.94.364 1.499.364.65 0 1.207-.13 1.653-.387l.018-.01V9.334l-.058.042a2.576 2.576 0 0 1-.67.35 2.026 2.026 0 0 1-.657.127c-.538 0-.97-.169-1.283-.5-.314-.332-.473-.799-.473-1.386 0-.59.166-1.069.493-1.422.326-.352.759-.53 1.286-.53.45 0 .889.152 1.304.453l.058.042V5.187l-.019-.01a2.261 2.261 0 0 0-.634-.215 3.787 3.787 0 0 0-.766-.082zm-4.087.14h-1.37v5.827h1.37V5.02zm-.671-2.482a.826.826 0 0 0-.584.23.755.755 0 0 0-.245.57c0 .224.081.413.242.561.16.148.357.223.587.223.23 0 .427-.075.589-.223a.731.731 0 0 0 .245-.56.77.77 0 0 0-.239-.566.818.818 0 0 0-.595-.235zm-3.42 2.053v6.256h1.399v-8.13h-1.936l-2.46 6.038-2.388-6.038h-2.015v8.13h1.314V4.59h.045l2.522 6.257h.992l2.482-6.256h.045z" id="Shape" fill="#706D6E"/><path fill="#F1511B" d="M6.447 6.447H0V0h6.447z"/><path fill="#80CC28" d="M13.566 6.447H7.119V0h6.447z"/><path fill="#00ADEF" d="M6.447 13.568H0V7.121h6.447z"/><path fill="#FBBC09" d="M13.566 13.568H7.119V7.121h6.447z"/></g></g></g></g></g></g></svg>