<svg width="46" height="45" viewBox="0 0 46 45" xmlns="http://www.w3.org/2000/svg"><title>virgin</title><g id="Components-Design" fill="none" fill-rule="evenodd"><g id="Clients-&amp;-Partners" transform="translate(-646 -806)" fill-rule="nonzero"><g id="02-appear-in-out" transform="translate(365 567)"><g id="Group-2" transform="translate(102 178)"><g id="virgin" transform="translate(179 61)"><g id="Group"><path id="Shape" fill="#FFF" d="M0 0h45.942v44.943H0z"/><path d="M18.604 3.85c.725.003 1.106.557 1.242.74.063.184.115.37.182.75.01.075.013.122.013.2 0 .309-.077.485-.194.773-.101.25-.146.406-.332.604-.273.288-.466.375-.545.48-.036.05-.316.304-.397.42-.081.118-.396.598-.523.861-.104.216-.093.574-.462 1.072-.15.205-.279.306-.36.545-.08.242-.079.401-.21.62-.242.398-.464.57-.663.988-.192.404-.2.666-.328 1.09-.136.445-.448.621-.495 1.08-.026.215.025.342 0 .56-.073.66-.54.896-.875 1.475-.121.215-.121.373-.163.618a4.602 4.602 0 0 1-.224.858c-.189.554-.173.901-.284 1.475-.073.376-.117.59-.18.967-.032.197-.15.293-.15.494l.001.192c0 .13-.083.194-.09.326-.024.296-.078.458-.12.75-.205 1.478-.485 2.274-.851 3.721-.133.524-.13.835-.253 1.357-.092.389-.18.605-.21 1.005-.025.317-.021.494-.044.811-.027.364.016.572.016.937.002.21-.017.33-.043.54-.153 1.19-.419 2.062-.446 3.054v.65l-.103.945v.16c.003.502-.47.99-.926.99-.62-.001-.818-.636-.917-1.271-.062-.4-.128-.629-.187-1.03-.032-.228-.143-.329-.195-.55-.016-.077-.011-.123-.022-.191a60.86 60.86 0 0 0-.434-1.849c-.153-.591-.318-1.694-.343-1.72-.032-.031-.111-.459-.146-.88-.02-.248-.114-.51-.133-.619-.017-.121.03-.19.01-.311-.057-.335-.077-.527-.153-.855a9.33 9.33 0 0 1-.17-.814v-.133c-.042-.579-.23-1.258-.335-2.067-.047-.364-.028-.578-.061-.943-.029-.291-.051-.685-.19-.74-.192-.072-.254.197-.325.338-.157.307-.248.478-.38.798-.185.459-.25.731-.462 1.18-.236.497-.322.793-.537 1.301-.168.4-.435.757-.824.767-.33.007-.666-.35-.681-.647-.016-.238.11-.769.275-1.202.174-.454.305-.812.407-1.182.106-.395.173-.506.284-.926.14-.545.357-.908.51-1.45.181-.64.359-.932.573-1.562.1-.296.17-.508.253-.812.04-.142.191-.572.285-.945.073-.291.13-.6.209-.739.156-.232.427-.29.715-.289.607 0 1.017.31 1.023.898.005.392-.054.857.02 1.255.005.271.046.164.087.429.167 1.039.241 1.172.327 1.991.105.473.18 1.325.18 1.325 0 .333.127.906.204 1.23.073.318-.003.446.117.944.09.384.148.872.159 1.004.012.169.055.49.086.658.02.122.045.385.126.795.096.28.065.514.198.813.033.079.082.165.17.165.077.002.148-.115.2-.215.177-.325.162-.531.29-.88.162-.437.231-.726.301-1.152.117-.488.237-1.414.462-2.301.228-.897.317-1.413.493-2.317.122-.62.251-.994.36-1.581.065-.28.15-.434.148-.722.024-.166.073-.27.106-.443.12-.615.23-1.055.283-1.58v-.146c.029-.11.07-.366.21-.637.148-.438.29-.67.542-1.06.374-.581.318-1.029.54-1.682.032-.05.198-.408.234-.688.035-.035.129-.234.168-.465.086-.096.451-1.603.708-2.211.012-.149.142-.338.212-.549.062-.2.426-1.109.595-1.664.143-.45.098-.738.287-1.167.202-.458.326-.971.375-1.225.116-.282.228-.427.407-.678.256-.36.421-.595.839-.756.195-.073.329-.153.534-.153zm12.31 7.424c.459.002.926.302.908.752-.016.359-.131.43-.21.56-.125.202-.077.538-.778.604-.369-.002-.825-.415-.825-.881 0-.527.365-1.035.905-1.035zm4.552 1.538c.64.002.965.618.948 1.301-.002.064-.024.098-.024.163 0 .173.026.27.026.443 0 .161-.058.59-.058.59 0 .333-.103.516-.103.849 0 .094.029.148.029.243 0 .19-.029.297-.045.488-.04.467.285.498.393.713.23.104.344.3.606.3.12.001.49-.152.589-.185.48-.207.759-.319 1.22-.559.716-.369 1.01-.668 1.71-1.095.46-.288.889-.573 1.437-.572.454 0 .88.332 1.008.638.06.15.147.34.147.536 0 .071.032.109.032.179 0 .102-.003.162-.014.264-.034.29-.027.468-.135.737-.112.279-.304.38-.559.546-.283.189-.515.279-.861.279h-.182c-.243-.002-.35-.075-.594-.075-.383 0-.617.152-.958.32-.407.196-.869.453-1.01.52-.399.182-1.213.605-1.96 1.042-1.532.895-2.591 1.374-4.075 2.337-.575.375-.731.556-1.341.87-.375.197-.635.236-.995.458-.609.374-.937.637-1.434 1.15-.438.364-1.067 1-1.6 1.264a4.945 4.945 0 0 0-1.414 1.12c-.073.087-.418.302-.464.812l.113 1.398c.001.266-.126.442-.108.756l.015.986c.002.37.129.409.129.717l.011.394c0 .464.188.706.196 1.167-.046.5.006.72.019 1.197.014.465.084.745.2 1.195.084.336.055.519.205.827.217.46.314.715.546 1.17.155.303.25.552.25.892.002.662-.54 1.076-1.266 1.15-.065.008-.62.01-.847-.138-.283-.19-.362-.55-.38-.883-.02-.463-.01-.636-.088-1.108.004-.245-.06-.38-.125-.612-.145-.528-.246-.83-.259-1.375-.014-.7.044-1.095.044-1.797-.03-.463-.067-.725-.124-1.185-.06-.455-.15-.72-.206-1.174-.095-.766-.095-1.195-.14-1.967-.014-.189-.014-.29-.034-.477-.004-.232-.105-.343-.261-.345-.325 0-.463.232-.745.389-.391.214-.592.42-.923.715-.668.48-.947.756-1.487 1.33-.356.378-.523.634-.918.973-.318.273-.526.406-.83.693-.25.233-.335.422-.526.71-.173.253-.337.355-.573.557-.857.737-1.022.709-2.08 2.018-.31.385-.539.438-.617.565-.015.026-.365.307-.492.43a8.93 8.93 0 0 1-.594.538c-.337.265-.459.502-.783.782-.37.316-.6.51-1.07.661-.22.07-.304.147-.537.147-.481 0-.81-.446-.81-.916 0-.299.151-.41.332-.65a5.792 5.792 0 0 1 1.024-1.074c.722-.621.977-1.145 1.778-1.667.279-.18.978-.558 1.168-.701a5.07 5.07 0 0 0 .868-.83c.112-.141.239-.179.347-.324.114-.156.152-.27.287-.414.303-.321.534-.453.903-.705.48-.329.753-.475 1.207-.839.323-.257.464-.48.722-.797.513-.626.994-.793 1.659-1.267.308-.22.407-.432.647-.722.132-.16.571-.712 1.01-1.09.293-.253.472-.383.768-.634.51-.43.689-.276.676-.936 0-.114.032-.272-.143-.26-.16.015-.203.148-.322.251-.25.217-.405.324-.74.32-.682-.013-1.114-.609-1.135-.65-.193-.373-.505-1.508-.518-1.858 0 0-.022-.471 0-.739.026-.336.114-.95.328-1.315.117-.201.223-1 .367-1.738.052-.268.204-.54.293-.8.127-.375.188-.603.42-.928.408-.572.635-1.218 1.349-1.214.16 0 .232.038.377.106.091.049.194.065.25.15.049.075.003.143.077.199.135.102.196.311.196.519 0 .119 0 .189-.014.305-.053.47-.345.66-.647 1.031-.294.361-.365.479-.55.903-.15.346-.187.703-.261 1.072-.087.435-.163.822-.193 1.123-.011.096-.022.176-.022.276 0 .11.083.312.196.312.177 0 .336-.207.396-.371.142-.381.252-.568.35-.964.144-.563.237-.813.462-1.291.28-.592.309-.968.472-1.453.196-.584.365-1.123.995-1.12.202 0 .333.002.507.101.395.215.492.582.492 1.024a4.003 4.003 0 0 1-.022.35c-.145 1.321-.481 2.034-.592 3.364-.015.187 0 .299-.017.486-.029.334-.106.514-.105.85 0 .15.034.234.078.375.022.076.048.164.128.164.157 0 .224-.11.355-.192.255-.156.427-.209.678-.37.387-.25.637-.35 1.011-.616.382-.273.772-.694 1.168-.945.388-.245.437-.183.852-.438.504-.312.807-.473 1.282-.823.285-.214.296-.364.709-.59.395-.22.625-.338 1.01-.575.205-.127.308-.224.527-.323.182-.084.362-.164.362-.361-.002-.197-.126-.312-.23-.479-.147-.241-.174-.373-.175-.654 0-.139-.005-.244.017-.38.09-.547.307-.835.306-1.388l.017-.18c-.027-.02-.041-.045-.076-.045-.08 0-.125.1-.174.158-.146.164-.228.267-.37.434-.188.218-.31.336-.436.59-.074.14-.062.238-.12.384-.13.318-.223.506-.331.832-.296.873-.275 2.03-1.22 2.029-.618-.002-1.122-.483-1.123-1.09 0-.35.101-.882.145-.92.152-.126.03-.46.119-.538.074-.06.103-.367.103-.668 0-.14.04-.221.04-.359l.015-.224c0-.253.081-.384.119-.632.076-.504.21-.626.253-.77.024-.084.018-.123.048-.205.166-.456.128-.728.584-1.104.163-.16.266-.33.497-.33.533.002.68.3.818.287.25-.024.333-.212.51-.382.539-.505.884-1.12 1.638-1.119zm-5.963 3.222c.508 0 1.012.184.998.82-.007.377-.208.56-.344.908-.114.288-.055.483-.134.782-.121.445-.312.399-.285 1.151.01.564.008.883-.012 1.447-.022.542-.478.924-1.033.932-.483.01-.977-.551-.976-1.024 0-.337.098-.519.12-.856.015-.294-.007-.46.013-.753.03-.498.17-.765.328-1.24.08-.236.074-.389.166-.62.132-.337.17-.528.374-.855.088-.369.372-.694.785-.692zm-13.864 1.755c.306 0 .524.147.684.405.157.255.29.412.29.71 0 .052-.016.082-.016.133.003.51-.434.914-.957.914-.52-.004-.9-.525-.899-.971 0-.179.113-.292.132-.487.049-.46.35-.706.766-.704zm3.822 1.378c.535.002.772.432 1.035.889.258.443.546.683.546 1.188 0 .508-.338.762-.739 1.085-.227.185-.424.146-.722.234-.136.04-.164.222-.182.383-.032.295-.054.46-.06.753-.013.49.005.766.006 1.254-.052.271-.006.454-.136.694-.207.386-.535.576-.981.574-.518 0-.962-.4-.952-.908.001-.15.067-.607.059-.998-.015-.591-.062-.927-.064-1.52-.001-.296.135-.454.135-.753v-.25c-.008-.216.208-.413.435-.59.325-.254.46-.537.613-.916.252-.627.39-1.12 1.007-1.12zm-3.817 2.343c.26.003.438.095.59.296.247.329.4.572.402.978 0 .088-.006.136-.014.222-.04.333-.15.513-.332.796-.114.18-.117.32-.208.516-.171.358-.272.69-.286.975-.018.587-.026.918-.012 1.505.007.293.077.455.077.746.003.61-.363 1.23-.987 1.23-.617.002-1.206-.798-1.175-1.64.015-.304.064-.47.12-.768.093-.466.167-.995.254-1.196.119-.267.111-.362.133-.444l.071-.482c0-.197.08-.238.113-.432.068-.415.117-.646.253-1.047.082-.248.198-.36.285-.604.128-.35.336-.65.716-.65z" fill="#CA2A39"/></g></g></g></g></g></g></svg>