<svg width="15" height="18" viewBox="0 0 15 18" xmlns="http://www.w3.org/2000/svg"><g id="Symbols" fill="none" fill-rule="evenodd"><g id="Button--accent-mac" transform="translate(-14 -12)" fill="#FFF"><g id="Button"><g id="ios-10" transform="translate(14 12)"><g id="icon"><path d="M14.205 5.946c-1.067-1.505-2.721-1.71-3.302-1.727-1.39-.141-2.737.804-3.444.804-.722 0-1.812-.79-2.986-.767-1.511.023-2.925.87-3.7 2.184-1.6 2.68-.407 6.619 1.126 8.785.767 1.062 1.663 2.246 2.836 2.204 1.148-.045 1.576-.707 2.961-.707 1.372 0 1.775.707 2.97.68 1.232-.018 2.008-1.065 2.748-2.136.886-1.215 1.242-2.414 1.256-2.476-.028-.009-2.391-.881-2.415-3.52-.02-2.202 1.864-3.274 1.95-3.324z" id="Fill-2"/><path d="M9.995 2.794c.617-.747 1.04-1.763.923-2.794-.894.038-2.01.598-2.654 1.328-.57.644-1.078 1.699-.947 2.69 1.004.073 2.034-.489 2.678-1.224" id="Fill-3"/></g></g></g></g></g></svg>