<svg width="13" height="10" viewBox="0 0 13 10" xmlns="http://www.w3.org/2000/svg"><g id="Symbols" fill="none" fill-rule="evenodd"><g id="Button-Icon" transform="translate(-103 -17)" fill-rule="nonzero" fill="#4D61FC"><g id="Button"><g id="arrow-pointing-to-right" transform="translate(103 17)"><path d="M12.823 4.164L8.954.182a.592.592 0 0 0-.854 0 .635.635 0 0 0 0 .88l2.836 2.92H.604A.614.614 0 0 0 0 4.604c0 .344.27.622.604.622h10.332L8.1 8.146a.635.635 0 0 0 0 .88.594.594 0 0 0 .854 0l3.869-3.982a.635.635 0 0 0 0-.88z" id="Shape"/></g></g></g></g></svg>