<svg width="22" height="17" viewBox="0 0 22 17" xmlns="http://www.w3.org/2000/svg"><title>checked</title><g id="styleguide" fill="none" fill-rule="evenodd"><g id="Unicorn-Styleguide" transform="translate(-76 -2006)" fill-rule="nonzero" fill="#4BCA81"><g id="Icons" transform="translate(76 1963)"><g id="checked" transform="translate(0 43)"><path d="M.254 9.308A.914.914 0 0 1 0 8.715c0-.169.085-.423.254-.592l1.184-1.185a.818.818 0 0 1 1.185 0l4.739 5.077c.169.17.423.17.592 0L19.377.254a.818.818 0 0 1 1.185 0l1.184 1.184a.818.818 0 0 1 0 1.185L8.208 16.67a.768.768 0 0 1-.593.254.768.768 0 0 1-.592-.254L.253 9.308z" id="Shape"/></g></g></g></g></svg>