<svg width="10" height="15" viewBox="0 0 10 15" xmlns="http://www.w3.org/2000/svg"><title>placeholder</title><g id="Components-Design" fill="none" fill-rule="evenodd"><g id="Links-list" transform="translate(-704 -3284)"><g id="4" transform="translate(198 3023)"><g id="Group-11" transform="translate(0 212)"><g id="Group-10"><g id="Group-9" transform="translate(0 37)"><g id="placeholder" transform="translate(506 12)"><path d="M5 0C2.243 0 0 2.243 0 5c0 .931.258 1.84.746 2.63l3.97 6.395c.075.123.21.197.353.197h.004a.417.417 0 0 0 .354-.202l3.868-6.458A4.994 4.994 0 0 0 10 5c0-2.757-2.243-5-5-5z" id="Shape" fill="#4D61FC" fill-rule="nonzero"/><path d="M8.58 7.134l-3.517 5.871L1.455 7.19A4.162 4.162 0 0 1 .828 5 4.18 4.18 0 0 1 5 .828 4.179 4.179 0 0 1 9.17 5c0 .753-.206 1.491-.59 2.134z" id="Path" fill="#4D61FC"/><path d="M5 2.5A2.503 2.503 0 0 0 2.5 5c0 1.37 1.103 2.5 2.5 2.5 1.414 0 2.5-1.145 2.5-2.5 0-1.378-1.122-2.5-2.5-2.5z" fill="#4D61FC" fill-rule="nonzero"/><path d="M5 7.507A2.508 2.508 0 0 1 2.495 5a2.515 2.515 0 0 1 2.507-2.507 2.511 2.511 0 0 1 2.502 2.507A2.503 2.503 0 0 1 5 7.507z" fill="#FAFAFA"/></g></g></g></g></g></g></g></svg>