<svg width="12" height="11" viewBox="0 0 12 11" xmlns="http://www.w3.org/2000/svg"><title>Group 23</title><g id="styleguide" fill="none" fill-rule="evenodd"><g id="Unicorn-Styleguide" transform="translate(-175 -2006)" fill-rule="nonzero" fill="#CDD3FF"><g id="Icons" transform="translate(55 1963)"><g id="Group-22" transform="translate(120 43)"><g id="Group-23" transform="matrix(-1 0 0 1 12 0)"><path d="M6 8.836l-2.678 1.636a.5.5 0 0 1-.747-.543l.728-3.053L.919 4.835a.5.5 0 0 1 .286-.878l3.128-.251L5.538.808a.5.5 0 0 1 .924 0l1.205 2.898 3.128.25a.5.5 0 0 1 .286.879L8.697 6.876l.728 3.053a.5.5 0 0 1-.747.543L6 8.836z" id="Combined-Shape"/></g></g></g></g></g></svg>