<svg width="12" height="11" viewBox="0 0 12 11" xmlns="http://www.w3.org/2000/svg"><title>Star 2</title><g id="Components-Design" fill="none" fill-rule="evenodd"><g id="Header" transform="translate(-342 -6282)" fill-rule="nonzero" fill="#4D61FC"><g id="6" transform="translate(270 5804)"><g id="Group-11" transform="translate(0 178)"><g id="Group-10" transform="translate(0 244)"><g id="Group-9"><g id="Group-12" transform="translate(0 56)"><path d="M78 8.836l-2.678 1.636a.5.5 0 0 1-.747-.543l.728-3.053-2.384-2.041a.5.5 0 0 1 .286-.878l3.128-.251L77.538.808a.5.5 0 0 1 .924 0l1.205 2.898 3.128.25a.5.5 0 0 1 .286.879l-2.384 2.041.728 3.053a.5.5 0 0 1-.747.543L78 8.836z" id="Star-2"/></g></g></g></g></g></g></g></svg>