<svg width="12" height="11" viewBox="0 0 12 11" xmlns="http://www.w3.org/2000/svg"><title>Group 22</title><g id="Components-Design" fill="none" fill-rule="evenodd"><g id="Header" transform="translate(-342 -6282)"><g id="6" transform="translate(270 5804)"><g id="Group-11" transform="translate(0 178)"><g id="Group-10" transform="translate(0 244)"><g id="Group-9"><g id="Group-12" transform="translate(0 56)"><g id="Group-22" transform="translate(72)"><path d="M6 8.836l-2.678 1.636a.5.5 0 0 1-.747-.543l.728-3.053L.919 4.835a.5.5 0 0 1 .286-.878l3.128-.251L5.538.808a.5.5 0 0 1 .924 0l1.205 2.898 3.128.25a.5.5 0 0 1 .286.879L8.697 6.876l.728 3.053a.5.5 0 0 1-.747.543L6 8.836z" id="Star-2" fill="#4D61FC"/><g id="Group-23" transform="translate(2)" fill-rule="nonzero" fill="#CDD3FF"><path d="M.28 6l1.023.876L.575 9.93a.5.5 0 0 0 .747.543L4 8.836l2.678 1.636a.5.5 0 0 0 .747-.543l-.728-3.053 2.384-2.041a.5.5 0 0 0-.286-.878l-3.128-.251L4.462.808A.493.493 0 0 0 4 .5V6H.28z" id="Combined-Shape"/></g></g></g></g></g></g></g></g></g></svg>