<svg width="22" height="15" viewBox="0 0 22 15" xmlns="http://www.w3.org/2000/svg"><title>view</title><g id="styleguide" fill="none" fill-rule="evenodd"><g id="Unicorn-Styleguide" transform="translate(-363 -2128)" fill-rule="nonzero" fill="#FFF"><g id="Icons" transform="translate(55 1963)"><g id="view" transform="translate(308 165)"><path d="M21.86 6.624C21.664 6.354 16.98 0 11 0 5.019 0 .336 6.353.14 6.624a.734.734 0 0 0 0 .86C.336 7.756 5.019 14.11 11 14.11c5.98 0 10.664-6.354 10.86-6.624a.733.733 0 0 0 0-.861zM11 12.649c-4.406 0-8.221-4.217-9.35-5.595C2.776 5.674 6.584 1.46 11 1.46c4.405 0 8.22 4.216 9.35 5.595-1.127 1.38-4.935 5.594-9.35 5.594z" id="Shape"/><path d="M11 2.63a4.31 4.31 0 0 0-4.304 4.305A4.31 4.31 0 0 0 11 11.239a4.31 4.31 0 0 0 4.304-4.304A4.31 4.31 0 0 0 11 2.63zm0 7.174a2.873 2.873 0 0 1-2.87-2.87A2.873 2.873 0 0 1 11 4.066a2.873 2.873 0 0 1 2.87 2.87A2.873 2.873 0 0 1 11 9.805z"/></g></g></g></g></svg>