<svg id="Layer_1" xmlns="http://www.w3.org/2000/svg" width="32" height="32" viewBox="0 0 32 32"><path fill-rule="evenodd" clip-rule="evenodd" d="M31.5 12.8c-.3-1-.8-1.8-1.5-2.5-.6-.7-1.4-1.3-2.4-1.7-.9-.4-2-.6-3.1-.6-.9 0-1.8.1-2.6.4-.8.3-1.5.7-2.2 1.2-.7.5-1.3 1-1.9 1.7-.6.6-1.2 1.3-1.7 2-.6-.7-1.1-1.3-1.7-2-.6-.6-1.2-1.2-1.9-1.7s-1.4-.9-2.2-1.2c-1-.3-1.8-.4-2.8-.4-1.1 0-2.2.2-3.1.6-1 .4-1.7.9-2.4 1.7-.6.7-1.1 1.5-1.5 2.5-.3 1-.5 2-.5 3.1s.2 2.2.5 3.2.8 1.8 1.5 2.6c.6.7 1.4 1.3 2.4 1.7.9.4 2 .6 3.2.6.9 0 1.7-.1 2.5-.4.8-.3 1.5-.6 2.2-1.1.7-.4 1.3-1 1.9-1.6.6-.6 1.2-1.2 1.7-1.8.6.6 1.1 1.3 1.7 1.8.6.6 1.3 1.1 1.9 1.6.7.5 1.4.8 2.2 1.1.8.3 1.6.4 2.5.4 1.2 0 2.2-.2 3.2-.6.9-.4 1.7-1 2.4-1.7.6-.7 1.1-1.6 1.5-2.6.3-1 .5-2 .5-3.2s0-2.2-.3-3.1zm-19.3 4.6c-.4.4-.9.8-1.4 1.1-.5.3-1 .6-1.6.8-.5.2-1.1.3-1.7.3-1.1 0-1.9-.3-2.5-1-.6-.7-.9-1.6-.9-2.6s.3-1.9.9-2.6c.6-.7 1.5-1.1 2.6-1.1.6 0 1.1.1 1.7.4.5.2 1 .6 1.5.9.5.4.9.8 1.4 1.2.4.5.8.9 1.2 1.2-.4.5-.8 1-1.2 1.4zM27 18.6c-.6.7-1.4 1-2.5 1-.6 0-1.2-.1-1.7-.3-.5-.2-1.1-.5-1.6-.8-.5-.3-1-.7-1.4-1.1-.4-.4-.8-.8-1.2-1.3.3-.4.7-.8 1.2-1.2.4-.4.9-.9 1.4-1.2.5-.4 1-.7 1.5-.9.5-.2 1.1-.4 1.7-.4 1.1 0 1.9.4 2.6 1.1.6.7.9 1.6.9 2.6 0 .9-.3 1.8-.9 2.5z"/></svg>