<svg id="Layer_1" xmlns="http://www.w3.org/2000/svg" width="32" height="32" viewBox="0 0 32 32"><path d="M15.2.2L.8 6.9c-.4.2-.4.8 0 1l14.5 6.7c.4.2.9.2 1.4 0l14.5-6.7c.4-.2.4-.8 0-1L16.8.2c-.5-.3-1.1-.3-1.6 0z"/><path d="M31.2 15.6l-3-1.4c-.4-.2-.9-.2-1.4 0l-10.2 4.7c-.4.2-.9.2-1.4 0L5.1 14.2c-.4-.2-.9-.2-1.4 0l-3 1.4c-.4.2-.4.8 0 1l14.5 6.7c.4.2.9.2 1.4 0l14.5-6.7c.6-.2.6-.8.1-1z"/><path d="M31.2 24.1l-3-1.4c-.4-.2-.9-.2-1.4 0l-10.2 4.7c-.4.2-.9.2-1.4 0L5.1 22.7c-.4-.2-.9-.2-1.4 0l-3 1.4c-.4.2-.4.8 0 1l14.5 6.7c.4.2.9.2 1.4 0l14.5-6.7c.6-.1.6-.8.1-1z"/></svg>