<svg id="Layer_1" xmlns="http://www.w3.org/2000/svg" width="32" height="32" viewBox="0 0 32 32"><path d="M32 10.9v-.2-.1-.1-.1-.1-.1s0-.1-.1-.1V10s0-.1-.1-.1l-.1-.1s-.1 0-.1-.1h-.1L16.8.2c-.5-.3-1.1-.3-1.5 0L.6 10H.5s-.1 0-.1.1l-.1.1-.1.1v.1s0 .1-.1.1V22s0 .1.1.1v.1s0 .1.1.1l.1.1s.1 0 .1.1h.1l14.6 9.8c.2.2.5.2.8.2.3 0 .5-.1.8-.2L31.4 22h.1s.1 0 .1-.1l.1-.1.1-.1v-.1s0-.1.1-.1v-.1-.1-.1-.1-.1-.1-.1V10.9c.1.2.1.1.1 0zm-14.6-7l10.8 7.2-4.8 3.2-6-4V3.9zm-2.8 0v6.4l-6 4-4.8-3.2 10.8-7.2zM2.8 13.7L6.2 16l-3.4 2.3v-4.6zm11.8 14.4L3.9 20.9l4.8-3.2 6 4v6.4zm1.4-8.8L11.1 16l4.9-3.3 4.9 3.3-4.9 3.3zm1.4 8.8v-6.4l6-4 4.8 3.2-10.8 7.2zm11.8-9.8L25.8 16l3.4-2.3v4.6z"/></svg>