<svg id="Layer_1" xmlns="http://www.w3.org/2000/svg" width="32" height="32" viewBox="0 0 32 32"><path d="M32 12.5c0-1.2-.5-8.5-.5-8.5 0-1.2-.4-1.9-1-2.5-.5-.5-1.3-1-2.5-1 0 0-7.3-.5-8.5-.5-1.8 0-2.9-.1-5.1 2.2L.9 15.7c-.5.5-2.2 2.5.7 5.4l9.4 9.4c2.9 2.9 4.9 1.2 5.4.7l13.5-13.5c2.2-2.3 2.1-3.5 2.1-5.2zm-12.7 3.9l4.1 1.9-1.5 2.7-3.8-2.5c-.1-.1-.2-.1-.3-.1-.1 0-.2 0-.3.1-.2.1-.3.3-.3.5l.3 4.5h-3l.2-4.5c0-.2-.1-.4-.3-.5-.2-.1-.4-.1-.5 0L10.4 21l-1.6-2.6 4.1-2c.2-.1.3-.3.3-.5s-.1-.4-.3-.5l-4.1-1.9 1.5-2.7 3.8 2.5c.2.1.4.1.5 0 .2-.1.3-.3.3-.5l-.3-4.5h3l-.2 4.5c0 .2.1.4.3.5.2.1.4.1.5 0l3.7-2.5 1.6 2.6-4.1 2c-.2.1-.3.3-.3.5-.1.2 0 .4.2.5zm7-8.6c-1.1 0-1.9-.9-1.9-1.9 0-1.1.9-1.9 1.9-1.9 1.1 0 1.9.9 1.9 1.9 0 1.1-.9 1.9-1.9 1.9z"/></svg>