<svg id="Layer_1" xmlns="http://www.w3.org/2000/svg" width="32" height="32" viewBox="0 0 32 32"><path fill-rule="evenodd" clip-rule="evenodd" d="M16 32C7.2 32 0 24.8 0 16S7.2 0 16 0s16 7.2 16 16-7.2 16-16 16zm13.5-13.8c-.5-.2-4.2-1.3-8.5-.6 1.8 4.9 2.5 8.9 2.7 9.7 3-2 5.2-5.3 5.8-9.1zm-8.2 10.4c-.2-1.2-1-5.4-2.9-10.4h-.1c-7.7 2.7-10.5 8-10.7 8.5 2.3 1.8 5.2 2.9 8.4 2.9 1.9.1 3.7-.3 5.3-1zM5.8 25.2c.3-.5 4.1-6.7 11.1-9 .2-.1.4-.1.5-.2-.3-.8-.7-1.6-1.1-2.3-6.8 2-13.4 2-14 1.9v.4c0 3.5 1.4 6.7 3.5 9.2zm-3.2-12c.6 0 6.2 0 12.6-1.7-2.3-4-4.7-7.4-5.1-7.9C6.4 5.5 3.5 9 2.6 13.2zM12.8 2.7c.4.5 2.9 3.9 5.1 8 4.9-1.8 6.9-4.6 7.2-4.9-2.4-2.1-5.6-3.4-9.1-3.4-1.1 0-2.2.1-3.2.3zm13.8 4.7c-.3.4-2.6 3.3-7.6 5.4.3.7.6 1.3.9 2 .1.2.2.5.3.7 4.5-.6 9.1.3 9.5.4-.1-3.2-1.2-6.2-3.1-8.5z"/></svg>