<svg id="Layer_1" xmlns="http://www.w3.org/2000/svg" width="32" height="32" viewBox="0 0 32 32"><path d="M5.3 6.2h3c.2 0 .3-.1.3-.3V2.6c0-.6.1-1.1.3-1.5L9 .9 3.1 6.7c.1-.1.3-.1.3-.2.5-.2 1.2-.3 1.9-.3zm23.4-.6c-.2-1.3-1-1.9-1.7-2.2-.7-.3-2.2-.5-4.1-.8-1.5-.2-3.3-.2-4.4-.1-.1-.9-.8-1.7-1.4-2-1.9-.7-4.7-.6-5.4-.4-.6.2-1.2.5-1.6 1-.4.4-.5.9-.5 1.5v3.3c0 .7-.5 1.2-1.2 1.2h-3c-.6 0-1.1.1-1.5.3-.4.1-.6.3-.8.6-.4.6-.5 1.2-.5 1.9 0 0 0 .6.1 1.6.1.8 1 6.6 1.9 8.4.3.7.6 1 1.2 1.3 1.5.6 4.8 1.3 6.3 1.5 1.6.2 2.5.6 3.1-.6 0 0 .1-.3.3-.7.5-1.5.6-2.9.6-3.9 0-.1.1-.1.1 0 0 .7-.1 3.1 1.7 3.8.7.3 2.2.5 3.8.7 1.4.2 2.4.7 2.4 4.3 0 2.2-.5 2.5-2.8 2.5-1.9 0-2.7.1-2.7-1.5 0-1.2 1.2-1.1 2.1-1.1.4 0 .1-.3.1-1.1s.5-1.2 0-1.2c-3.1-.1-5 0-5 3.9 0 3.6 1.4 4.2 5.8 4.2 3.5 0 4.7-.1 6.2-4.6.3-.9 1-3.6 1.4-8.1.4-2.9-.1-11.5-.5-13.7zm-6.1 9.5c-.4 0-.8 0-1.2.1.1-.9.5-2 1.8-1.9 1.4 0 1.6 1.4 1.6 2.3-.7-.3-1.4-.4-2.2-.5z"/></svg>