<svg id="Layer_1" xmlns="http://www.w3.org/2000/svg" width="32" height="32" viewBox="0 0 32 32"><path d="M14.1 22.9l-1.2-3.2s-1.9 2.1-4.8 2.1c-2.5 0-4.3-2.2-4.3-5.7 0-4.5 2.3-6.1 4.5-6.1 3.2 0 4.3 2.1 5.1 4.8l1.2 3.7c1.2 3.6 3.4 6.4 9.7 6.4 4.5 0 7.6-1.4 7.6-5.1 0-3-1.7-4.5-4.8-5.2l-2.3-.5c-1.6-.4-2.1-1-2.1-2.1 0-1.2 1-2 2.6-2 1.8 0 2.7.7 2.9 2.2l3.7-.4c-.3-3.3-2.6-4.7-6.3-4.7-3.3 0-6.5 1.2-6.5 5.2 0 2.5 1.2 4.1 4.3 4.8l2.5.6c1.9.4 2.5 1.2 2.5 2.3 0 1.4-1.3 1.9-3.8 1.9-3.7 0-5.2-1.9-6.1-4.6l-1.2-3.7c-1.5-4.8-4-6.5-8.9-6.5-5.5 0-8.4 3.4-8.4 9.2 0 5.6 2.9 8.6 8 8.6 4.1 0 6.1-2 6.1-2z"/></svg>