<svg xmlns="http://www.w3.org/2000/svg" xmlns:xlink="http://www.w3.org/1999/xlink" width="23" height="18" viewBox="0 0 23 18"><defs><path id="a" d="M446.09 870.4l-6.45 10.47-4.63-7.53 3.69-6a.73.73 0 0 1 .93-.27l6.42 3.21.02.01c.03.03.04.07.02.1zm-7.05 11.44l-6.07-3.03v-6.84zm7.1-9.58v12.03c0 .6-.53.83-1.19.5l-5-2.5zm-14.18-1.9v13.93c0 .44-.24.7-.59.7a.9.9 0 0 1-.4-.1l-5.51-2.75c-.33-.17-.6-.6-.6-.96v-13.52c0-.36.2-.57.47-.57.1 0 .2.02.32.08l6.27 3.13c.02.02.04.04.04.07z"/></defs><use xlink:href="#a" transform="translate(-424 -867)"/></svg>