<svg id="Layer_1" xmlns="http://www.w3.org/2000/svg" width="32" height="32" viewBox="0 0 32 32"><path d="M32 15.7c0-2.1-1.7-3.8-3.8-3.8-.9 0-1.8.3-2.4.9-2.3-1.5-5.3-2.4-8.5-2.5L19 5l4.5 1c.1 1.7 1.5 3 3.2 3 1.8 0 3.2-1.4 3.2-3.2 0-1.8-1.4-3.2-3.2-3.2-1.2 0-2.3.7-2.9 1.7L18.5 3c-.4-.1-.9.2-1 .6l-2.1 6.5c-3.4.1-6.7 1-9.2 2.5-.7-.5-1.5-.8-2.4-.8-2.1 0-3.8 1.7-3.8 3.8 0 1.3.7 2.5 1.7 3.2 0 .3-.1.6-.1.9 0 2.7 1.5 5.1 4.3 6.9 2.7 1.8 6.2 2.7 10 2.7s7.3-1 10-2.7c2.8-1.8 4.3-4.3 4.3-6.9 0-.3 0-.6-.1-.8 1.2-.6 1.9-1.8 1.9-3.2zM26.7 4.3c.8 0 1.5.7 1.5 1.5s-.7 1.5-1.5 1.5-1.5-.7-1.5-1.5.7-1.5 1.5-1.5zM9.1 18.1c0-1.2 1-2.2 2.2-2.2 1.2 0 2.2 1 2.2 2.2s-1 2.2-2.2 2.2c-1.2 0-2.2-1-2.2-2.2zm12.2 6.4c-1.1 1.1-2.8 1.7-5.3 1.7-2.4 0-4.1-.5-5.3-1.7-.3-.3-.3-.9 0-1.2.3-.3.9-.3 1.2 0 .8.8 2.1 1.1 4 1.1s3.2-.4 4-1.1c.3-.3.9-.3 1.2 0 .5.3.5.8.2 1.2zm-.5-4.2c-1.2 0-2.2-1-2.2-2.2s1-2.2 2.2-2.2c1.2 0 2.2 1 2.2 2.2s-1 2.2-2.2 2.2z"/></svg>