<svg id="Layer_1" xmlns="http://www.w3.org/2000/svg" width="32" height="32" viewBox="0 0 32 32"><path d="M13.3 1.2c-.1 0-.1-.1-.2-.1h-.2l.4.1zM1.2 13.2v.2c0 .1.1.1.1.2l-.1-.4zM30.8 18.8v-.2c0-.1-.1-.1-.1-.2l.1.4zM18.5 30.7c.1 0 .1.1.2.1h.2l-.4-.1z"/><path d="M30.9 18.7v.2l-.1-.3.1.1c.2-.9.3-1.8.3-2.7 0-2-.4-4-1.2-5.9-.8-1.8-1.8-3.4-3.2-4.8-1.4-1.4-3-2.5-4.8-3.2-2-.9-4-1.3-6-1.3-1 0-1.9.1-2.9.3.1 0 .1.1.2.1H13h.2C11.9.5 10.5.2 9 .2 6.6 0 4.3 1 2.6 2.7.9 4.3 0 6.6 0 9c0 1.5.4 3 1.1 4.3v-.2l.1.3s-.1-.1-.1-.2c-.1.9-.2 1.7-.2 2.6 0 2 .4 4 1.2 5.9.8 1.8 1.8 3.4 3.2 4.8 1.4 1.4 3 2.5 4.8 3.2C12 30.6 14 31 16 31c.9 0 1.8-.1 2.6-.2-.1 0-.1-.1-.2-.1l.3.1h-.2c1.3.8 2.9 1.2 4.4 1.2 2.4 0 4.6-.9 6.3-2.6 1.7-1.7 2.6-3.9 2.6-6.3.2-1.6-.2-3.1-.9-4.4zm-14.8 6.5c-5.4 0-7.8-2.6-7.8-4.6 0-1 .7-1.7 1.8-1.7 2.3 0 1.7 3.3 6 3.3 2.2 0 3.4-1.2 3.4-2.4 0-.7-.4-1.5-1.8-1.9l-4.8-1.2c-3.8-1-4.5-3-4.5-5 0-4.1 3.8-5.6 7.4-5.6 3.3 0 7.2 1.8 7.2 4.3 0 1-.9 1.6-1.9 1.6-2 0-1.6-2.7-5.5-2.7-2 0-3 .9-3 2.2 0 1.3 1.5 1.7 2.9 2l3.5.8c3.9.9 4.9 3.1 4.9 5.3-.2 3.1-2.7 5.6-7.8 5.6z"/></svg>