<svg id="Layer_1" xmlns="http://www.w3.org/2000/svg" width="32" height="32" viewBox="0 0 32 32"><path transform="rotate(-108.518 16 16)" d="M13.8 13.7h4.3v4.5h-4.3z"/><path transform="rotate(-108.518 16 16)" d="M13.8 13.7h4.3v4.5h-4.3z"/><path d="M30.7 11.6C27.4.6 22.6-2 11.6 1.3.6 4.6-2 9.4 1.3 20.4c3.3 11 8.1 13.6 19.1 10.3 11-3.3 13.6-8.1 10.3-19.1zm-5.6 7.1l-2.1.7.7 2.1c.3.9-.2 1.8-1 2.1-.2.1-.4.1-.6.1-.7 0-1.3-.5-1.5-1.1l-.7-2.1-4.3 1.4.7 2.1c.3.9-.2 1.8-1 2.1-.2.1-.4.1-.6.1-.7 0-1.3-.5-1.5-1.1l-.7-2.1-2.1.7c-.2.1-.4.1-.6.1-.7 0-1.3-.5-1.5-1.1-.3-.9.2-1.8 1-2.1l2.1-.7-1.4-4.2-2 .7c-.2.1-.4.1-.6.1-.7 0-1.3-.5-1.5-1.1-.3-.9.2-1.8 1-2.1l2.1-.7-.7-2.1c-.3-.9.1-1.9 1-2.2.9-.3 1.8.2 2.1 1l.7 2.1 4.3-1.4-.7-2.1c-.3-.9.2-1.8 1-2.1.9-.3 1.8.2 2.1 1l.7 2.2 2.1-.7c.9-.3 1.8.2 2.1 1 .3.9-.2 1.8-1 2.1l-2.1.7 1.4 4.1 2.1-.7c.9-.3 1.8.2 2.1 1 .2 1-.2 1.9-1.1 2.2z"/></svg>