<svg id="Layer_1" xmlns="http://www.w3.org/2000/svg" width="32" height="32" viewBox="0 0 32 32"><path d="M.6 16.4c0-.1-.1-.1-.1-.1-.1 0-.1.1-.1.1l-.3 3 .3 2.9c0 .1.1.1.1.1.1 0 .1-.1.1-.1l.4-2.9-.4-3zM5.7 13.7c-.1 0-.2.1-.3.2l-.3 5.5.3 3.5c0 .1.1.2.3.2.1 0 .2-.1.3-.2l.3-3.5-.3-5.5c0-.1-.1-.2-.3-.2zM3.1 15.6c-.1 0-.2.1-.2.2l-.3 3.6.3 3.5c0 .1.1.2.2.2s.2-.1.2-.2l.3-3.5-.3-3.6c0-.2-.1-.2-.2-.2zM8.4 23.2c.2 0 .3-.1.3-.3l.3-3.5-.3-7.3c0-.2-.1-.3-.3-.3-.2 0-.3.1-.3.3l-.2 7.3.2 3.5c0 .1.2.3.3.3zM14 23.2c.2 0 .4-.2.4-.4l.2-3.4-.2-8.4c0-.2-.2-.4-.4-.4s-.4.2-.4.4l-.2 8.4.2 3.4c-.1.2.1.4.4.4zM11.2 23.2c.2 0 .4-.2.4-.4l.2-3.4-.3-7.4c0-.2-.2-.4-.4-.4s-.4.2-.4.4l-.2 7.3.2 3.4c.1.3.3.5.5.5zM27.9 15c-.6 0-1.1.1-1.6.3-.3-3.7-3.4-6.6-7.2-6.6-.9 0-1.8.2-2.6.5-.3.1-.4.2-.4.5v12.9c0 .2.2.5.4.5h11.3c2.3 0 4.1-1.8 4.1-4.1s-1.7-4-4-4z"/></svg>