<svg id="Layer_1" xmlns="http://www.w3.org/2000/svg" width="32" height="32" viewBox="0 0 32 32"><path d="M16 0C7.2 0 0 7.2 0 16s7.2 16 16 16 16-7.2 16-16S24.9 0 16 0zm7.4 23.1c-.3.5-.9.6-1.4.3-3.8-2.3-8.5-2.8-14.1-1.5-.6.2-1-.2-1.2-.7-.2-.6.2-1 .7-1.2 6.1-1.4 11.4-.8 15.5 1.8.6.2.7.8.5 1.3zm1.9-4.4c-.4.6-1.1.8-1.7.4-4.3-2.6-10.9-3.4-15.9-1.8-.6.2-1.4-.2-1.5-.8-.2-.7.1-1.4.8-1.5 5.8-1.8 13-.9 18 2.2.4.2.7 1 .3 1.5zm.1-4.5c-5.1-3-13.7-3.4-18.6-1.8-.8.2-1.6-.2-1.8-1-.2-.8.2-1.6 1-1.8 5.7-1.7 15-1.4 21 2.2.7.4 1 1.4.6 2.1-.5.5-1.4.7-2.2.3z"/></svg>