<svg xmlns="http://www.w3.org/2000/svg" xmlns:xlink="http://www.w3.org/1999/xlink" width="22" height="19" viewBox="0 0 22 19"><defs><path id="a" d="M374.86 874.37l19.6-7.55c.41-.16.84.2.75.64l-3.52 16.9a.56.56 0 0 1-.88.34l-4.8-3.48a.8.8 0 0 0-.97.03l-2.66 2.17a.56.56 0 0 1-.9-.27l-1.84-5.94-4.78-1.78a.56.56 0 0 1 0-1.06zm5.92 2.95l1 3.54c.08.25.44.22.48-.03l.26-1.95c.05-.36.23-.7.5-.95l7.7-7.16c.14-.13-.03-.36-.2-.25l-9.33 5.74a.94.94 0 0 0-.41 1.06z"/></defs><use xlink:href="#a" transform="translate(-374 -866)"/></svg>