<svg id="Layer_1" xmlns="http://www.w3.org/2000/svg" width="32" height="32" viewBox="0 0 32 32"><path d="M4.7 15.4c-.5.8-.7 3.5-.5 5.2.1.6.2 1.1.3 1.3.2.4.5.6.9.6.2 0 .4 0 5.1-1.6l2.1-.7c.5-.1.9-.6.9-1.3 0-.6-.3-1.2-.8-1.4l-1.5-.6c-5-2.1-5.3-2.2-5.5-2.2-.4.1-.8.3-1 .7zM16 31.3c.1-.2.1-.4.1-5.5v-2.3c0-.5-.3-1-.9-1.3-.6-.2-1.2-.1-1.6.4l-1 1.3c-3.5 4.2-3.7 4.4-3.8 4.7-.1.1-.1.3-.1.5s.1.4.3.7c.8 1 4.8 2.5 6 2.3.5-.2.8-.5 1-.8zM24 29.5c1.2-.5 3.8-3.8 4-5.1.1-.5-.1-.8-.4-1.1-.2-.2-.4-.2-5-1.8l-2.1-.7c-.5-.2-1.1 0-1.4.5-.4.5-.5 1.1-.1 1.6l.8 1.4c2.8 4.6 3 5 3.2 5.1.1.2.5.3 1 .1zM21.5 17.6c5.3-1.3 5.5-1.4 5.7-1.5.3-.2.5-.6.5-1-.1-1.3-2.4-4.8-3.6-5.4-.4-.2-.8-.2-1.1 0-.2.1-.4.3-3.2 4.3l-1.3 1.8c-.3.4-.3 1 0 1.5s.9.8 1.5.6c.2 0 .7-.1 1.5-.3zM16.2 13.1c-.1-2.2-.7-11.8-.8-12.2-.1-.4-.4-.7-.9-.8C13.1-.3 7.9 1.2 7 2.2c-.3.3-.4.8-.4 1.1.2.3 6.6 10.7 6.6 10.7 1 1.6 1.7 1.3 2 1.3.3-.1 1.1-.4 1-2.2z"/></svg>