<svg width="796" height="198" viewBox="0 0 796 198" xmlns="http://www.w3.org/2000/svg"><title>lifehacker</title><g id="Page-1" fill="none" fill-rule="evenodd"><g id="lifehacker" transform="translate(0 -1)" fill-rule="nonzero" fill="#000"><g id="g10" transform="matrix(1 0 0 -1 0 198.987)"><g id="g12"><path id="path14" d="M30.498 2.214H0v193.81l30.498-1.967V2.214"/><path d="M80.425 2.214H49.927v138.225l30.498-1.722V2.214zm-15.25 180.283c9.593 0 17.463-7.87 17.463-17.462 0-9.594-7.87-17.464-17.463-17.464-9.592 0-17.462 7.87-17.462 17.464 0 9.592 7.87 17.462 17.462 17.462z" id="path16"/><path d="M153.225 112.647V82.149h-22.873V2.347H99.854v151.62c0 23.118 19.183 44.025 41.811 44.025 7.624 0 13.774-2.215 15.25-3.197l-1.231-29.268h-14.019c-6.149 0-11.313-5.166-11.313-11.56v-41.32h22.873" id="path18"/><path d="M196.06 86.084h22.873v14.264c0 6.396-5.165 11.56-11.314 11.56a11.545 11.545 0 0 1-11.559-11.56V86.084zm-30.499 14.264c0 23.121 18.692 42.059 42.058 42.059 23.12 0 41.812-18.938 41.812-42.059V70.834c0-8.607-6.887-15.248-15.248-15.248H196.06V42.304c0-6.393 5.164-11.56 11.559-11.56h29.269l.984-25.825-27.547-4.18c-26.564-4.428-44.764 18.446-44.764 41.565v58.044z" id="path20"/><path d="M275.51 2.214v192.58h19.678V136.26c5.41 1.721 14.019 2.458 19.921 2.458 20.907 0 37.139-18.938 37.139-40.336V2.214h-19.184V98.38c0 10.576-8.608 18.939-19.184 18.939h-18.692V2.214h-19.677" id="path22"/><path d="M424.232 39.352v33.204h-18.939c-10.574 0-18.937-8.363-18.937-18.937V39.352c0-10.574 8.363-19.183 18.937-19.183 10.578 0 18.939 8.609 18.939 19.183zm0 62.227c0 11.068-5.165 19.923-19.184 18.446h.245c-7.87-.246-17.953-1.23-26.316-1.721-.245 7.132-.492 9.838-.737 15.248 6.64 2.46 16.232 4.92 24.35 5.165 24.594.492 40.827-19.43 40.827-40.827V39.352c0-21.15-16.97-38.613-38.124-38.613-21.15 0-38.613 17.463-38.613 38.613v12.052c0 21.152 14.51 37.139 38.613 37.139 9.102 0 13.774-.984 18.939-2.459v15.495z" id="path24"/><path d="M498.519 138.717c21.153 0 38.614-17.215 38.614-38.614v-2.46c-7.624-.246-13.773-.246-19.429-.491v2.951c0 10.33-8.61 18.938-19.185 18.938-10.33 0-18.694-8.608-18.694-18.938V38.615c0-10.822 8.364-18.939 18.694-18.939 10.33 0 18.938 7.87 19.185 18.202 9.59-.74 18.692-1.231 19.43-1.231C536.148 16.233 518.933 0 498.518 0c-21.151 0-38.37 17.217-38.37 38.615v61.488c0 21.399 17.219 38.614 38.37 38.614" id="path26"/><path d="M614.655 2.214L577.27 67.392c-3.691 6.393-3.691 7.132.737 14.757l32.957 54.6h22.383l-37.14-62.964 40.09-71.571h-21.643.001zM572.35 194.303V2.213h-19.676v192.09h19.676z" id="path28"/><path d="M660.119 79.197h37.877v20.66c0 10.576-8.61 19.184-18.939 19.184-10.576 0-18.938-8.608-18.938-19.183V79.197zm-19.676 20.66c0 21.398 17.217 38.86 38.614 38.86 21.151 0 38.37-17.462 38.37-38.86V69.606c0-5.658-4.428-9.838-9.839-9.838h-47.47V38.86c0-10.576 8.363-19.185 18.94-19.185h24.84c.246-6.393.493-10.823.985-15.248L681.27.738c-24.103-4.18-40.828 16.725-40.828 38.123v60.997l.001-.001z" id="path30"/><path d="M754.361 2.214h-19.677v95.921c0 21.399 16.725 41.32 41.32 40.829 8.363-.247 13.528-2.215 19.185-4.92-.246-5.902-.492-10.822-.737-15.249l-21.399.492c-10.33 0-18.692-11.068-18.692-21.152V2.214" id="path32"/></g></g></g></g></svg>