<svg width="42" height="38" viewBox="0 0 42 38" xmlns="http://www.w3.org/2000/svg"><title>Fill-3</title><g id="press-03" fill="none" fill-rule="evenodd"><g id="mashable-3bc31db43a9667bc" transform="translate(-15 -17)" fill-rule="nonzero" fill="#FFF"><path d="M32.151 28.1a153.517 153.517 0 0 1 3.484 14.053c.096.399.088.848.36 1.179 1.083-4.57 2.257-9.118 3.618-13.61 1.335-4.242 2.703-8.472 4.031-12.715 3.76-.007 7.521.007 11.28-.007.711 12.662 1.365 25.33 2.076 37.993-2.808.01-5.614.003-8.42.003-.419-10.061-.912-20.124-.961-30.194a8.07 8.07 0 0 0-.31 1.014c-1.797 7.108-4.148 14.052-6.296 21.057-.776 2.5-1.551 4.999-2.333 7.496-2.256.002-4.51-.003-6.766.002-1.271-4.495-2.494-9.004-3.744-13.505-1.498-5.308-2.701-10.695-3.773-16.105-.111 1.004-.116 2.015-.153 3.024-.293 9.077-.76 18.147-1.243 27.215-2.667-.008-5.334.004-8.001-.007.805-12.66 1.649-25.32 2.442-37.98 3.821-.018 7.642.001 11.463-.01 1.074 3.701 2.168 7.397 3.246 11.097z" id="Fill-3"/></g></g></svg>