<svg width="154" height="133" viewBox="0 0 154 133" xmlns="http://www.w3.org/2000/svg"><title>medium-logo-social-media-3f93197769e72622</title><g id="press-03" fill="none" fill-rule="evenodd"><g id="medium-logo-social-media-3f93197769e72622" fill-rule="nonzero" fill="#FFF"><path d="M104.421.143c-.79-.372-1.421 0-1.421.904v107.89l46.79 23.61c2.315 1.17 4.21 0 4.21-2.659V26.04c0-.532-.263-1.01-.737-1.223L104.421.143z" id="XMLID_103_" opacity=".4"/><path d="M51 83.248L101.386.829c.476-.745 1.48-1.064 2.273-.638l48.694 24.475c.582.32.846 1.064.476 1.65L102.232 109 51 83.248z" id="XMLID_102_" opacity=".56"/><path d="M5.237 2.711c-3.118-1.59-4.175-.424-2.325 2.596l47.88 77.995L102 109 51.108 26.078c-.21-.371-.528-.636-.898-.848L5.237 2.71z" id="XMLID_101_" opacity=".8"/><path d="M51 129.907c0 2.597-1.895 3.815-4.21 2.65L2.841 110.408C1.263 109.613 0 107.547 0 105.798V3.058c0-1.75 1.263-2.544 2.842-1.75l47.526 23.95c.369.213.632.584.632 1.007v103.642z" id="XMLID_100_"/></g></g></svg>