<?xml version="1.0" encoding="UTF-8"?>
<!--Generator: Apple Native CoreSVG 149-->
<!DOCTYPE svg
PUBLIC "-//W3C//DTD SVG 1.1//EN"
       "http://www.w3.org/Graphics/SVG/1.1/DTD/svg11.dtd">
<svg version="1.1" xmlns="http://www.w3.org/2000/svg" xmlns:xlink="http://www.w3.org/1999/xlink" width="3300" height="2200">
 <!--glyph: "uni100765.medium", point size: 100.000000, font version: "Version 16.0d18e1", template writer version: "8"-->
 <g id="Notes">
  <rect height="2200" id="artboard" style="fill:white;opacity:1" width="3300" x="0" y="0"/>
  <line id="" style="fill:none;stroke:black;opacity:1;stroke-width:0.5;" x1="263" x2="3036" y1="292" y2="292"/>
  <text style="stroke:none;fill:black;font-family:-apple-system,&quot;SF Pro Display&quot;,&quot;SF Pro Text&quot;,Helvetica,sans-serif;font-weight:bold;" transform="matrix(1 0 0 1 263 322)">Weight/Scale Variations</text>
  <text style="stroke:none;fill:black;font-family:-apple-system,&quot;SF Pro Display&quot;,&quot;SF Pro Text&quot;,Helvetica,sans-serif;text-anchor:middle;" transform="matrix(1 0 0 1 559.711 322)">Ultralight</text>
  <text style="stroke:none;fill:black;font-family:-apple-system,&quot;SF Pro Display&quot;,&quot;SF Pro Text&quot;,Helvetica,sans-serif;text-anchor:middle;" transform="matrix(1 0 0 1 856.422 322)">Thin</text>
  <text style="stroke:none;fill:black;font-family:-apple-system,&quot;SF Pro Display&quot;,&quot;SF Pro Text&quot;,Helvetica,sans-serif;text-anchor:middle;" transform="matrix(1 0 0 1 1153.13 322)">Light</text>
  <text style="stroke:none;fill:black;font-family:-apple-system,&quot;SF Pro Display&quot;,&quot;SF Pro Text&quot;,Helvetica,sans-serif;text-anchor:middle;" transform="matrix(1 0 0 1 1449.84 322)">Regular</text>
  <text style="stroke:none;fill:black;font-family:-apple-system,&quot;SF Pro Display&quot;,&quot;SF Pro Text&quot;,Helvetica,sans-serif;text-anchor:middle;" transform="matrix(1 0 0 1 1746.56 322)">Medium</text>
  <text style="stroke:none;fill:black;font-family:-apple-system,&quot;SF Pro Display&quot;,&quot;SF Pro Text&quot;,Helvetica,sans-serif;text-anchor:middle;" transform="matrix(1 0 0 1 2043.27 322)">Semibold</text>
  <text style="stroke:none;fill:black;font-family:-apple-system,&quot;SF Pro Display&quot;,&quot;SF Pro Text&quot;,Helvetica,sans-serif;text-anchor:middle;" transform="matrix(1 0 0 1 2339.98 322)">Bold</text>
  <text style="stroke:none;fill:black;font-family:-apple-system,&quot;SF Pro Display&quot;,&quot;SF Pro Text&quot;,Helvetica,sans-serif;text-anchor:middle;" transform="matrix(1 0 0 1 2636.69 322)">Heavy</text>
  <text style="stroke:none;fill:black;font-family:-apple-system,&quot;SF Pro Display&quot;,&quot;SF Pro Text&quot;,Helvetica,sans-serif;text-anchor:middle;" transform="matrix(1 0 0 1 2933.4 322)">Black</text>
  <line id="" style="fill:none;stroke:black;opacity:1;stroke-width:0.5;" x1="263" x2="3036" y1="1903" y2="1903"/>
  <g id="" transform="matrix(1 0 0 1 263 1933)">
   <path d="M9.24805 0.830078C13.5547 0.830078 17.1387-2.74414 17.1387-7.05078C17.1387-11.3574 13.5449-14.9316 9.23828-14.9316C4.94141-14.9316 1.36719-11.3574 1.36719-7.05078C1.36719-2.74414 4.95117 0.830078 9.24805 0.830078ZM9.24805-0.654297C5.70312-0.654297 2.87109-3.49609 2.87109-7.05078C2.87109-10.6055 5.69336-13.4473 9.23828-13.4473C12.793-13.4473 15.6348-10.6055 15.6445-7.05078C15.6543-3.49609 12.8027-0.654297 9.24805-0.654297ZM6.39648-6.31836L8.50586-6.31836L8.50586-4.19922C8.50586-3.75977 8.79883-3.45703 9.22852-3.45703C9.67773-3.45703 9.9707-3.75977 9.9707-4.19922L9.9707-6.31836L12.0996-6.31836C12.5391-6.31836 12.8418-6.61133 12.8418-7.04102C12.8418-7.48047 12.5391-7.7832 12.0996-7.7832L9.9707-7.7832L9.9707-9.89258C9.9707-10.3418 9.67773-10.6445 9.22852-10.6445C8.79883-10.6445 8.50586-10.3418 8.50586-9.89258L8.50586-7.7832L6.39648-7.7832C5.94727-7.7832 5.64453-7.48047 5.64453-7.04102C5.64453-6.61133 5.94727-6.31836 6.39648-6.31836Z"/>
  </g>
  <g id="" transform="matrix(1 0 0 1 281.506 1933)">
   <path d="M11.709 2.91016C17.1582 2.91016 21.6699-1.61133 21.6699-7.05078C21.6699-12.5 17.1484-17.0117 11.6992-17.0117C6.25977-17.0117 1.74805-12.5 1.74805-7.05078C1.74805-1.61133 6.26953 2.91016 11.709 2.91016ZM11.709 1.25C7.09961 1.25 3.41797-2.44141 3.41797-7.05078C3.41797-11.6602 7.08984-15.3516 11.6992-15.3516C16.3086-15.3516 20-11.6602 20.0098-7.05078C20.0195-2.44141 16.3184 1.25 11.709 1.25ZM7.98828-6.23047L10.8789-6.23047L10.8789-3.32031C10.8789-2.83203 11.2109-2.5 11.6895-2.5C12.1777-2.5 12.5195-2.83203 12.5195-3.32031L12.5195-6.23047L15.4297-6.23047C15.918-6.23047 16.25-6.5625 16.25-7.04102C16.25-7.5293 15.918-7.87109 15.4297-7.87109L12.5195-7.87109L12.5195-10.7617C12.5195-11.2695 12.1777-11.6016 11.6895-11.6016C11.2109-11.6016 10.8789-11.2598 10.8789-10.7617L10.8789-7.87109L7.98828-7.87109C7.48047-7.87109 7.14844-7.5293 7.14844-7.04102C7.14844-6.5625 7.49023-6.23047 7.98828-6.23047Z"/>
  </g>
  <g id="" transform="matrix(1 0 0 1 304.924 1933)">
   <path d="M14.9707 5.66406C21.9336 5.66406 27.6953-0.0976562 27.6953-7.05078C27.6953-14.0137 21.9238-19.7754 14.9609-19.7754C8.00781-19.7754 2.25586-14.0137 2.25586-7.05078C2.25586-0.0976562 8.01758 5.66406 14.9707 5.66406ZM14.9707 3.84766C8.93555 3.84766 4.08203-1.01562 4.08203-7.05078C4.08203-13.0957 8.92578-17.9492 14.9609-17.9492C21.0059-17.9492 25.8594-13.0957 25.8691-7.05078C25.8789-1.01562 21.0156 3.84766 14.9707 3.84766ZM10.0586-6.14258L14.0625-6.14258L14.0625-2.12891C14.0625-1.5918 14.4336-1.2207 14.9512-1.2207C15.4883-1.2207 15.8594-1.5918 15.8594-2.12891L15.8594-6.14258L19.8828-6.14258C20.4102-6.14258 20.791-6.51367 20.791-7.03125C20.791-7.56836 20.4199-7.94922 19.8828-7.94922L15.8594-7.94922L15.8594-11.9531C15.8594-12.5098 15.4883-12.8809 14.9512-12.8809C14.4336-12.8809 14.0625-12.5 14.0625-11.9531L14.0625-7.94922L10.0586-7.94922C9.50195-7.94922 9.13086-7.56836 9.13086-7.03125C9.13086-6.51367 9.51172-6.14258 10.0586-6.14258Z"/>
  </g>
  <text style="stroke:none;fill:black;font-family:-apple-system,&quot;SF Pro Display&quot;,&quot;SF Pro Text&quot;,Helvetica,sans-serif;font-weight:bold;" transform="matrix(1 0 0 1 263 1953)">Design Variations</text>
  <text style="stroke:none;fill:black;font-family:-apple-system,&quot;SF Pro Display&quot;,&quot;SF Pro Text&quot;,Helvetica,sans-serif;" transform="matrix(1 0 0 1 263 1971)">Symbols are supported in up to nine weights and three scales.</text>
  <text style="stroke:none;fill:black;font-family:-apple-system,&quot;SF Pro Display&quot;,&quot;SF Pro Text&quot;,Helvetica,sans-serif;" transform="matrix(1 0 0 1 263 1989)">For optimal layout with text and other symbols, vertically align</text>
  <text style="stroke:none;fill:black;font-family:-apple-system,&quot;SF Pro Display&quot;,&quot;SF Pro Text&quot;,Helvetica,sans-serif;" transform="matrix(1 0 0 1 263 2007)">symbols with the adjacent text.</text>
  <line id="" style="fill:none;stroke:#00AEEF;stroke-width:0.5;opacity:1.0;" x1="776" x2="776" y1="1919" y2="1933"/>
  <g id="" transform="matrix(1 0 0 1 776 1933)">
   <path d="M3.31055 0.126953C3.82812 0.126953 4.08203-0.0683594 4.26758-0.605469L5.52734-4.0625L11.2891-4.0625L12.5488-0.605469C12.7344-0.0683594 12.9883 0.126953 13.4961 0.126953C14.0137 0.126953 14.3457-0.185547 14.3457-0.673828C14.3457-0.839844 14.3164-0.986328 14.2383-1.20117L9.6582-13.3887C9.43359-13.9941 9.0332-14.2871 8.4082-14.2871C7.80273-14.2871 7.39258-13.9941 7.17773-13.3984L2.59766-1.19141C2.51953-0.976562 2.49023-0.830078 2.49023-0.664062C2.49023-0.175781 2.80273 0.126953 3.31055 0.126953ZM6.00586-5.53711L8.37891-12.1094L8.42773-12.1094L10.8008-5.53711Z"/>
  </g>
  <line id="" style="fill:none;stroke:#00AEEF;stroke-width:0.5;opacity:1.0;" x1="792.836" x2="792.836" y1="1919" y2="1933"/>
  <text style="stroke:none;fill:black;font-family:-apple-system,&quot;SF Pro Display&quot;,&quot;SF Pro Text&quot;,Helvetica,sans-serif;font-weight:bold;" transform="matrix(1 0 0 1 776 1953)">Margins</text>
  <text style="stroke:none;fill:black;font-family:-apple-system,&quot;SF Pro Display&quot;,&quot;SF Pro Text&quot;,Helvetica,sans-serif;" transform="matrix(1 0 0 1 776 1971)">Leading and trailing margins on the left and right side of each symbol</text>
  <text style="stroke:none;fill:black;font-family:-apple-system,&quot;SF Pro Display&quot;,&quot;SF Pro Text&quot;,Helvetica,sans-serif;" transform="matrix(1 0 0 1 776 1989)">can be adjusted by modifying the x-location of the margin guidelines.</text>
  <text style="stroke:none;fill:black;font-family:-apple-system,&quot;SF Pro Display&quot;,&quot;SF Pro Text&quot;,Helvetica,sans-serif;" transform="matrix(1 0 0 1 776 2007)">Modifications are automatically applied proportionally to all</text>
  <text style="stroke:none;fill:black;font-family:-apple-system,&quot;SF Pro Display&quot;,&quot;SF Pro Text&quot;,Helvetica,sans-serif;" transform="matrix(1 0 0 1 776 2025)">scales and weights.</text>
  <g id="" transform="matrix(1 0 0 1 1289 1933)">
   <path d="M2.8418 1.86523L4.54102 3.57422C5.40039 4.44336 6.38672 4.38477 7.31445 3.35938L17.4902-7.85156C17.7539-7.76367 18.0273-7.7832 18.3398-7.8418L19.4043-8.03711L20.0684-7.36328L20.0293-6.80664C19.9902-6.30859 20.1172-5.92773 20.6055-5.44922L21.3672-4.70703C21.8457-4.22852 22.4609-4.19922 22.9297-4.66797L25.8398-7.58789C26.3086-8.05664 26.2891-8.65234 25.8105-9.13086L25.0391-9.89258C24.5605-10.3711 24.1895-10.5273 23.7109-10.4883L23.1348-10.4395L22.4902-11.0742L22.7344-12.1973C22.8613-12.7637 22.7051-13.2031 22.1191-13.7891L19.9219-15.9766C16.582-19.2969 12.1484-19.2188 9.25781-16.3281C8.83789-15.918 8.80859-15.3418 9.04297-14.9512C9.27734-14.5898 9.73633-14.3555 10.3809-14.5215C11.8457-14.8633 13.3691-14.9219 14.7949-13.9844L14.209-12.5293C14.0137-12.0508 13.9844-11.6504 14.1113-11.2891L3.04688-0.898438C2.06055 0.0195312 1.98242 0.996094 2.8418 1.86523ZM10.752-15.957C13.1836-17.7344 16.4746-17.4316 18.7012-15.2051L21.1328-12.793C21.3672-12.5586 21.4062-12.373 21.3379-12.0312L21.0156-10.5469L22.5195-9.0625L23.5059-9.12109C23.7598-9.13086 23.8379-9.11133 24.0332-8.91602L24.6094-8.33984L22.168-5.89844L21.5918-6.47461C21.3965-6.66992 21.3672-6.74805 21.377-7.01172L21.4453-7.98828L19.9512-9.47266L18.4277-9.21875C18.1055-9.15039 17.959-9.17969 17.7148-9.41406L15.7129-11.416C15.459-11.6504 15.4297-11.8164 15.5859-12.1875L16.4648-14.2773C14.9023-15.7324 12.8711-16.3574 10.8398-15.7617C10.6836-15.7227 10.625-15.8496 10.752-15.957ZM5.27344 2.30469L4.10156 1.14258C3.63281 0.683594 3.74023 0.341797 4.14062-0.0195312L14.9512-10.1953L16.416-8.71094L6.42578 2.27539C6.07422 2.67578 5.74219 2.77344 5.27344 2.30469Z"/>
  </g>
  <text style="stroke:none;fill:black;font-family:-apple-system,&quot;SF Pro Display&quot;,&quot;SF Pro Text&quot;,Helvetica,sans-serif;font-weight:bold;" transform="matrix(1 0 0 1 1289 1953)">Exporting</text>
  <text style="stroke:none;fill:black;font-family:-apple-system,&quot;SF Pro Display&quot;,&quot;SF Pro Text&quot;,Helvetica,sans-serif;" transform="matrix(1 0 0 1 1289 1971)">Symbols should be outlined when exporting to ensure the</text>
  <text style="stroke:none;fill:black;font-family:-apple-system,&quot;SF Pro Display&quot;,&quot;SF Pro Text&quot;,Helvetica,sans-serif;" transform="matrix(1 0 0 1 1289 1989)">design is preserved when submitting to Xcode.</text>
  <text id="template-version" style="stroke:none;fill:black;font-family:-apple-system,&quot;SF Pro Display&quot;,&quot;SF Pro Text&quot;,Helvetica,sans-serif;text-anchor:end;" transform="matrix(1 0 0 1 3036 1933)">Template v.2.0</text>
  <text style="stroke:none;fill:black;font-family:-apple-system,&quot;SF Pro Display&quot;,&quot;SF Pro Text&quot;,Helvetica,sans-serif;text-anchor:end;" transform="matrix(1 0 0 1 3036 1951)">Requires Xcode 12 or greater</text>
  <text style="stroke:none;fill:black;font-family:-apple-system,&quot;SF Pro Display&quot;,&quot;SF Pro Text&quot;,Helvetica,sans-serif;text-anchor:end;" transform="matrix(1 0 0 1 3036 1969)">Generated from paintpalette</text>
  <text style="stroke:none;fill:black;font-family:-apple-system,&quot;SF Pro Display&quot;,&quot;SF Pro Text&quot;,Helvetica,sans-serif;text-anchor:end;" transform="matrix(1 0 0 1 3036 1987)">Typeset at 100 points</text>
  <text style="stroke:none;fill:black;font-family:-apple-system,&quot;SF Pro Display&quot;,&quot;SF Pro Text&quot;,Helvetica,sans-serif;" transform="matrix(1 0 0 1 263 726)">Small</text>
  <text style="stroke:none;fill:black;font-family:-apple-system,&quot;SF Pro Display&quot;,&quot;SF Pro Text&quot;,Helvetica,sans-serif;" transform="matrix(1 0 0 1 263 1156)">Medium</text>
  <text style="stroke:none;fill:black;font-family:-apple-system,&quot;SF Pro Display&quot;,&quot;SF Pro Text&quot;,Helvetica,sans-serif;" transform="matrix(1 0 0 1 263 1586)">Large</text>
 </g>
 <g id="Guides">
  <g id="H-reference" style="fill:#27AAE1;stroke:none;" transform="matrix(1 0 0 1 339 696)">
   <path d="M0.976562 0L3.66211 0L12.9883-24.4629L45.752-24.4629L55.127 0L57.7637 0L30.6152-70.459L28.125-70.459ZM29.3457-67.1387L29.4434-67.1387L44.873-26.709L13.8672-26.709Z"/>
  </g>
  <line id="Baseline-S" style="fill:none;stroke:#27AAE1;opacity:1;stroke-width:0.5;" x1="263" x2="3036" y1="696" y2="696"/>
  <line id="Capline-S" style="fill:none;stroke:#27AAE1;opacity:1;stroke-width:0.5;" x1="263" x2="3036" y1="625.541" y2="625.541"/>
  <g id="H-reference" style="fill:#27AAE1;stroke:none;" transform="matrix(1 0 0 1 339 1126)">
   <path d="M0.976562 0L3.66211 0L12.9883-24.4629L45.752-24.4629L55.127 0L57.7637 0L30.6152-70.459L28.125-70.459ZM29.3457-67.1387L29.4434-67.1387L44.873-26.709L13.8672-26.709Z"/>
  </g>
  <line id="Baseline-M" style="fill:none;stroke:#27AAE1;opacity:1;stroke-width:0.5;" x1="263" x2="3036" y1="1126" y2="1126"/>
  <line id="Capline-M" style="fill:none;stroke:#27AAE1;opacity:1;stroke-width:0.5;" x1="263" x2="3036" y1="1055.54" y2="1055.54"/>
  <g id="H-reference" style="fill:#27AAE1;stroke:none;" transform="matrix(1 0 0 1 339 1556)">
   <path d="M0.976562 0L3.66211 0L12.9883-24.4629L45.752-24.4629L55.127 0L57.7637 0L30.6152-70.459L28.125-70.459ZM29.3457-67.1387L29.4434-67.1387L44.873-26.709L13.8672-26.709Z"/>
  </g>
  <line id="Baseline-L" style="fill:none;stroke:#27AAE1;opacity:1;stroke-width:0.5;" x1="263" x2="3036" y1="1556" y2="1556"/>
  <line id="Capline-L" style="fill:none;stroke:#27AAE1;opacity:1;stroke-width:0.5;" x1="263" x2="3036" y1="1485.54" y2="1485.54"/>
  <line id="left-margin" style="fill:none;stroke:#00AEEF;stroke-width:0.5;opacity:1.0;" x1="1382.29" x2="1382.29" y1="1030.79" y2="1150.12"/>
  <line id="right-margin" style="fill:none;stroke:#00AEEF;stroke-width:0.5;opacity:1.0;" x1="1517.4" x2="1517.4" y1="1030.79" y2="1150.12"/>
 </g>
 <g id="Symbols">
  <g id="Black-L" transform="matrix(1 0 0 1 2836.67 1556)">
   <path d="M101.758 36.0352C134.131 36.0352 155.713 24.2676 155.713 6.5918C155.713-7.76367 145.557-10.2539 145.557-17.9688C145.557-28.418 182.178-29.3945 182.178-58.4473C182.178-87.7441 151.855-107.178 106.543-107.178C49.4629-107.178 11.2793-77.002 11.2793-34.7168C11.2793 7.71484 47.6074 36.0352 101.758 36.0352ZM101.758 14.1113C60.5469 14.1113 33.2031-5.41992 33.2031-34.7168C33.2031-65.0391 62.4512-85.2539 106.543-85.2539C138.867-85.2539 160.254-74.5117 160.254-58.4473C160.254-39.3066 123.584-39.4531 123.584-20.3125C123.584-8.83789 133.35-7.08008 133.35 1.66016C133.35 9.13086 120.703 14.1113 101.758 14.1113ZM105.762-55.2246C111.475-55.2246 116.064-59.8145 116.064-65.5273C116.064-71.2891 111.475-75.8789 105.762-75.8789C100.049-75.8789 95.3613-71.2891 95.3613-65.5273C95.3613-59.8145 100.049-55.2246 105.762-55.2246ZM75.8301-45.8984C82.666-45.8984 88.3301-51.416 88.3301-58.4473C88.3301-65.3809 82.666-70.8496 75.8301-70.8496C68.8477-70.8496 63.2324-65.3809 63.2324-58.4473C63.2324-51.416 68.8477-45.8984 75.8301-45.8984ZM132.617-51.416C137.305-51.416 141.113-55.127 141.113-59.9121C141.113-64.5996 137.305-68.4082 132.617-68.4082C127.881-68.4082 124.072-64.5996 124.072-59.9121C124.072-55.127 127.881-51.416 132.617-51.416ZM54.3457-26.6602C60.0098-26.6602 64.6484-31.4453 64.6484-37.1094C64.6484-42.8223 60.0098-47.4609 54.3457-47.4609C48.6328-47.4609 43.9453-42.8223 43.9453-37.1094C43.9453-31.4453 48.6328-26.6602 54.3457-26.6602ZM95.6055 1.2207C106.689 1.2207 114.453-6.54297 114.453-17.5781C114.453-27.8809 106.055-36.3281 95.6055-36.3281C85.3027-36.3281 76.9043-27.8809 76.9043-17.5781C76.9043-7.22656 85.3027 1.2207 95.6055 1.2207ZM95.6055-10.4004C91.6504-10.4004 88.4277-13.5742 88.4277-17.627C88.4277-22.3145 91.8945-24.6582 95.4102-24.707C99.1211-24.8047 102.832-22.4609 102.832-17.627C102.832-13.5742 99.707-10.4004 95.6055-10.4004Z"/>
  </g>
  <g id="Heavy-L" transform="matrix(1 0 0 1 2542.4 1556)">
   <path d="M99.4629 33.7402C130.322 33.7402 150.928 22.6074 150.928 6.00586C150.928-7.86133 140.625-10.3516 140.625-18.0664C140.625-28.6621 177.295-29.6387 177.295-57.959C177.295-86.2793 147.998-105.078 104.199-105.078C48.584-105.078 11.2793-76.0254 11.2793-34.7656C11.2793 6.34766 46.7285 33.7402 99.4629 33.7402ZM99.4629 14.8438C57.8125 14.8438 30.1758-4.98047 30.1758-34.7656C30.1758-65.625 59.668-86.1328 104.199-86.1328C136.816-86.1328 158.35-74.8047 158.35-57.959C158.35-38.0371 121.68-38.916 121.68-19.8242C121.68-8.59375 131.689-6.44531 131.689 2.00195C131.689 9.76562 118.848 14.8438 99.4629 14.8438ZM103.76-55.6152C109.473-55.6152 114.062-60.2051 114.062-65.918C114.062-71.6797 109.473-76.2207 103.76-76.2207C98.0469-76.2207 93.3594-71.6309 93.3594-65.918C93.3594-60.2051 98.0469-55.6152 103.76-55.6152ZM73.3398-46.0449C80.2734-46.0449 85.9863-51.6113 85.9863-58.6914C85.9863-65.7227 80.2734-71.2402 73.3398-71.2402C66.3086-71.2402 60.5957-65.7227 60.5957-58.6914C60.5957-51.6113 66.3086-46.0449 73.3398-46.0449ZM131.055-51.7578C135.693-51.7578 139.453-55.4688 139.453-60.2051C139.453-64.8438 135.693-68.6523 131.055-68.6523C126.367-68.6523 122.607-64.8438 122.607-60.2051C122.607-55.4688 126.367-51.7578 131.055-51.7578ZM51.5137-26.6113C57.1289-26.6113 61.7188-31.3477 61.7188-37.0117C61.7188-42.6758 57.1777-47.2656 51.5137-47.2656C45.8496-47.2656 41.1621-42.6758 41.1621-37.0117C41.1621-31.3477 45.8496-26.6113 51.5137-26.6113ZM93.5059 1.36719C104.297 1.36719 112.158-6.44531 112.158-17.1875C112.158-27.3438 103.809-35.7422 93.5059-35.7422C83.3496-35.7422 75-27.3438 75-17.1875C75-6.93359 83.3496 1.36719 93.5059 1.36719ZM93.5059-8.98438C89.0137-8.98438 85.3516-12.6465 85.3516-17.2363C85.3516-22.4121 89.2578-25.2441 93.3594-25.3418C97.6562-25.3906 101.758-22.5586 101.758-17.2363C101.758-12.6465 98.1445-8.98438 93.5059-8.98438Z"/>
  </g>
  <g id="Bold-L" transform="matrix(1 0 0 1 2248.45 1556)">
   <path d="M96.875 31.2012C126.074 31.2012 145.557 20.8008 145.557 5.27344C145.557-8.00781 135.156-10.4492 135.156-18.2129C135.156-28.9551 171.777-29.9316 171.777-57.4707C171.777-84.668 143.652-102.686 101.611-102.686C47.5586-102.686 11.2793-74.9023 11.2793-34.7656C11.2793 4.78516 45.752 31.2012 96.875 31.2012ZM96.875 15.6738C54.7363 15.6738 26.8066-4.49219 26.8066-34.7656C26.8066-66.2109 56.543-87.1582 101.611-87.1582C134.521-87.1582 156.25-75.1953 156.25-57.4707C156.25-36.6699 119.531-38.2812 119.531-19.3359C119.531-8.25195 129.834-5.81055 129.834 2.39258C129.834 10.4492 116.797 15.6738 96.875 15.6738ZM101.514-56.0547C107.227-56.0547 111.768-60.6445 111.768-66.3086C111.768-72.0703 107.227-76.6113 101.514-76.6113C95.8008-76.6113 91.1133-72.0703 91.1133-66.3086C91.1133-60.6445 95.8008-56.0547 101.514-56.0547ZM70.5566-46.1914C77.5879-46.1914 83.3496-51.8066 83.3496-58.9844C83.3496-66.0645 77.5879-71.6797 70.5566-71.6797C63.4277-71.6797 57.666-66.0645 57.666-58.9844C57.666-51.8066 63.4277-46.1914 70.5566-46.1914ZM129.346-52.1484C133.936-52.1484 137.646-55.8105 137.646-60.498C137.646-65.0879 133.887-68.8477 129.346-68.8477C124.658-68.8477 120.898-65.0879 120.898-60.498C120.898-55.8105 124.658-52.1484 129.346-52.1484ZM48.3398-26.6113C53.9062-26.6113 58.4473-31.2988 58.4473-36.9141C58.4473-42.5293 53.9551-47.0703 48.3398-47.0703C42.7246-47.0703 38.0859-42.5293 38.0859-36.9141C38.0859-31.2988 42.7246-26.6113 48.3398-26.6113ZM91.2109 1.61133C101.66 1.61133 109.57-6.29883 109.57-16.748C109.57-26.8066 101.367-35.0586 91.2109-35.0586C81.1523-35.0586 72.9492-26.8066 72.9492-16.748C72.9492-6.64062 81.1523 1.61133 91.2109 1.61133ZM91.2109-7.37305C86.0352-7.37305 81.8848-11.5723 81.8848-16.748C81.8848-22.5098 86.2793-25.9277 91.0645-26.0254C95.9961-26.0742 100.586-22.6562 100.586-16.748C100.586-11.5723 96.4355-7.37305 91.2109-7.37305Z"/>
  </g>
  <g id="Semibold-L" transform="matrix(1 0 0 1 1953.62 1556)">
   <path d="M95.1172 29.4434C123.096 29.4434 141.895 19.5312 141.895 4.83398C141.895-8.10547 131.396-10.5469 131.396-18.3105C131.396-29.1504 168.018-30.127 168.018-57.1289C168.018-83.5449 140.625-101.025 99.8047-101.025C46.875-101.025 11.2793-74.1211 11.2793-34.7656C11.2793 3.71094 45.0684 29.4434 95.1172 29.4434ZM95.1172 16.2598C52.5879 16.2598 24.4629-4.15039 24.4629-34.7656C24.4629-66.6016 54.3945-87.793 99.8047-87.793C132.959-87.793 154.785-75.4395 154.785-57.1289C154.785-35.6934 118.018-37.8906 118.018-18.9453C118.018-8.05664 128.516-5.37109 128.516 2.68555C128.516 10.9375 115.332 16.2598 95.1172 16.2598ZM99.9512-56.3477C105.664-56.3477 110.205-60.8887 110.205-66.6016C110.205-72.3633 105.664-76.9043 99.9512-76.9043C94.2871-76.9043 89.5508-72.3145 89.5508-66.6016C89.5508-60.9375 94.2871-56.3477 99.9512-56.3477ZM68.6523-46.2891C75.7324-46.2891 81.543-51.9531 81.543-59.1797C81.543-66.3086 75.7324-71.9727 68.6523-71.9727C61.4258-71.9727 55.6641-66.3086 55.6641-59.1797C55.6641-51.9531 61.4258-46.2891 68.6523-46.2891ZM128.125-52.3926C132.715-52.3926 136.377-56.0547 136.377-60.6934C136.377-65.2832 132.666-69.043 128.125-69.043C123.486-69.043 119.727-65.2832 119.727-60.6934C119.727-56.0547 123.486-52.3926 128.125-52.3926ZM46.1426-26.6113C51.709-26.6113 56.2012-31.25 56.2012-36.8652C56.2012-42.4316 51.709-46.9238 46.1426-46.9238C40.5273-46.9238 35.9863-42.4316 35.9863-36.8652C35.9863-31.25 40.5762-26.6113 46.1426-26.6113ZM89.5996 1.75781C99.8535 1.75781 107.812-6.20117 107.812-16.4062C107.812-26.3672 99.6582-34.5703 89.5996-34.5703C79.6387-34.5703 71.4844-26.3672 71.4844-16.4062C71.4844-6.39648 79.6387 1.75781 89.5996 1.75781ZM89.5996-6.29883C84.0332-6.29883 79.541-10.791 79.541-16.4551C79.541-22.6074 84.2285-26.416 89.502-26.4648C94.873-26.5137 99.7559-22.7539 99.7559-16.4551C99.7559-10.791 95.2637-6.29883 89.5996-6.29883Z"/>
  </g>
  <g id="Medium-L" transform="matrix(1 0 0 1 1658.35 1556)">
   <path d="M93.75 28.125C120.898 28.125 139.062 18.6035 139.062 4.44336C139.062-8.1543 128.516-10.5957 128.516-18.3594C128.516-29.2969 165.137-30.3223 165.137-56.8359C165.137-82.666 138.379-99.7559 98.4375-99.7559C46.3379-99.7559 11.2793-73.5352 11.2793-34.7656C11.2793 2.88086 44.5312 28.125 93.75 28.125ZM93.75 16.6992C50.9766 16.6992 22.7051-3.90625 22.7051-34.7656C22.7051-66.9434 52.7832-88.3301 98.4375-88.3301C131.738-88.3301 153.711-75.6348 153.711-56.8359C153.711-34.9609 116.895-37.5488 116.895-18.6523C116.895-7.86133 127.539-5.0293 127.539 2.88086C127.539 11.2793 114.258 16.6992 93.75 16.6992ZM98.7793-56.543C104.492-56.543 109.033-61.1328 109.033-66.8457C109.033-72.5586 104.492-77.0996 98.7793-77.0996C93.1152-77.0996 88.3789-72.5098 88.3789-66.8457C88.3789-61.1328 93.1152-56.543 98.7793-56.543ZM67.1875-46.3867C74.3164-46.3867 80.127-52.0508 80.127-59.375C80.127-66.5039 74.3164-72.168 67.1875-72.168C59.9609-72.168 54.1016-66.5039 54.1016-59.375C54.1016-52.0508 59.9609-46.3867 67.1875-46.3867ZM127.246-52.5879C131.738-52.5879 135.4-56.25 135.4-60.8887C135.4-65.4297 131.738-69.1406 127.246-69.1406C122.607-69.1406 118.848-65.4297 118.848-60.8887C118.848-56.25 122.607-52.5879 127.246-52.5879ZM44.4824-26.6113C50-26.6113 54.4922-31.25 54.4922-36.7676C54.4922-42.3828 50.0488-46.8262 44.4824-46.8262C38.916-46.8262 34.375-42.334 34.375-36.7676C34.375-31.25 38.916-26.6113 44.4824-26.6113ZM88.3789 1.85547C98.4863 1.85547 106.445-6.10352 106.445-16.2109C106.445-26.0742 98.3398-34.2285 88.3789-34.2285C78.5156-34.2285 70.4102-26.0742 70.4102-16.2109C70.4102-6.25 78.5156 1.85547 88.3789 1.85547ZM88.3789-5.46875C82.4707-5.46875 77.7344-10.2539 77.7344-16.2109C77.7344-22.6562 82.7148-26.7578 88.2812-26.8066C93.9941-26.9043 99.1211-22.8027 99.1211-16.2109C99.1211-10.2539 94.3848-5.46875 88.3789-5.46875Z"/>
  </g>
  <g id="Regular-L" transform="matrix(1 0 0 1 1363.52 1556)">
   <path d="M91.9922 26.416C117.969 26.416 135.449 17.334 135.449 3.95508C135.449-8.25195 124.756-10.6445 124.756-18.457C124.756-29.4922 161.377-30.5176 161.377-56.4941C161.377-81.5918 135.4-98.1445 96.6797-98.1445C45.6543-98.1445 11.2793-72.7539 11.2793-34.7656C11.2793 1.80664 43.8477 26.416 91.9922 26.416ZM91.9922 17.2363C48.877 17.2363 20.4102-3.61328 20.4102-34.7656C20.4102-67.334 50.6348-89.0137 96.6797-89.0137C130.176-89.0137 152.246-75.8789 152.246-56.4941C152.246-33.9844 115.43-37.1582 115.43-18.3105C115.43-7.66602 126.27-4.54102 126.27 3.17383C126.27 11.7676 112.891 17.2363 91.9922 17.2363ZM97.2168-56.8359C102.979-56.8359 107.52-61.4258 107.52-67.1387C107.52-72.8027 102.979-77.3926 97.2168-77.3926C91.5527-77.3926 86.8652-72.8027 86.8652-67.1387C86.8652-61.4258 91.5527-56.8359 97.2168-56.8359ZM65.2832-46.4844C72.5098-46.4844 78.3203-52.1973 78.3203-59.5703C78.3203-66.748 72.4609-72.4609 65.2832-72.4609C57.959-72.4609 52.0996-66.748 52.0996-59.5703C52.0996-52.1973 57.959-46.4844 65.2832-46.4844ZM126.074-52.8809C130.566-52.8809 134.18-56.4941 134.18-61.084C134.18-65.625 130.518-69.2871 126.074-69.2871C121.436-69.2871 117.725-65.625 117.725-61.084C117.725-56.4941 121.436-52.8809 126.074-52.8809ZM42.2852-26.6113C47.8027-26.6113 52.2461-31.2012 52.2461-36.7188C52.2461-42.2852 47.8516-46.6797 42.2852-46.6797C36.7676-46.6797 32.2754-42.2363 32.2754-36.7188C32.2754-31.2012 36.8164-26.6113 42.2852-26.6113ZM86.8164 2.00195C96.6797 2.00195 104.736-6.05469 104.736-15.8691C104.736-25.6836 96.6797-33.7402 86.8164-33.7402C77.002-33.7402 68.9453-25.6836 68.9453-15.8691C68.9453-6.05469 77.002 2.00195 86.8164 2.00195ZM86.8164-4.39453C80.4688-4.39453 75.3418-9.52148 75.3418-15.8691C75.3418-22.7051 80.6641-27.2461 86.7188-27.2949C92.8711-27.3438 98.291-22.8516 98.291-15.8691C98.291-9.52148 93.2129-4.39453 86.8164-4.39453Z"/>
  </g>
  <g id="Light-L" transform="matrix(1 0 0 1 1067.9 1556)">
   <path d="M90.918 25.293C116.162 25.293 133.203 16.6504 133.203 3.95508C133.203-8.05664 122.461-9.96094 122.461-18.3105C122.461-30.6641 159.18-30.3711 159.18-56.4941C159.18-80.9082 133.691-97.0215 95.5566-97.0215C45.1172-97.0215 11.2793-72.0703 11.2793-34.7656C11.2793 1.17188 43.3594 25.293 90.918 25.293ZM90.918 18.3594C47.168 18.3594 18.2129-2.92969 18.2129-34.7656C18.2129-68.0176 48.9258-90.0879 95.5566-90.0879C129.688-90.0879 152.246-76.6113 152.246-56.4941C152.246-33.3496 115.43-36.6699 115.43-18.1152C115.43-7.61719 126.27-4.93164 126.27 3.17383C126.27 12.5 112.598 18.3594 90.918 18.3594ZM96.1426-57.2754C101.66-57.2754 105.957-61.6699 105.957-67.1387C105.957-72.6074 101.66-76.9531 96.1426-76.9531C90.6738-76.9531 86.2305-72.5586 86.2305-67.1387C86.2305-61.7188 90.6738-57.2754 96.1426-57.2754ZM64.209-46.6797C71.3379-46.6797 77.0508-52.3438 77.0508-59.5703C77.0508-66.6016 71.2891-72.2656 64.209-72.2656C56.9824-72.2656 51.1719-66.6504 51.1719-59.5703C51.1719-52.3438 56.9824-46.6797 64.209-46.6797ZM124.951-53.3691C129.15-53.3691 132.52-56.7383 132.52-61.084C132.52-65.332 129.102-68.7988 124.951-68.7988C120.654-68.7988 117.139-65.332 117.139-61.084C117.139-56.7871 120.605-53.3691 124.951-53.3691ZM41.2109-27.2461C46.3379-27.2461 50.5371-31.543 50.5371-36.7188C50.5371-41.9434 46.4355-46.0449 41.2109-46.0449C36.0352-46.0449 31.7871-41.8945 31.7871-36.7188C31.7871-31.543 36.084-27.2461 41.2109-27.2461ZM85.7422 2.58789C95.8984 2.58789 104.199-5.71289 104.199-15.8691C104.199-26.0254 95.8984-34.3262 85.7422-34.3262C75.5859-34.3262 67.2852-26.0254 67.2852-15.8691C67.2852-5.71289 75.5859 2.58789 85.7422 2.58789ZM85.7422-2.58789C78.3691-2.58789 72.4609-8.49609 72.4609-15.8691C72.4609-23.5352 78.5156-29.0527 85.6445-29.1016C92.8711-29.1504 99.0234-23.6328 99.0234-15.8691C99.0234-8.49609 93.1152-2.58789 85.7422-2.58789Z"/>
  </g>
  <g id="Thin-L" transform="matrix(1 0 0 1 772.658 1556)">
   <path d="M89.4531 23.8281C113.721 23.8281 130.273 15.7227 130.273 3.95508C130.273-7.8125 119.434-8.98438 119.434-18.1641C119.434-32.2754 156.25-30.2246 156.25-56.4941C156.25-79.9805 131.445-95.5566 94.0918-95.5566C44.4336-95.5566 11.2793-71.1914 11.2793-34.7656C11.2793 0.244141 42.6758 23.8281 89.4531 23.8281ZM89.4531 19.8242C44.9219 19.8242 15.2832-2.05078 15.2832-34.7656C15.2832-68.8965 46.6797-91.6016 94.0918-91.6016C129.004-91.6016 152.246-77.5391 152.246-56.4941C152.246-32.4707 115.43-36.084 115.43-17.8711C115.43-7.61719 126.27-5.46875 126.27 3.17383C126.27 13.5254 112.207 19.8242 89.4531 19.8242ZM94.6777-57.8613C99.9023-57.8613 103.906-61.9629 103.906-67.1387C103.906-72.2656 99.9023-76.3672 94.6777-76.3672C89.502-76.3672 85.3516-72.2168 85.3516-67.1387C85.3516-62.0605 89.502-57.8613 94.6777-57.8613ZM62.7441-46.9238C69.7754-46.9238 75.3418-52.5391 75.3418-59.5703C75.3418-66.4551 69.6777-72.0215 62.7441-72.0215C55.6152-72.0215 49.9512-66.5039 49.9512-59.5703C49.9512-52.5391 55.6152-46.9238 62.7441-46.9238ZM123.535-54.0527C127.344-54.0527 130.371-57.1289 130.371-61.084C130.371-64.9414 127.246-68.1152 123.535-68.1152C119.58-68.1152 116.357-64.9414 116.357-61.084C116.357-57.1777 119.482-54.0527 123.535-54.0527ZM39.7461-28.0762C44.3848-28.0762 48.2422-32.0312 48.2422-36.7188C48.2422-41.5039 44.5312-45.2148 39.7461-45.2148C35.0098-45.2148 31.1523-41.4062 31.1523-36.7188C31.1523-32.0312 35.1074-28.0762 39.7461-28.0762ZM84.2773 3.32031C94.873 3.32031 103.467-5.32227 103.467-15.8691C103.467-26.4648 94.873-35.0586 84.2773-35.0586C73.6816-35.0586 65.0879-26.4648 65.0879-15.8691C65.0879-5.32227 73.6816 3.32031 84.2773 3.32031ZM84.2773-0.244141C75.6348-0.244141 68.6523-7.22656 68.6523-15.8691C68.6523-24.6094 75.6348-31.4941 84.2773-31.4941C92.9199-31.4941 99.9023-24.6094 99.9023-15.8691C99.9023-7.22656 92.9688-0.244141 84.2773-0.244141Z"/>
  </g>
  <g id="Ultralight-L" transform="matrix(1 0 0 1 476.703 1556)">
   <path d="M88.6719 23.0957C112.5 23.0957 128.76 15.2344 128.76 3.95508C128.76-7.71484 117.871-8.49609 117.871-18.1152C117.871-33.1055 154.736-30.1758 154.736-56.4941C154.736-79.541 130.322-94.8242 93.3594-94.8242C44.0918-94.8242 11.2793-70.752 11.2793-34.7656C11.2793-0.195312 42.334 23.0957 88.6719 23.0957ZM88.6719 20.6055C43.7988 20.6055 13.7695-1.61133 13.7695-34.7656C13.7695-69.3359 45.5566-92.334 93.3594-92.334C128.711-92.334 152.246-78.0273 152.246-56.4941C152.246-31.9824 115.43-35.7422 115.43-17.7734C115.43-7.61719 126.27-5.71289 126.27 3.17383C126.27 14.0137 112.012 20.6055 88.6719 20.6055ZM93.8965-58.1543C98.9746-58.1543 102.832-62.1094 102.832-67.1387C102.832-72.1191 98.9746-76.0742 93.8965-76.0742C88.916-76.0742 84.8633-72.0215 84.8633-67.1387C84.8633-62.207 88.916-58.1543 93.8965-58.1543ZM61.9629-47.0703C68.9453-47.0703 74.4629-52.5879 74.4629-59.5703C74.4629-66.3574 68.8477-71.875 61.9629-71.875C54.9316-71.875 49.3164-66.4551 49.3164-59.5703C49.3164-52.5879 54.9316-47.0703 61.9629-47.0703ZM122.803-54.3945C126.367-54.3945 129.297-57.3242 129.297-61.084C129.297-64.7949 126.318-67.7734 122.803-67.7734C118.994-67.7734 115.967-64.7949 115.967-61.084C115.967-57.4219 118.945-54.3945 122.803-54.3945ZM38.9648-28.4668C43.3594-28.4668 47.0703-32.2266 47.0703-36.7188C47.0703-41.2598 43.5547-44.7754 38.9648-44.7754C34.5215-44.7754 30.8105-41.1621 30.8105-36.7188C30.8105-32.2266 34.5703-28.4668 38.9648-28.4668ZM83.5449 3.66211C94.3359 3.66211 103.125-5.07812 103.125-15.8691C103.125-26.709 94.3359-35.4492 83.5449-35.4492C72.7539-35.4492 63.9648-26.709 63.9648-15.8691C63.9648-5.07812 72.7539 3.66211 83.5449 3.66211ZM83.5449 0.927734C74.2188 0.927734 66.6992-6.54297 66.6992-15.8691C66.6992-25.1465 74.1699-32.7148 83.5449-32.7148C92.9199-32.7148 100.391-25.1465 100.391-15.8691C100.391-6.54297 92.8711 0.927734 83.5449 0.927734Z"/>
  </g>
  <g id="Black-M" transform="matrix(1 0 0 1 2855.71 1126)">
   <path d="M81.3477 22.4609C108.105 22.4609 125.977 12.6953 125.977-1.95312C125.977-13.6719 118.164-15.332 118.164-21.6797C118.164-30.2246 146.631-30.3223 146.631-53.8086C146.631-77.5391 122.021-93.2617 85.1074-93.2617C39.3066-93.2617 8.74023-68.6035 8.74023-34.8145C8.74023-0.439453 37.793 22.4609 81.3477 22.4609ZM81.3477 2.58789C49.707 2.58789 28.6133-12.3535 28.6133-34.8145C28.6133-57.959 51.2207-73.4375 85.1074-73.4375C110.107-73.4375 126.758-65.625 126.758-53.8086C126.758-39.7461 98.3887-38.9648 98.3887-24.2188C98.3887-15.1367 105.566-14.4043 105.566-7.12891C105.566-1.26953 95.8984 2.58789 81.3477 2.58789ZM84.082-50.4395C88.3789-50.4395 91.8457-53.9062 91.8457-58.2031C91.8457-62.5488 88.3789-65.9668 84.082-65.9668C79.7852-65.9668 76.2695-62.5488 76.2695-58.2031C76.2695-53.9062 79.7852-50.4395 84.082-50.4395ZM61.5234-43.4082C66.6504-43.4082 70.9473-47.6074 70.9473-52.8809C70.9473-58.1055 66.6504-62.207 61.5234-62.207C56.2988-62.207 52.0508-58.1055 52.0508-52.8809C52.0508-47.6074 56.2988-43.4082 61.5234-43.4082ZM104.297-47.6074C107.812-47.6074 110.693-50.3906 110.693-54.0039C110.693-57.5195 107.812-60.4004 104.297-60.4004C100.732-60.4004 97.9004-57.5195 97.9004-54.0039C97.9004-50.3906 100.732-47.6074 104.297-47.6074ZM45.3613-28.9551C49.6094-28.9551 53.125-32.5195 53.125-36.8164C53.125-41.1133 49.6094-44.5801 45.3613-44.5801C41.0645-44.5801 37.5-41.1133 37.5-36.8164C37.5-32.5195 41.0645-28.9551 45.3613-28.9551ZM76.3184-6.98242C85.4492-6.98242 91.5039-12.9883 91.5039-22.0703C91.5039-30.4199 84.7168-37.207 76.3184-37.207C67.9688-37.207 61.2305-30.4199 61.2305-22.0703C61.2305-13.7207 67.9688-6.98242 76.3184-6.98242ZM76.3184-16.9434C73.4375-16.9434 71.1426-19.2383 71.1426-22.168C71.1426-25.4883 73.6328-27.1484 76.1719-27.2461C78.8086-27.2949 81.4941-25.6348 81.4941-22.168C81.4941-19.2383 79.248-16.9434 76.3184-16.9434Z"/>
  </g>
  <g id="Heavy-M" transform="matrix(1 0 0 1 2561.4 1126)">
   <path d="M79.1504 20.2637C104.443 20.2637 121.289 11.084 121.289-2.63672C121.289-13.8672 113.428-15.625 113.428-21.8262C113.428-30.2246 141.846-30.6152 141.846-53.3203C141.846-76.123 118.213-91.2598 82.8613-91.2598C38.4277-91.2598 8.74023-67.6758 8.74023-34.8145C8.74023-1.75781 36.9629 20.2637 79.1504 20.2637ZM79.1504 3.125C47.168 3.125 25.8789-12.0605 25.8789-34.8145C25.8789-58.3984 48.6328-74.0723 82.8613-74.0723C108.008-74.0723 124.658-65.7715 124.658-53.3203C124.658-38.5254 96.2891-38.5254 96.2891-23.7305C96.2891-14.8438 103.76-13.6719 103.76-6.73828C103.76-0.78125 93.9453 3.125 79.1504 3.125ZM82.1777-50.7324C86.5234-50.7324 90.0391-54.248 90.0391-58.6426C90.0391-63.0371 86.5234-66.5039 82.1777-66.5039C77.832-66.5039 74.2188-63.0371 74.2188-58.6426C74.2188-54.2969 77.832-50.7324 82.1777-50.7324ZM59.082-43.5059C64.3555-43.5059 68.7012-47.7539 68.7012-53.1738C68.7012-58.4961 64.3555-62.6953 59.082-62.6953C53.7598-62.6953 49.4141-58.4961 49.4141-53.1738C49.4141-47.7539 53.7598-43.5059 59.082-43.5059ZM102.881-47.8027C106.445-47.8027 109.326-50.6348 109.326-54.2969C109.326-57.8613 106.445-60.7422 102.881-60.7422C99.2676-60.7422 96.3867-57.8613 96.3867-54.2969C96.3867-50.6836 99.2676-47.8027 102.881-47.8027ZM42.5293-28.7598C46.875-28.7598 50.3906-32.373 50.3906-36.7188C50.3906-41.0645 46.875-44.5801 42.5293-44.5801C38.1836-44.5801 34.6191-41.0645 34.6191-36.7188C34.6191-32.373 38.1836-28.7598 42.5293-28.7598ZM74.3164-6.88477C83.0566-6.88477 89.1113-12.9395 89.1113-21.6309C89.1113-29.7363 82.5195-36.4258 74.3164-36.4258C66.2109-36.4258 59.6191-29.7363 59.6191-21.6309C59.6191-13.4766 66.2109-6.88477 74.3164-6.88477ZM74.3164-15.8691C71.0938-15.8691 68.5547-18.457 68.5547-21.6797C68.5547-25.3906 71.2891-27.3438 74.2188-27.4414C77.1973-27.4902 80.1758-25.5371 80.1758-21.6797C80.1758-18.457 77.6367-15.8691 74.3164-15.8691Z"/>
  </g>
  <g id="Bold-M" transform="matrix(1 0 0 1 2267.37 1126)">
   <path d="M76.6602 17.8223C100.293 17.8223 116.113 9.32617 116.113-3.41797C116.113-14.0625 108.105-15.9668 108.105-21.9727C108.105-30.1758 136.475-30.957 136.475-52.7832C136.475-74.5117 113.965-88.9648 80.3223-88.9648C37.5-88.9648 8.74023-66.6504 8.74023-34.8633C8.74023-3.27148 36.0352 17.8223 76.6602 17.8223ZM76.6602 3.71094C44.2871 3.71094 22.8516-11.7188 22.8516-34.8633C22.8516-58.8379 45.7031-74.8535 80.3223-74.8535C105.615-74.8535 122.363-65.9668 122.363-52.7832C122.363-37.207 93.8965-37.9883 93.8965-23.1934C93.8965-14.502 101.709-12.8418 101.709-6.29883C101.709-0.244141 91.748 3.71094 76.6602 3.71094ZM80.0293-51.0742C84.4727-51.0742 88.0371-54.6387 88.0371-59.082C88.0371-63.5254 84.4727-67.0898 80.0293-67.0898C75.6348-67.0898 71.9727-63.5254 71.9727-59.082C71.9727-54.6387 75.6348-51.0742 80.0293-51.0742ZM56.3965-43.6035C61.7676-43.6035 66.2109-47.9492 66.2109-53.4668C66.2109-58.8867 61.7676-63.1836 56.3965-63.1836C50.8789-63.1836 46.4844-58.9355 46.4844-53.4668C46.4844-47.9492 50.8789-43.6035 56.3965-43.6035ZM101.318-48.0957C104.883-48.0957 107.812-50.9766 107.812-54.6387C107.812-58.252 104.883-61.1816 101.318-61.1816C97.6562-61.1816 94.7266-58.252 94.7266-54.6387C94.7266-50.9766 97.6562-48.0957 101.318-48.0957ZM39.4043-28.5645C43.75-28.5645 47.3145-32.2266 47.3145-36.6211C47.3145-41.0156 43.75-44.5312 39.4043-44.5312C35.0098-44.5312 31.3965-40.9668 31.3965-36.6211C31.3965-32.2266 35.0098-28.5645 39.4043-28.5645ZM72.1191-6.83594C80.4199-6.83594 86.4746-12.8906 86.4746-21.1426C86.4746-29.0527 80.0293-35.498 72.1191-35.498C64.209-35.498 57.8125-29.0527 57.8125-21.1426C57.8125-13.2324 64.209-6.83594 72.1191-6.83594ZM72.1191-14.6484C68.5059-14.6484 65.5762-17.5293 65.5762-21.1914C65.5762-25.293 68.7012-27.5879 71.9727-27.6367C75.3906-27.6855 78.6621-25.4395 78.6621-21.1914C78.6621-17.5293 75.7812-14.6484 72.1191-14.6484Z"/>
  </g>
  <g id="Semibold-M" transform="matrix(1 0 0 1 1972.49 1126)">
   <path d="M74.9512 16.1133C97.4609 16.1133 112.5 8.05664 112.5-3.95508C112.5-14.209 104.395-16.2109 104.395-22.0703C104.395-30.127 132.812-31.2012 132.812-52.3926C132.812-73.4375 111.035-87.3535 78.6133-87.3535C36.8164-87.3535 8.74023-65.918 8.74023-34.8633C8.74023-4.3457 35.4004 16.1133 74.9512 16.1133ZM74.9512 4.10156C42.2852 4.10156 20.752-11.4746 20.752-34.8633C20.752-59.1797 43.7012-75.3418 78.6133-75.3418C104.004-75.3418 120.752-66.1133 120.752-52.3926C120.752-36.2793 92.2852-37.5977 92.2852-22.8516C92.2852-14.2578 100.342-12.2559 100.342-6.00586C100.342 0.0976562 90.2344 4.10156 74.9512 4.10156ZM78.5645-51.3184C83.0566-51.3184 86.6211-54.9316 86.6211-59.375C86.6211-63.8672 83.0566-67.4805 78.5645-67.4805C74.1211-67.4805 70.4102-63.8672 70.4102-59.375C70.4102-54.9316 74.1211-51.3184 78.5645-51.3184ZM54.4922-43.7012C59.9609-43.7012 64.502-48.0957 64.502-53.7109C64.502-59.1797 59.9609-63.5742 54.4922-63.5742C48.9258-63.5742 44.4336-59.2285 44.4336-53.7109C44.4336-48.0957 48.9258-43.7012 54.4922-43.7012ZM100.195-48.291C103.809-48.291 106.738-51.1719 106.738-54.8828C106.738-58.4961 103.809-61.4258 100.195-61.4258C96.5332-61.4258 93.6035-58.4961 93.6035-54.8828C93.6035-51.1719 96.5332-48.291 100.195-48.291ZM37.207-28.418C41.6016-28.418 45.2148-32.1289 45.2148-36.5234C45.2148-40.9668 41.6504-44.4824 37.207-44.4824C32.8125-44.4824 29.1504-40.9668 29.1504-36.5234C29.1504-32.1289 32.8125-28.418 37.207-28.418ZM70.5566-6.78711C78.5645-6.78711 84.668-12.8418 84.668-20.8496C84.668-28.5156 78.3203-34.8633 70.5566-34.8633C62.8906-34.8633 56.543-28.5156 56.543-20.8496C56.543-13.0859 62.8906-6.78711 70.5566-6.78711ZM70.5566-13.8184C66.6992-13.8184 63.5742-16.9434 63.5742-20.8496C63.5742-25.1953 66.8945-27.7344 70.459-27.7832C74.1211-27.832 77.6367-25.3418 77.6367-20.8496C77.6367-16.9434 74.5117-13.8184 70.5566-13.8184Z"/>
  </g>
  <g id="Medium-M" transform="matrix(1 0 0 1 1677.2 1126)">
   <path d="M73.6328 14.8438C95.3125 14.8438 109.766 7.12891 109.766-4.3457C109.766-14.3066 101.611-16.3574 101.611-22.168C101.611-30.127 129.98-31.3965 129.98-52.0996C129.98-72.6074 108.789-86.1816 77.2949-86.1816C36.3281-86.1816 8.74023-65.3809 8.74023-34.8633C8.74023-5.12695 34.9121 14.8438 73.6328 14.8438ZM73.6328 4.39453C40.8203 4.39453 19.1406-11.3281 19.1406-34.8633C19.1406-59.4238 42.1875-75.7812 77.2949-75.7812C102.783-75.7812 119.58-66.2109 119.58-52.0996C119.58-35.5469 91.0645-37.3535 91.0645-22.5586C91.0645-14.1113 99.2676-11.8164 99.2676-5.76172C99.2676 0.390625 89.1113 4.39453 73.6328 4.39453ZM77.4414-51.5137C81.9824-51.5137 85.5957-55.127 85.5957-59.6191C85.5957-64.1602 81.9824-67.7734 77.4414-67.7734C72.9492-67.7734 69.2383-64.1602 69.2383-59.6191C69.2383-55.127 72.9492-51.5137 77.4414-51.5137ZM53.0762-43.75C58.6426-43.75 63.1836-48.1934 63.1836-53.8574C63.1836-59.4238 58.5938-63.8672 53.0762-63.8672C47.4609-63.8672 42.9199-59.4238 42.9199-53.8574C42.9199-48.1934 47.4609-43.75 53.0762-43.75ZM99.4141-48.4375C103.027-48.4375 105.957-51.3184 105.957-55.0293C105.957-58.6914 103.027-61.6699 99.4141-61.6699C95.7031-61.6699 92.7246-58.6914 92.7246-55.0293C92.7246-51.3672 95.7031-48.4375 99.4141-48.4375ZM35.5469-28.3203C39.9902-28.3203 43.6035-32.0312 43.6035-36.4746C43.6035-40.918 40.0391-44.4824 35.5469-44.4824C31.1035-44.4824 27.4902-40.918 27.4902-36.4746C27.4902-32.0312 31.1523-28.3203 35.5469-28.3203ZM69.4336-6.73828C77.1484-6.73828 83.252-12.8418 83.252-20.5566C83.252-28.125 77.0508-34.375 69.4336-34.375C61.8164-34.375 55.6152-28.125 55.6152-20.5566C55.6152-12.9395 61.8164-6.73828 69.4336-6.73828ZM69.4336-13.1836C65.332-13.1836 62.0605-16.4551 62.0605-20.6055C62.0605-25.1465 65.5273-27.832 69.2871-27.8809C73.1934-27.9297 76.8066-25.293 76.8066-20.6055C76.8066-16.4551 73.5352-13.1836 69.4336-13.1836Z"/>
  </g>
  <g id="Regular-M" transform="matrix(1 0 0 1 1382.29 1126)">
   <path d="M71.9238 13.1836C92.4805 13.1836 106.201 5.9082 106.201-4.83398C106.201-14.4531 97.998-16.6016 97.998-22.2656C97.998-30.0781 126.367-31.6406 126.367-51.709C126.367-71.5332 105.908-84.6191 75.5371-84.6191C35.6445-84.6191 8.74023-64.6973 8.74023-34.8633C8.74023-6.15234 34.2773 13.1836 71.9238 13.1836ZM71.9238 4.83398C38.8672 4.83398 17.0898-11.084 17.0898-34.8633C17.0898-59.7656 40.2344-76.2695 75.5371-76.2695C101.172-76.2695 118.018-66.3086 118.018-51.709C118.018-34.668 89.4531-36.9629 89.4531-22.2168C89.4531-13.8672 97.8516-11.2305 97.8516-5.46875C97.8516 0.732422 87.6465 4.83398 71.9238 4.83398ZM75.9766-51.709C80.5664-51.709 84.1797-55.3711 84.1797-59.9609C84.1797-64.502 80.5664-68.1641 75.9766-68.1641C71.4844-68.1641 67.7246-64.502 67.7246-59.9609C67.7246-55.3711 71.4844-51.709 75.9766-51.709ZM51.2695-43.7988C56.8848-43.7988 61.4746-48.3398 61.4746-54.1016C61.4746-59.7168 56.8359-64.209 51.2695-64.209C45.5078-64.209 40.918-59.7168 40.918-54.1016C40.918-48.3398 45.5078-43.7988 51.2695-43.7988ZM98.291-48.584C101.953-48.584 104.883-51.5625 104.883-55.2734C104.883-58.9355 101.953-61.9141 98.291-61.9141C94.5801-61.9141 91.5527-58.9355 91.5527-55.2734C91.5527-51.5625 94.5801-48.584 98.291-48.584ZM33.3984-28.1738C37.8906-28.1738 41.5039-31.8848 41.5039-36.377C41.5039-40.8691 37.9395-44.4824 33.3984-44.4824C28.9551-44.4824 25.293-40.8691 25.293-36.377C25.293-31.8848 28.9551-28.1738 33.3984-28.1738ZM67.9199-6.68945C75.3418-6.68945 81.4453-12.793 81.4453-20.2637C81.4453-27.6367 75.3418-33.7402 67.9199-33.7402C60.498-33.7402 54.3945-27.6367 54.3945-20.2637C54.3945-12.793 60.498-6.68945 67.9199-6.68945ZM67.9199-12.3535C63.5742-12.3535 60.0586-15.8691 60.0586-20.2637C60.0586-25.0977 63.7695-27.9785 67.8223-28.0273C71.9727-28.0762 75.7812-25.2441 75.7812-20.2637C75.7812-15.8691 72.3145-12.3535 67.9199-12.3535Z"/>
  </g>
  <g id="Light-M" transform="matrix(1 0 0 1 1086.58 1126)">
   <path d="M70.9473 12.1582C90.8203 12.1582 104.248 5.27344 104.248-4.83398C104.248-14.2578 95.9473-15.9668 95.9473-22.168C95.9473-31.1523 124.365-31.543 124.365-51.709C124.365-70.8984 104.395-83.6426 74.5605-83.6426C35.2051-83.6426 8.74023-64.1113 8.74023-34.8633C8.74023-6.73828 33.8379 12.1582 70.9473 12.1582ZM70.9473 5.81055C37.3047 5.81055 15.0879-10.498 15.0879-34.8633C15.0879-60.3516 38.6719-77.2461 74.5605-77.2461C100.732-77.2461 118.018-66.9922 118.018-51.709C118.018-34.0332 89.4531-36.5723 89.4531-22.0703C89.4531-13.8672 97.8516-11.5723 97.8516-5.46875C97.8516 1.41602 87.4023 5.81055 70.9473 5.81055ZM75-52.1484C79.3945-52.1484 82.8125-55.6152 82.8125-59.9609C82.8125-64.3066 79.3945-67.7734 75-67.7734C70.7031-67.7734 67.1387-64.2578 67.1387-59.9609C67.1387-55.6152 70.7031-52.1484 75-52.1484ZM50.2441-43.9941C55.8105-43.9941 60.3027-48.4375 60.3027-54.1016C60.3027-59.6191 55.7617-64.0137 50.2441-64.0137C44.6289-64.0137 40.0879-59.6191 40.0879-54.1016C40.0879-48.4375 44.6289-43.9941 50.2441-43.9941ZM97.3145-49.0723C100.732-49.0723 103.467-51.8066 103.467-55.2734C103.467-58.6914 100.684-61.4746 97.3145-61.4746C93.8477-61.4746 91.0645-58.6914 91.0645-55.2734C91.0645-51.8066 93.8477-49.0723 97.3145-49.0723ZM32.4219-28.7598C36.5723-28.7598 39.9414-32.2266 39.9414-36.377C39.9414-40.5762 36.6211-43.8965 32.4219-43.8965C28.2715-43.8965 24.8535-40.5273 24.8535-36.377C24.8535-32.2266 28.2715-28.7598 32.4219-28.7598ZM66.9434-6.20117C74.6582-6.20117 80.957-12.5 80.957-20.2637C80.957-27.9297 74.6582-34.2773 66.9434-34.2773C59.2285-34.2773 52.8809-27.9297 52.8809-20.2637C52.8809-12.5 59.2285-6.20117 66.9434-6.20117ZM66.9434-10.7422C61.6699-10.7422 57.4707-14.9902 57.4707-20.2637C57.4707-25.7812 61.8164-29.6387 66.8457-29.6875C71.9727-29.6875 76.416-25.8789 76.416-20.2637C76.416-14.9902 72.2168-10.7422 66.9434-10.7422Z"/>
  </g>
  <g id="Thin-M" transform="matrix(1 0 0 1 791.188 1126)">
   <path d="M69.6289 10.8398C88.6719 10.8398 101.611 4.44336 101.611-4.83398C101.611-14.0625 93.2129-15.0879 93.2129-22.0703C93.2129-32.6172 121.729-31.3965 121.729-51.709C121.729-70.1172 102.344-82.3242 73.2422-82.3242C34.5703-82.3242 8.74023-63.2812 8.74023-34.8633C8.74023-7.51953 33.2031 10.8398 69.6289 10.8398ZM69.6289 7.12891C35.3027 7.12891 12.4512-9.7168 12.4512-34.8633C12.4512-61.1328 36.6699-78.5645 73.2422-78.5645C100.146-78.5645 118.018-67.8223 118.018-51.709C118.018-33.252 89.4531-36.0352 89.4531-21.8262C89.4531-13.8184 97.8516-12.0605 97.8516-5.46875C97.8516 2.34375 87.0605 7.12891 69.6289 7.12891ZM73.6816-52.6367C77.7832-52.6367 80.957-55.8594 80.957-59.9609C80.957-64.0137 77.7832-67.2363 73.6816-67.2363C69.6289-67.2363 66.3086-63.9648 66.3086-59.9609C66.3086-55.9082 69.6289-52.6367 73.6816-52.6367ZM48.9258-44.2383C54.3945-44.2383 58.7402-48.584 58.7402-54.1016C58.7402-59.4727 54.3457-63.7695 48.9258-63.7695C43.4082-63.7695 38.9648-59.5215 38.9648-54.1016C38.9648-48.584 43.4082-44.2383 48.9258-44.2383ZM96.0449-49.6582C99.0723-49.6582 101.514-52.0996 101.514-55.2734C101.514-58.3496 99.0234-60.8398 96.0449-60.8398C92.9199-60.8398 90.332-58.3496 90.332-55.2734C90.332-52.1484 92.8223-49.6582 96.0449-49.6582ZM31.1035-29.4922C34.8145-29.4922 37.8906-32.6172 37.8906-36.377C37.8906-40.1855 34.9121-43.1641 31.1035-43.1641C27.3438-43.1641 24.2676-40.1367 24.2676-36.377C24.2676-32.6172 27.3926-29.4922 31.1035-29.4922ZM65.625-5.51758C73.7305-5.51758 80.3223-12.1094 80.3223-20.2637C80.3223-28.3203 73.7305-34.9609 65.625-34.9609C57.5195-34.9609 50.9277-28.3203 50.9277-20.2637C50.9277-12.1094 57.5195-5.51758 65.625-5.51758ZM65.625-8.64258C59.1797-8.64258 54.0527-13.8184 54.0527-20.2637C54.0527-26.7578 59.2285-31.7871 65.625-31.8359C71.9727-31.8359 77.2461-26.8066 77.2461-20.2637C77.2461-13.8184 72.0703-8.64258 65.625-8.64258Z"/>
  </g>
  <g id="Ultralight-M" transform="matrix(1 0 0 1 495.16 1126)">
   <path d="M68.9453 10.2051C87.5488 10.2051 100.244 4.05273 100.244-4.83398C100.244-13.916 91.8457-14.6484 91.8457-21.9727C91.8457-33.3496 120.361-31.3477 120.361-51.709C120.361-69.6777 101.318-81.6406 72.5586-81.6406C34.2773-81.6406 8.74023-62.8906 8.74023-34.8633C8.74023-7.91016 32.9102 10.2051 68.9453 10.2051ZM68.9453 7.8125C34.2773 7.8125 11.1328-9.27734 11.1328-34.8633C11.1328-61.5234 35.6445-79.248 72.5586-79.248C99.8535-79.248 118.018-68.2617 118.018-51.709C118.018-32.8613 89.4531-35.7422 89.4531-21.7285C89.4531-13.8184 97.8516-12.3047 97.8516-5.46875C97.8516 2.7832 86.8652 7.8125 68.9453 7.8125ZM72.998-52.9297C77.002-52.9297 80.0293-56.0059 80.0293-59.9609C80.0293-63.8672 77.002-66.9434 72.998-66.9434C69.0918-66.9434 65.918-63.7695 65.918-59.9609C65.918-56.1035 69.0918-52.9297 72.998-52.9297ZM48.2422-44.3848C53.6621-44.3848 57.959-48.6816 57.959-54.1016C57.959-59.375 53.6133-63.6719 48.2422-63.6719C42.7734-63.6719 38.4277-59.4238 38.4277-54.1016C38.4277-48.6816 42.7734-44.3848 48.2422-44.3848ZM95.3613-50C98.2422-50 100.537-52.2949 100.537-55.2734C100.537-58.2031 98.1934-60.5469 95.3613-60.5469C92.3828-60.5469 89.9902-58.2031 89.9902-55.2734C89.9902-52.3438 92.334-50 95.3613-50ZM30.4199-29.8828C33.9355-29.8828 36.8164-32.8613 36.8164-36.377C36.8164-39.9902 34.0332-42.7734 30.4199-42.7734C26.9043-42.7734 23.9746-39.9414 23.9746-36.377C23.9746-32.8613 26.9531-29.8828 30.4199-29.8828ZM64.9414-5.17578C73.291-5.17578 80.0293-11.9141 80.0293-20.2637C80.0293-28.5645 73.291-35.3027 64.9414-35.3027C56.6406-35.3027 49.9023-28.5645 49.9023-20.2637C49.9023-11.9141 56.6406-5.17578 64.9414-5.17578ZM64.9414-7.56836C57.959-7.56836 52.2949-13.2324 52.2949-20.2637C52.2949-27.2461 57.9102-32.9102 64.9902-32.9102C72.0215-32.9102 77.6367-27.2461 77.6367-20.2637C77.6367-13.2324 71.9727-7.56836 64.9414-7.56836Z"/>
  </g>
  <g id="Black-S" transform="matrix(1 0 0 1 2872.73 696)">
   <path d="M63.5742 9.81445C84.4238 9.81445 98.3398 2.19727 98.3398-9.22852C98.3398-18.3594 92.2363-19.6777 92.2363-24.6094C92.2363-31.2988 114.502-31.3965 114.502-49.7559C114.502-68.2617 95.3125-80.5664 66.5039-80.5664C30.7129-80.5664 6.83594-61.3281 6.83594-34.9121C6.83594-8.05664 29.541 9.81445 63.5742 9.81445ZM63.5742-5.56641C38.7695-5.56641 22.2168-17.2852 22.2168-34.9121C22.2168-53.0762 39.9414-65.1855 66.5039-65.1855C86.084-65.1855 99.1211-59.0332 99.1211-49.7559C99.1211-38.6719 76.9043-38.1348 76.9043-26.5625C76.9043-19.4824 82.5684-18.8477 82.5684-13.1836C82.5684-8.59375 74.9512-5.56641 63.5742-5.56641ZM65.7227-47.168C69.0918-47.168 71.8262-49.9023 71.8262-53.2715C71.8262-56.6895 69.0918-59.375 65.7227-59.375C62.3535-59.375 59.5703-56.6895 59.5703-53.2715C59.5703-49.9023 62.3535-47.168 65.7227-47.168ZM47.998-41.6504C52.0508-41.6504 55.4199-44.9219 55.4199-49.0723C55.4199-53.1738 52.0508-56.3965 47.998-56.3965C43.8965-56.3965 40.5762-53.1738 40.5762-49.0723C40.5762-44.9219 43.8965-41.6504 47.998-41.6504ZM81.5918-44.9219C84.375-44.9219 86.6211-47.1191 86.6211-49.9512C86.6211-52.7344 84.375-54.9805 81.5918-54.9805C78.8086-54.9805 76.5625-52.7344 76.5625-49.9512C76.5625-47.1191 78.8086-44.9219 81.5918-44.9219ZM35.3027-30.2734C38.6719-30.2734 41.4062-33.1055 41.4062-36.4746C41.4062-39.8438 38.6719-42.5781 35.3027-42.5781C31.9336-42.5781 29.1504-39.8438 29.1504-36.4746C29.1504-33.1055 31.9336-30.2734 35.3027-30.2734ZM59.6191-13.0859C66.748-13.0859 71.4844-17.8223 71.4844-24.9023C71.4844-31.3965 66.2109-36.7188 59.6191-36.7188C53.125-36.7188 47.8516-31.3965 47.8516-24.9023C47.8516-18.3594 53.125-13.0859 59.6191-13.0859ZM59.6191-20.8496C57.373-20.8496 55.5664-22.6562 55.5664-24.9512C55.5664-27.5879 57.5195-28.9062 59.5215-28.9551C61.6211-29.0039 63.7207-27.6855 63.7207-24.9512C63.7207-22.6562 61.9629-20.8496 59.6191-20.8496Z"/>
  </g>
  <g id="Heavy-S" transform="matrix(1 0 0 1 2577.73 696)">
   <path d="M61.9629 8.25195C81.7871 8.25195 94.9707 1.02539 94.9707-9.76562C94.9707-18.5059 88.8184-19.9707 88.8184-24.7559C88.8184-31.1523 111.084-31.6406 111.084-49.3652C111.084-67.2363 92.5781-79.1016 64.8926-79.1016C30.127-79.1016 6.83594-60.6934 6.83594-34.9121C6.83594-9.0332 28.9551 8.25195 61.9629 8.25195ZM61.9629-5.27344C36.9629-5.27344 20.3613-17.1387 20.3613-34.9121C20.3613-53.3203 38.1348-65.5762 64.8926-65.5762C84.5215-65.5762 97.5586-59.082 97.5586-49.3652C97.5586-37.8418 75.293-37.8418 75.293-26.2207C75.293-19.2383 81.1523-18.2617 81.1523-12.8906C81.1523-8.30078 73.4863-5.27344 61.9629-5.27344ZM64.3555-47.3633C67.8223-47.3633 70.6055-50.1465 70.6055-53.5645C70.6055-57.0801 67.8223-59.8145 64.3555-59.8145C60.9375-59.8145 58.1055-57.0801 58.1055-53.5645C58.1055-50.1465 60.9375-47.3633 64.3555-47.3633ZM46.2402-41.6992C50.3906-41.6992 53.8574-45.0195 53.8574-49.2676C53.8574-53.4668 50.3906-56.7871 46.2402-56.7871C42.041-56.7871 38.6719-53.4668 38.6719-49.2676C38.6719-45.0195 42.041-41.6992 46.2402-41.6992ZM80.6152-45.0684C83.4473-45.0684 85.7422-47.3145 85.7422-50.1953C85.7422-53.0273 83.4473-55.3223 80.6152-55.3223C77.7832-55.3223 75.4883-53.0273 75.4883-50.1953C75.4883-47.3145 77.7832-45.0684 80.6152-45.0684ZM33.252-30.0781C36.7188-30.0781 39.502-32.959 39.502-36.377C39.502-39.8438 36.7188-42.627 33.252-42.627C29.834-42.627 27.002-39.8438 27.002-36.377C27.002-32.959 29.834-30.0781 33.252-30.0781ZM58.2031-13.0859C64.9902-13.0859 69.7266-17.8223 69.7266-24.5605C69.7266-30.8594 64.5996-36.0352 58.2031-36.0352C51.9043-36.0352 46.7773-30.8594 46.7773-24.5605C46.7773-18.2129 51.9043-13.0859 58.2031-13.0859ZM58.2031-20.2148C55.8105-20.2148 53.8574-22.1191 53.8574-24.6094C53.8574-27.4414 55.957-28.8574 58.1055-28.9062C60.4004-28.9551 62.6465-27.5391 62.6465-24.6094C62.6465-22.1191 60.6934-20.2148 58.2031-20.2148Z"/>
  </g>
  <g id="Bold-S" transform="matrix(1 0 0 1 2282.95 696)">
   <path d="M60.2051 6.49414C78.8086 6.49414 91.2598-0.244141 91.2598-10.3516C91.2598-18.7012 85.0098-20.3125 85.0098-24.8535C85.0098-31.0059 107.227-31.9336 107.227-48.9746C107.227-66.1133 89.502-77.4902 63.0859-77.4902C29.4434-77.4902 6.83594-59.9609 6.83594-34.9609C6.83594-10.1074 28.3203 6.49414 60.2051 6.49414ZM60.2051-4.93164C34.9609-4.93164 18.2617-16.9434 18.2617-34.9609C18.2617-53.6133 36.084-66.0645 63.0859-66.0645C82.7637-66.0645 95.8008-59.1797 95.8008-48.9746C95.8008-36.8652 73.4863-37.4512 73.4863-25.8301C73.4863-18.9941 79.6387-17.5781 79.6387-12.5488C79.6387-7.95898 71.875-4.93164 60.2051-4.93164ZM62.8418-47.5586C66.4062-47.5586 69.2383-50.3906 69.2383-53.9551C69.2383-57.4707 66.4062-60.3027 62.8418-60.3027C59.375-60.3027 56.4453-57.4707 56.4453-53.9551C56.4453-50.3906 59.375-47.5586 62.8418-47.5586ZM44.2871-41.748C48.5352-41.748 52.0508-45.166 52.0508-49.5605C52.0508-53.8086 48.5352-57.2266 44.2871-57.2266C39.9902-57.2266 36.5234-53.8086 36.5234-49.5605C36.5234-45.166 39.9902-41.748 44.2871-41.748ZM79.541-45.2148C82.4219-45.2148 84.7656-47.5098 84.7656-50.4395C84.7656-53.3203 82.4219-55.6641 79.541-55.6641C76.6113-55.6641 74.2676-53.3203 74.2676-50.4395C74.2676-47.5098 76.6113-45.2148 79.541-45.2148ZM30.957-29.834C34.4727-29.834 37.3535-32.8125 37.3535-36.3281C37.3535-39.8438 34.4727-42.6758 30.957-42.6758C27.4414-42.6758 24.5605-39.8438 24.5605-36.3281C24.5605-32.8125 27.4414-29.834 30.957-29.834ZM56.6406-13.0859C63.0371-13.0859 67.7734-17.8223 67.7734-24.2188C67.7734-30.2734 62.793-35.2539 56.6406-35.2539C50.5371-35.2539 45.6055-30.2734 45.6055-24.2188C45.6055-18.0664 50.5371-13.0859 56.6406-13.0859ZM56.6406-19.4336C54.0527-19.4336 51.9043-21.582 51.9043-24.2188C51.9043-27.2461 54.1992-28.8574 56.543-28.9062C58.9844-28.9551 61.377-27.3926 61.377-24.2188C61.377-21.582 59.3262-19.4336 56.6406-19.4336Z"/>
  </g>
  <g id="Semibold-S" transform="matrix(1 0 0 1 1987.55 696)">
   <path d="M58.9844 5.27344C76.8066 5.27344 88.6719-1.12305 88.6719-10.7422C88.6719-18.7988 82.373-20.5566 82.373-24.9512C82.373-30.8594 104.59-32.1289 104.59-48.6328C104.59-65.332 87.4023-76.3672 61.8164-76.3672C28.9551-76.3672 6.83594-59.4727 6.83594-34.9609C6.83594-10.8398 27.8809 5.27344 58.9844 5.27344ZM58.9844-4.73633C33.5938-4.73633 16.8457-16.8457 16.8457-34.9609C16.8457-53.8086 34.668-66.3574 61.8164-66.3574C81.5918-66.3574 94.5801-59.1797 94.5801-48.6328C94.5801-36.2305 72.2656-37.207 72.2656-25.5859C72.2656-18.7988 78.5156-17.0898 78.5156-12.3047C78.5156-7.76367 70.752-4.73633 58.9844-4.73633ZM61.8164-47.7051C65.3809-47.7051 68.2617-50.5859 68.2617-54.1504C68.2617-57.7637 65.3809-60.6445 61.8164-60.6445C58.252-60.6445 55.3223-57.7637 55.3223-54.1504C55.3223-50.5859 58.252-47.7051 61.8164-47.7051ZM42.9688-41.7969C47.2656-41.7969 50.8301-45.2637 50.8301-49.707C50.8301-54.0527 47.2656-57.5195 42.9688-57.5195C38.5742-57.5195 35.0098-54.0527 35.0098-49.707C35.0098-45.2637 38.5742-41.7969 42.9688-41.7969ZM78.8086-45.3125C81.6895-45.3125 84.082-47.6562 84.082-50.6348C84.082-53.5645 81.6895-55.9082 78.8086-55.9082C75.8301-55.9082 73.4375-53.5645 73.4375-50.6348C73.4375-47.6562 75.8301-45.3125 78.8086-45.3125ZM29.3945-29.6875C32.959-29.6875 35.8398-32.666 35.8398-36.2305C35.8398-39.7949 32.959-42.6758 29.3945-42.6758C25.8301-42.6758 22.9004-39.7949 22.9004-36.2305C22.9004-32.666 25.8301-29.6875 29.3945-29.6875ZM55.5664-13.0859C61.7188-13.0859 66.4062-17.7734 66.4062-23.9258C66.4062-29.8828 61.5234-34.7656 55.5664-34.7656C49.6094-34.7656 44.7754-29.8828 44.7754-23.9258C44.7754-17.9688 49.6094-13.0859 55.5664-13.0859ZM55.5664-18.9453C52.832-18.9453 50.5859-21.1426 50.5859-23.9746C50.5859-27.1484 52.9785-28.8086 55.4688-28.8574C58.0078-28.9062 60.5469-27.2461 60.5469-23.9746C60.5469-21.1426 58.3496-18.9453 55.5664-18.9453Z"/>
  </g>
  <g id="Medium-S" transform="matrix(1 0 0 1 1691.87 696)">
   <path d="M58.0566 4.3457C75.2441 4.3457 86.7188-1.80664 86.7188-11.0352C86.7188-18.8965 80.3711-20.7031 80.3711-25.0488C80.3711-30.8105 102.539-32.2754 102.539-48.4375C102.539-64.7461 85.791-75.5371 60.8887-75.5371C28.6133-75.5371 6.83594-59.082 6.83594-34.9609C6.83594-11.4258 27.5391 4.3457 58.0566 4.3457ZM58.0566-4.54102C32.5195-4.54102 15.7715-16.748 15.7715-34.9609C15.7715-53.9551 33.6426-66.6016 60.8887-66.6016C80.6641-66.6016 93.6523-59.2285 93.6523-48.4375C93.6523-35.6934 71.2891-37.0605 71.2891-25.3906C71.2891-18.7012 77.7344-16.748 77.7344-12.1582C77.7344-7.56836 69.873-4.54102 58.0566-4.54102ZM61.0352-47.8027C64.6484-47.8027 67.5781-50.7324 67.5781-54.3457C67.5781-57.959 64.6484-60.8887 61.0352-60.8887C57.4707-60.8887 54.4434-57.959 54.4434-54.3457C54.4434-50.7324 57.4707-47.8027 61.0352-47.8027ZM41.9434-41.8457C46.2891-41.8457 49.9023-45.3613 49.9023-49.8535C49.9023-54.248 46.2891-57.7148 41.9434-57.7148C37.5-57.7148 33.8867-54.248 33.8867-49.8535C33.8867-45.3613 37.5-41.8457 41.9434-41.8457ZM78.2227-45.3613C81.1523-45.3613 83.5449-47.7539 83.5449-50.7324C83.5449-53.7109 81.1523-56.1035 78.2227-56.1035C75.2441-56.1035 72.8027-53.7109 72.8027-50.7324C72.8027-47.7539 75.2441-45.3613 78.2227-45.3613ZM28.2227-29.5898C31.8359-29.5898 34.7168-32.5684 34.7168-36.1816C34.7168-39.7949 31.8359-42.7246 28.2227-42.7246C24.6094-42.7246 21.6309-39.7949 21.6309-36.1816C21.6309-32.5684 24.6094-29.5898 28.2227-29.5898ZM54.7363-13.0859C60.6934-13.0859 65.3809-17.7734 65.3809-23.7305C65.3809-29.541 60.5957-34.3262 54.7363-34.3262C48.9258-34.3262 44.1406-29.541 44.1406-23.7305C44.1406-17.8711 48.9258-13.0859 54.7363-13.0859ZM54.7363-18.5547C51.9043-18.5547 49.6094-20.8496 49.6094-23.7305C49.6094-27.0508 52.0508-28.8086 54.6387-28.8574C57.2754-28.9062 59.9121-27.1484 59.9121-23.7305C59.9121-20.8496 57.6172-18.5547 54.7363-18.5547Z"/>
  </g>
  <g id="Regular-S" transform="matrix(1 0 0 1 1396.45 696)">
   <path d="M56.8359 3.17383C73.2422 3.17383 84.1797-2.68555 84.1797-11.4258C84.1797-18.9941 77.7344-20.9473 77.7344-25.1465C77.7344-30.6641 99.9512-32.4707 99.9512-48.1445C99.9512-63.9648 83.6914-74.4141 59.668-74.4141C28.1738-74.4141 6.83594-58.5938 6.83594-34.9609C6.83594-12.1582 27.0996 3.17383 56.8359 3.17383ZM56.8359-4.3457C31.1523-4.3457 14.3555-16.6016 14.3555-34.9609C14.3555-54.1504 32.2266-66.8945 59.668-66.8945C79.4922-66.8945 92.4316-59.2773 92.4316-48.1445C92.4316-35.0586 70.0684-36.8164 70.0684-25.0977C70.0684-18.5059 76.6602-16.2598 76.6602-11.9141C76.6602-7.37305 68.75-4.3457 56.8359-4.3457ZM60.0098-47.9492C63.6719-47.9492 66.6504-50.9277 66.6504-54.5898C66.6504-58.252 63.6719-61.2305 60.0098-61.2305C56.3477-61.2305 53.3203-58.252 53.3203-54.5898C53.3203-50.9277 56.3477-47.9492 60.0098-47.9492ZM40.625-41.8945C45.0684-41.8945 48.6816-45.4102 48.6816-50C48.6816-54.4922 45.0684-58.0078 40.625-58.0078C36.084-58.0078 32.4219-54.4922 32.4219-50C32.4219-45.4102 36.084-41.8945 40.625-41.8945ZM77.4902-45.459C80.4688-45.459 82.8613-47.9004 82.8613-50.9277C82.8613-53.9062 80.4688-56.3965 77.4902-56.3965C74.4629-56.3965 71.9727-53.9062 71.9727-50.9277C71.9727-47.9004 74.4629-45.459 77.4902-45.459ZM26.6602-29.4434C30.3223-29.4434 33.252-32.4707 33.252-36.1328C33.252-39.7949 30.3223-42.7246 26.6602-42.7246C22.998-42.7246 20.0195-39.7949 20.0195-36.1328C20.0195-32.4707 22.998-29.4434 26.6602-29.4434ZM53.6621-13.0859C59.375-13.0859 64.0137-17.7734 64.0137-23.4863C64.0137-29.1504 59.375-33.8379 53.6621-33.8379C47.998-33.8379 43.3105-29.1504 43.3105-23.4863C43.3105-17.7734 47.998-13.0859 53.6621-13.0859ZM53.6621-18.0664C50.6836-18.0664 48.291-20.459 48.291-23.4863C48.291-26.9043 50.8789-28.7598 53.5645-28.8086C56.3477-28.8574 59.082-27.0508 59.082-23.4863C59.082-20.459 56.6895-18.0664 53.6621-18.0664Z"/>
  </g>
  <g id="Light-S" transform="matrix(1 0 0 1 1100.62 696)">
   <path d="M55.957 2.29492C71.7773 2.29492 82.4219-3.22266 82.4219-11.4258C82.4219-18.8477 75.9277-20.3613 75.9277-25.0488C75.9277-31.6406 98.1934-32.373 98.1934-48.1445C98.1934-63.4277 82.373-73.5352 58.7891-73.5352C27.7344-73.5352 6.83594-58.0566 6.83594-34.9609C6.83594-12.6953 26.6602 2.29492 55.957 2.29492ZM55.957-3.4668C29.834-3.4668 12.5977-16.0645 12.5977-34.9609C12.5977-54.6875 30.9082-67.7734 58.7891-67.7734C79.0527-67.7734 92.4316-59.8633 92.4316-48.1445C92.4316-34.5215 70.0684-36.4258 70.0684-24.9512C70.0684-18.5059 76.6602-16.5527 76.6602-11.9141C76.6602-6.78711 68.5547-3.4668 55.957-3.4668ZM59.1309-48.291C62.6465-48.291 65.3809-51.123 65.3809-54.5898C65.3809-58.0566 62.6465-60.8887 59.1309-60.8887C55.6641-60.8887 52.7832-58.0566 52.7832-54.5898C52.7832-51.123 55.6641-48.291 59.1309-48.291ZM39.7461-42.041C44.0918-42.041 47.6562-45.5078 47.6562-50C47.6562-54.3945 44.0918-57.8613 39.7461-57.8613C35.3027-57.8613 31.6895-54.3945 31.6895-50C31.6895-45.5078 35.3027-42.041 39.7461-42.041ZM76.6113-45.8984C79.3945-45.8984 81.5918-48.0957 81.5918-50.9277C81.5918-53.7109 79.3457-55.957 76.6113-55.957C73.7793-55.957 71.5332-53.7109 71.5332-50.9277C71.5332-48.1445 73.7793-45.8984 76.6113-45.8984ZM25.7812-29.9316C29.1504-29.9316 31.8848-32.7637 31.8848-36.1328C31.8848-39.5508 29.1504-42.2363 25.7812-42.2363C22.4121-42.2363 19.6289-39.502 19.6289-36.1328C19.6289-32.7637 22.4121-29.9316 25.7812-29.9316ZM52.7832-12.6465C58.7402-12.6465 63.623-17.5293 63.623-23.4863C63.623-29.3945 58.7402-34.2773 52.7832-34.2773C46.875-34.2773 41.9922-29.3945 41.9922-23.4863C41.9922-17.5293 46.875-12.6465 52.7832-12.6465ZM52.7832-16.6504C49.0234-16.6504 45.9961-19.6777 45.9961-23.4863C45.9961-27.5879 49.1699-30.2246 52.7344-30.2734C56.3477-30.2734 59.6191-27.6367 59.6191-23.4863C59.6191-19.6777 56.5918-16.6504 52.7832-16.6504Z"/>
  </g>
  <g id="Thin-S" transform="matrix(1 0 0 1 805.079 696)">
   <path d="M54.7852 1.12305C69.873 1.12305 80.0781-3.95508 80.0781-11.4258C80.0781-18.7012 73.5352-19.6289 73.5352-24.9512C73.5352-32.9102 95.8496-32.2754 95.8496-48.1445C95.8496-62.6953 80.5664-72.3633 57.6172-72.3633C27.1973-72.3633 6.83594-57.373 6.83594-34.9609C6.83594-13.3789 26.123 1.12305 54.7852 1.12305ZM54.7852-2.29492C28.0273-2.29492 10.2539-15.3809 10.2539-34.9609C10.2539-55.3711 29.1016-68.9453 57.6172-68.9453C78.5645-68.9453 92.4316-60.5957 92.4316-48.1445C92.4316-33.8379 70.0684-35.9375 70.0684-24.8047C70.0684-18.457 76.6602-16.9922 76.6602-11.9141C76.6602-5.95703 68.2617-2.29492 54.7852-2.29492ZM57.959-48.7793C61.2305-48.7793 63.7695-51.3672 63.7695-54.5898C63.7695-57.8125 61.2305-60.4004 57.959-60.4004C54.7363-60.4004 52.0996-57.8125 52.0996-54.5898C52.0996-51.3672 54.7363-48.7793 57.959-48.7793ZM38.5742-42.2363C42.8711-42.2363 46.3379-45.6543 46.3379-50C46.3379-54.248 42.8223-57.666 38.5742-57.666C34.2285-57.666 30.7617-54.2969 30.7617-50C30.7617-45.6543 34.2285-42.2363 38.5742-42.2363ZM75.4883-46.4355C77.9297-46.4355 79.8828-48.3887 79.8828-50.9277C79.8828-53.418 77.8809-55.4199 75.4883-55.4199C72.9492-55.4199 70.8984-53.418 70.8984-50.9277C70.8984-48.4375 72.9004-46.4355 75.4883-46.4355ZM24.6094-30.5664C27.5879-30.5664 30.0781-33.1055 30.0781-36.1328C30.0781-39.209 27.6855-41.6016 24.6094-41.6016C21.582-41.6016 19.1406-39.1602 19.1406-36.1328C19.1406-33.1055 21.6309-30.5664 24.6094-30.5664ZM51.6602-12.1094C57.959-12.1094 63.0371-17.1875 63.0371-23.4863C63.0371-29.7363 57.959-34.8633 51.6602-34.8633C45.3613-34.8633 40.2832-29.7363 40.2832-23.4863C40.2832-17.1875 45.3613-12.1094 51.6602-12.1094ZM51.6602-14.7949C46.8262-14.7949 42.9688-18.6523 42.9688-23.4863C42.9688-28.418 46.875-32.1289 51.6113-32.1289C56.3965-32.1777 60.3516-28.4668 60.3516-23.4863C60.3516-18.6523 56.4941-14.7949 51.6602-14.7949Z"/>
  </g>
  <g id="Ultralight-S" transform="matrix(1 0 0 1 508.954 696)">
   <path d="M54.1992 0.537109C68.8965 0.537109 78.9062-4.3457 78.9062-11.4258C78.9062-18.5547 72.3145-19.2383 72.3145-24.8535C72.3145-33.5449 94.6777-32.1777 94.6777-48.1445C94.6777-62.3535 79.6387-71.7773 57.0312-71.7773C26.9043-71.7773 6.83594-57.0312 6.83594-34.9609C6.83594-13.7207 25.8301 0.537109 54.1992 0.537109ZM54.1992-1.70898C27.0996-1.70898 9.08203-15.0391 9.08203-34.9609C9.08203-55.7129 28.1738-69.5312 57.0312-69.5312C78.2715-69.5312 92.4316-60.9863 92.4316-48.1445C92.4316-33.4961 70.0684-35.6934 70.0684-24.6582C70.0684-18.457 76.6602-17.1875 76.6602-11.9141C76.6602-5.56641 68.1152-1.70898 54.1992-1.70898ZM57.373-49.0234C60.498-49.0234 62.9395-51.4648 62.9395-54.5898C62.9395-57.7148 60.498-60.1562 57.373-60.1562C54.248-60.1562 51.7578-57.666 51.7578-54.5898C51.7578-51.5137 54.248-49.0234 57.373-49.0234ZM37.9883-42.334C42.2363-42.334 45.6055-45.752 45.6055-50C45.6055-54.1504 42.1875-57.5684 37.9883-57.5684C33.6914-57.5684 30.2246-54.1992 30.2246-50C30.2246-45.752 33.6914-42.334 37.9883-42.334ZM74.9023-46.7285C77.1973-46.7285 79.0039-48.5352 79.0039-50.9277C79.0039-53.2715 77.1484-55.127 74.9023-55.127C72.5098-55.127 70.5566-53.2715 70.5566-50.9277C70.5566-48.584 72.4609-46.7285 74.9023-46.7285ZM24.0234-30.9082C26.8066-30.9082 29.1016-33.3008 29.1016-36.1328C29.1016-39.0137 26.9043-41.2598 24.0234-41.2598C21.1914-41.2598 18.8477-38.9648 18.8477-36.1328C18.8477-33.3008 21.2402-30.9082 24.0234-30.9082ZM51.0742-11.7676C57.5195-11.7676 62.7441-17.041 62.7441-23.4863C62.7441-29.9316 57.5195-35.2051 51.0742-35.2051C44.6289-35.2051 39.3555-29.9316 39.3555-23.4863C39.3555-17.041 44.6289-11.7676 51.0742-11.7676ZM51.0742-13.8184C45.7031-13.8184 41.4062-18.1152 41.4062-23.4863C41.4062-28.8574 45.7031-33.1055 51.0742-33.1055C56.3965-33.1055 60.6934-28.8574 60.6934-23.4863C60.6934-18.1152 56.3965-13.8184 51.0742-13.8184Z"/>
  </g>
 </g>
</svg>
