<svg width="97" height="26" viewBox="0 0 97 26" xmlns="http://www.w3.org/2000/svg"><g id="Symbols" fill="none" fill-rule="evenodd"><g id="App-Store" transform="translate(-10 -7)" fill="#FFF"><g transform="translate(9 6)" id="Group"><g id="icon" transform="translate(.778 1.111)"><path d="M16.5 11.822c-.027-2.808 2.376-4.175 2.486-4.238-1.361-1.92-3.47-2.182-4.212-2.203-1.771-.18-3.49 1.026-4.392 1.026-.92 0-2.31-1.009-3.808-.979-1.927.029-3.73 1.108-4.719 2.785-2.04 3.418-.519 8.442 1.437 11.205.978 1.354 2.12 2.864 3.616 2.81 1.464-.057 2.01-.902 3.777-.902 1.75 0 2.263.903 3.789.868 1.57-.023 2.56-1.358 3.503-2.725 1.13-1.55 1.584-3.078 1.602-3.157-.036-.011-3.05-1.124-3.08-4.49" id="Fill-2"/><path d="M13.617 3.563c.787-.952 1.326-2.248 1.176-3.563-1.139.049-2.564.763-3.384 1.694-.726.821-1.374 2.166-1.207 3.432 1.28.092 2.594-.625 3.415-1.563" id="Fill-3"/></g><g transform="translate(26.556 10.889)"><path d="M10.77 12.603h-2L7.675 9.206H3.868l-1.044 3.397H.877L4.65 1.04h2.33l3.79 11.563zM7.345 7.782l-.99-3.019c-.106-.31-.303-1.035-.592-2.179h-.035a91.945 91.945 0 0 1-.556 2.18l-.974 3.018h3.147z" id="Fill-4"/><path d="M20.454 8.332c0 1.417-.39 2.538-1.171 3.361-.7.733-1.569 1.098-2.605 1.098-1.119 0-1.924-.393-2.412-1.183v4.375h-1.878V7.006c0-.89-.023-1.804-.07-2.74h1.652l.104 1.322h.036c.626-.997 1.576-1.495 2.85-1.495.998 0 1.83.389 2.495 1.166.665.78.999 1.803.999 3.073zm-1.913.067c0-.811-.185-1.48-.556-2.007-.406-.548-.951-.823-1.634-.823-.464 0-.884.153-1.26.455-.377.303-.624.7-.74 1.193a2.377 2.377 0 0 0-.086.563v1.392c0 .604.188 1.116.565 1.535.377.417.866.626 1.469.626.707 0 1.257-.27 1.65-.806.395-.538.592-1.247.592-2.128z" id="Fill-5"/><path d="M30.172 8.332c0 1.417-.39 2.538-1.171 3.361-.7.733-1.568 1.098-2.606 1.098-1.118 0-1.923-.393-2.412-1.183v4.375h-1.877V7.006c0-.89-.024-1.804-.07-2.74h1.651l.105 1.322h.035c.625-.997 1.575-1.495 2.851-1.495.996 0 1.829.389 2.495 1.166.664.78.999 1.803.999 3.073zm-1.913.067c0-.811-.186-1.48-.558-2.007-.405-.548-.949-.823-1.632-.823-.463 0-.884.153-1.262.455-.376.303-.623.7-.738 1.193a2.432 2.432 0 0 0-.088.563v1.392c0 .604.19 1.116.564 1.535.377.416.867.626 1.47.626.709 0 1.26-.27 1.652-.806.394-.538.592-1.247.592-2.128z" id="Fill-6"/><path d="M41.037 9.36c0 .984-.347 1.784-1.041 2.402-.763.674-1.827 1.012-3.192 1.012-1.261 0-2.272-.24-3.034-.72l.434-1.544c.823.48 1.727.72 2.712.72.708 0 1.258-.157 1.65-.47.395-.316.593-.736.593-1.26 0-.47-.164-.865-.488-1.186-.324-.319-.862-.618-1.615-.89-2.052-.755-3.079-1.86-3.079-3.312 0-.95.363-1.726 1.086-2.333.724-.607 1.684-.91 2.878-.91 1.066 0 1.954.183 2.66.55l-.471 1.51c-.664-.355-1.414-.533-2.252-.533-.662 0-1.182.161-1.553.48a1.368 1.368 0 0 0-.472 1.049c0 .456.18.835.54 1.131.312.275.881.573 1.703.892 1.01.402 1.75.87 2.226 1.406.478.537.715 1.207.715 2.006" id="Fill-7"/><path d="M47.26 5.655h-2.07v4.048c0 1.03.365 1.543 1.096 1.543.336 0 .614-.027.834-.086l.052 1.407c-.37.137-.857.205-1.46.205-.741 0-1.32-.224-1.739-.67-.417-.446-.626-1.194-.626-2.247V5.652h-1.232v-1.39h1.232V2.735l1.844-.549v2.076h2.069v1.393" id="Fill-8"/><path d="M56.578 8.365c0 1.282-.371 2.334-1.113 3.157-.776.846-1.808 1.27-3.095 1.27-1.241 0-2.228-.406-2.964-1.218-.736-.811-1.104-1.835-1.104-3.07 0-1.292.38-2.35 1.138-3.173.76-.822 1.782-1.235 3.069-1.235 1.24 0 2.235.407 2.99 1.218.72.788 1.079 1.804 1.079 3.051zm-1.946.043c0-.764-.168-1.419-.503-1.967-.394-.662-.958-.992-1.687-.992-.751 0-1.33.33-1.722.992-.337.548-.503 1.215-.503 2.002 0 .764.166 1.421.503 1.967.406.663.972.994 1.707.994.717 0 1.28-.34 1.687-1.01.344-.561.518-1.22.518-1.986z" id="Fill-9"/><path d="M62.682 5.894a3.311 3.311 0 0 0-.592-.05c-.66 0-1.17.244-1.53.738-.313.434-.468.983-.468 1.646v4.375h-1.878V6.89c0-.96-.018-1.837-.054-2.625h1.635l.069 1.595h.052c.199-.548.51-.99.938-1.32.42-.3.87-.448 1.357-.448.173 0 .33.013.47.034l.001 1.767" id="Fill-10"/><path d="M71.078 8.04c0 .331-.022.611-.069.84h-5.63c.02.823.293 1.454.815 1.889.475.387 1.09.582 1.842.582.834 0 1.595-.13 2.28-.395l.293 1.286c-.8.343-1.744.515-2.832.515-1.31 0-2.339-.38-3.087-1.14-.746-.76-1.121-1.782-1.121-3.061 0-1.257.347-2.304 1.044-3.139.73-.891 1.714-1.337 2.954-1.337 1.218 0 2.14.446 2.765 1.337.497.707.746 1.583.746 2.623zm-1.79-.48c.013-.55-.11-1.024-.365-1.425-.325-.516-.825-.773-1.495-.773-.615 0-1.114.25-1.494.755-.313.4-.499.883-.556 1.44l3.91.002z" id="Fill-11"/></g><g id="Available-on-the" transform="translate(27.444 .222)"><path d="M5.748 7.037H4.76l-.54-1.723H2.34l-.516 1.723H.862L2.725 1.17h1.15l1.873 5.866zM4.057 4.59l-.49-1.531a23.097 23.097 0 0 1-.292-1.105h-.017c-.06.252-.146.618-.275 1.105l-.48 1.531h1.554z" id="Fill-12"/><path d="M10.406 2.808l-1.58 4.229h-.901l-1.529-4.23h.996l.713 2.237c.12.374.223.73.3 1.07h.026c.069-.304.172-.661.3-1.07l.704-2.236h.971" id="Fill-13"/><path d="M13.77 7.037l-.07-.487h-.025c-.283.392-.695.583-1.22.583-.746 0-1.278-.531-1.278-1.245 0-1.044.892-1.584 2.438-1.584v-.078c0-.557-.292-.835-.867-.835-.412 0-.773.104-1.09.313l-.188-.617c.386-.244.866-.366 1.433-.366 1.09 0 1.64.583 1.64 1.75v1.557c0 .427.018.757.06 1.01l-.833-.001zm-.13-2.107c-1.03 0-1.545.253-1.545.853 0 .444.266.66.635.66.472 0 .91-.364.91-.86V4.93z" id="Fill-14"/><path d="M16.608 2.11a.549.549 0 0 1-.55-.565.55.55 0 0 1 .568-.557c.317 0 .575.235.566.557 0 .34-.24.566-.584.566zm-.446.698h.927v4.229h-.927v-4.23z" id="Fill-15"/><path id="Fill-16" d="M18.737.867h.927v6.17h-.927z"/><path d="M23.604 7.037l-.07-.487h-.025c-.283.392-.695.583-1.219.583-.747 0-1.28-.531-1.28-1.245 0-1.044.893-1.584 2.439-1.584v-.078c0-.557-.292-.835-.867-.835-.412 0-.773.104-1.09.313l-.19-.618c.387-.244.868-.366 1.435-.366 1.09 0 1.64.583 1.64 1.75v1.557c0 .427.018.758.059 1.01h-.832zm-.13-2.107c-1.03 0-1.545.253-1.545.853 0 .444.266.66.635.66.473 0 .91-.364.91-.86V4.93z" id="Fill-17"/><path d="M28.133 7.133c-.592 0-1.029-.253-1.313-.75h-.018l-.053.654h-.789c.025-.34.034-.723.034-1.14V.867h.929v2.56h.016c.276-.47.721-.705 1.33-.705 1.006 0 1.71.87 1.71 2.14 0 1.313-.782 2.27-1.846 2.27zm-.189-3.673c-.533 0-1.021.47-1.021 1.122v.74c0 .583.438 1.062 1.005 1.062.694 0 1.108-.574 1.108-1.488 0-.853-.43-1.436-1.092-1.436z" id="Fill-18"/><path id="Fill-19" d="M31.351.867h.926v6.17h-.926z"/><path d="M37.323 5.148H34.54c.019.8.54 1.253 1.313 1.253.413 0 .79-.07 1.125-.2l.144.653c-.394.174-.858.26-1.398.26-1.306 0-2.078-.835-2.078-2.13 0-1.298.79-2.272 1.974-2.272 1.063 0 1.735.8 1.735 2.01.002.165-.006.313-.032.426zm-.85-.67c0-.653-.327-1.113-.92-1.113-.532 0-.951.47-1.013 1.113h1.934z" id="Fill-20"/><path d="M42.942 7.133c-1.219 0-2.009-.923-2.009-2.176 0-1.306.807-2.236 2.079-2.236 1.2 0 2.009.878 2.009 2.167 0 1.322-.834 2.245-2.08 2.245zm.035-3.725c-.67 0-1.098.634-1.098 1.522 0 .87.438 1.506 1.09 1.506.651 0 1.09-.679 1.09-1.524 0-.86-.43-1.504-1.082-1.504z" id="Fill-21"/><path d="M50.005 7.037h-.926V4.608c0-.748-.284-1.122-.842-1.122-.55 0-.928.478-.928 1.035v2.516h-.925v-3.02c0-.375-.01-.775-.035-1.21h.815l.043.653h.027c.247-.452.755-.74 1.322-.74.874 0 1.449.679 1.449 1.783v2.534" id="Fill-22"/><path d="M56.07 3.512h-1.02v2.054c0 .523.18.784.54.784.163 0 .302-.018.412-.044l.026.714c-.18.07-.422.104-.72.104-.732 0-1.167-.408-1.167-1.48V3.513h-.608v-.704h.608v-.775l.91-.279v1.053h1.02v.705" id="Fill-23"/><path d="M60.98 7.037h-.928v-2.41c0-.758-.284-1.14-.841-1.14-.48 0-.927.33-.927 1v2.55h-.927V.867h.927v2.54h.018c.291-.46.713-.687 1.254-.687.883 0 1.424.696 1.424 1.801v2.516" id="Fill-24"/><path d="M65.717 5.148h-2.782c.018.8.54 1.253 1.313 1.253.414 0 .79-.07 1.123-.2l.145.653c-.394.174-.858.26-1.4.26-1.304 0-2.076-.835-2.076-2.13 0-1.298.79-2.272 1.973-2.272 1.064 0 1.735.8 1.735 2.01a1.84 1.84 0 0 1-.031.426zm-.85-.67c0-.653-.326-1.113-.918-1.113-.533 0-.953.47-1.014 1.113h1.932z" id="Fill-25"/></g></g></g></g></svg>