<svg width="109" height="29" viewBox="0 0 109 29" xmlns="http://www.w3.org/2000/svg" xmlns:xlink="http://www.w3.org/1999/xlink"><defs><linearGradient x1="58.92%" y1="9.59%" x2="90.81%" y2="60.85%" id="a"><stop stop-color="#FF177B" offset="0%"/><stop stop-color="#FFEC73" offset="100%"/></linearGradient><linearGradient x1="37.1%" y1="-44.04%" x2="0%" y2="101.06%" id="c"><stop stop-color="#064AA2" offset="0%"/><stop stop-color="#63FFD4" offset="100%"/></linearGradient><path d="M11.072 10.116L.398 0C.15.058 0 .244 0 .558v19.355c0 .266.107.424.239.478l10.833-10.275z" id="b"/><path d="M.44 11.178L6.61 7.79c1.52-.841 2.725-1.51 2.725-1.51l4.486-2.416L10.835.961.002 11.237c.12.04.333.018.5-.064" id="e"/><linearGradient x1="78.65%" y1="50%" x2="2.5%" y2="100%" id="f"><stop stop-color="#FF4521" offset="0%"/><stop stop-color="#8A33DB" offset="100%"/></linearGradient><linearGradient x1="0%" y1="-24.19%" x2="64.22%" y2="100%" id="i"><stop stop-color="#00A3B5" offset="0%"/><stop stop-color="#D6FFA1" offset="100%"/></linearGradient><path d="M1.568 1.091C1.362.981 1.158.95.993.994l10.682 10.13 2.956-2.796-4.455-2.467L3.442 2.13 1.568 1.09z" id="h"/></defs><g id="Symbols" fill="none" fill-rule="evenodd"><g id="Play-Store" transform="translate(-4 -6)"><g transform="translate(3 5)" id="Group"><g id="icon" transform="translate(.78 8.258)"><path d="M10.573 5.86S2.456 1.364 1.979 1.1c-.478-.265-.953-.105-.953.447v19.397c0 .413.34.593.755.363l8.792-4.871 1.707-.946 2.747-1.521 4.283-2.373c.502-.278.454-.66.03-.88-.424-.219-4.313-2.388-4.313-2.388l-4.454-2.467z" id="orange" fill="url(#a)"/><g id="blue" transform="translate(1 1)"><mask id="d" fill="white"><use xlink:href="#b"/></mask><use id="Clip-2" fill="url(#c)" xlink:href="#b"/><path d="M14.019 7.328l-4.46-2.47C9.542 4.896 1.428.39.955.16.475-.14 0 .02 0 .558V19.993c0 .427.34.607.717.398.451-.25 8.826-4.902 8.841-4.938l4.46-2.47c-.022.035 3.756-2.064 4.222-2.31.539-.311.49-.693.08-.876-.437-.257-4.324-2.43-4.301-2.469" id="Fill-1" mask="url(#d)"/></g><g id="red" transform="translate(1.238 10.156)"><mask id="g" fill="white"><use xlink:href="#e"/></mask><path d="M9.32-4.297c-.015.036-8.129-4.47-8.602-4.7-.48-.3-.956-.139-.956.399V10.837c0 .427.34.606.717.398.451-.251 8.826-4.902 8.842-4.938l4.46-2.47c-.023.035 3.755-2.064 4.222-2.31.538-.311.49-.693.08-.876-.438-.257-4.325-2.43-4.302-2.469l-4.46-2.47z" id="Fill-7" fill="url(#f)" mask="url(#g)"/></g><g id="green" transform="translate(.397)"><mask id="j" fill="white"><use xlink:href="#h"/></mask><use id="Clip-5" fill="url(#i)" xlink:href="#h"/><path d="M14.622 8.328l-4.46-2.47c-.016.037-8.13-4.469-8.603-4.699-.48-.3-.956-.139-.956.399V20.993c0 .427.34.607.717.398.451-.25 8.826-4.902 8.842-4.938l4.46-2.47c-.023.035 3.755-2.064 4.222-2.31.538-.311.49-.693.08-.876-.438-.257-4.325-2.43-4.302-2.469" id="Fill-4" mask="url(#j)"/></g></g><g id="Google-play" transform="translate(24.64 11.01)" fill="#FFF"><path d="M52.938 11.778l-.882.837c-.203.113-.406.244-.608.337-.613.28-1.236.35-1.79.35-.589 0-1.512-.038-2.455-.724-1.308-.927-1.88-2.521-1.88-3.91 0-2.877 2.327-4.287 4.225-4.287.664 0 1.345.167 1.9.52.921.612 1.16 1.409 1.291 1.835l-4.335 1.762-1.42.111c.46 2.358 2.046 3.73 3.798 3.73.876 0 1.526-.288 2.122-.584 0 0 .12-.063.034.023zm-2.649-4.73c.348-.13.53-.242.53-.502 0-.746-.824-1.608-1.808-1.608-.728 0-2.096.582-2.096 2.6 0 .314.037.65.056.985l3.318-1.476z"/><path d="M43.89 11.677c0 .72.128.831.732.888.315.037.629.053.94.09l-.68.408h-3.24c.425-.555.498-.61.498-.98v-.413L42.133.668h-1.43L42.08 0h2.628c-.57.332-.74.535-.813 1.182l-.004 10.495" id="Fill-2"/><path d="M38.865 5.289c.421.349 1.3 1.09 1.3 2.496 0 1.37-.766 2.016-1.538 2.627-.237.241-.515.502-.515.906 0 .41.278.631.477.797l.663.516c.806.686 1.54 1.315 1.54 2.592 0 1.74-1.67 3.495-4.827 3.495-2.659 0-3.945-1.277-3.945-2.646 0-.666.33-1.61 1.415-2.256 1.138-.701 2.679-.795 3.504-.85-.258-.335-.552-.687-.552-1.26 0-.314.094-.5.184-.721-.2.02-.403.039-.587.039-1.946 0-3.046-1.464-3.046-2.907 0-.85.385-1.795 1.176-2.479 1.046-.868 2.293-1.018 3.285-1.018h3.781l-1.175.669h-1.14zm-1.291 8.192c-.152-.02-.243-.02-.426-.02-.168 0-1.167.037-1.941.302-.41.152-1.594.603-1.594 1.94 0 1.336 1.278 2.299 3.255 2.299 1.776 0 2.72-.867 2.72-2.034 0-.961-.61-1.468-2.014-2.487zm.519-3.563c.422-.426.459-1.014.459-1.348 0-1.326-.784-3.393-2.302-3.393-.474 0-.988.24-1.279.612-.31.384-.402.882-.402 1.362 0 1.235.714 3.284 2.284 3.284.458 0 .95-.225 1.24-.517z" id="Fill-3"/><path d="M27.427 13.302c-2.923 0-4.487-2.306-4.487-4.394 0-2.44 1.966-4.527 4.763-4.527 2.704 0 4.397 2.144 4.397 4.396 0 2.199-1.674 4.525-4.673 4.525zm2.287-1.508c.446-.598.554-1.344.554-2.072 0-1.645-.774-4.784-3.063-4.784-.609 0-1.222.241-1.663.634-.721.654-.85 1.476-.85 2.282 0 1.846.902 4.89 3.138 4.89.722 0 1.459-.353 1.884-.95z"/><path d="M17.63 13.302c-2.925 0-4.487-2.306-4.487-4.394 0-2.44 1.967-4.527 4.764-4.527 2.703 0 4.396 2.144 4.396 4.396 0 2.199-1.672 4.525-4.673 4.525zm2.287-1.508c.443-.598.554-1.344.554-2.072 0-1.645-.777-4.784-3.065-4.784-.61 0-1.218.241-1.66.634-.723.654-.85 1.476-.85 2.282 0 1.846.905 4.89 3.138 4.89.721 0 1.457-.353 1.883-.95z" id="Fill-5"/><path d="M11.93 12.75l-2.476.572c-1.003.159-1.904.299-2.858.299C1.82 13.62 0 10.083 0 7.314 0 3.932 2.578.797 6.994.797c.935 0 1.833.138 2.652.363 1.298.366 1.905.819 2.284 1.084l-1.438 1.374-.607.137.433-.693c-.586-.576-1.663-1.639-3.706-1.639-2.731 0-4.792 2.09-4.792 5.141 0 3.277 2.353 6.36 6.127 6.36 1.108 0 1.68-.224 2.198-.434V9.681l-2.615.142 1.386-.75h3.67l-.45.435c-.12.104-.137.139-.171.278-.018.158-.035.663-.035.84v2.125" id="Fill-6"/><path d="M58.282 11.863v4.705h-.932V4.598h.932V5.96a3.703 3.703 0 0 1 3.006-1.58c2.311 0 3.868 1.758 3.868 4.54 0 2.764-1.557 4.558-3.868 4.558-1.217 0-2.307-.629-3.006-1.615zm5.918-2.87c0-2.12-1.094-3.736-3.035-3.736-1.206 0-2.358.956-2.86 1.79v3.872c.502.835 1.654 1.825 2.86 1.825 1.94 0 3.035-1.63 3.035-3.752z"/><path id="Fill-8" d="M66.43 1.274h.956v12.028h-.956z"/><path d="M77.778 15.74c.2.089.54.143.755.143.57 0 .967-.233 1.324-1.059l.68-1.544-3.672-8.74h1.04l3.15 7.574 3.119-7.574h1.054L80.75 15.114c-.465 1.09-1.196 1.613-2.2 1.613-.302 0-.7-.054-.932-.125l.16-.863" id="Fill-9"/><path d="M75.147 13.29c-.062-.302-.11-.568-.144-.79a5.316 5.316 0 0 1-.045-.68c-.321.473-.777.866-1.358 1.176-.582.312-1.136.465-1.894.465-.913 0-1.622-.225-2.128-.682-.504-.456-.758-1.074-.758-1.856 0-.781.367-1.415 1.1-1.9.733-.487 1.68-.73 2.851-.73h2.187V7.212c0-.624-.212-1.114-.636-1.47-.425-.356-1.021-.536-1.794-.536-.707 0-1.28.165-1.717.485-.433.327-.651.732-.651 1.22h-.96l-.02-.046c-.034-.659.267-1.236.905-1.735.636-.498 1.47-.748 2.495-.748 1.022 0 1.849.246 2.472.739.623.487.936 1.19.936 2.11v4.3a5.711 5.711 0 0 0 .24 1.76h-1.08zm-3.328-.625c.795 0 1.367-.18 1.952-.534.58-.352.975-.812 1.182-1.369V9.08h-2.195c-.838 0-1.532.187-2.078.565-.547.376-.825.831-.825 1.36 0 .5.176.9.525 1.202.35.306.829.458 1.439.458z" id="Fill-10"/></g><g id="Get-it-on" fill="#FFF"><path d="M.003 3.813c0-1.716 1.37-2.82 3.074-2.82 1.142 0 1.889.507 2.354 1.128l-.834.45a1.935 1.935 0 0 0-1.52-.727c-1.159 0-2.02.816-2.02 1.969 0 1.135.861 1.969 2.02 1.969.598 0 1.124-.254 1.388-.49V4.45H2.708v-.842h2.776v2.035c-.57.596-1.397.997-2.407.997C1.373 6.64.003 5.52.003 3.813M6.812 6.557v-5.48h4.07v.846H7.853v1.413h2.965v.846H7.854V5.71h3.027v.847H6.812M13.648 6.557V1.923h-1.77v-.847h4.566v.847h-1.77v4.634h-1.026M20.098 1.076h.996v5.48h-.996zM23.945 6.557V1.923h-1.771v-.847h4.567v.847h-1.77v4.634h-1.026M30.145 3.817c0-1.629 1.254-2.824 3.031-2.824 1.768 0 3.03 1.195 3.03 2.824 0 1.628-1.262 2.823-3.03 2.823-1.777 0-3.03-1.195-3.03-2.823zm4.982-.042c0-1.118-.767-1.951-1.95-1.951-1.193 0-1.952.833-1.952 1.95 0 1.11.76 1.952 1.951 1.952 1.184 0 1.951-.842 1.951-1.951zM41.444 6.557l-3.05-3.92v3.92H37.37v-5.48h1.052l2.988 3.796V1.076h1.026v5.48h-.99" transform="translate(24.32 .372)"/></g></g></g></g></svg>