<svg width="276" height="239" viewBox="0 0 276 239" xmlns="http://www.w3.org/2000/svg"><g id="Components-Design" fill="none" fill-rule="evenodd"><g id="Testimonials" transform="translate(-82 -2320)" fill="#FFF" fill-rule="nonzero"><g id="3" transform="translate(0 2320)"><g id="valentines-heart" transform="translate(82)"><g id="Group-14"><path d="M275.833 74.45c0-41.118-33.35-74.45-74.489-74.45-26.863 0-50.323 14.26-63.428 35.57C124.81 14.26 101.342 0 74.479 0 33.341 0 0 33.332 0 74.45c0 22.386 9.925 42.414 25.567 56.053l105.551 105.502a9.615 9.615 0 0 0 13.595 0l105.55-105.502c15.644-13.639 25.57-33.667 25.57-56.053z" id="Shape" opacity=".1"/><path d="M209.212 96.316c0-21.344-17.312-38.647-38.667-38.647-13.945 0-26.123 7.402-32.926 18.464-6.803-11.062-18.986-18.464-32.93-18.464-21.356 0-38.663 17.303-38.663 38.647 0 11.621 5.152 22.018 13.272 29.098l54.792 54.766a4.991 4.991 0 0 0 7.057 0l54.792-54.766c8.12-7.08 13.273-17.477 13.273-29.098z" opacity=".06"/></g></g></g></g></g></svg>