<svg width="1094" height="203" viewBox="0 0 1094 203" xmlns="http://www.w3.org/2000/svg"><title>white-waves</title><defs><linearGradient x1="50%" y1="-28.09%" x2="50%" y2="66.44%" id="a"><stop stop-color="#FFF" stop-opacity=".08" offset="0%"/><stop stop-color="#FFF" stop-opacity="0" offset="100%"/></linearGradient><linearGradient x1="50%" y1="-46.54%" x2="50%" y2="94.77%" id="b"><stop stop-color="#FFF" stop-opacity=".18" offset="0%"/><stop stop-color="#FFF" stop-opacity="0" offset="100%"/></linearGradient></defs><g id="styleguide" fill="none" fill-rule="evenodd"><g id="Unicorn-Styleguide" transform="translate(-26 -1669)" fill-rule="nonzero"><g id="Forms" transform="translate(7 1385)"><g id="blue-bg" transform="translate(0 258)"><g id="white-waves" transform="translate(19 16)"><path d="M0 31.243C170.815-26.294 237.662 2.386 492.447 62.61 662.304 102.759 862.82 83.782 1094 5.678L1093.634 213H0V31.243z" id="Shape" fill="url(#a)" transform="matrix(1 0 0 -1 0 213)"/><path d="M0 29.785c116.636-11.289 280.785-16.09 492.447 13.594C704.108 73.064 904.627 62.604 1094 0l-.366 198H0V29.785z" fill="url(#b)" transform="rotate(180 547 99)"/></g></g></g></g></g></svg>