<svg width="32" height="38" viewBox="0 0 32 38" xmlns="http://www.w3.org/2000/svg"><title>Android_robot</title><g id="Components-Design" fill="none" fill-rule="evenodd"><g id="CTA-buttons" transform="translate(-565 -1556)" fill-rule="nonzero"><g id="4" transform="translate(309 1317)"><g id="Group-4" transform="translate(54 231)"><g id="Android_robot" transform="translate(203 9)"><g id="Group"><g id="b-link" transform="translate(5.455 2.772)" stroke-width="1.51" stroke="#FFF" fill="#A4C639"><g id="b"><ellipse id="Oval" cx="9.55" cy="8.95" rx="9.55" ry="8.95"/><rect id="Rectangle-path" y="6.72" width="19.09" height="19.4" rx="2.31"/></g></g><g id="a-link" transform="matrix(-1 0 0 1 30 0)" stroke="#FFF" stroke-width=".76" fill="#4D61FC"><g id="a"><rect transform="rotate(29 19.067 4.406)" x="18.39" y="-.18" width="1.36" height="9.17" rx=".68"/><rect id="c" y="11.73" width="5.03" height="14.18" rx="2.52"/><rect width="5.03" height="14.18" rx="2.52" id="c-link" transform="translate(8.916 22.067)"/></g></g><g stroke="#FFF" stroke-width=".76" fill="#4D61FC"><rect transform="rotate(29 19.067 4.406)" x="18.39" y="-.18" width="1.36" height="9.17" rx=".68"/><rect y="11.73" width="5.03" height="14.18" rx="2.52"/><rect width="5.03" height="14.18" rx="2.52" transform="translate(8.916 22.067)"/></g><g transform="translate(5.455 2.772)" fill="#4D61FC"><ellipse cx="9.55" cy="8.95" rx="9.55" ry="8.95"/><rect y="6.72" width="19.09" height="19.4" rx="2.31"/></g></g><g transform="translate(5.035 5.93)" fill="#FFF"><path id="Shape" d="M0 6.554h19.93v-.768H0z"/><path d="M5.56 2.237a.804.804 0 0 1-.798-.81c0-.448.357-.81.797-.81.44 0 .798.362.798.81 0 .447-.357.81-.798.81zm0-.768c.023 0 .041-.019.041-.043a.042.042 0 0 0-.042-.042.042.042 0 0 0-.042.042c0 .024.02.043.042.043zM14.37 2.237a.804.804 0 0 1-.797-.81c0-.448.357-.81.798-.81.44 0 .797.362.797.81 0 .447-.357.81-.797.81zm0-.768c.024 0 .043-.019.043-.043a.042.042 0 0 0-.042-.042.042.042 0 0 0-.042.042c0 .024.018.043.042.043z"/></g></g></g></g></g></g></svg>