<svg width="27" height="32" viewBox="0 0 27 32" xmlns="http://www.w3.org/2000/svg"><title>ios-10</title><g id="Components-Design" fill="none" fill-rule="evenodd"><g id="CTA-buttons" transform="translate(-644 -1558)" fill="#4D61FC"><g id="4" transform="translate(309 1317)"><g id="Group-4" transform="translate(54 231)"><g id="ios-10" transform="translate(281 10)"><g id="icon"><path d="M25.569 10.703c-1.921-2.709-4.898-3.08-5.944-3.109-2.5-.254-4.926 1.448-6.2 1.448-1.298 0-3.26-1.423-5.374-1.381-2.72.04-5.264 1.564-6.66 3.93-2.88 4.825-.732 11.915 2.027 15.815 1.38 1.91 2.994 4.042 5.105 3.967 2.066-.081 2.837-1.274 5.33-1.274 2.47 0 3.194 1.274 5.347 1.225 2.217-.032 3.613-1.917 4.945-3.846 1.595-2.186 2.236-4.345 2.261-4.455-.05-.016-4.304-1.587-4.347-6.338-.037-3.963 3.354-5.892 3.51-5.982z" id="Fill-2"/><path d="M17.992 5.029c1.11-1.344 1.87-3.173 1.66-5.029-1.608.07-3.62 1.076-4.777 2.391-1.025 1.159-1.94 3.057-1.704 4.843 1.807.13 3.661-.882 4.82-2.205" id="Fill-3"/></g></g></g></g></g></g></svg>