<svg width="30" height="30" viewBox="0 0 30 30" xmlns="http://www.w3.org/2000/svg"><title>chrome</title><g id="Components-Design" fill="none" fill-rule="evenodd"><g id="CTA-buttons" transform="translate(-393 -1562)" fill-rule="nonzero" fill="#4D61FC"><g id="4" transform="translate(309 1317)"><g id="Group-4" transform="translate(54 231)"><g id="chrome" transform="translate(30 14)"><path d="M9.394 15.001A5.612 5.612 0 0 0 15 20.607 5.612 5.612 0 0 0 20.606 15 5.612 5.612 0 0 0 15 9.395a5.612 5.612 0 0 0-5.606 5.606z" id="Shape"/><path d="M27.908 7.601a.246.246 0 0 0-.002-.247 15.093 15.093 0 0 0-5.374-5.327A14.989 14.989 0 0 0 15 .001c-4.586 0-8.86 2.058-11.726 5.647a.246.246 0 0 0-.02.276l4.222 7.314a.246.246 0 0 0 .45-.062 7.304 7.304 0 0 1 7.73-5.45h12.038c.089 0 .17-.048.214-.125z"/><path d="M17.217 22.125a.245.245 0 0 0-.26-.086 7.292 7.292 0 0 1-1.957.266 7.342 7.342 0 0 1-6.624-4.228L2.352 7.644a.246.246 0 0 0-.213-.122h-.001a.246.246 0 0 0-.213.125 15.008 15.008 0 0 0 1.747 17.187 14.997 14.997 0 0 0 9.09 5c.1.015.2-.032.25-.12l4.223-7.315a.246.246 0 0 0-.018-.274z"/><path d="M28.739 9.366h-8.457a.246.246 0 0 0-.172.422 7.248 7.248 0 0 1 2.194 5.213 7.252 7.252 0 0 1-1.316 4.178L14.954 29.63a.246.246 0 0 0 .213.369h.003a14.909 14.909 0 0 0 10.492-4.448A14.907 14.907 0 0 0 30 15c0-1.89-.347-3.733-1.033-5.478a.246.246 0 0 0-.228-.157v.001z"/></g></g></g></g></g></svg>