<svg width="264" height="88" viewBox="0 0 264 88" xmlns="http://www.w3.org/2000/svg"><title>default-skin 2</title><g fill="none" fill-rule="evenodd"><path d="M67.002 59.5v3.768c-6.307.84-9.184 5.75-10.002 9.732 2.22-2.83 5.564-5.098 10.002-5.098V71.5L73 65.585 67.002 59.5z" id="Shape" fill="#fff"/><path d="M13 29v-5h2v3h3v2h-5zm0-14h5v2h-3v3h-2v-5zm18 0v5h-2v-3h-3v-2h5zm0 14h-5v-2h3v-3h2v5zM62 24v5h-2v-3h-3v-2h5zm0-4h-5v-2h3v-3h2v5zm8 0v-5h2v3h3v2h-5zm0 4h5v2h-3v3h-2v-5zM20.586 66l-5.656-5.656 1.414-1.414L22 64.586l5.656-5.656 1.414 1.414L23.414 66l5.656 5.656-1.414 1.414L22 67.414l-5.656 5.656-1.414-1.414L20.586 66zM111.785 65.03L110 63.5l3-3.5h-10v-2h10l-3-3.5 1.785-1.468L117 59l-5.215 6.03zM152.215 65.03L154 63.5l-3-3.5h10v-2h-10l3-3.5-1.785-1.468L147 59l5.215 6.03z" fill="#fff"/><path id="Rectangle-11" fill="#fff" d="M160.957 28.543l-3.25-3.25-1.413 1.414 3.25 3.25z"/><path d="M152.5 27a5.5 5.5 0 1 0 0-11 5.5 5.5 0 1 0 0 11z" id="Oval-1" stroke="#fff" stroke-width="1.5"/><path fill="#fff" d="M150 21h5v1h-5z"/><g><path d="M116.957 28.543l-1.414 1.414-3.25-3.25 1.414-1.414 3.25 3.25z" fill="#fff"/><path d="M108.5 27a5.5 5.5 0 1 0 0-11 5.5 5.5 0 1 0 0 11z" stroke="#fff" stroke-width="1.5"/><path fill="#fff" d="M106 21h5v1h-5z"/><path fill="#fff" d="M109.043 19.008l-.085 5-1-.017.085-5z"/></g></g></svg>