<svg width="16" height="23" viewBox="0 0 16 23" xmlns="http://www.w3.org/2000/svg"><title>Shape</title><path d="M11.98 5.574L10.532 9.59l1.488.257c1.4-3.682 2.099-5.797 2.099-6.344 0-.457-.161-.686-.484-.686-.483 0-1.034.918-1.653 2.756zm-3.802 8.414l.42 1.078a5.7 5.7 0 0 1 .903-.82l-.42-.068-.49-.086-.413-.104zM4.464 3.014c0 .8.674 2.927 2.022 6.381.153-.082.36-.122.624-.122a17 17 0 0 1 .954.06l-1.54-4.298C5.89 3.238 5.368 2.34 4.96 2.34a.405.405 0 0 0-.369.215.885.885 0 0 0-.127.459zM3.46 12.31c0 .294.219.78.655 1.458a11.83 11.83 0 0 0 1.495 1.874c.56.571.983.857 1.272.857a.434.434 0 0 0 .324-.16.487.487 0 0 0 .146-.33c0-.196-.135-.612-.407-1.25a14.814 14.814 0 0 0-1.011-1.972 4.6 4.6 0 0 0-.782-.991c-.28-.262-.543-.392-.789-.392-.17 0-.362.11-.578.33-.216.221-.325.413-.325.576zm-2.01 4.103c0 .335.107.76.319 1.274.5 1.184 1.278 2.11 2.334 2.78 1.055.67 2.249 1.005 3.58 1.005 1.925 0 3.544-.694 4.859-2.082 1.288-1.38 1.933-3.124 1.933-5.23 0-.351-.004-.625-.013-.821a3.426 3.426 0 0 0-.146-.76c-.09-.31-.219-.538-.388-.685-.475-.4-1.372-.709-2.69-.925-1.319-.216-2.465-.325-3.44-.325-.314 0-.522.045-.624.135-.101.041-.152.184-.152.429 0 .277.09.522.273.735.182.212.418.375.706.49a6.855 6.855 0 0 0 2.099.429l1.08.048c.348.017.645.017.891 0h.292a.65.65 0 0 1 .51.233c.126.155.207.38.24.674-.237.228-.644.449-1.22.661-.517.18-.912.368-1.183.563a5.313 5.313 0 0 0-1.38 1.397c-.377.555-.566 1.114-.566 1.678 0 .253.079.614.235 1.084.157.47.236.826.236 1.071l-.038.147a.994.994 0 0 0-.051.172c-1.162-.082-1.78-.964-1.857-2.646-.068.017-.242.025-.522.025a.969.969 0 0 1 .026.257c0 .433-.172.798-.515 1.096a1.777 1.777 0 0 1-1.202.447c-.696 0-1.401-.318-2.118-.955-.716-.637-1.075-1.286-1.075-1.948 0-.277.14-.55.42-.82.441.522.695.833.763.93.653.85 1.217 1.274 1.692 1.274a.697.697 0 0 0 .337-.104c.123-.069.184-.153.184-.25 0-.278-.37-.87-1.113-1.777-.742-.906-1.235-1.36-1.481-1.36-.365 0-.662.182-.89.546a2.05 2.05 0 0 0-.344 1.108zm-1.45.11c0-.824.18-1.49.54-1.996.36-.506.94-.865 1.737-1.078-.238-.604-.356-1.029-.356-1.274 0-.506.258-1.008.775-1.506.518-.498 1.035-.747 1.552-.747.246 0 .543.061.89.184C3.756 6.333 3.065 4.018 3.065 3.16c0-.653.174-1.186.522-1.599.347-.412.852-.618 1.513-.618 1.11 0 2.489 2.372 4.134 7.116l.101.282c.051-.13.174-.455.37-.974.194-.518.379-1.002.553-1.451.173-.45.402-.97.686-1.562a14.51 14.51 0 0 1 .82-1.506c.264-.413.562-.766.897-1.06.335-.294.66-.44.973-.44.602 0 1.077.2 1.425.6.347.4.521.897.521 1.494 0 .881-.674 3.127-2.022 6.736.517.122.943.31 1.278.563.335.254.583.572.744.956.161.384.272.765.331 1.145.06.38.089.83.089 1.353 0 1.225-.2 2.368-.598 3.43a8.266 8.266 0 0 1-1.679 2.756c-.72.775-1.615 1.388-2.683 1.837-1.069.449-2.247.674-3.536.674a8.305 8.305 0 0 1-2.836-.515c-1.264-.465-2.357-1.247-3.282-2.345C.462 18.934 0 17.765 0 16.523z" fill="#fff"/></svg>