<svg id="Layer_1" xmlns="http://www.w3.org/2000/svg" width="32" height="32" viewBox="0 0 32 32"><path fill="#fff" d="M12.9 14.9s3-.2 3-3.8c0-3.6-2.5-5.3-5.6-5.3H0v19.8h10.4s6.3.2 6.3-5.9c-.1.2.2-4.8-3.8-4.8zM4.6 9.4h5.7s1.4 0 1.4 2.1-.8 2.4-1.8 2.4H4.6V9.4zm5.5 12.8H4.6v-5.3h5.8s2.1 0 2.1 2.7c-.1 2.3-1.6 2.6-2.4 2.6zM25 10.9c-7.6 0-7.6 7.6-7.6 7.6s-.5 7.6 7.6 7.6c0 0 6.8.4 6.8-5.3h-3.5s.1 2.1-3.2 2.1c0 0-3.5.2-3.5-3.5h10.3c0 .1 1.2-8.5-6.9-8.5zm3.1 6h-6.5s.4-3.1 3.5-3.1 3 3.1 3 3.1zM20.8 7H29v2h-8.2z"/></svg>