<svg xmlns="http://www.w3.org/2000/svg" xmlns:xlink="http://www.w3.org/1999/xlink" width="13" height="19" viewBox="0 0 13 19"><defs><path id="a" d="M540.02 879.43c0 .71-.21 1.38-.65 1.98a4.02 4.02 0 0 1-1.83 1.39c-.3.11-.63.2-1.02.28v2.42h-2.29v-2.23h-1.47v2.23h-2.29v-2.23h-3.5v-1.87h.54c.35 0 .6-.03.72-.09a.57.57 0 0 0 .27-.27c.05-.1.08-.36.08-.75v-7.56c0-.4-.03-.66-.08-.77a.57.57 0 0 0-.27-.26c-.12-.07-.37-.1-.72-.1h-.53v-1.87h3.5v-2.23h2.28v2.23h1.48v-2.23h2.28v2.39c.34.06.65.14.91.25.68.27 1.2.67 1.56 1.18a2.89 2.89 0 0 1 .25 2.97c-.2.4-.47.76-.83 1.07-.36.3-.83.56-1.42.76.63.16 1.12.34 1.45.53a3.17 3.17 0 0 1 1.58 2.77zm-8.1-7.52v3.3h1.49c.77 0 1.35-.06 1.72-.2.37-.12.65-.32.84-.58.18-.26.28-.56.28-.9 0-.36-.09-.67-.27-.92a1.43 1.43 0 0 0-.77-.54c-.33-.1-.94-.16-1.8-.16zm4.6 7.16a1.68 1.68 0 0 0-1.12-1.65 5.08 5.08 0 0 0-1.73-.22h-1.75v2.94c0 .41.03.66.05.73.03.09.09.15.16.19.08.03.28.05.6.05h1c.57 0 1.04-.05 1.42-.16.38-.1.7-.33.96-.66.27-.34.4-.75.4-1.22z"/></defs><use fill="#fff" xlink:href="#a" transform="translate(-527 -867)"/></svg>