<svg id="Layer_1" xmlns="http://www.w3.org/2000/svg" width="32" height="32" viewBox="0 0 32 32"><path fill-rule="evenodd" clip-rule="evenodd" fill="#fff" d="M31.1 12.4c-.7-.3-3.6 0-4.4-.7-.6-.5-.6-1.5-.8-2.7-.4-2.1-.5-2.6-.9-3.4-1.4-3-4.8-5.5-7.8-5.5h-7.1C4.6 0 .1 4.6.1 10.1v11.8C.1 27.5 4.6 32 10.2 32h11.6c5.6 0 10.1-4.5 10.1-10.1l.1-8.2c-.1 0-.1-1-.9-1.3zM10.3 8.3h5.6c1.1 0 1.9.9 1.9 1.9 0 1.1-.9 1.9-1.9 1.9h-5.6c-1.1 0-1.9-.9-1.9-1.9 0-1.1.8-1.9 1.9-1.9zm11.4 15.4H10.3c-1.1 0-1.9-.9-1.9-1.9 0-1.1.9-1.9 1.9-1.9h11.4c1.1 0 1.9.9 1.9 1.9 0 1-.9 1.9-1.9 1.9z"/></svg>