<svg id="Layer_1" xmlns="http://www.w3.org/2000/svg" width="32" height="32" viewBox="0 0 32 32"><path fill="#fff" d="M14.7 2.5c.3.2.5.4.9.7.3.3.6.7.9 1.1.3.4.5.9.7 1.5.2.6.3 1.2.3 2 0 1.4-.3 2.5-1 3.4-.3.4-.6.8-1 1.1-.4.3-.8.7-1.2 1-.2.2-.5.5-.7.8-.2.3-.4.7-.4 1.1 0 .4.1.7.4 1 .2.3.4.5.6.7l1.4 1.1c.9.7 1.6 1.4 2.2 2.2.6.8.9 1.9.9 3.2 0 1.9-.9 3.6-2.6 5-1.8 1.5-4.4 2.3-7.8 2.3-2.8 0-4.9-.6-6.3-1.7-1.3-1-2-2.2-2-3.7 0-.7.2-1.5.7-2.4.4-.9 1.3-1.7 2.4-2.3 1.3-.7 2.7-1.2 4.1-1.4 1.4-.2 2.6-.3 3.6-.3-.3-.4-.6-.8-.8-1.2-.3-.4-.4-.9-.4-1.5 0-.3.1-.6.2-.9.1-.2.2-.5.2-.7-.5.1-.9.1-1.3.1-2.2 0-3.8-.7-4.9-2C2.6 11.5 2 10.1 2 8.5c0-1.9.8-3.7 2.5-5.2 1.1-.9 2.3-1.5 3.6-1.8 1.2-.2 2.4-.4 3.5-.4h8.1l-2.5 1.4h-2.5zM16.2 25c0-1-.3-1.9-1-2.6-.7-.7-1.8-1.6-3.3-2.6H11c-.2 0-.7 0-1.6.1-.8.1-1.7.3-2.6.6-.2.1-.5.2-.9.3-.4.2-.8.4-1.1.7-.4.3-.7.7-.9 1.2-.3.5-.4 1.1-.4 1.8 0 1.4.6 2.5 1.9 3.4 1.2.9 2.9 1.3 5 1.4 1.9 0 3.4-.4 4.4-1.2.9-.9 1.4-1.9 1.4-3.1zm-5.6-11.4c1.1 0 2-.4 2.7-1.1.3-.5.6-1 .7-1.5V9.6c0-1.5-.4-3.1-1.2-4.7-.4-.8-.9-1.4-1.5-1.8-.6-.4-1.4-.7-2.2-.7-1.1 0-2 .5-2.7 1.3-.7.9-1 1.8-1 2.9 0 1.4.5 2.9 1.3 4.4.4.7.9 1.3 1.6 1.8.7.5 1.4.8 2.3.8zM32 15h-4v-4h-2v4h-4v2h4v4h2v-4h4v-2z"/></svg>