<svg width="512" height="512" viewBox="0 0 512 512" xmlns="http://www.w3.org/2000/svg" xmlns:xlink="http://www.w3.org/1999/xlink"><title>instagram</title><defs><path d="M120 0h272c66.274 0 120 53.726 120 120v272c0 66.274-53.726 120-120 120H120C53.726 512 0 458.274 0 392V120C0 53.726 53.726 0 120 0zm274 148c16.569 0 30-13.431 30-30 0-16.569-13.431-30-30-30-16.569 0-30 13.431-30 30 0 16.569 13.431 30 30 30zM256 361c57.99 0 105-47.01 105-105s-47.01-105-105-105-105 47.01-105 105 47.01 105 105 105z" id="a"/></defs><g id="Page-1" fill="none" fill-rule="evenodd"><g id="instagram"><mask id="mask-2" fill="white"><use xlink:href="#a"/></mask><use id="Combined-Shape" fill="#FFF" xlink:href="#a"/></g></g></svg>