<svg id="Layer_1" xmlns="http://www.w3.org/2000/svg" width="32" height="32" viewBox="0 0 32 32"><ellipse fill="#fff" cx="26.4" cy="11.3" rx="5.1" ry="5.1"/><ellipse fill="#fff" cx="14.9" cy="12.7" rx="4.6" ry="4.6"/><ellipse fill="#fff" cx="4.5" cy="14.1" rx="4.1" ry="4.1"/><path fill="#fff" d="M4.5 19.1c-2.6 0-4.5 2.3-4.5 4.7v1.6c0 .2.2.4.4.4h8.1c.2 0 .4-.2.4-.4v-1.6c.2-2.4-1.8-4.7-4.4-4.7zM14.9 18.4c-2.9 0-5 2.6-5 5.2v1.8c0 .3.2.5.5.5h9.2c.3 0 .5-.2.5-.5v-1.8c-.1-2.7-2.3-5.2-5.2-5.2zM26.4 17.5c-3.2 0-5.6 2.8-5.6 5.8v2c0 .3.2.5.5.5h10.2c.3 0 .5-.2.5-.5v-2c0-2.9-2.4-5.8-5.6-5.8z"/></svg>