<svg id="Layer_1" xmlns="http://www.w3.org/2000/svg" width="32" height="32" viewBox="0 0 32 32"><path fill="#fff" d="M26.9 8.1zM26.9 8.1c0-.1 0 0 0 0zM25.5 2.4C24 .7 21.4 0 17.9 0H8c-.7 0-1.3.5-1.4 1.2L2.5 27.5c-.1.5.3 1 .8 1h6.1l1.5-9.8v.3c.1-.7.7-1.2 1.4-1.2h2.9c5.7 0 10.2-2.3 11.5-9.1 0-.2.1-.6.1-.6.5-2.5.1-4.2-1.3-5.7z"/><path fill="#fff" d="M28.4 9.4c-1.4 6.6-6 10.1-13.2 10.1h-2.6l-2 12.5h4.2c.6 0 1.1-.4 1.2-1.1l.1-.3 1-6.2.1-.3c.1-.6.6-1.1 1.2-1.1h.8c5 0 8.9-2 10.1-7.9.5-2.3.3-4.3-.9-5.7z"/></svg>