<svg id="Layer_1" xmlns="http://www.w3.org/2000/svg" width="32" height="32" viewBox="0 0 32 32"><path fill="#fff" d="M16 0C7.2 0 0 7.2 0 16c0 6.8 4.2 12.6 10.2 14.9-.1-1.3-.3-3.2.1-4.6.3-1.2 1.9-8 1.9-8s-.5-1-.5-2.4c0-2.2 1.3-3.9 2.9-3.9 1.4 0 2 1 2 2.3 0 1.4-.9 3.4-1.3 5.3-.4 1.6.8 2.9 2.4 2.9 2.8 0 5-3 5-7.3 0-3.8-2.8-6.5-6.7-6.5-4.6 0-7.2 3.4-7.2 6.9 0 1.4.5 2.8 1.2 3.7.1.2.1.3.1.5-.1.5-.4 1.6-.4 1.8-.2.3-.4.4-.7.2-2-.9-3.2-3.9-3.2-6.2 0-5 3.7-9.7 10.6-9.7 5.6 0 9.9 4 9.9 9.2 0 5.5-3.5 10-8.3 10-1.6 0-3.1-.8-3.7-1.8 0 0-.8 3.1-1 3.8-.4 1.4-1.3 3.1-2 4.2 1.5.5 3.1.7 4.7.7 8.8 0 16-7.2 16-16S24.8 0 16 0z"/></svg>