<svg id="Layer_1" xmlns="http://www.w3.org/2000/svg" width="32" height="32" viewBox="0 0 32 32"><path fill="#fff" d="M26.6 6.2c0-.2-.2-.3-.3-.3-.1 0-2.6-.2-2.6-.2S22 4.1 21.8 3.9c-.2-.2-.6-.1-.7-.1 0 0-.4.1-1 .3-.5-1.6-1.5-3.1-3.3-3.1h-.1c-.5-.7-1.1-1-1.7-1-4.1 0-6.1 5.2-6.7 7.8-1.6.5-2.8.8-2.9.9-.9.3-.9.3-1 1.1-.1.6-2.4 18.8-2.4 18.8L20.2 32l9.9-2.1S26.6 6.4 26.6 6.2zM16.5 5v.2c-1 .3-2.1.6-3.2 1 .6-2.4 1.8-3.5 2.8-3.9.3.6.4 1.5.4 2.7zm-1.6-3.9c.2 0 .4.1.5.2-1.3.6-2.7 2.2-3.3 5.3-.9.3-1.7.5-2.5.8.7-2.4 2.3-6.3 5.3-6.3zm.7 14s-1.1-.6-2.4-.6c-1.9 0-2 1.2-2 1.5 0 1.7 4.3 2.3 4.3 6.2 0 3.1-1.9 5-4.5 5-3.1 0-4.7-1.9-4.7-1.9l.8-2.8s1.6 1.4 3 1.4c.9 0 1.3-.7 1.3-1.2 0-2.2-3.5-2.3-3.5-5.8 0-3 2.1-5.9 6.5-5.9 1.7 0 2.5.5 2.5.5l-1.3 3.6zm2-10.2v-.3c0-1-.1-1.8-.4-2.5.9.1 1.5 1.2 1.9 2.3-.4.2-.9.3-1.5.5z"/></svg>