<svg xmlns="http://www.w3.org/2000/svg" xmlns:xlink="http://www.w3.org/1999/xlink" width="17" height="18" viewBox="0 0 17 18"><defs><path id="d02ia" d="M572.07 869.03c.18-.13.3-.08.28.07-.03.28-.1.53-.13.8a5.45 5.45 0 0 0 .28 2.47 170.33 170.33 0 0 1 2.07 4.36c.22.53.45 1.04.65 1.56.2.56.3 1.09.12 1.67-.35 1.16-1.3 2.01-2.19 2.77-.15.12-.57.58-.47.12.12-.68.35-1.33.45-2.01.12-.96-.4-1.97-.78-2.82-.48-1.09-1.03-2.12-1.54-3.18-.5-1.03-1.03-2.21-.65-3.37a5.84 5.84 0 0 1 1.91-2.44zm11.54 0c.17-.13.3-.08.27.07-.02.28-.1.53-.12.8a5.45 5.45 0 0 0 .27 2.48 170.62 170.62 0 0 1 2.07 4.36c.23.52.45 1.03.65 1.56.2.55.3 1.08.13 1.66-.35 1.16-1.3 2.01-2.2 2.77-.14.12-.57.58-.47.12.13-.68.35-1.33.45-2.01.13-.96-.4-1.97-.78-2.82-.47-1.09-1.03-2.12-1.53-3.18-.5-1.03-1.04-2.21-.66-3.37a5.86 5.86 0 0 1 1.92-2.44zm-5.95-1.92c.23-.17.38-.15.3.13 0 .3-.1.58-.12.88-.05.45-.08.93-.05 1.38.02.6.12 1.21.35 1.8.15.42.4.82.6 1.25a97.23 97.23 0 0 1 2.62 5.64c.26.58.56 1.18.6 1.81.1 1.54-1.07 2.85-2.1 3.83-.38.38-.81.76-1.24 1.09-.1.07-.2.15-.23-.03-.02-.23.13-.53.18-.75.22-.79.5-1.67.45-2.5a6.53 6.53 0 0 0-.58-1.96c-.7-1.71-1.66-3.3-2.4-4.99a21.7 21.7 0 0 1-.97-2.7c-.2-.75-.15-1.5.22-2.23a9.15 9.15 0 0 1 2.37-2.65z"/></defs><use fill="#d7dee4" xlink:href="#fff" transform="translate(-570 -867)"/></svg>