<svg id="Layer_1" xmlns="http://www.w3.org/2000/svg" width="32" height="32" viewBox="0 0 32 32"><path fill="#fff" d="M32 8.6c-.1 3.1-2.3 7.4-6.5 12.8-4.4 5.7-8 8.5-11 8.5-1.9 0-3.4-1.7-4.7-5.2-.9-3.2-1.7-6.3-2.6-9.5-1-3.4-2-5.2-3.1-5.2-.2 0-1.1.5-2.5 1.5L0 9.6c1.6-1.4 3.1-2.8 4.7-4.2 2.1-1.8 3.7-2.8 4.7-2.9 2.5-.2 4 1.5 4.6 5.1.6 3.9 1.1 6.4 1.3 7.3.7 3.3 1.5 4.9 2.4 4.9.7 0 1.7-1.1 3-3.2s2.1-3.7 2.2-4.8c.2-1.8-.5-2.7-2.2-2.7-.8 0-1.6.2-2.4.5 1.6-5.2 4.6-7.7 9-7.5 3.3.2 4.9 2.3 4.7 6.5z"/></svg>