<svg id="Layer_1" xmlns="http://www.w3.org/2000/svg" width="32" height="32" viewBox="0 0 32 32"><path fill="#fff" d="M0 16c0 6.3 3.7 11.8 9 14.4L1.4 9.5C.5 11.5 0 13.7 0 16zM26.8 15.2c0-2-.7-3.3-1.3-4.4-.8-1.3-1.6-2.4-1.6-3.8 0-1.5 1.1-2.8 2.7-2.8h.2C24 1.6 20.2 0 16 0 10.4 0 5.5 2.9 2.6 7.2h1c1.7 0 4.3-.2 4.3-.2.9 0 1 1.2.1 1.3l-1.8.2L12 25.8l3.5-10.5L13 8.5c-.9-.1-1.7-.2-1.7-.2-.8 0-.7-1.3.2-1.3 0 0 2.6.2 4.2.2C17.4 7.2 20 7 20 7c.9-.1 1 1.2.1 1.3l-1.8.2L24 25.7l1.6-5.3c.7-2.2 1.2-3.8 1.2-5.2z"/><path fill="#fff" d="M16.3 17.4l-4.8 13.9c1.4.4 2.9.7 4.5.7 1.9 0 3.7-.3 5.3-.9 0-.1-.1-.1-.1-.2l-4.9-13.5zM30 8.3c.1.5.1 1.1.1 1.6 0 1.6-.3 3.4-1.2 5.7L24 29.8c4.8-2.8 8-7.9 8-13.8 0-2.8-.7-5.4-2-7.7z"/></svg>