<?xml version="1.0" encoding="UTF-8"?>
<!--Generator: Apple Native CoreSVG 149-->
<!DOCTYPE svg
PUBLIC "-//W3C//DTD SVG 1.1//EN"
       "http://www.w3.org/Graphics/SVG/1.1/DTD/svg11.dtd">
<svg version="1.1" xmlns="http://www.w3.org/2000/svg" xmlns:xlink="http://www.w3.org/1999/xlink" width="3300" height="2200">
 <!--glyph: "uni1004B4.medium", point size: 100.000000, font version: "Version 16.0d18e1", template writer version: "8"-->
 <g id="Notes">
  <rect height="2200" id="artboard" style="fill:white;opacity:1" width="3300" x="0" y="0"/>
  <line id="" style="fill:none;stroke:black;opacity:1;stroke-width:0.5;" x1="263" x2="3036" y1="292" y2="292"/>
  <text style="stroke:none;fill:black;font-family:-apple-system,&quot;SF Pro Display&quot;,&quot;SF Pro Text&quot;,Helvetica,sans-serif;font-weight:bold;" transform="matrix(1 0 0 1 263 322)">Weight/Scale Variations</text>
  <text style="stroke:none;fill:black;font-family:-apple-system,&quot;SF Pro Display&quot;,&quot;SF Pro Text&quot;,Helvetica,sans-serif;text-anchor:middle;" transform="matrix(1 0 0 1 559.711 322)">Ultralight</text>
  <text style="stroke:none;fill:black;font-family:-apple-system,&quot;SF Pro Display&quot;,&quot;SF Pro Text&quot;,Helvetica,sans-serif;text-anchor:middle;" transform="matrix(1 0 0 1 856.422 322)">Thin</text>
  <text style="stroke:none;fill:black;font-family:-apple-system,&quot;SF Pro Display&quot;,&quot;SF Pro Text&quot;,Helvetica,sans-serif;text-anchor:middle;" transform="matrix(1 0 0 1 1153.13 322)">Light</text>
  <text style="stroke:none;fill:black;font-family:-apple-system,&quot;SF Pro Display&quot;,&quot;SF Pro Text&quot;,Helvetica,sans-serif;text-anchor:middle;" transform="matrix(1 0 0 1 1449.84 322)">Regular</text>
  <text style="stroke:none;fill:black;font-family:-apple-system,&quot;SF Pro Display&quot;,&quot;SF Pro Text&quot;,Helvetica,sans-serif;text-anchor:middle;" transform="matrix(1 0 0 1 1746.56 322)">Medium</text>
  <text style="stroke:none;fill:black;font-family:-apple-system,&quot;SF Pro Display&quot;,&quot;SF Pro Text&quot;,Helvetica,sans-serif;text-anchor:middle;" transform="matrix(1 0 0 1 2043.27 322)">Semibold</text>
  <text style="stroke:none;fill:black;font-family:-apple-system,&quot;SF Pro Display&quot;,&quot;SF Pro Text&quot;,Helvetica,sans-serif;text-anchor:middle;" transform="matrix(1 0 0 1 2339.98 322)">Bold</text>
  <text style="stroke:none;fill:black;font-family:-apple-system,&quot;SF Pro Display&quot;,&quot;SF Pro Text&quot;,Helvetica,sans-serif;text-anchor:middle;" transform="matrix(1 0 0 1 2636.69 322)">Heavy</text>
  <text style="stroke:none;fill:black;font-family:-apple-system,&quot;SF Pro Display&quot;,&quot;SF Pro Text&quot;,Helvetica,sans-serif;text-anchor:middle;" transform="matrix(1 0 0 1 2933.4 322)">Black</text>
  <line id="" style="fill:none;stroke:black;opacity:1;stroke-width:0.5;" x1="263" x2="3036" y1="1903" y2="1903"/>
  <g id="" transform="matrix(1 0 0 1 263 1933)">
   <path d="M9.24805 0.830078C13.5547 0.830078 17.1387-2.74414 17.1387-7.05078C17.1387-11.3574 13.5449-14.9316 9.23828-14.9316C4.94141-14.9316 1.36719-11.3574 1.36719-7.05078C1.36719-2.74414 4.95117 0.830078 9.24805 0.830078ZM9.24805-0.654297C5.70312-0.654297 2.87109-3.49609 2.87109-7.05078C2.87109-10.6055 5.69336-13.4473 9.23828-13.4473C12.793-13.4473 15.6348-10.6055 15.6445-7.05078C15.6543-3.49609 12.8027-0.654297 9.24805-0.654297ZM6.39648-6.31836L8.50586-6.31836L8.50586-4.19922C8.50586-3.75977 8.79883-3.45703 9.22852-3.45703C9.67773-3.45703 9.9707-3.75977 9.9707-4.19922L9.9707-6.31836L12.0996-6.31836C12.5391-6.31836 12.8418-6.61133 12.8418-7.04102C12.8418-7.48047 12.5391-7.7832 12.0996-7.7832L9.9707-7.7832L9.9707-9.89258C9.9707-10.3418 9.67773-10.6445 9.22852-10.6445C8.79883-10.6445 8.50586-10.3418 8.50586-9.89258L8.50586-7.7832L6.39648-7.7832C5.94727-7.7832 5.64453-7.48047 5.64453-7.04102C5.64453-6.61133 5.94727-6.31836 6.39648-6.31836Z"/>
  </g>
  <g id="" transform="matrix(1 0 0 1 281.506 1933)">
   <path d="M11.709 2.91016C17.1582 2.91016 21.6699-1.61133 21.6699-7.05078C21.6699-12.5 17.1484-17.0117 11.6992-17.0117C6.25977-17.0117 1.74805-12.5 1.74805-7.05078C1.74805-1.61133 6.26953 2.91016 11.709 2.91016ZM11.709 1.25C7.09961 1.25 3.41797-2.44141 3.41797-7.05078C3.41797-11.6602 7.08984-15.3516 11.6992-15.3516C16.3086-15.3516 20-11.6602 20.0098-7.05078C20.0195-2.44141 16.3184 1.25 11.709 1.25ZM7.98828-6.23047L10.8789-6.23047L10.8789-3.32031C10.8789-2.83203 11.2109-2.5 11.6895-2.5C12.1777-2.5 12.5195-2.83203 12.5195-3.32031L12.5195-6.23047L15.4297-6.23047C15.918-6.23047 16.25-6.5625 16.25-7.04102C16.25-7.5293 15.918-7.87109 15.4297-7.87109L12.5195-7.87109L12.5195-10.7617C12.5195-11.2695 12.1777-11.6016 11.6895-11.6016C11.2109-11.6016 10.8789-11.2598 10.8789-10.7617L10.8789-7.87109L7.98828-7.87109C7.48047-7.87109 7.14844-7.5293 7.14844-7.04102C7.14844-6.5625 7.49023-6.23047 7.98828-6.23047Z"/>
  </g>
  <g id="" transform="matrix(1 0 0 1 304.924 1933)">
   <path d="M14.9707 5.66406C21.9336 5.66406 27.6953-0.0976562 27.6953-7.05078C27.6953-14.0137 21.9238-19.7754 14.9609-19.7754C8.00781-19.7754 2.25586-14.0137 2.25586-7.05078C2.25586-0.0976562 8.01758 5.66406 14.9707 5.66406ZM14.9707 3.84766C8.93555 3.84766 4.08203-1.01562 4.08203-7.05078C4.08203-13.0957 8.92578-17.9492 14.9609-17.9492C21.0059-17.9492 25.8594-13.0957 25.8691-7.05078C25.8789-1.01562 21.0156 3.84766 14.9707 3.84766ZM10.0586-6.14258L14.0625-6.14258L14.0625-2.12891C14.0625-1.5918 14.4336-1.2207 14.9512-1.2207C15.4883-1.2207 15.8594-1.5918 15.8594-2.12891L15.8594-6.14258L19.8828-6.14258C20.4102-6.14258 20.791-6.51367 20.791-7.03125C20.791-7.56836 20.4199-7.94922 19.8828-7.94922L15.8594-7.94922L15.8594-11.9531C15.8594-12.5098 15.4883-12.8809 14.9512-12.8809C14.4336-12.8809 14.0625-12.5 14.0625-11.9531L14.0625-7.94922L10.0586-7.94922C9.50195-7.94922 9.13086-7.56836 9.13086-7.03125C9.13086-6.51367 9.51172-6.14258 10.0586-6.14258Z"/>
  </g>
  <text style="stroke:none;fill:black;font-family:-apple-system,&quot;SF Pro Display&quot;,&quot;SF Pro Text&quot;,Helvetica,sans-serif;font-weight:bold;" transform="matrix(1 0 0 1 263 1953)">Design Variations</text>
  <text style="stroke:none;fill:black;font-family:-apple-system,&quot;SF Pro Display&quot;,&quot;SF Pro Text&quot;,Helvetica,sans-serif;" transform="matrix(1 0 0 1 263 1971)">Symbols are supported in up to nine weights and three scales.</text>
  <text style="stroke:none;fill:black;font-family:-apple-system,&quot;SF Pro Display&quot;,&quot;SF Pro Text&quot;,Helvetica,sans-serif;" transform="matrix(1 0 0 1 263 1989)">For optimal layout with text and other symbols, vertically align</text>
  <text style="stroke:none;fill:black;font-family:-apple-system,&quot;SF Pro Display&quot;,&quot;SF Pro Text&quot;,Helvetica,sans-serif;" transform="matrix(1 0 0 1 263 2007)">symbols with the adjacent text.</text>
  <line id="" style="fill:none;stroke:#00AEEF;stroke-width:0.5;opacity:1.0;" x1="776" x2="776" y1="1919" y2="1933"/>
  <g id="" transform="matrix(1 0 0 1 776 1933)">
   <path d="M3.31055 0.126953C3.82812 0.126953 4.08203-0.0683594 4.26758-0.605469L5.52734-4.0625L11.2891-4.0625L12.5488-0.605469C12.7344-0.0683594 12.9883 0.126953 13.4961 0.126953C14.0137 0.126953 14.3457-0.185547 14.3457-0.673828C14.3457-0.839844 14.3164-0.986328 14.2383-1.20117L9.6582-13.3887C9.43359-13.9941 9.0332-14.2871 8.4082-14.2871C7.80273-14.2871 7.39258-13.9941 7.17773-13.3984L2.59766-1.19141C2.51953-0.976562 2.49023-0.830078 2.49023-0.664062C2.49023-0.175781 2.80273 0.126953 3.31055 0.126953ZM6.00586-5.53711L8.37891-12.1094L8.42773-12.1094L10.8008-5.53711Z"/>
  </g>
  <line id="" style="fill:none;stroke:#00AEEF;stroke-width:0.5;opacity:1.0;" x1="792.836" x2="792.836" y1="1919" y2="1933"/>
  <text style="stroke:none;fill:black;font-family:-apple-system,&quot;SF Pro Display&quot;,&quot;SF Pro Text&quot;,Helvetica,sans-serif;font-weight:bold;" transform="matrix(1 0 0 1 776 1953)">Margins</text>
  <text style="stroke:none;fill:black;font-family:-apple-system,&quot;SF Pro Display&quot;,&quot;SF Pro Text&quot;,Helvetica,sans-serif;" transform="matrix(1 0 0 1 776 1971)">Leading and trailing margins on the left and right side of each symbol</text>
  <text style="stroke:none;fill:black;font-family:-apple-system,&quot;SF Pro Display&quot;,&quot;SF Pro Text&quot;,Helvetica,sans-serif;" transform="matrix(1 0 0 1 776 1989)">can be adjusted by modifying the x-location of the margin guidelines.</text>
  <text style="stroke:none;fill:black;font-family:-apple-system,&quot;SF Pro Display&quot;,&quot;SF Pro Text&quot;,Helvetica,sans-serif;" transform="matrix(1 0 0 1 776 2007)">Modifications are automatically applied proportionally to all</text>
  <text style="stroke:none;fill:black;font-family:-apple-system,&quot;SF Pro Display&quot;,&quot;SF Pro Text&quot;,Helvetica,sans-serif;" transform="matrix(1 0 0 1 776 2025)">scales and weights.</text>
  <g id="" transform="matrix(1 0 0 1 1289 1933)">
   <path d="M2.8418 1.86523L4.54102 3.57422C5.40039 4.44336 6.38672 4.38477 7.31445 3.35938L17.4902-7.85156C17.7539-7.76367 18.0273-7.7832 18.3398-7.8418L19.4043-8.03711L20.0684-7.36328L20.0293-6.80664C19.9902-6.30859 20.1172-5.92773 20.6055-5.44922L21.3672-4.70703C21.8457-4.22852 22.4609-4.19922 22.9297-4.66797L25.8398-7.58789C26.3086-8.05664 26.2891-8.65234 25.8105-9.13086L25.0391-9.89258C24.5605-10.3711 24.1895-10.5273 23.7109-10.4883L23.1348-10.4395L22.4902-11.0742L22.7344-12.1973C22.8613-12.7637 22.7051-13.2031 22.1191-13.7891L19.9219-15.9766C16.582-19.2969 12.1484-19.2188 9.25781-16.3281C8.83789-15.918 8.80859-15.3418 9.04297-14.9512C9.27734-14.5898 9.73633-14.3555 10.3809-14.5215C11.8457-14.8633 13.3691-14.9219 14.7949-13.9844L14.209-12.5293C14.0137-12.0508 13.9844-11.6504 14.1113-11.2891L3.04688-0.898438C2.06055 0.0195312 1.98242 0.996094 2.8418 1.86523ZM10.752-15.957C13.1836-17.7344 16.4746-17.4316 18.7012-15.2051L21.1328-12.793C21.3672-12.5586 21.4062-12.373 21.3379-12.0312L21.0156-10.5469L22.5195-9.0625L23.5059-9.12109C23.7598-9.13086 23.8379-9.11133 24.0332-8.91602L24.6094-8.33984L22.168-5.89844L21.5918-6.47461C21.3965-6.66992 21.3672-6.74805 21.377-7.01172L21.4453-7.98828L19.9512-9.47266L18.4277-9.21875C18.1055-9.15039 17.959-9.17969 17.7148-9.41406L15.7129-11.416C15.459-11.6504 15.4297-11.8164 15.5859-12.1875L16.4648-14.2773C14.9023-15.7324 12.8711-16.3574 10.8398-15.7617C10.6836-15.7227 10.625-15.8496 10.752-15.957ZM5.27344 2.30469L4.10156 1.14258C3.63281 0.683594 3.74023 0.341797 4.14062-0.0195312L14.9512-10.1953L16.416-8.71094L6.42578 2.27539C6.07422 2.67578 5.74219 2.77344 5.27344 2.30469Z"/>
  </g>
  <text style="stroke:none;fill:black;font-family:-apple-system,&quot;SF Pro Display&quot;,&quot;SF Pro Text&quot;,Helvetica,sans-serif;font-weight:bold;" transform="matrix(1 0 0 1 1289 1953)">Exporting</text>
  <text style="stroke:none;fill:black;font-family:-apple-system,&quot;SF Pro Display&quot;,&quot;SF Pro Text&quot;,Helvetica,sans-serif;" transform="matrix(1 0 0 1 1289 1971)">Symbols should be outlined when exporting to ensure the</text>
  <text style="stroke:none;fill:black;font-family:-apple-system,&quot;SF Pro Display&quot;,&quot;SF Pro Text&quot;,Helvetica,sans-serif;" transform="matrix(1 0 0 1 1289 1989)">design is preserved when submitting to Xcode.</text>
  <text id="template-version" style="stroke:none;fill:black;font-family:-apple-system,&quot;SF Pro Display&quot;,&quot;SF Pro Text&quot;,Helvetica,sans-serif;text-anchor:end;" transform="matrix(1 0 0 1 3036 1933)">Template v.2.0</text>
  <text style="stroke:none;fill:black;font-family:-apple-system,&quot;SF Pro Display&quot;,&quot;SF Pro Text&quot;,Helvetica,sans-serif;text-anchor:end;" transform="matrix(1 0 0 1 3036 1951)">Requires Xcode 12 or greater</text>
  <text style="stroke:none;fill:black;font-family:-apple-system,&quot;SF Pro Display&quot;,&quot;SF Pro Text&quot;,Helvetica,sans-serif;text-anchor:end;" transform="matrix(1 0 0 1 3036 1969)">Generated from pin.circle</text>
  <text style="stroke:none;fill:black;font-family:-apple-system,&quot;SF Pro Display&quot;,&quot;SF Pro Text&quot;,Helvetica,sans-serif;text-anchor:end;" transform="matrix(1 0 0 1 3036 1987)">Typeset at 100 points</text>
  <text style="stroke:none;fill:black;font-family:-apple-system,&quot;SF Pro Display&quot;,&quot;SF Pro Text&quot;,Helvetica,sans-serif;" transform="matrix(1 0 0 1 263 726)">Small</text>
  <text style="stroke:none;fill:black;font-family:-apple-system,&quot;SF Pro Display&quot;,&quot;SF Pro Text&quot;,Helvetica,sans-serif;" transform="matrix(1 0 0 1 263 1156)">Medium</text>
  <text style="stroke:none;fill:black;font-family:-apple-system,&quot;SF Pro Display&quot;,&quot;SF Pro Text&quot;,Helvetica,sans-serif;" transform="matrix(1 0 0 1 263 1586)">Large</text>
 </g>
 <g id="Guides">
  <g id="H-reference" style="fill:#27AAE1;stroke:none;" transform="matrix(1 0 0 1 339 696)">
   <path d="M0.976562 0L3.66211 0L12.9883-24.4629L45.752-24.4629L55.127 0L57.7637 0L30.6152-70.459L28.125-70.459ZM29.3457-67.1387L29.4434-67.1387L44.873-26.709L13.8672-26.709Z"/>
  </g>
  <line id="Baseline-S" style="fill:none;stroke:#27AAE1;opacity:1;stroke-width:0.5;" x1="263" x2="3036" y1="696" y2="696"/>
  <line id="Capline-S" style="fill:none;stroke:#27AAE1;opacity:1;stroke-width:0.5;" x1="263" x2="3036" y1="625.541" y2="625.541"/>
  <g id="H-reference" style="fill:#27AAE1;stroke:none;" transform="matrix(1 0 0 1 339 1126)">
   <path d="M0.976562 0L3.66211 0L12.9883-24.4629L45.752-24.4629L55.127 0L57.7637 0L30.6152-70.459L28.125-70.459ZM29.3457-67.1387L29.4434-67.1387L44.873-26.709L13.8672-26.709Z"/>
  </g>
  <line id="Baseline-M" style="fill:none;stroke:#27AAE1;opacity:1;stroke-width:0.5;" x1="263" x2="3036" y1="1126" y2="1126"/>
  <line id="Capline-M" style="fill:none;stroke:#27AAE1;opacity:1;stroke-width:0.5;" x1="263" x2="3036" y1="1055.54" y2="1055.54"/>
  <g id="H-reference" style="fill:#27AAE1;stroke:none;" transform="matrix(1 0 0 1 339 1556)">
   <path d="M0.976562 0L3.66211 0L12.9883-24.4629L45.752-24.4629L55.127 0L57.7637 0L30.6152-70.459L28.125-70.459ZM29.3457-67.1387L29.4434-67.1387L44.873-26.709L13.8672-26.709Z"/>
  </g>
  <line id="Baseline-L" style="fill:none;stroke:#27AAE1;opacity:1;stroke-width:0.5;" x1="263" x2="3036" y1="1556" y2="1556"/>
  <line id="Capline-L" style="fill:none;stroke:#27AAE1;opacity:1;stroke-width:0.5;" x1="263" x2="3036" y1="1485.54" y2="1485.54"/>
  <line id="left-margin" style="fill:none;stroke:#00AEEF;stroke-width:0.5;opacity:1.0;" x1="1391.3" x2="1391.3" y1="1030.79" y2="1150.12"/>
  <line id="right-margin" style="fill:none;stroke:#00AEEF;stroke-width:0.5;opacity:1.0;" x1="1508.39" x2="1508.39" y1="1030.79" y2="1150.12"/>
 </g>
 <g id="Symbols">
  <g id="Black-L" transform="matrix(1 0 0 1 2854.05 1556)">
   <path d="M79.3457 32.8613C116.748 32.8613 147.412 2.19727 147.412-35.2051C147.412-72.6074 116.748-103.271 79.2969-103.271C41.8945-103.271 11.2793-72.6074 11.2793-35.2051C11.2793 2.19727 41.9434 32.8613 79.3457 32.8613ZM79.3457 12.4023C52.9785 12.4023 31.7383-8.83789 31.7383-35.2051C31.7383-61.5723 52.9297-82.8125 79.2969-82.8125C105.664-82.8125 126.953-61.5723 126.953-35.2051C127.002-8.83789 105.713 12.4023 79.3457 12.4023ZM54.834-24.6094C54.834-21.4355 56.9336-19.4336 60.0098-19.4336L74.0234-19.4336L74.0234-9.27734C74.0234-5.0293 77.832 2.73438 79.3457 2.73438C80.8594 2.73438 84.668-5.0293 84.668-9.27734L84.668-19.4336L98.6328-19.4336C101.758-19.4336 103.857-21.4355 103.857-24.6094C103.857-30.9082 97.7539-36.9629 89.7461-40.0879L88.8184-53.4668C93.3594-56.0547 96.582-58.5938 97.9004-60.4004C98.7305-61.5234 99.2676-62.7441 99.2676-63.8184C99.2676-66.1621 97.4121-67.8711 94.9219-67.8711L63.7207-67.8711C61.2793-67.8711 59.4238-66.1621 59.4238-63.8184C59.4238-62.7441 59.8633-61.4746 60.791-60.4004C62.207-58.6914 65.332-56.0547 69.873-53.4668L68.9453-40.0879C60.9375-36.9629 54.834-30.9082 54.834-24.6094Z"/>
  </g>
  <g id="Heavy-L" transform="matrix(1 0 0 1 2558.39 1556)">
   <path d="M78.2715 31.7871C115.088 31.7871 145.312 1.5625 145.312-35.2051C145.312-72.0215 115.039-102.246 78.2715-102.246C41.4551-102.246 11.2793-72.0215 11.2793-35.2051C11.2793 1.5625 41.5039 31.7871 78.2715 31.7871ZM78.2715 14.0137C51.0254 14.0137 29.0527-7.95898 29.0527-35.2051C29.0527-62.5 50.9766-84.4727 78.2715-84.4727C105.518-84.4727 127.49-62.5 127.539-35.2051C127.539-7.95898 105.566 14.0137 78.2715 14.0137ZM53.7109-24.1699C53.7109-21.1914 55.7129-19.2383 58.6914-19.2383L73.3887-19.2383L73.3887-8.59375C73.3887-3.90625 76.8555 3.27148 78.2715 3.27148C79.6875 3.27148 83.1543-3.90625 83.1543-8.59375L83.1543-19.2383L97.8516-19.2383C100.83-19.2383 102.832-21.1914 102.832-24.1699C102.832-30.6152 96.875-36.9629 88.623-40.0879L87.6465-53.9062C92.1387-56.4453 95.5078-59.1309 96.9238-60.9863C97.7539-62.1094 98.291-63.3301 98.291-64.4043C98.291-66.6016 96.5332-68.2129 94.1406-68.2129L62.4023-68.2129C60.0098-68.2129 58.3008-66.6016 58.3008-64.4043C58.3008-63.3301 58.7402-62.0605 59.6191-60.9863C61.1328-59.1309 64.4043-56.4453 68.8965-53.9062L67.9199-40.0879C59.668-36.9629 53.7109-30.6152 53.7109-24.1699Z"/>
  </g>
  <g id="Bold-L" transform="matrix(1 0 0 1 2262.88 1556)">
   <path d="M77.0996 30.5664C113.232 30.5664 142.92 0.878906 142.92-35.2539C142.92-71.3379 113.184-101.074 77.0508-101.074C40.9668-101.074 11.2793-71.3379 11.2793-35.2539C11.2793 0.878906 41.0156 30.5664 77.0996 30.5664ZM77.0996 15.8203C48.8281 15.8203 26.0742-6.98242 26.0742-35.2539C26.0742-63.5254 48.7793-86.2793 77.0508-86.2793C105.371-86.2793 128.125-63.5254 128.174-35.2539C128.174-6.98242 105.371 15.8203 77.0996 15.8203ZM52.4414-23.6816C52.4414-20.8496 54.3457-18.9941 57.2266-18.9941L72.7051-18.9941L72.7051-7.8125C72.7051-2.58789 75.7812 3.85742 77.0996 3.85742C78.3691 3.85742 81.4941-2.58789 81.4941-7.8125L81.4941-18.9941L96.9238-18.9941C99.8047-18.9941 101.709-20.8496 101.709-23.6816C101.709-30.3223 95.8984-36.9141 87.4023-40.0879L86.377-54.3945C90.8203-56.8848 94.3359-59.668 95.8496-61.6699C96.7285-62.793 97.168-63.9648 97.168-64.9902C97.168-67.0898 95.5566-68.6035 93.2617-68.6035L60.9375-68.6035C58.6426-68.6035 56.9824-67.0898 56.9824-64.9902C56.9824-63.9648 57.4707-62.7441 58.3984-61.6211C59.9609-59.668 63.4277-56.8848 67.7734-54.3945L66.7969-40.0879C58.3008-36.9141 52.4414-30.3223 52.4414-23.6816Z"/>
  </g>
  <g id="Semibold-L" transform="matrix(1 0 0 1 1966.97 1556)">
   <path d="M76.2695 29.7363C111.914 29.7363 141.309 0.390625 141.309-35.2539C141.309-70.8984 111.865-100.244 76.2695-100.244C40.625-100.244 11.2793-70.8984 11.2793-35.2539C11.2793 0.390625 40.6738 29.7363 76.2695 29.7363ZM76.2695 17.041C47.3145 17.041 24.0234-6.25 24.0234-35.2539C24.0234-64.209 47.2656-87.5488 76.2695-87.5488C105.225-87.5488 128.564-64.209 128.613-35.2539C128.662-6.25 105.273 17.041 76.2695 17.041ZM51.6113-23.3398C51.6113-20.6055 53.418-18.8477 56.25-18.8477L72.2168-18.8477L72.2168-7.22656C72.2168-1.70898 75.0488 4.29688 76.2695 4.29688C77.4414 4.29688 80.3223-1.70898 80.3223-7.22656L80.3223-18.8477L96.2891-18.8477C99.1211-18.8477 100.977-20.6055 100.977-23.3398C100.977-30.0781 95.2148-36.9141 86.5723-40.0879L85.498-54.7363C89.8926-57.2266 93.5059-60.0586 95.1172-62.1582C95.9473-63.2812 96.4355-64.4531 96.4355-65.4297C96.4355-67.4316 94.873-68.8477 92.627-68.8477L59.9121-68.8477C57.666-68.8477 56.1035-67.4316 56.1035-65.4297C56.1035-64.4043 56.5918-63.1836 57.5195-62.0605C59.1797-60.0098 62.7441-57.1777 67.041-54.7363L66.0156-40.0879C57.3242-36.9141 51.6113-30.0781 51.6113-23.3398Z"/>
  </g>
  <g id="Medium-L" transform="matrix(1 0 0 1 1670.87 1556)">
   <path d="M75.6836 29.1504C110.938 29.1504 140.088 0 140.088-35.2539C140.088-70.5078 110.889-99.6582 75.6348-99.6582C40.3809-99.6582 11.2793-70.5078 11.2793-35.2539C11.2793 0 40.3809 29.1504 75.6836 29.1504ZM75.6836 18.0176C46.1426 18.0176 22.4609-5.76172 22.4609-35.2539C22.4609-64.7461 46.1426-88.5254 75.6348-88.5254C105.127-88.5254 128.906-64.7461 128.906-35.2539C128.955-5.76172 105.176 18.0176 75.6836 18.0176ZM50.9277-23.0957C50.9277-20.459 52.7344-18.75 55.4688-18.75L71.875-18.75L71.875-6.83594C71.875-1.02539 74.5117 4.58984 75.6348 4.58984C76.7578 4.58984 79.4434-1.02539 79.4434-6.83594L79.4434-18.75L95.8496-18.75C98.584-18.75 100.391-20.459 100.391-23.0957C100.391-29.9316 94.7266-36.9141 85.8887-40.0391L84.8633-54.9805C89.1602-57.4219 92.8711-60.3516 94.5801-62.5C95.4102-63.623 95.8496-64.7949 95.8496-65.7715C95.8496-67.6758 94.3848-69.043 92.1875-69.043L59.1309-69.043C56.9336-69.043 55.4688-67.6758 55.4688-65.7715C55.4688-64.7461 55.957-63.5742 56.8359-62.4023C58.5449-60.3027 62.207-57.4219 66.4551-54.9805L65.4297-40.0391C56.5918-36.9141 50.9277-29.9316 50.9277-23.0957Z"/>
  </g>
  <g id="Regular-L" transform="matrix(1 0 0 1 1374.97 1556)">
   <path d="M74.8535 28.3203C109.668 28.3203 138.477-0.488281 138.477-35.2539C138.477-70.0684 109.619-98.877 74.8047-98.877C40.0391-98.877 11.2793-70.0684 11.2793-35.2539C11.2793-0.488281 40.0879 28.3203 74.8535 28.3203ZM74.8535 19.2383C44.6777 19.2383 20.4102-5.07812 20.4102-35.2539C20.4102-65.4785 44.6289-89.7461 74.8047-89.7461C105.029-89.7461 129.297-65.4785 129.346-35.2539C129.395-5.07812 105.078 19.2383 74.8535 19.2383ZM50.0977-22.7539C50.0977-20.2148 51.8066-18.6035 54.4434-18.6035L71.3867-18.6035L71.3867-6.29883C71.3867-0.146484 73.7793 4.98047 74.8535 4.98047C75.8789 4.98047 78.3203-0.146484 78.3203-6.29883L78.3203-18.6035L95.2148-18.6035C97.9004-18.6035 99.6094-20.2148 99.6094-22.7539C99.6094-29.6875 94.043-36.8652 85.0586-40.0391L83.9844-55.3223C88.2324-57.7637 92.0898-60.7422 93.8477-62.9883C94.6777-64.0625 95.1172-65.2344 95.1172-66.1621C95.1172-68.0176 93.75-69.3359 91.5527-69.3359L58.1543-69.3359C56.0059-69.3359 54.5898-68.0176 54.5898-66.1621C54.5898-65.1855 55.0781-64.0137 56.0059-62.8418C57.7637-60.6445 61.5234-57.7148 65.7227-55.3223L64.6484-40.0391C55.6641-36.8652 50.0977-29.6875 50.0977-22.7539Z"/>
  </g>
  <g id="Light-L" transform="matrix(1 0 0 1 1079.18 1556)">
   <path d="M73.9258 27.3926C108.301 27.3926 136.621-0.927734 136.621-35.2539C136.621-69.6289 108.252-97.9492 73.9258-97.9492C39.5508-97.9492 11.2793-69.6289 11.2793-35.2539C11.2793-0.927734 39.5996 27.3926 73.9258 27.3926ZM73.9258 20.5078C43.1152 20.5078 18.2129-4.44336 18.2129-35.2539C18.2129-66.1133 43.0664-91.0156 73.9258-91.0156C104.736-91.0156 129.688-66.1133 129.736-35.2539C129.736-4.44336 104.785 20.5078 73.9258 20.5078ZM49.2676-22.1191C49.2676-19.8242 50.8301-18.4082 53.2715-18.4082L71.0449-18.4082L71.0449-4.63867C71.0449 0.537109 72.998 4.98047 73.877 4.98047C74.7559 4.98047 76.7578 0.537109 76.7578-4.63867L76.7578-18.4082L94.5312-18.4082C96.9727-18.4082 98.584-19.8242 98.584-22.1191C98.584-29.3457 92.8711-36.5723 83.8379-39.6484L82.7637-55.5664C86.5234-57.8125 90.4297-60.791 92.2852-63.1836C93.1152-64.3066 93.5547-65.3809 93.5547-66.3086C93.5547-67.9688 92.2852-69.1406 90.2832-69.1406L57.5195-69.1406C55.5664-69.1406 54.248-67.9688 54.248-66.3086C54.248-65.332 54.834-64.1602 55.7617-62.9883C57.6172-60.6445 61.377-57.7637 65.0879-55.5664L63.9648-39.6484C54.9805-36.5723 49.2676-29.3457 49.2676-22.1191Z"/>
  </g>
  <g id="Thin-L" transform="matrix(1 0 0 1 783.693 1556)">
   <path d="M72.7051 26.1719C106.494 26.1719 134.18-1.51367 134.18-35.2539C134.18-69.043 106.494-96.7285 72.7051-96.7285C38.9648-96.7285 11.2793-69.043 11.2793-35.2539C11.2793-1.51367 38.9648 26.1719 72.7051 26.1719ZM72.7051 22.168C41.0156 22.168 15.2832-3.56445 15.2832-35.2539C15.2832-66.9922 41.0156-92.7246 72.7051-92.7246C104.395-92.7246 130.176-66.9922 130.176-35.2539C130.176-3.56445 104.443 22.168 72.7051 22.168ZM48.1445-21.2402C48.1445-19.3359 49.5605-18.1152 51.6602-18.1152L70.6543-18.1152L70.6543-2.49023C70.6543 1.41602 71.9238 4.93164 72.6562 4.93164C73.3398 4.93164 74.707 1.41602 74.707-2.49023L74.707-18.1152L93.6035-18.1152C95.8008-18.1152 97.2168-19.3359 97.2168-21.2402C97.2168-28.8574 91.3086-36.1328 82.2266-39.1113L81.1035-55.9082C84.2773-57.9102 88.2324-60.8887 90.2344-63.4766C91.0156-64.5508 91.5039-65.625 91.5039-66.4551C91.5039-67.9199 90.4297-68.9453 88.623-68.9453L56.7383-68.9453C55.0293-68.9453 53.8574-67.9199 53.8574-66.4551C53.8574-65.5273 54.4922-64.4043 55.4199-63.1836C57.4219-60.6934 61.2305-57.8613 64.2578-55.9082L63.1348-39.1113C54.0527-36.1328 48.1445-28.8574 48.1445-21.2402Z"/>
  </g>
  <g id="Ultralight-L" transform="matrix(1 0 0 1 487.616 1556)">
   <path d="M72.1191 25.5371C105.566 25.5371 132.91-1.80664 132.91-35.2539C132.91-68.75 105.566-96.0938 72.1191-96.0938C38.623-96.0938 11.2793-68.75 11.2793-35.2539C11.2793-1.80664 38.623 25.5371 72.1191 25.5371ZM72.1191 23.0469C39.9414 23.0469 13.7695-3.125 13.7695-35.2539C13.7695-67.4316 39.9414-93.6035 72.1191-93.6035C104.248-93.6035 130.42-67.4316 130.42-35.2539C130.42-3.125 104.248 23.0469 72.1191 23.0469ZM47.6074-20.8008C47.6074-19.043 48.9258-18.0176 50.8301-18.0176L70.459-18.0176L70.459-1.36719C70.459 1.85547 71.3867 4.93164 72.0215 4.93164C72.6074 4.93164 73.6328 1.85547 73.6328-1.36719L73.6328-18.0176L93.1641-18.0176C95.166-18.0176 96.4844-19.043 96.4844-20.8008C96.4844-28.6621 90.4785-35.8887 81.3965-38.8184L80.2734-56.1035C83.1055-57.959 87.1582-60.9375 89.1602-63.6719C89.9902-64.6973 90.4785-65.7227 90.4785-66.5039C90.4785-67.9199 89.4531-68.8477 87.7441-68.8477L56.3477-68.8477C54.7363-68.8477 53.6133-67.9199 53.6133-66.5039C53.6133-65.625 54.2969-64.502 55.2734-63.2812C57.3242-60.6934 61.1816-57.9102 63.8184-56.1035L62.6953-38.8184C53.6133-35.8887 47.6074-28.6621 47.6074-20.8008Z"/>
  </g>
  <g id="Black-M" transform="matrix(1 0 0 1 2870.97 1126)">
   <path d="M62.4023 18.457C91.9922 18.457 116.113-5.61523 116.113-35.2051C116.113-64.7949 91.9922-88.8672 62.4023-88.8672C32.8125-88.8672 8.74023-64.7949 8.74023-35.2051C8.74023-5.61523 32.8125 18.457 62.4023 18.457ZM62.4023 0.195312C42.8711 0.195312 27.002-15.625 27.002-35.2051C27.002-54.7363 42.8711-70.6055 62.4023-70.6055C81.9824-70.6055 97.8027-54.7363 97.8027-35.2051C97.8027-15.625 81.9824 0.195312 62.4023 0.195312ZM43.5547-27.2461C43.5547-24.7559 45.2148-23.0957 47.6562-23.0957L58.0566-23.0957L58.0566-15.1855C58.0566-13.0371 61.1816-6.54297 62.4023-6.54297C63.6719-6.54297 66.7969-13.0371 66.7969-15.1855L66.7969-23.0957L77.1484-23.0957C79.5898-23.0957 81.2988-24.7559 81.2988-27.2461C81.2988-32.0801 76.2695-36.4258 70.4102-38.8184L69.7266-48.9258C73.0469-50.8789 75.3906-52.7344 76.3184-54.0039C76.9531-54.8828 77.3926-55.8105 77.3926-56.6895C77.3926-58.5938 75.8789-59.9609 73.9746-59.9609L50.8789-59.9609C48.9258-59.9609 47.4121-58.5938 47.4121-56.6895C47.4121-55.8105 47.8027-54.834 48.4863-54.0039C49.5605-52.7832 51.7578-50.8789 55.127-48.9258L54.4434-38.8184C48.5352-36.4258 43.5547-32.0801 43.5547-27.2461Z"/>
  </g>
  <g id="Heavy-M" transform="matrix(1 0 0 1 2575.19 1126)">
   <path d="M61.5234 17.5293C90.5273 17.5293 114.258-6.20117 114.258-35.2051C114.258-64.2578 90.5273-87.9883 61.4746-87.9883C32.4707-87.9883 8.74023-64.2578 8.74023-35.2051C8.74023-6.20117 32.4707 17.5293 61.5234 17.5293ZM61.5234 1.61133C41.1133 1.61133 24.6582-14.8438 24.6582-35.2051C24.6582-55.6152 41.1133-72.0703 61.4746-72.0703C81.8848-72.0703 98.3398-55.6152 98.3398-35.2051C98.3398-14.8438 81.8848 1.61133 61.5234 1.61133ZM42.5293-26.9531C42.5293-24.5117 44.1406-22.9492 46.5332-22.9492L57.4219-22.9492L57.4219-14.8438C57.4219-11.9629 60.3516-5.95703 61.5234-5.95703C62.6465-5.95703 65.5762-11.9629 65.5762-14.8438L65.5762-22.9492L76.4648-22.9492C78.8574-22.9492 80.4688-24.5117 80.4688-26.9531C80.4688-31.8848 75.6348-36.4746 69.4824-38.916L68.7988-49.3652C72.168-51.2695 74.6582-53.2227 75.6836-54.6387C76.3184-55.5176 76.7578-56.4453 76.7578-57.2754C76.7578-59.082 75.3418-60.4004 73.4375-60.4004L49.5605-60.4004C47.7051-60.4004 46.2891-59.082 46.2891-57.2754C46.2891-56.4453 46.6309-55.4688 47.3145-54.6387C48.4375-53.2715 50.8301-51.2695 54.1992-49.3652L53.5156-38.916C47.3633-36.4746 42.5293-31.8848 42.5293-26.9531Z"/>
  </g>
  <g id="Bold-M" transform="matrix(1 0 0 1 2279.5 1126)">
   <path d="M60.498 16.5039C88.8672 16.5039 112.207-6.83594 112.207-35.2051C112.207-63.623 88.8672-86.9629 60.4492-86.9629C32.0312-86.9629 8.74023-63.623 8.74023-35.2051C8.74023-6.83594 32.0801 16.5039 60.498 16.5039ZM60.498 3.22266C39.1602 3.22266 22.0703-13.916 22.0703-35.2051C22.0703-56.543 39.1602-73.6816 60.4492-73.6816C81.7383-73.6816 98.9258-56.543 98.9258-35.2051C98.9746-13.916 81.7871 3.22266 60.498 3.22266ZM41.4062-26.6113C41.4062-24.2676 42.9688-22.8027 45.2637-22.8027L56.7871-22.8027L56.7871-14.4531C56.7871-10.7422 59.4238-5.27344 60.498-5.27344C61.5234-5.27344 64.209-10.7422 64.209-14.4531L64.209-22.8027L75.6836-22.8027C77.9785-22.8027 79.541-24.2676 79.541-26.6113C79.541-31.6406 74.9023-36.5723 68.5059-39.0137L67.7734-49.8047C71.1914-51.7578 73.877-53.8574 74.9512-55.3223C75.6348-56.2012 76.0254-57.1289 76.0254-57.9102C76.0254-59.6191 74.6582-60.8398 72.8516-60.8398L48.1445-60.8398C46.2891-60.8398 44.9707-59.6191 44.9707-57.9102C44.9707-57.0801 45.3125-56.1523 45.9961-55.2734C47.2168-53.8574 49.7559-51.7578 53.2227-49.8047L52.4414-39.0137C46.0449-36.5723 41.4062-31.6406 41.4062-26.6113Z"/>
  </g>
  <g id="Semibold-M" transform="matrix(1 0 0 1 1983.5 1126)">
   <path d="M59.7656 15.8203C87.7441 15.8203 110.791-7.27539 110.791-35.2539C110.791-63.2324 87.6953-86.2793 59.7656-86.2793C31.7871-86.2793 8.74023-63.2324 8.74023-35.2539C8.74023-7.27539 31.7871 15.8203 59.7656 15.8203ZM59.7656 4.3457C37.8418 4.3457 20.2637-13.3301 20.2637-35.2539C20.2637-57.1777 37.793-74.8047 59.7656-74.8047C81.6895-74.8047 99.3164-57.1777 99.3652-35.2539C99.3652-13.3301 81.6895 4.3457 59.7656 4.3457ZM40.625-26.3672C40.625-24.1211 42.1387-22.6562 44.3848-22.6562L56.2988-22.6562L56.2988-14.209C56.2988-9.86328 58.7891-4.83398 59.7656-4.83398C60.791-4.83398 63.2324-9.86328 63.2324-14.209L63.2324-22.6562L75.1465-22.6562C77.3926-22.6562 78.9062-24.1211 78.9062-26.3672C78.9062-31.4453 74.4141-36.6211 67.8223-39.0625L67.041-50.0977C70.5566-52.0996 73.291-54.248 74.4629-55.8105C75.1465-56.6406 75.4883-57.5684 75.4883-58.3496C75.4883-60.0098 74.2188-61.1816 72.4121-61.1816L47.1191-61.1816C45.3125-61.1816 44.043-60.0098 44.043-58.3496C44.043-57.5684 44.4336-56.5918 45.1172-55.7617C46.3379-54.248 49.0234-52.0508 52.4902-50.0977L51.709-39.0625C45.1172-36.6211 40.625-31.4453 40.625-26.3672Z"/>
  </g>
  <g id="Medium-M" transform="matrix(1 0 0 1 1687.3 1126)">
   <path d="M59.2285 15.2344C86.9141 15.2344 109.766-7.61719 109.766-35.2539C109.766-62.8906 86.8652-85.7422 59.1797-85.7422C31.543-85.7422 8.74023-62.8906 8.74023-35.2539C8.74023-7.61719 31.5918 15.2344 59.2285 15.2344ZM59.2285 5.17578C36.8164 5.17578 18.8965-12.8418 18.8965-35.2539C18.8965-57.666 36.8164-75.6348 59.1797-75.6348C81.5918-75.6348 99.6094-57.666 99.6582-35.2539C99.707-12.8418 81.6406 5.17578 59.2285 5.17578ZM40.0391-26.1719C40.0391-23.9746 41.5039-22.5586 43.75-22.5586L55.957-22.5586L55.957-14.0137C55.957-9.22852 58.3008-4.49219 59.2285-4.49219C60.2051-4.49219 62.5-9.22852 62.5-14.0137L62.5-22.5586L74.707-22.5586C76.9531-22.5586 78.418-23.9746 78.418-26.1719C78.418-31.2988 74.0723-36.6699 67.2852-39.1113L66.5039-50.3418C70.0195-52.3438 72.8516-54.541 74.1211-56.1523C74.7559-57.0312 75.0977-57.9102 75.0977-58.6914C75.0977-60.3027 73.877-61.4258 72.1191-61.4258L46.3867-61.4258C44.5801-61.4258 43.3594-60.3027 43.3594-58.6914C43.3594-57.9102 43.75-56.9824 44.4336-56.1035C45.7031-54.541 48.4863-52.2949 52.002-50.3418L51.1719-39.1113C44.4336-36.6699 40.0391-31.2988 40.0391-26.1719Z"/>
  </g>
  <g id="Regular-M" transform="matrix(1 0 0 1 1391.3 1126)">
   <path d="M58.5449 14.5508C85.791 14.5508 108.35-8.05664 108.35-35.2539C108.35-62.5 85.7422-85.0586 58.4961-85.0586C31.2988-85.0586 8.74023-62.5 8.74023-35.2539C8.74023-8.05664 31.3477 14.5508 58.5449 14.5508ZM58.5449 6.25C35.498 6.25 17.0898-12.207 17.0898-35.2539C17.0898-58.3008 35.4492-76.7578 58.4961-76.7578C81.543-76.7578 100-58.3008 100.049-35.2539C100.098-12.207 81.5918 6.25 58.5449 6.25ZM39.3066-25.9277C39.3066-23.8281 40.6738-22.4609 42.8711-22.4609L55.5176-22.4609L55.5176-13.7207C55.5176-8.39844 57.666-4.05273 58.5449-4.05273C59.4238-4.05273 61.5723-8.39844 61.5723-13.7207L61.5723-22.4609L74.1699-22.4609C76.3672-22.4609 77.7832-23.8281 77.7832-25.9277C77.7832-31.1523 73.584-36.7188 66.6016-39.209L65.8203-50.6348C69.3848-52.6367 72.3145-54.9316 73.584-56.5918C74.2676-57.4707 74.6094-58.3984 74.6094-59.1309C74.6094-60.6445 73.4375-61.7676 71.6797-61.7676L45.4102-61.7676C43.6523-61.7676 42.4805-60.6445 42.4805-59.1309C42.4805-58.3496 42.8223-57.4219 43.5547-56.543C44.8242-54.8828 47.7539-52.6367 51.2695-50.6348L50.4395-39.209C43.5059-36.7188 39.3066-31.1523 39.3066-25.9277Z"/>
  </g>
  <g id="Light-M" transform="matrix(1 0 0 1 1095.42 1126)">
   <path d="M57.7148 13.7207C84.5215 13.7207 106.689-8.44727 106.689-35.2539C106.689-62.1094 84.5215-84.2285 57.666-84.2285C30.8594-84.2285 8.74023-62.1094 8.74023-35.2539C8.74023-8.44727 30.9082 13.7207 57.7148 13.7207ZM57.7148 7.37305C34.082 7.37305 15.0879-11.6699 15.0879-35.2539C15.0879-58.8867 34.082-77.9297 57.666-77.9297C81.2988-77.9297 100.342-58.8867 100.391-35.2539C100.391-11.6699 81.3477 7.37305 57.7148 7.37305ZM38.5742-25.3418C38.5742-23.4863 39.8438-22.2656 41.7969-22.2656L55.2246-22.2656L55.2246-12.2559C55.2246-7.8125 56.9336-4.05273 57.7148-4.05273C58.4473-4.05273 60.2051-7.8125 60.2051-12.2559L60.2051-22.2656L73.584-22.2656C75.5859-22.2656 76.8555-23.4863 76.8555-25.3418C76.8555-30.8105 72.5098-36.4258 65.5273-38.8184L64.6973-50.8789C67.8223-52.6855 70.8008-55.0293 72.2168-56.8359C72.8516-57.666 73.1934-58.5449 73.1934-59.2285C73.1934-60.6445 72.168-61.6211 70.5566-61.6211L44.873-61.6211C43.2617-61.6211 42.1875-60.6445 42.1875-59.2285C42.1875-58.4961 42.5781-57.6172 43.3105-56.6895C44.7266-54.9316 47.6562-52.6855 50.7324-50.8789L49.9023-38.8184C42.9199-36.4258 38.5742-30.8105 38.5742-25.3418Z"/>
  </g>
  <g id="Thin-M" transform="matrix(1 0 0 1 799.806 1126)">
   <path d="M56.6406 12.5977C82.9102 12.5977 104.492-8.98438 104.492-35.2539C104.492-61.5723 82.9102-83.1543 56.5918-83.1543C30.3223-83.1543 8.74023-61.5723 8.74023-35.2539C8.74023-8.98438 30.3223 12.5977 56.6406 12.5977ZM56.6406 8.88672C32.2266 8.88672 12.4512-10.8887 12.4512-35.2539C12.4512-59.6191 32.2266-79.4434 56.5918-79.4434C81.0059-79.4434 100.781-59.6191 100.781-35.2539C100.781-10.8887 81.0059 8.88672 56.6406 8.88672ZM37.5488-24.6094C37.5488-22.998 38.6719-22.0215 40.3809-22.0215L54.834-22.0215L54.834-10.3027C54.834-7.03125 56.0059-4.10156 56.5918-4.10156C57.1777-4.10156 58.3496-7.03125 58.3496-10.3027L58.3496-22.0215L72.7539-22.0215C74.5117-22.0215 75.6348-22.998 75.6348-24.6094C75.6348-30.4199 71.0938-35.9863 64.0625-38.3301L63.2324-51.1719C65.7715-52.7832 68.8477-55.0781 70.3613-57.0801C70.9961-57.9102 71.3867-58.7402 71.3867-59.375C71.3867-60.5957 70.5078-61.4258 69.043-61.4258L44.1406-61.4258C42.7734-61.4258 41.8457-60.5957 41.8457-59.375C41.8457-58.6914 42.2852-57.8125 43.0176-56.8848C44.5312-54.9316 47.5098-52.7344 50-51.1719L49.1211-38.3301C42.0898-35.9863 37.5488-30.4199 37.5488-24.6094Z"/>
  </g>
  <g id="Ultralight-M" transform="matrix(1 0 0 1 503.656 1126)">
   <path d="M56.0547 12.0605C82.0801 12.0605 103.369-9.22852 103.369-35.2539C103.369-61.2793 82.0801-82.5684 56.0547-82.5684C30.0293-82.5684 8.74023-61.2793 8.74023-35.2539C8.74023-9.22852 30.0293 12.0605 56.0547 12.0605ZM56.0547 9.66797C31.2988 9.66797 11.1328-10.498 11.1328-35.2539C11.1328-60.0586 31.2988-80.1758 56.0547-80.1758C80.8594-80.1758 100.977-60.0586 100.977-35.2539C100.977-10.498 80.8594 9.66797 56.0547 9.66797ZM37.0605-24.2188C37.0605-22.7539 38.1348-21.9238 39.6484-21.9238L54.6387-21.9238L54.6387-9.32617C54.6387-6.64062 55.5176-4.10156 56.0059-4.10156C56.4941-4.10156 57.4219-6.64062 57.4219-9.32617L57.4219-21.9238L72.3633-21.9238C73.9746-21.9238 75-22.7539 75-24.2188C75-30.1758 70.3613-35.791 63.3301-38.0859L62.4512-51.3672C64.7461-52.832 67.8711-55.127 69.4336-57.2266C70.0684-58.0078 70.4102-58.8379 70.4102-59.4238C70.4102-60.5469 69.6289-61.3281 68.2617-61.3281L43.7988-61.3281C42.4805-61.3281 41.6504-60.5469 41.6504-59.4238C41.6504-58.7402 42.1387-57.9102 42.8711-56.9336C44.4336-54.9316 47.4609-52.7832 49.6094-51.3672L48.7305-38.0859C41.6992-35.791 37.0605-30.1758 37.0605-24.2188Z"/>
  </g>
  <g id="Black-S" transform="matrix(1 0 0 1 2884.57 696)">
   <path d="M48.8281 6.78711C71.9727 6.78711 90.8203-12.0605 90.8203-35.2051C90.8203-58.3496 71.9727-77.1973 48.8281-77.1973C25.6836-77.1973 6.83594-58.3496 6.83594-35.2051C6.83594-12.0605 25.6836 6.78711 48.8281 6.78711ZM48.8281-7.37305C33.4473-7.37305 20.9961-19.8242 20.9961-35.2051C20.9961-50.5859 33.4473-63.0371 48.8281-63.0371C64.209-63.0371 76.6602-50.5859 76.6602-35.2051C76.6602-19.8242 64.209-7.37305 48.8281-7.37305ZM34.0332-28.9551C34.0332-27.002 35.3516-25.7324 37.2559-25.7324L45.4102-25.7324L45.4102-19.5312C45.4102-17.7734 47.8516-12.6953 48.8281-12.6953C49.8047-12.6953 52.2461-17.7734 52.2461-19.5312L52.2461-25.7324L60.4004-25.7324C62.3047-25.7324 63.623-27.002 63.623-28.9551C63.623-32.7637 59.7168-36.1816 55.0781-38.0371L54.541-45.9961C57.1777-47.5098 59.0332-48.9746 59.7656-50C60.2539-50.6836 60.5957-51.416 60.5957-52.0996C60.5957-53.5645 59.4238-54.6387 57.9102-54.6387L39.7461-54.6387C38.2324-54.6387 37.0605-53.5645 37.0605-52.0996C37.0605-51.416 37.3535-50.6348 37.8906-50C38.7207-49.0234 40.4785-47.5098 43.1152-45.9961L42.5781-38.0371C37.9395-36.1816 34.0332-32.7637 34.0332-28.9551Z"/>
  </g>
  <g id="Heavy-S" transform="matrix(1 0 0 1 2588.47 696)">
   <path d="M48.2422 6.15234C70.9961 6.15234 89.5996-12.4512 89.5996-35.2051C89.5996-57.959 70.9961-76.6113 48.1934-76.6113C25.4395-76.6113 6.83594-57.959 6.83594-35.2051C6.83594-12.4512 25.4395 6.15234 48.2422 6.15234ZM48.2422-6.39648C32.2754-6.39648 19.4336-19.2871 19.4336-35.2051C19.4336-51.1719 32.2754-64.0137 48.1934-64.0137C64.1602-64.0137 77.002-51.1719 77.0508-35.2051C77.0508-19.2871 64.1602-6.39648 48.2422-6.39648ZM33.3496-28.7598C33.3496-26.8555 34.6191-25.6348 36.5234-25.6348L44.9707-25.6348L44.9707-19.4336C44.9707-16.9922 47.3145-12.2559 48.2422-12.2559C49.1699-12.2559 51.4648-16.9922 51.4648-19.4336L51.4648-25.6348L59.9121-25.6348C61.8164-25.6348 63.0859-26.8555 63.0859-28.7598C63.0859-32.6172 59.3262-36.2793 54.541-38.1348L53.9551-46.2891C56.6895-47.8027 58.6426-49.3652 59.4238-50.4395C59.9121-51.123 60.2539-51.8555 60.2539-52.5391C60.2539-53.9551 59.1309-54.9805 57.6172-54.9805L38.8184-54.9805C37.3047-54.9805 36.1816-53.9551 36.1816-52.5391C36.1816-51.8555 36.4746-51.0742 37.0117-50.4395C37.8906-49.4141 39.7461-47.8027 42.4805-46.2891L41.9434-38.1348C37.1094-36.2793 33.3496-32.6172 33.3496-28.7598Z"/>
  </g>
  <g id="Bold-S" transform="matrix(1 0 0 1 2292.44 696)">
   <path d="M47.5586 5.46875C69.873 5.46875 88.2324-12.8906 88.2324-35.2539C88.2324-57.5684 69.873-75.9277 47.5098-75.9277C25.1953-75.9277 6.83594-57.5684 6.83594-35.2539C6.83594-12.8906 25.1953 5.46875 47.5586 5.46875ZM47.5586-5.32227C30.957-5.32227 17.6758-18.6523 17.6758-35.2539C17.6758-51.8066 30.957-65.1367 47.5098-65.1367C64.1113-65.1367 77.4414-51.8066 77.4414-35.2539C77.4414-18.6523 64.1113-5.32227 47.5586-5.32227ZM32.5684-28.6133C32.5684-26.709 33.8379-25.5371 35.6934-25.5371L44.5312-25.5371L44.5312-19.3359C44.5312-16.1621 46.6797-11.7676 47.5586-11.7676C48.3887-11.7676 50.5859-16.1621 50.5859-19.3359L50.5859-25.5371L59.4238-25.5371C61.2793-25.5371 62.5-26.709 62.5-28.6133C62.5-32.4707 58.9355-36.377 53.9062-38.2812L53.3203-46.582C56.1523-48.1934 58.2031-49.8047 59.0332-50.9277C59.5703-51.6113 59.8633-52.3438 59.8633-53.0273C59.8633-54.3457 58.7891-55.3711 57.3242-55.3711L37.793-55.3711C36.2793-55.3711 35.2539-54.3457 35.2539-53.0273C35.2539-52.3438 35.498-51.6113 36.0352-50.9277C36.9629-49.8535 38.9648-48.1934 41.7969-46.582L41.2109-38.2812C36.1816-36.377 32.5684-32.4707 32.5684-28.6133Z"/>
  </g>
  <g id="Semibold-S" transform="matrix(1 0 0 1 1996.2 696)">
   <path d="M47.0703 4.98047C69.0918 4.98047 87.3047-13.1836 87.3047-35.2539C87.3047-57.2754 69.0918-75.4883 47.0215-75.4883C25-75.4883 6.83594-57.2754 6.83594-35.2539C6.83594-13.1836 25.0488 4.98047 47.0703 4.98047ZM47.0703-4.58984C30.0781-4.58984 16.4551-18.2129 16.4551-35.2539C16.4551-52.2461 30.0293-65.8691 47.0215-65.8691C64.0625-65.8691 77.6855-52.2461 77.7344-35.2539C77.7344-18.2129 64.0625-4.58984 47.0703-4.58984ZM32.0801-28.4668C32.0801-26.6113 33.252-25.4395 35.1074-25.4395L44.1895-25.4395L44.1895-19.2383C44.1895-15.5273 46.2402-11.377 47.0703-11.377C47.9004-11.377 49.9512-15.5273 49.9512-19.2383L49.9512-25.4395L59.0332-25.4395C60.8887-25.4395 62.1094-26.6113 62.1094-28.4668C62.1094-32.373 58.6426-36.4258 53.4668-38.3789L52.8809-46.8262C55.7617-48.4375 57.8613-50.0977 58.7891-51.2695C59.3262-51.9531 59.5703-52.6855 59.5703-53.3203C59.5703-54.6387 58.5449-55.6152 57.0801-55.6152L37.0605-55.6152C35.5957-55.6152 34.5703-54.6387 34.5703-53.3203C34.5703-52.6855 34.8145-51.9531 35.3516-51.2695C36.3281-50.1465 38.4277-48.4375 41.3086-46.8262L40.6738-38.3789C35.498-36.4258 32.0801-32.373 32.0801-28.4668Z"/>
  </g>
  <g id="Medium-S" transform="matrix(1 0 0 1 1699.83 696)">
   <path d="M46.7285 4.63867C68.5547 4.63867 86.6211-13.4277 86.6211-35.2539C86.6211-57.0801 68.5059-75.1465 46.6797-75.1465C24.8535-75.1465 6.83594-57.0801 6.83594-35.2539C6.83594-13.4277 24.9023 4.63867 46.7285 4.63867ZM46.7285-4.00391C29.3945-4.00391 15.5273-17.9199 15.5273-35.2539C15.5273-52.5879 29.3457-66.4551 46.6797-66.4551C64.0137-66.4551 77.8809-52.5879 77.9297-35.2539C77.9785-17.9199 64.0625-4.00391 46.7285-4.00391ZM31.6406-28.3691C31.6406-26.5625 32.8613-25.3906 34.668-25.3906L43.9453-25.3906L43.9453-19.1895C43.9453-15.0879 45.8984-11.1328 46.7285-11.1328C47.5098-11.1328 49.5117-15.0879 49.5117-19.1895L49.5117-25.3906L58.7402-25.3906C60.5957-25.3906 61.7676-26.5625 61.7676-28.3691C61.7676-32.2754 58.3984-36.4746 53.125-38.4277L52.5391-46.9727C55.4688-48.584 57.666-50.3418 58.5938-51.5625C59.1309-52.2461 59.375-52.9785 59.375-53.6133C59.375-54.8828 58.3984-55.8105 56.9336-55.8105L36.5234-55.8105C35.0586-55.8105 34.082-54.8828 34.082-53.6133C34.082-52.9785 34.3262-52.1973 34.8633-51.5625C35.8398-50.3418 37.9883-48.584 40.918-46.9727L40.2832-38.4277C35.0098-36.4746 31.6406-32.2754 31.6406-28.3691Z"/>
  </g>
  <g id="Regular-S" transform="matrix(1 0 0 1 1403.58 696)">
   <path d="M46.2402 4.15039C67.7734 4.15039 85.6934-13.7207 85.6934-35.2539C85.6934-56.7871 67.7246-74.6582 46.1914-74.6582C24.707-74.6582 6.83594-56.7871 6.83594-35.2539C6.83594-13.7207 24.7559 4.15039 46.2402 4.15039ZM46.2402-3.27148C28.5156-3.27148 14.3555-17.4805 14.3555-35.2539C14.3555-53.0273 28.4668-67.2363 46.1914-67.2363C63.9648-67.2363 78.1738-53.0273 78.2227-35.2539C78.2715-17.4805 64.0137-3.27148 46.2402-3.27148ZM31.1523-28.2227C31.1523-26.4648 32.2754-25.293 34.1309-25.293L43.6035-25.293L43.6035-19.0918C43.6035-14.502 45.5078-10.791 46.2402-10.791C47.0215-10.791 48.9258-14.502 48.9258-19.0918L48.9258-25.293L58.3984-25.293C60.2051-25.293 61.377-26.4648 61.377-28.2227C61.377-32.1777 58.1543-36.5234 52.7344-38.5254L52.0508-47.2168C55.0781-48.8281 57.3242-50.6348 58.3496-51.9043C58.8867-52.5879 59.1309-53.2715 59.1309-53.9062C59.1309-55.1758 58.1543-56.1035 56.6895-56.1035L35.791-56.1035C34.375-56.1035 33.3984-55.1758 33.3984-53.9062C33.3984-53.2715 33.6426-52.5391 34.1797-51.8555C35.2051-50.6348 37.4512-48.8281 40.4297-47.2168L39.7949-38.5254C34.375-36.5234 31.1523-32.1777 31.1523-28.2227Z"/>
  </g>
  <g id="Light-S" transform="matrix(1 0 0 1 1107.6 696)">
   <path d="M45.5078 3.41797C66.6992 3.41797 84.2285-14.0625 84.2285-35.2539C84.2285-56.4453 66.6504-73.9258 45.5078-73.9258C24.3164-73.9258 6.83594-56.4453 6.83594-35.2539C6.83594-14.0625 24.3652 3.41797 45.5078 3.41797ZM45.5078-2.29492C27.2461-2.29492 12.5977-16.9922 12.5977-35.2539C12.5977-53.5156 27.1973-68.2129 45.5078-68.2129C63.7695-68.2129 78.4668-53.5156 78.5156-35.2539C78.5156-16.9922 63.8184-2.29492 45.5078-2.29492ZM30.4688-27.7344C30.4688-26.1719 31.543-25.1465 33.1543-25.1465L43.3594-25.1465L43.3594-17.8223C43.3594-13.9648 44.873-10.791 45.5078-10.791C46.1426-10.791 47.6562-13.9648 47.6562-17.8223L47.6562-25.1465L57.8613-25.1465C59.5215-25.1465 60.5469-26.1719 60.5469-27.7344C60.5469-31.8848 57.1777-36.2793 51.7578-38.1836L51.0742-47.4121C53.7109-48.877 56.0547-50.6836 57.0801-52.0508C57.6172-52.7344 57.8613-53.418 57.8613-54.0039C57.8613-55.127 57.0312-55.957 55.7129-55.957L35.3516-55.957C34.0332-55.957 33.1543-55.127 33.1543-54.0039C33.1543-53.418 33.4473-52.6855 33.9844-52.002C35.0586-50.6348 37.3535-48.877 39.9414-47.4121L39.3066-38.1836C33.8379-36.2793 30.4688-31.8848 30.4688-27.7344Z"/>
  </g>
  <g id="Thin-S" transform="matrix(1 0 0 1 811.867 696)">
   <path d="M44.5801 2.49023C65.2832 2.49023 82.2754-14.5508 82.2754-35.2539C82.2754-55.957 65.2344-72.998 44.5312-72.998C23.8281-72.998 6.83594-55.957 6.83594-35.2539C6.83594-14.5508 23.877 2.49023 44.5801 2.49023ZM44.5801-0.927734C25.5859-0.927734 10.2539-16.3086 10.2539-35.2539C10.2539-54.1992 25.5859-69.5801 44.5312-69.5801C63.5254-69.5801 78.8574-54.1992 78.8574-35.2539C78.8574-16.3086 63.5254-0.927734 44.5801-0.927734ZM29.5898-27.0508C29.5898-25.7324 30.5176-24.9512 31.8848-24.9512L43.0176-24.9512L43.0176-16.0645C43.0176-13.2812 44.043-10.8398 44.5312-10.8398C45.0195-10.8398 46.0449-13.2812 46.0449-16.0645L46.0449-24.9512L57.1289-24.9512C58.5449-24.9512 59.4727-25.7324 59.4727-27.0508C59.4727-31.543 55.957-35.9375 50.4883-37.793L49.8047-47.6562C51.9043-48.9746 54.2969-50.7812 55.4688-52.2949C55.957-52.9297 56.25-53.6133 56.25-54.1016C56.25-55.127 55.5176-55.7617 54.3457-55.7617L34.7168-55.7617C33.5938-55.7617 32.8125-55.127 32.8125-54.1016C32.8125-53.5645 33.2031-52.8809 33.7402-52.1484C34.9121-50.6836 37.2559-48.9258 39.3066-47.6562L38.623-37.793C33.1055-35.9375 29.5898-31.543 29.5898-27.0508Z"/>
  </g>
  <g id="Ultralight-S" transform="matrix(1 0 0 1 515.644 696)">
   <path d="M44.043 1.95312C64.502 1.95312 81.2988-14.7949 81.2988-35.2539C81.2988-55.7129 64.502-72.4609 44.043-72.4609C23.584-72.4609 6.83594-55.7129 6.83594-35.2539C6.83594-14.7949 23.584 1.95312 44.043 1.95312ZM44.043-0.244141C24.7559-0.244141 9.08203-15.9668 9.08203-35.2539C9.08203-54.541 24.7559-70.2637 44.043-70.2637C63.3789-70.2637 79.0527-54.541 79.0527-35.2539C79.0527-15.9668 63.3789-0.244141 44.043-0.244141ZM29.1504-26.709C29.1504-25.5371 29.9805-24.8535 31.25-24.8535L42.8711-24.8535L42.8711-15.1855C42.8711-12.9395 43.6035-10.8398 43.9941-10.8398C44.4336-10.8398 45.2148-12.9395 45.2148-15.1855L45.2148-24.8535L56.7871-24.8535C58.0566-24.8535 58.9355-25.5371 58.9355-26.709C58.9355-31.3477 55.3223-35.7422 49.8047-37.5488L49.1211-47.8027C50.9766-49.0234 53.418-50.8301 54.6387-52.3926C55.127-53.0273 55.4199-53.7109 55.4199-54.1992C55.4199-55.0781 54.7852-55.6641 53.6621-55.6641L34.375-55.6641C33.3496-55.6641 32.666-55.0781 32.666-54.1992C32.666-53.6621 33.0566-52.9785 33.6426-52.2461C34.8145-50.6836 37.1582-48.9746 38.9648-47.8027L38.2812-37.5488C32.7637-35.7422 29.1504-31.3477 29.1504-26.709Z"/>
  </g>
 </g>
</svg>
