<?xml version="1.0" encoding="UTF-8"?>
<!--Generator: Apple Native CoreSVG 175-->
<!DOCTYPE svg
PUBLIC "-//W3C//DTD SVG 1.1//EN"
       "http://www.w3.org/Graphics/SVG/1.1/DTD/svg11.dtd">
<svg version="1.1" xmlns="http://www.w3.org/2000/svg" xmlns:xlink="http://www.w3.org/1999/xlink" width="3300" height="2200">
 <!--glyph: "uni100902.medium", point size: 100.0, font version: "17.1d1e1", template writer version: "65.1"-->
 <g id="Notes">
  <rect height="2200" id="artboard" style="fill:white;opacity:1" width="3300" x="0" y="0"/>
  <line style="fill:none;stroke:black;opacity:1;stroke-width:0.5;" x1="263" x2="3036" y1="292" y2="292"/>
  <text style="stroke:none;fill:black;font-family:sans-serif;font-size:13;font-weight:bold;" transform="matrix(1 0 0 1 263 322)">Weight/Scale Variations</text>
  <text style="stroke:none;fill:black;font-family:sans-serif;font-size:13;text-anchor:middle;" transform="matrix(1 0 0 1 559.711 322)">Ultralight</text>
  <text style="stroke:none;fill:black;font-family:sans-serif;font-size:13;text-anchor:middle;" transform="matrix(1 0 0 1 856.422 322)">Thin</text>
  <text style="stroke:none;fill:black;font-family:sans-serif;font-size:13;text-anchor:middle;" transform="matrix(1 0 0 1 1153.13 322)">Light</text>
  <text style="stroke:none;fill:black;font-family:sans-serif;font-size:13;text-anchor:middle;" transform="matrix(1 0 0 1 1449.84 322)">Regular</text>
  <text style="stroke:none;fill:black;font-family:sans-serif;font-size:13;text-anchor:middle;" transform="matrix(1 0 0 1 1746.56 322)">Medium</text>
  <text style="stroke:none;fill:black;font-family:sans-serif;font-size:13;text-anchor:middle;" transform="matrix(1 0 0 1 2043.27 322)">Semibold</text>
  <text style="stroke:none;fill:black;font-family:sans-serif;font-size:13;text-anchor:middle;" transform="matrix(1 0 0 1 2339.98 322)">Bold</text>
  <text style="stroke:none;fill:black;font-family:sans-serif;font-size:13;text-anchor:middle;" transform="matrix(1 0 0 1 2636.69 322)">Heavy</text>
  <text style="stroke:none;fill:black;font-family:sans-serif;font-size:13;text-anchor:middle;" transform="matrix(1 0 0 1 2933.4 322)">Black</text>
  <line style="fill:none;stroke:black;opacity:1;stroke-width:0.5;" x1="263" x2="3036" y1="1903" y2="1903"/>
  <g transform="matrix(1 0 0 1 263 1933)">
   <path d="M9.24805 0.830078Q10.8691 0.830078 12.2949 0.214844Q13.7207-0.400391 14.8096-1.49414Q15.8984-2.58789 16.5186-4.01367Q17.1387-5.43945 17.1387-7.05078Q17.1387-8.66211 16.5186-10.0879Q15.8984-11.5137 14.8047-12.6074Q13.7109-13.7012 12.2852-14.3164Q10.8594-14.9316 9.23828-14.9316Q7.62695-14.9316 6.20117-14.3164Q4.77539-13.7012 3.69141-12.6074Q2.60742-11.5137 1.9873-10.0879Q1.36719-8.66211 1.36719-7.05078Q1.36719-5.43945 1.9873-4.01367Q2.60742-2.58789 3.69629-1.49414Q4.78516-0.400391 6.21094 0.214844Q7.63672 0.830078 9.24805 0.830078ZM9.24805-0.654297Q7.91992-0.654297 6.7627-1.14746Q5.60547-1.64062 4.73145-2.51953Q3.85742-3.39844 3.36426-4.56055Q2.87109-5.72266 2.87109-7.05078Q2.87109-8.37891 3.35938-9.54102Q3.84766-10.7031 4.72168-11.582Q5.5957-12.4609 6.75293-12.9541Q7.91016-13.4473 9.23828-13.4473Q10.5762-13.4473 11.7334-12.9541Q12.8906-12.4609 13.7695-11.582Q14.6484-10.7031 15.1465-9.54102Q15.6445-8.37891 15.6445-7.05078Q15.6445-5.72266 15.1514-4.56055Q14.6582-3.39844 13.7842-2.51953Q12.9102-1.64062 11.748-1.14746Q10.5859-0.654297 9.24805-0.654297ZM5.6543-7.05078Q5.6543-6.72852 5.85938-6.52832Q6.06445-6.32812 6.40625-6.32812L8.51562-6.32812L8.51562-4.20898Q8.51562-3.88672 8.71094-3.67676Q8.90625-3.4668 9.23828-3.4668Q9.56055-3.4668 9.77051-3.67676Q9.98047-3.88672 9.98047-4.20898L9.98047-6.32812L12.0898-6.32812Q12.4219-6.32812 12.627-6.52832Q12.832-6.72852 12.832-7.05078Q12.832-7.38281 12.627-7.58789Q12.4219-7.79297 12.0898-7.79297L9.98047-7.79297L9.98047-9.90234Q9.98047-10.2344 9.77051-10.4443Q9.56055-10.6543 9.23828-10.6543Q8.90625-10.6543 8.71094-10.4443Q8.51562-10.2344 8.51562-9.90234L8.51562-7.79297L6.40625-7.79297Q6.06445-7.79297 5.85938-7.58789Q5.6543-7.38281 5.6543-7.05078Z"/>
  </g>
  <g transform="matrix(1 0 0 1 281.867 1933)">
   <path d="M11.709 2.91016Q13.75 2.91016 15.5518 2.12891Q17.3535 1.34766 18.7305-0.0292969Q20.1074-1.40625 20.8887-3.20801Q21.6699-5.00977 21.6699-7.05078Q21.6699-9.0918 20.8887-10.8936Q20.1074-12.6953 18.7305-14.0723Q17.3535-15.4492 15.5469-16.2305Q13.7402-17.0117 11.6992-17.0117Q9.6582-17.0117 7.85645-16.2305Q6.05469-15.4492 4.68262-14.0723Q3.31055-12.6953 2.5293-10.8936Q1.74805-9.0918 1.74805-7.05078Q1.74805-5.00977 2.5293-3.20801Q3.31055-1.40625 4.6875-0.0292969Q6.06445 1.34766 7.86621 2.12891Q9.66797 2.91016 11.709 2.91016ZM11.709 1.25Q9.98047 1.25 8.47656 0.605469Q6.97266-0.0390625 5.83496-1.17676Q4.69727-2.31445 4.05762-3.81836Q3.41797-5.32227 3.41797-7.05078Q3.41797-8.7793 4.05762-10.2832Q4.69727-11.7871 5.83008-12.9297Q6.96289-14.0723 8.4668-14.7119Q9.9707-15.3516 11.6992-15.3516Q13.4277-15.3516 14.9316-14.7119Q16.4355-14.0723 17.5781-12.9297Q18.7207-11.7871 19.3652-10.2832Q20.0098-8.7793 20.0098-7.05078Q20.0098-5.32227 19.3701-3.81836Q18.7305-2.31445 17.5928-1.17676Q16.4551-0.0390625 14.9463 0.605469Q13.4375 1.25 11.709 1.25ZM7.17773-7.05078Q7.17773-6.69922 7.41211-6.47461Q7.64648-6.25 8.01758-6.25L10.8887-6.25L10.8887-3.36914Q10.8887-2.99805 11.1133-2.76855Q11.3379-2.53906 11.6895-2.53906Q12.0605-2.53906 12.29-2.76855Q12.5195-2.99805 12.5195-3.36914L12.5195-6.25L15.4004-6.25Q15.7715-6.25 16.001-6.47461Q16.2305-6.69922 16.2305-7.05078Q16.2305-7.42188 16.001-7.65137Q15.7715-7.88086 15.4004-7.88086L12.5195-7.88086L12.5195-10.752Q12.5195-11.1328 12.29-11.3623Q12.0605-11.5918 11.6895-11.5918Q11.3379-11.5918 11.1133-11.3574Q10.8887-11.123 10.8887-10.752L10.8887-7.88086L8.01758-7.88086Q7.63672-7.88086 7.40723-7.65137Q7.17773-7.42188 7.17773-7.05078Z"/>
  </g>
  <g transform="matrix(1 0 0 1 305.646 1933)">
   <path d="M14.9707 5.66406Q17.0605 5.66406 18.96 5.01465Q20.8594 4.36523 22.4512 3.19336Q24.043 2.02148 25.2197 0.429688Q26.3965-1.16211 27.0459-3.06641Q27.6953-4.9707 27.6953-7.05078Q27.6953-9.14062 27.0459-11.04Q26.3965-12.9395 25.2197-14.5312Q24.043-16.123 22.4512-17.2998Q20.8594-18.4766 18.9551-19.126Q17.0508-19.7754 14.9609-19.7754Q12.8711-19.7754 10.9717-19.126Q9.07227-18.4766 7.48535-17.2998Q5.89844-16.123 4.72168-14.5312Q3.54492-12.9395 2.90039-11.04Q2.25586-9.14062 2.25586-7.05078Q2.25586-4.9707 2.90527-3.06641Q3.55469-1.16211 4.72656 0.429688Q5.89844 2.02148 7.49023 3.19336Q9.08203 4.36523 10.9814 5.01465Q12.8809 5.66406 14.9707 5.66406ZM14.9707 3.84766Q13.1641 3.84766 11.5283 3.2959Q9.89258 2.74414 8.53516 1.74805Q7.17773 0.751953 6.17676-0.610352Q5.17578-1.97266 4.62891-3.6084Q4.08203-5.24414 4.08203-7.05078Q4.08203-8.86719 4.62891-10.5029Q5.17578-12.1387 6.17188-13.501Q7.16797-14.8633 8.52539-15.8594Q9.88281-16.8555 11.5186-17.4023Q13.1543-17.9492 14.9609-17.9492Q16.7773-17.9492 18.4131-17.4023Q20.0488-16.8555 21.4111-15.8594Q22.7734-14.8633 23.7695-13.501Q24.7656-12.1387 25.3174-10.5029Q25.8691-8.86719 25.8691-7.05078Q25.8789-5.24414 25.332-3.6084Q24.7852-1.97266 23.7842-0.610352Q22.7832 0.751953 21.4209 1.74805Q20.0586 2.74414 18.4229 3.2959Q16.7871 3.84766 14.9707 3.84766ZM9.19922-7.05078Q9.19922-6.66992 9.45801-6.4209Q9.7168-6.17188 10.1172-6.17188L14.0625-6.17188L14.0625-2.2168Q14.0625-1.81641 14.3115-1.55762Q14.5605-1.29883 14.9512-1.29883Q15.3516-1.29883 15.6104-1.55273Q15.8691-1.80664 15.8691-2.2168L15.8691-6.17188L19.8242-6.17188Q20.2246-6.17188 20.4785-6.4209Q20.7324-6.66992 20.7324-7.05078Q20.7324-7.46094 20.4785-7.71484Q20.2246-7.96875 19.8242-7.96875L15.8691-7.96875L15.8691-11.9141Q15.8691-12.3242 15.6104-12.583Q15.3516-12.8418 14.9512-12.8418Q14.5605-12.8418 14.3115-12.583Q14.0625-12.3242 14.0625-11.9141L14.0625-7.96875L10.1172-7.96875Q9.70703-7.96875 9.45312-7.71484Q9.19922-7.46094 9.19922-7.05078Z"/>
  </g>
  <text style="stroke:none;fill:black;font-family:sans-serif;font-size:13;font-weight:bold;" transform="matrix(1 0 0 1 263 1953)">Design Variations</text>
  <text style="stroke:none;fill:black;font-family:sans-serif;font-size:13;" transform="matrix(1 0 0 1 263 1971)">Symbols are supported in up to nine weights and three scales.</text>
  <text style="stroke:none;fill:black;font-family:sans-serif;font-size:13;" transform="matrix(1 0 0 1 263 1989)">For optimal layout with text and other symbols, vertically align</text>
  <text style="stroke:none;fill:black;font-family:sans-serif;font-size:13;" transform="matrix(1 0 0 1 263 2007)">symbols with the adjacent text.</text>
  <line style="fill:none;stroke:#00AEEF;stroke-width:0.5;opacity:1.0;" x1="776" x2="776" y1="1919" y2="1933"/>
  <g transform="matrix(1 0 0 1 776 1933)">
   <path d="M3.31055 0.15625Q3.70117 0.15625 3.91602-0.00976562Q4.13086-0.175781 4.26758-0.585938L5.52734-4.0332L11.2891-4.0332L12.5488-0.585938Q12.6855-0.175781 12.9004-0.00976562Q13.1152 0.15625 13.4961 0.15625Q13.8867 0.15625 14.1162-0.0585938Q14.3457-0.273438 14.3457-0.644531Q14.3457-0.869141 14.2383-1.17188L9.6582-13.3691Q9.48242-13.8184 9.17969-14.043Q8.87695-14.2676 8.4082-14.2676Q7.5-14.2676 7.17773-13.3789L2.59766-1.16211Q2.49023-0.859375 2.49023-0.634766Q2.49023-0.263672 2.70996-0.0537109Q2.92969 0.15625 3.31055 0.15625ZM6.00586-5.51758L8.37891-12.0898L8.42773-12.0898L10.8008-5.51758Z"/>
  </g>
  <line style="fill:none;stroke:#00AEEF;stroke-width:0.5;opacity:1.0;" x1="793.197" x2="793.197" y1="1919" y2="1933"/>
  <text style="stroke:none;fill:black;font-family:sans-serif;font-size:13;font-weight:bold;" transform="matrix(1 0 0 1 776 1953)">Margins</text>
  <text style="stroke:none;fill:black;font-family:sans-serif;font-size:13;" transform="matrix(1 0 0 1 776 1971)">Leading and trailing margins on the left and right side of each symbol</text>
  <text style="stroke:none;fill:black;font-family:sans-serif;font-size:13;" transform="matrix(1 0 0 1 776 1989)">can be adjusted by modifying the x-location of the margin guidelines.</text>
  <text style="stroke:none;fill:black;font-family:sans-serif;font-size:13;" transform="matrix(1 0 0 1 776 2007)">Modifications are automatically applied proportionally to all</text>
  <text style="stroke:none;fill:black;font-family:sans-serif;font-size:13;" transform="matrix(1 0 0 1 776 2025)">scales and weights.</text>
  <g transform="matrix(1 0 0 1 1289 1933)">
   <path d="M2.8418 1.86523L4.54102 3.57422Q5.18555 4.22852 5.90332 4.17969Q6.62109 4.13086 7.31445 3.35938L18.0078-8.42773L17.041-9.4043L6.42578 2.27539Q6.16211 2.57812 5.89355 2.61719Q5.625 2.65625 5.27344 2.30469L4.10156 1.14258Q3.75 0.791016 3.79395 0.522461Q3.83789 0.253906 4.14062-0.0195312L15.6152-10.8203L14.6387-11.7871L3.04688-0.898438Q2.30469-0.214844 2.25098 0.498047Q2.19727 1.21094 2.8418 1.86523ZM9.25781-16.3281Q8.94531-16.0254 8.90625-15.6348Q8.86719-15.2441 9.04297-14.9512Q9.21875-14.6777 9.55566-14.541Q9.89258-14.4043 10.3809-14.5215Q11.4746-14.7754 12.5977-14.7314Q13.7207-14.6875 14.7949-13.9844L14.209-12.5293Q13.9551-11.9043 14.0674-11.4404Q14.1797-10.9766 14.5801-10.5664L16.875-8.25195Q17.2363-7.88086 17.5781-7.82227Q17.9199-7.76367 18.3398-7.8418L19.4043-8.03711L20.0684-7.36328L20.0293-6.80664Q20-6.43555 20.1221-6.12305Q20.2441-5.81055 20.6055-5.44922L21.3672-4.70703Q21.7285-4.3457 22.1533-4.33105Q22.5781-4.31641 22.9297-4.66797L25.8398-7.58789Q26.1914-7.93945 26.1816-8.35449Q26.1719-8.76953 25.8105-9.13086L25.0391-9.89258Q24.6875-10.2539 24.3799-10.3857Q24.0723-10.5176 23.7109-10.4883L23.1348-10.4395L22.4902-11.0742L22.7344-12.1973Q22.832-12.6172 22.6953-12.9834Q22.5586-13.3496 22.1191-13.7891L19.9219-15.9766Q18.6719-17.2168 17.2607-17.8369Q15.8496-18.457 14.4189-18.4814Q12.9883-18.5059 11.665-17.959Q10.3418-17.4121 9.25781-16.3281ZM10.752-15.957Q11.6602-16.6211 12.7002-16.9043Q13.7402-17.1875 14.8047-17.085Q15.8691-16.9824 16.8701-16.5137Q17.8711-16.0449 18.7012-15.2051L21.1328-12.793Q21.3086-12.6172 21.3525-12.4512Q21.3965-12.2852 21.3379-12.0312L21.0156-10.5469L22.5195-9.0625L23.5059-9.12109Q23.6914-9.13086 23.7891-9.09668Q23.8867-9.0625 24.0332-8.91602L24.6094-8.33984L22.168-5.89844L21.5918-6.47461Q21.4453-6.62109 21.4062-6.71875Q21.3672-6.81641 21.377-7.01172L21.4453-7.98828L19.9512-9.47266L18.4277-9.21875Q18.1836-9.16992 18.042-9.2041Q17.9004-9.23828 17.7148-9.41406L15.7129-11.416Q15.5176-11.5918 15.4932-11.7529Q15.4688-11.9141 15.5859-12.1875L16.4648-14.2773Q15.293-15.3711 13.8281-15.791Q12.3633-16.2109 10.8398-15.7617Q10.7227-15.7324 10.6885-15.8057Q10.6543-15.8789 10.752-15.957Z"/>
  </g>
  <text style="stroke:none;fill:black;font-family:sans-serif;font-size:13;font-weight:bold;" transform="matrix(1 0 0 1 1289 1953)">Exporting</text>
  <text style="stroke:none;fill:black;font-family:sans-serif;font-size:13;" transform="matrix(1 0 0 1 1289 1971)">Symbols should be outlined when exporting to ensure the</text>
  <text style="stroke:none;fill:black;font-family:sans-serif;font-size:13;" transform="matrix(1 0 0 1 1289 1989)">design is preserved when submitting to Xcode.</text>
  <text id="template-version" style="stroke:none;fill:black;font-family:sans-serif;font-size:13;text-anchor:end;" transform="matrix(1 0 0 1 3036 1933)">Template v.2.0</text>
  <text style="stroke:none;fill:black;font-family:sans-serif;font-size:13;text-anchor:end;" transform="matrix(1 0 0 1 3036 1951)">Requires Xcode 12 or greater</text>
  <text id="descriptive-name" style="stroke:none;fill:black;font-family:sans-serif;font-size:13;text-anchor:end;" transform="matrix(1 0 0 1 3036 1969)">Generated from externaldrive</text>
  <text style="stroke:none;fill:black;font-family:sans-serif;font-size:13;text-anchor:end;" transform="matrix(1 0 0 1 3036 1987)">Typeset at 100 points</text>
  <text style="stroke:none;fill:black;font-family:sans-serif;font-size:13;" transform="matrix(1 0 0 1 263 726)">Small</text>
  <text style="stroke:none;fill:black;font-family:sans-serif;font-size:13;" transform="matrix(1 0 0 1 263 1156)">Medium</text>
  <text style="stroke:none;fill:black;font-family:sans-serif;font-size:13;" transform="matrix(1 0 0 1 263 1586)">Large</text>
 </g>
 <g id="Guides">
  <g id="H-reference" style="fill:#27AAE1;stroke:none;" transform="matrix(1 0 0 1 339 696)">
   <path d="M0.993347 0L3.6377 0L29.3282-67.1326L30.0301-67.1326L30.0301-70.459L28.1227-70.459ZM11.6882-24.4797L46.9818-24.4797L46.2311-26.7288L12.4382-26.7288ZM55.1193 0L57.7637 0L30.6381-70.459L29.4327-70.459L29.4327-67.1326Z"/>
  </g>
  <line id="Baseline-S" style="fill:none;stroke:#27AAE1;opacity:1;stroke-width:0.5;" x1="263" x2="3036" y1="696" y2="696"/>
  <line id="Capline-S" style="fill:none;stroke:#27AAE1;opacity:1;stroke-width:0.5;" x1="263" x2="3036" y1="625.541" y2="625.541"/>
  <g id="H-reference" style="fill:#27AAE1;stroke:none;" transform="matrix(1 0 0 1 339 1126)">
   <path d="M0.993347 0L3.6377 0L29.3282-67.1326L30.0301-67.1326L30.0301-70.459L28.1227-70.459ZM11.6882-24.4797L46.9818-24.4797L46.2311-26.7288L12.4382-26.7288ZM55.1193 0L57.7637 0L30.6381-70.459L29.4327-70.459L29.4327-67.1326Z"/>
  </g>
  <line id="Baseline-M" style="fill:none;stroke:#27AAE1;opacity:1;stroke-width:0.5;" x1="263" x2="3036" y1="1126" y2="1126"/>
  <line id="Capline-M" style="fill:none;stroke:#27AAE1;opacity:1;stroke-width:0.5;" x1="263" x2="3036" y1="1055.54" y2="1055.54"/>
  <g id="H-reference" style="fill:#27AAE1;stroke:none;" transform="matrix(1 0 0 1 339 1556)">
   <path d="M0.993347 0L3.6377 0L29.3282-67.1326L30.0301-67.1326L30.0301-70.459L28.1227-70.459ZM11.6882-24.4797L46.9818-24.4797L46.2311-26.7288L12.4382-26.7288ZM55.1193 0L57.7637 0L30.6381-70.459L29.4327-70.459L29.4327-67.1326Z"/>
  </g>
  <line id="Baseline-L" style="fill:none;stroke:#27AAE1;opacity:1;stroke-width:0.5;" x1="263" x2="3036" y1="1556" y2="1556"/>
  <line id="Capline-L" style="fill:none;stroke:#27AAE1;opacity:1;stroke-width:0.5;" x1="263" x2="3036" y1="1485.54" y2="1485.54"/>
  <line id="left-margin" style="fill:none;stroke:#00AEEF;stroke-width:0.5;opacity:1.0;" x1="1379.76" x2="1379.76" y1="1030.79" y2="1150.12"/>
  <line id="right-margin" style="fill:none;stroke:#00AEEF;stroke-width:0.5;opacity:1.0;" x1="1519.93" x2="1519.93" y1="1030.79" y2="1150.12"/>
 </g>
 <g id="Symbols">
  <g id="Black-L" transform="matrix(1 0 0 1 2836.41 1556)">
   <path d="M16.084-9.5313Q16.084 0.38105 20.3731 7.91078Q24.6623 15.4405 32.345 19.6797Q40.0277 23.919 50.2251 23.919L143.764 23.919Q153.963 23.919 161.644 19.6797Q169.326 15.4405 173.615 7.91078Q177.905 0.38105 177.905-9.5313Q177.905-14.3093 176.778-18.4853Q175.651-22.6612 173.977-26.3507L151.359-76.4711Q147.509-85.0391 140.46-89.667Q133.412-94.2949 123.419-94.2949L70.7075-94.2949Q60.6942-94.2949 53.6458-89.667Q46.5975-85.0391 42.7472-76.4711L20.6534-27.402Q18.8643-23.4789 17.4741-19.0693Q16.084-14.6598 16.084-9.5313ZM34.3123-9.5313Q34.3123-14.0421 36.2913-17.4686Q38.2704-20.895 41.8491-22.8235Q45.4279-24.752 50.2251-24.752L143.764-24.752Q148.561-24.752 152.14-22.8235Q155.719-20.895 157.698-17.4686Q159.677-14.0421 159.677-9.5313Q159.677-4.83392 157.698-1.4282Q155.719 1.97753 152.14 3.82374Q148.561 5.66996 143.764 5.66996L50.2251 5.66996Q45.4279 5.66996 41.8491 3.74084Q38.2704 1.81171 36.2913-1.60437Q34.3123-5.02046 34.3123-9.5313ZM46.2779-42.5686L59.7024-72.9411Q62.2376-78.7799 69.7948-78.7799L124.332-78.7799Q131.868-78.7799 134.404-72.9411L147.828-42.5699Q146.837-42.7446 145.834-42.8631Q144.832-42.9816 143.764-42.9816L50.2251-42.9816Q49.2157-42.9816 48.2127-42.8624Q47.2097-42.7433 46.2779-42.5686ZM133.316-9.5313Q133.316-5.69155 136.035-2.98552Q138.754-0.279491 142.573-0.356052Q146.387-0.413172 149.076-3.05365Q151.766-5.69413 151.766-9.5313Q151.766-13.266 149.047-15.9863Q146.328-18.7065 142.573-18.7065Q138.812-18.7065 136.064-15.9863Q133.316-13.266 133.316-9.5313Z"/>
  </g>
  <g id="Heavy-L" transform="matrix(1 0 0 1 2541.33 1556)">
   <path d="M16.084-9.57033Q16.084-0.134631 20.2498 7.10998Q24.4157 14.3546 31.8449 18.4684Q39.2741 22.5821 49.0758 22.5821L141.642 22.5821Q151.45 22.5821 158.873 18.4684Q166.296 14.3546 170.465 7.10998Q174.634-0.134631 174.634-9.57033Q174.634-14.0394 173.562-17.9847Q172.49-21.9299 170.927-25.4344L148.544-75.8133Q144.879-84.0967 138.071-88.5227Q131.263-92.9486 121.694-92.9486L69.1434-92.9486Q59.5444-92.9486 52.7365-88.5227Q45.9285-84.0967 42.2631-75.8133L20.276-26.2376Q18.6295-22.5546 17.3567-18.4309Q16.084-14.3072 16.084-9.57033ZM32.2432-9.57033Q32.2432-14.2565 34.3422-17.8631Q36.4413-21.4697 40.2294-23.5136Q44.0175-25.5576 49.0758-25.5576L141.642-25.5576Q146.701-25.5576 150.489-23.5136Q154.277-21.4697 156.376-17.8631Q158.475-14.2565 158.475-9.57033Q158.475-4.61627 156.376-1.03947Q154.277 2.53734 150.489 4.46527Q146.701 6.39321 141.642 6.39321L49.0758 6.39321Q44.0175 6.39321 40.2294 4.34623Q36.4413 2.29925 34.3422-1.29244Q32.2432-4.88413 32.2432-9.57033ZM43.7147-40.9598L57.375-72.5304Q60.1734-79.1282 68.545-79.1282L122.292-79.1282Q130.634-79.1282 133.432-72.5304L147.093-40.9658Q145.801-41.3129 144.445-41.5179Q143.089-41.7228 141.642-41.7228L49.0758-41.7228Q47.6733-41.7228 46.3144-41.5149Q44.9554-41.3069 43.7147-40.9598ZM131.783-9.57033Q131.783-5.85986 134.405-3.26479Q137.027-0.669727 140.708-0.732041Q144.365-0.770628 146.964-3.32128Q149.564-5.87193 149.564-9.57033Q149.564-13.1525 146.942-15.7806Q144.32-18.4086 140.708-18.4086Q137.072-18.4086 134.428-15.7806Q131.783-13.1525 131.783-9.57033Z"/>
  </g>
  <g id="Bold-L" transform="matrix(1 0 0 1 2246.62 1556)">
   <path d="M16.084-9.57083Q16.084-0.731642 20.0831 6.14653Q24.0823 13.0247 31.1703 16.9723Q38.2584 20.9198 47.5195 20.9198L139.203 20.9198Q148.478 20.9198 155.552 16.9723Q162.626 13.0247 166.632 6.14653Q170.638-0.731642 170.638-9.57083Q170.638-13.6742 169.633-17.3426Q168.627-21.011 167.187-24.2886L144.918-75.0631Q141.48-82.9475 135.011-87.1087Q128.542-91.2699 119.545-91.2699L67.2729-91.2699Q58.2381-91.2699 51.7696-87.1087Q45.3011-82.9475 41.8627-75.0631L19.8423-24.8143Q18.3582-21.4199 17.2211-17.6346Q16.084-13.8494 16.084-9.57083ZM29.6437-9.57083Q29.6437-14.4676 31.887-18.2929Q34.1304-22.1183 38.1585-24.3029Q42.1866-26.4876 47.5195-26.4876L139.203-26.4876Q144.536-26.4876 148.564-24.3029Q152.592-22.1183 154.835-18.2929Q157.079-14.4676 157.079-9.57083Q157.079-4.34114 154.835-0.552809Q152.592 3.23553 148.564 5.27934Q144.536 7.32315 139.203 7.32315L47.5195 7.32315Q42.1866 7.32315 38.1585 5.13137Q34.1304 2.9396 31.887-0.867229Q29.6437-4.67406 29.6437-9.57083ZM40.43-38.8031L54.6391-72.1227Q57.7579-79.5869 66.9742-79.5869L119.843-79.5869Q129.023-79.5869 132.142-72.1227L146.351-38.8173Q144.701-39.4034 142.91-39.7325Q141.12-40.0615 139.203-40.0615L47.5195-40.0615Q45.6313-40.0615 43.8339-39.7253Q42.0364-39.3892 40.43-38.8031ZM130.026-9.57083Q130.026-6.01647 132.531-3.55849Q135.036-1.10051 138.553-1.13825Q142.014-1.15323 144.504-3.59907Q146.994-6.04492 146.994-9.57083Q146.994-12.9651 144.489-15.4843Q141.985-18.0034 138.553-18.0034Q135.065-18.0034 132.546-15.4843Q130.026-12.9651 130.026-9.57083Z"/>
  </g>
  <g id="Semibold-L" transform="matrix(1 0 0 1 1951.28 1556)">
   <path d="M16.084-9.57117Q16.084-1.14322 19.9682 5.48234Q23.8524 12.1079 30.7053 15.9408Q37.5582 19.7738 46.4465 19.7738L137.521 19.7738Q146.429 19.7738 153.262 15.9408Q160.095 12.1079 163.989 5.48234Q167.883-1.14322 167.883-9.57117Q167.883-13.4224 166.923-16.9Q165.963-20.3776 164.609-23.4987L142.418-74.5459Q139.136-82.1553 132.902-86.134Q126.667-90.1126 118.063-90.1126L65.9834-90.1126Q57.3376-90.1126 51.1031-86.134Q44.8686-82.1553 41.5866-74.5459L19.5434-23.833Q18.1712-20.6376 17.1276-17.0857Q16.084-13.5339 16.084-9.57117ZM27.8516-9.57117Q27.8516-14.6131 30.1944-18.5892Q32.5373-22.5654 36.7308-24.847Q40.9243-27.1287 46.4465-27.1287L137.521-27.1287Q143.043-27.1287 147.237-24.847Q151.43-22.5654 153.773-18.5892Q156.116-14.6131 156.116-9.57117Q156.116-4.15147 153.773-0.217311Q151.43 3.71685 147.237 5.84055Q143.043 7.96424 137.521 7.96424L46.4465 7.96424Q40.9243 7.96424 36.7308 5.67265Q32.5373 3.38106 30.1944-0.57409Q27.8516-4.52924 27.8516-9.57117ZM38.1656-37.3163L52.753-71.8417Q56.0927-79.9031 65.8913-79.9031L118.155-79.9031Q127.912-79.9031 131.252-71.8417L145.839-37.3362Q143.942-38.0871 141.852-38.5016Q139.762-38.9161 137.521-38.9161L46.4465-38.9161Q44.2236-38.9161 42.1239-38.4917Q40.0241-38.0672 38.1656-37.3163ZM128.815-9.57117Q128.815-6.12444 131.239-3.76096Q133.663-1.39748 137.068-1.41829Q140.393-1.41699 142.808-3.79059Q145.223-6.16418 145.223-9.57117Q145.223-12.8359 142.799-15.28Q140.374-17.7241 137.068-17.7241Q133.682-17.7241 131.248-15.28Q128.815-12.8359 128.815-9.57117Z"/>
  </g>
  <g id="Medium-L" transform="matrix(1 0 0 1 1655.62 1556)">
   <path d="M16.084-9.57143Q16.084-1.45529 19.8811 4.97872Q23.6781 11.4127 30.3527 15.1588Q37.0272 18.9048 45.633 18.9048L136.246 18.9048Q144.876 18.9048 151.526 15.1588Q158.176 11.4127 161.986 4.97872Q165.795-1.45529 165.795-9.57143Q165.795-13.2315 164.869-16.5644Q163.944-19.8972 162.654-22.8998L140.522-74.1537Q137.359-81.5546 131.302-85.3948Q125.245-89.2351 116.94-89.2351L65.0056-89.2351Q56.6548-89.2351 50.5977-85.3948Q44.5406-81.5546 41.3773-74.1537L19.3167-23.089Q18.0294-20.0444 17.0567-16.6695Q16.084-13.2946 16.084-9.57143ZM26.4927-9.57143Q26.4927-14.7234 28.911-18.8139Q31.3293-22.9044 35.6483-25.2596Q39.9672-27.6148 45.633-27.6148L136.246-27.6148Q141.911-27.6148 146.23-25.2596Q150.549-22.9044 152.968-18.8139Q155.386-14.7234 155.386-9.57143Q155.386-4.00766 152.968 0.0370772Q150.549 4.08181 146.23 6.26608Q141.911 8.45035 136.246 8.45035L45.633 8.45035Q39.9672 8.45035 35.6483 6.08307Q31.3293 3.71579 28.911-0.35182Q26.4927-4.41943 26.4927-9.57143ZM36.4486-36.1889L51.3228-71.6286Q54.8301-80.1429 65.0702-80.1429L116.875-80.1429Q127.07-80.1429 130.577-71.6286L145.451-36.2131Q143.367-37.0889 141.05-37.5683Q138.733-38.0477 136.246-38.0477L45.633-38.0477Q43.1562-38.0477 40.8273-37.5562Q38.4983-37.0648 36.4486-36.1889ZM127.896-9.57143Q127.896-6.2063 130.259-3.91448Q132.622-1.62266 135.941-1.63062Q139.164-1.61698 141.522-3.9358Q143.88-6.25461 143.88-9.57143Q143.88-12.7379 141.517-15.1251Q139.154-17.5122 135.941-17.5122Q132.633-17.5122 130.264-15.1251Q127.896-12.7379 127.896-9.57143Z"/>
  </g>
  <g id="Regular-L" transform="matrix(1 0 0 1 1360.27 1556)">
   <path d="M16.084-9.57177Q16.084-1.86234 19.7674 4.32182Q23.4508 10.506 29.8928 14.1387Q36.3347 17.7714 44.5719 17.7714L134.582 17.7714Q142.849 17.7714 149.261 14.1387Q155.674 10.506 159.372 4.32182Q163.07-1.86234 163.07-9.57177Q163.07-12.9825 162.19-16.1266Q161.31-19.2707 160.104-22.1185L138.05-73.6422Q135.041-80.771 129.216-84.4308Q123.39-88.0905 115.475-88.0905L63.7303-88.0905Q55.7641-88.0905 49.9385-84.4308Q44.1128-80.771 41.1042-73.6422L19.021-22.1185Q17.8444-19.2707 16.9642-16.1266Q16.084-12.9825 16.084-9.57177ZM24.7203-9.57177Q24.7203-14.8673 27.237-19.107Q29.7537-23.3466 34.2363-25.7977Q38.7188-28.2489 44.5719-28.2489L134.582-28.2489Q140.435-28.2489 144.918-25.7977Q149.401-23.3466 151.917-19.107Q154.434-14.8673 154.434-9.57177Q154.434-3.82007 151.917 0.368888Q149.401 4.55784 144.918 6.82112Q140.435 9.0844 134.582 9.0844L44.5719 9.0844Q38.7188 9.0844 34.2363 6.6184Q29.7537 4.15239 27.237-0.061903Q24.7203-4.2762 24.7203-9.57177ZM34.209-34.7185L49.4574-71.3506Q53.1831-80.4556 63.9992-80.4556L115.206-80.4556Q125.971-80.4556 129.697-71.3506L144.945-34.7482Q142.616-35.787 140.003-36.351Q137.39-36.915 134.582-36.915L44.5719-36.915Q41.7639-36.915 39.136-36.3361Q36.5081-35.7573 34.209-34.7185ZM126.698-9.57177Q126.698-6.31309 128.981-4.11473Q131.264-1.91638 134.472-1.90758Q137.561-1.87784 139.844-4.1252Q142.128-6.37256 142.128-9.57177Q142.128-12.6101 139.844-14.923Q137.561-17.236 134.472-17.236Q131.264-17.236 128.981-14.923Q126.698-12.6101 126.698-9.57177Z"/>
  </g>
  <g id="Light-L" transform="matrix(1 0 0 1 1064.76 1556)">
   <path d="M16.084-9.26394Q16.084-2.006 19.5622 3.83956Q23.0403 9.68511 29.0719 13.1331Q35.1034 16.5812 42.6428 16.5812L134.11 16.5812Q141.7 16.5812 147.681 13.1331Q153.663 9.68511 157.166 3.83956Q160.669-2.006 160.669-9.26394Q160.669-12.531 159.82-15.5417Q158.97-18.5525 157.764-21.2566L134.643-73.5395Q131.778-80.0938 126.456-83.4765Q121.133-86.8592 113.915-86.8592L62.8684-86.8592Q55.6204-86.8592 50.2976-83.4765Q44.9748-80.0938 42.1098-73.5395L18.9389-21.2566Q17.7829-18.5525 16.9334-15.5417Q16.084-12.531 16.084-9.26394ZM22.6887-9.26394Q22.6887-14.6621 25.2772-19.0249Q27.8657-23.3877 32.3893-25.9209Q36.9129-28.4541 42.6428-28.4541L134.11-28.4541Q139.84-28.4541 144.364-25.9209Q148.887-23.3877 151.476-19.0249Q154.064-14.6621 154.064-9.26394Q154.064-3.59433 151.476 0.738284Q148.887 5.07089 144.364 7.50861Q139.84 9.94632 134.11 9.94632L42.6428 9.94632Q36.9129 9.94632 32.3893 7.38797Q27.8657 4.82962 25.2772 0.481929Q22.6887-3.86576 22.6887-9.26394ZM31.2334-32.1738L48.5134-71.72Q52.4238-80.9482 62.7679-80.9482L114.015-80.9482Q124.329-80.9482 128.24-71.72L145.52-32.224Q143.027-33.5911 140.137-34.3501Q137.247-35.109 134.11-35.109L42.6428-35.109Q39.5065-35.109 36.5913-34.325Q33.6761-33.5409 31.2334-32.1738ZM126.39-9.26394Q126.39-6.08734 128.612-3.98134Q130.833-1.87533 133.98-1.80497Q136.925-1.75471 139.147-3.97129Q141.368-6.18786 141.368-9.26394Q141.368-12.1792 139.147-14.451Q136.925-16.7229 133.98-16.7229Q130.833-16.7229 128.612-14.451Q126.39-12.1792 126.39-9.26394Z"/>
  </g>
  <g id="Thin-L" transform="matrix(1 0 0 1 769.64 1556)">
   <path d="M16.084-8.85681Q16.084-2.19599 19.2907 3.20172Q22.4975 8.59943 27.9862 11.8032Q33.4749 15.0069 40.0915 15.0069L133.486 15.0069Q140.18 15.0069 145.591 11.8032Q151.003 8.59943 154.248 3.20172Q157.494-2.19599 157.494-8.85681Q157.494-11.9339 156.685-14.7682Q155.876-17.6025 154.67-20.1166L130.138-73.4038Q127.463-79.1981 122.805-82.2144Q118.147-85.2307 111.852-85.2307L61.7284-85.2307Q55.4304-85.2307 50.7726-82.2144Q46.1147-79.1981 43.4397-73.4038L18.8303-20.1166Q17.7014-17.6025 16.8927-14.7682Q16.084-11.9339 16.084-8.85681ZM20.0016-8.85681Q20.0016-14.3907 22.6851-18.9163Q25.3686-23.4419 29.9465-26.0837Q34.5244-28.7255 40.0915-28.7255L133.486-28.7255Q139.053-28.7255 143.631-26.0837Q148.209-23.4419 150.892-18.9163Q153.576-14.3907 153.576-8.85681Q153.576-3.29576 150.892 1.22684Q148.209 5.74944 143.631 8.41786Q139.053 11.0863 133.486 11.0863L40.0915 11.0863Q34.5244 11.0863 29.9465 8.40579Q25.3686 5.7253 22.6851 1.20119Q20.0016-3.32292 20.0016-8.85681ZM27.2978-28.8082L47.2649-72.2086Q51.4196-81.5996 61.1393-81.5996L112.441-81.5996Q122.158-81.5996 126.313-72.2086L146.28-28.8856Q143.57-30.687 140.313-31.7037Q137.057-32.7205 133.486-32.7205L40.0915-32.7205Q36.5209-32.7205 33.2257-31.665Q29.9305-30.6095 27.2978-28.8082ZM125.983-8.85681Q125.983-5.78878 128.123-3.80492Q130.263-1.82105 133.328-1.66926Q136.084-1.59186 138.224-3.76772Q140.364-5.94359 140.364-8.85681Q140.364-11.6092 138.224-13.8268Q136.084-16.0444 133.328-16.0444Q130.263-16.0444 128.123-13.8268Q125.983-11.6092 125.983-8.85681Z"/>
  </g>
  <g id="Ultralight-L" transform="matrix(1 0 0 1 473.744 1556)">
   <path d="M16.084-8.64828Q16.084-2.29331 19.1517 2.87502Q22.2195 8.04335 27.4301 11.122Q32.6408 14.2006 38.7847 14.2006L133.166 14.2006Q139.402 14.2006 144.521 11.122Q149.64 8.04335 152.754 2.87502Q155.867-2.29331 155.867-8.64828Q155.867-11.628 155.079-14.372Q154.291-17.1159 153.085-19.5328L127.83-73.3343Q125.252-78.7394 120.935-81.568Q116.618-84.3966 110.796-84.3966L61.1445-84.3966Q55.3331-84.3966 51.0159-81.568Q46.6986-78.7394 44.1209-73.3343L18.7747-19.5328Q17.6597-17.1159 16.8719-14.372Q16.084-11.628 16.084-8.64828ZM18.6253-8.64828Q18.6253-14.2517 21.3575-18.8607Q24.0896-23.4697 28.6953-26.1671Q33.301-28.8645 38.7847-28.8645L133.166-28.8645Q138.65-28.8645 143.256-26.1671Q147.861-23.4697 150.594-18.8607Q153.326-14.2517 153.326-8.64828Q153.326-3.14284 150.594 1.47707Q147.861 6.09699 143.256 8.88358Q138.65 11.6702 133.166 11.6702L38.7847 11.6702Q33.301 11.6702 28.6953 8.92712Q24.0896 6.18407 21.3575 1.56959Q18.6253-3.04488 18.6253-8.64828ZM25.282-27.0843L46.6254-72.4588Q50.9052-81.9332 60.3052-81.9332L111.635-81.9332Q121.046-81.9332 125.326-72.4588L146.669-27.1756Q143.848-29.1994 140.404-30.3483Q136.959-31.4972 133.166-31.4972L38.7847-31.4972Q34.9917-31.4972 31.5019-30.3026Q28.012-29.1081 25.282-27.0843ZM125.774-8.64828Q125.774-5.63586 127.873-3.71455Q129.971-1.79325 132.995-1.59975Q135.653-1.50845 137.751-3.66346Q139.85-5.81847 139.85-8.64828Q139.85-11.3172 137.751-13.507Q135.653-15.6968 132.995-15.6968Q129.971-15.6968 127.873-13.507Q125.774-11.3172 125.774-8.64828Z"/>
  </g>
  <g id="Black-M" transform="matrix(1 0 0 1 2857.01 1126)">
   <path d="M12.4609-15.2448Q12.4609-7.21678 15.8621-1.18403Q19.2632 4.84873 25.3776 8.21583Q31.492 11.5829 39.638 11.5829L113.14 11.5829Q121.285 11.5829 127.4 8.21583Q133.515 4.84873 136.916-1.18403Q140.317-7.21678 140.317-15.2448Q140.317-19.1925 139.4-22.6081Q138.483-26.0236 137.092-29.0213L119.221-67.7325Q116.099-74.5373 110.5-78.2587Q104.901-81.9802 96.8897-81.9802L56.0075-81.9802Q47.991-81.9802 42.3918-78.2587Q36.7927-74.5373 33.6703-67.7325L16.3142-30.0491Q14.8084-26.8229 13.6347-23.179Q12.4609-19.5351 12.4609-15.2448ZM28.0861-15.2448Q28.0861-18.6027 29.526-21.1192Q30.9658-23.6357 33.5641-25.0416Q36.1623-26.4476 39.638-26.4476L113.14-26.4476Q116.615-26.4476 119.213-25.0416Q121.812-23.6357 123.252-21.1192Q124.691-18.6027 124.691-15.2448Q124.691-11.8372 123.252-9.32625Q121.812-6.81526 119.213-5.43152Q116.615-4.04778 113.14-4.04778L39.638-4.04778Q36.1623-4.04778 33.5641-5.45357Q30.9658-6.85936 29.526-9.3731Q28.0861-11.8868 28.0861-15.2448ZM37.6532-41.9534L48.1263-64.8493Q49.8891-68.7372 54.9802-68.7372L97.917-68.7372Q103.003-68.7372 104.765-64.8493L115.239-41.9531Q114.706-41.9847 114.196-42.0286Q113.685-42.0725 113.14-42.0725L39.638-42.0725Q39.1492-42.0725 38.6391-42.0287Q38.129-41.985 37.6532-41.9534ZM104.56-15.2448Q104.56-12.17 106.742-9.99065Q108.923-7.81132 111.993-7.87454Q115.063-7.93194 117.216-10.0507Q119.369-12.1694 119.369-15.2448Q119.369-18.2526 117.188-20.4338Q115.006-22.615 111.993-22.615Q108.981-22.615 106.771-20.4338Q104.56-18.2526 104.56-15.2448Z"/>
  </g>
  <g id="Heavy-M" transform="matrix(1 0 0 1 2561.79 1126)">
   <path d="M12.4609-15.3113Q12.4609-7.70764 15.7605-1.92237Q19.06 3.8629 24.9644 7.1244Q30.8689 10.3859 38.6923 10.3859L111.109 10.3859Q118.935 10.3859 124.837 7.1244Q130.739 3.8629 134.04-1.92237Q137.34-7.70764 137.34-15.3113Q137.34-18.9704 136.475-22.1726Q135.609-25.3749 134.326-28.2052L116.784-67.099Q113.829-73.6785 108.419-77.2281Q103.008-80.7777 95.3468-80.7777L54.558-80.7777Q46.8803-80.7777 41.4698-77.2281Q36.0592-73.6785 33.1043-67.099L15.9529-28.9904Q14.5846-25.9856 13.5227-22.6088Q12.4609-19.2321 12.4609-15.3113ZM26.2509-15.3113Q26.2509-18.8312 27.8014-21.5124Q29.3519-24.1936 32.1511-25.7049Q34.9502-27.2162 38.6923-27.2162L111.109-27.2162Q114.851-27.2162 117.65-25.7049Q120.449-24.1936 122-21.5124Q123.55-18.8312 123.55-15.3113Q123.55-11.6453 122-8.98031Q120.449-6.31533 117.65-4.8678Q114.851-3.42027 111.109-3.42027L38.6923-3.42027Q34.9502-3.42027 32.1511-4.93275Q29.3519-6.44524 27.8014-9.11834Q26.2509-11.7914 26.2509-15.3113ZM35.422-40.6154L45.9382-64.4137Q47.9414-69.0322 53.8721-69.0322L96.0328-69.0322Q101.947-69.0322 103.95-64.4137L114.467-40.6178Q113.656-40.7877 112.826-40.8981Q111.995-41.0086 111.109-41.0086L38.6923-41.0086Q37.8497-41.0086 37.0181-40.8969Q36.1866-40.7853 35.422-40.6154ZM103.091-15.3113Q103.091-12.3553 105.183-10.276Q107.276-8.19659 110.215-8.25156Q113.145-8.29273 115.216-10.3265Q117.287-12.3602 117.287-15.3113Q117.287-18.1814 115.194-20.2763Q113.102-22.3711 110.215-22.3711Q107.319-22.3711 105.205-20.2763Q103.091-18.1814 103.091-15.3113Z"/>
  </g>
  <g id="Bold-M" transform="matrix(1 0 0 1 2266.74 1126)">
   <path d="M12.4609-15.3858Q12.4609-8.25674 15.6468-2.74832Q18.8327 2.76011 24.5023 5.90349Q30.1718 9.04687 37.6345 9.04687L108.838 9.04687Q116.306 9.04687 121.97 5.90349Q127.634 2.76011 130.822-2.74832Q134.011-8.25674 134.011-15.3858Q134.011-18.7218 133.203-21.6855Q132.395-24.6492 131.232-27.2922L114.058-66.3902Q111.29-72.7178 106.091-76.0752Q100.891-79.4325 93.6208-79.4325L52.9366-79.4325Q45.6378-79.4325 40.4383-76.0752Q35.2388-72.7178 32.4712-66.3902L15.5487-27.8061Q14.3342-25.0489 13.3975-21.971Q12.4609-18.8931 12.4609-15.3858ZM24.1979-15.3858Q24.1979-19.0869 25.8722-21.9523Q27.5466-24.8178 30.5704-26.4469Q33.5943-28.076 37.6345-28.076L108.838-28.076Q112.878-28.076 115.902-26.4469Q118.925-24.8178 120.6-21.9523Q122.274-19.0869 122.274-15.3858Q122.274-11.4306 120.6-8.59334Q118.925-5.7561 115.902-4.2372Q112.878-2.7183 108.838-2.7183L37.6345-2.7183Q33.5943-2.7183 30.5704-4.35014Q27.5466-5.98198 25.8722-8.83335Q24.1979-11.6847 24.1979-15.3858ZM32.926-39.1186L43.4905-63.9264Q45.7625-69.3623 52.6324-69.3623L93.925-69.3623Q100.767-69.3623 103.039-63.9264L113.603-39.1241Q112.481-39.4487 111.293-39.6336Q110.105-39.8184 108.838-39.8184L37.6345-39.8184Q36.3959-39.8184 35.2048-39.6308Q34.0136-39.4432 32.926-39.1186ZM101.447-15.3858Q101.447-12.5627 103.44-10.5951Q105.432-8.62757 108.227-8.67331Q111-8.69634 112.979-10.635Q114.957-12.5737 114.957-15.3858Q114.957-18.1018 112.964-20.1Q110.972-22.0983 108.227-22.0983Q105.461-22.0983 103.454-20.1Q101.447-18.1018 101.447-15.3858Z"/>
  </g>
  <g id="Semibold-M" transform="matrix(1 0 0 1 1971.18 1126)">
   <path d="M12.4609-15.4371Q12.4609-8.63529 15.5685-3.31772Q18.676 1.99985 24.1837 5.0618Q29.6913 8.12375 36.9052 8.12375L107.272 8.12375Q114.493 8.12375 119.993 5.0618Q125.493 1.99985 128.605-3.31772Q131.716-8.63529 131.716-15.4371Q131.716-18.5505 130.947-21.3497Q130.179-24.149 129.099-26.6628L112.178-65.9016Q109.54-72.0555 104.486-75.2803Q99.4319-78.5051 92.4309-78.5051L51.8188-78.5051Q44.7813-78.5051 39.7272-75.2803Q34.6732-72.0555 32.0348-65.9016L15.27-26.9896Q14.1615-24.4032 13.3112-21.5313Q12.4609-18.6594 12.4609-15.4371ZM22.7826-15.4371Q22.7826-19.2631 24.5423-22.2556Q26.302-25.2481 29.4807-26.9584Q32.6595-28.6687 36.9052-28.6687L107.272-28.6687Q111.517-28.6687 114.696-26.9584Q117.875-25.2481 119.635-22.2556Q121.394-19.2631 121.394-15.4371Q121.394-11.2826 119.635-8.32656Q117.875-5.37056 114.696-3.80247Q111.517-2.23437 107.272-2.23437L36.9052-2.23437Q32.6595-2.23437 29.4807-3.9485Q26.302-5.66262 24.5423-8.63687Q22.7826-11.6111 22.7826-15.4371ZM31.2053-38.0867L41.8031-63.5905Q44.2604-69.5899 51.7778-69.5899L92.4719-69.5899Q99.9527-69.5899 102.41-63.5905L113.008-38.0943Q111.672-38.5256 110.236-38.7618Q108.801-38.998 107.272-38.998L36.9052-38.998Q35.3937-38.998 33.9547-38.758Q32.5156-38.518 31.2053-38.0867ZM100.314-15.4371Q100.314-12.7056 102.238-10.8152Q104.162-8.92468 106.857-8.96406Q109.521-8.97458 111.436-10.8477Q113.351-12.7209 113.351-15.4371Q113.351-18.0469 111.427-19.9785Q109.503-21.9102 106.857-21.9102Q104.18-21.9102 102.247-19.9785Q100.314-18.0469 100.314-15.4371Z"/>
  </g>
  <g id="Medium-M" transform="matrix(1 0 0 1 1675.34 1126)">
   <path d="M12.4609-15.476Q12.4609-8.92232 15.5091-3.74947Q18.5572 1.42339 23.9421 4.42359Q29.327 7.4238 36.3523 7.4238L106.084 7.4238Q113.119 7.4238 118.494 4.42359Q123.87 1.42339 126.923-3.74947Q129.976-8.92232 129.976-15.476Q129.976-18.4205 129.237-21.0951Q128.498-23.7697 127.482-26.1855L110.753-65.5311Q108.213-71.5534 103.269-74.6777Q98.3253-77.802 91.5286-77.802L50.9712-77.802Q44.1318-77.802 39.188-74.6777Q34.2443-71.5534 31.7038-65.5311L15.0587-26.3705Q14.0306-23.9135 13.2458-21.1979Q12.4609-18.4822 12.4609-15.476ZM21.7094-15.476Q21.7094-19.3967 23.5338-22.4855Q25.3583-25.5744 28.6545-27.3463Q31.9507-29.1181 36.3523-29.1181L106.084-29.1181Q110.486-29.1181 113.782-27.3463Q117.078-25.5744 118.903-22.4855Q120.727-19.3967 120.727-15.476Q120.727-11.1703 118.903-8.12428Q117.078-5.07823 113.782-3.47284Q110.486-1.86744 106.084-1.86744L36.3523-1.86744Q31.9507-1.86744 28.6545-3.64395Q25.3583-5.42046 23.5338-8.4879Q21.7094-11.5553 21.7094-15.476ZM29.9007-37.3043L40.5236-63.3358Q43.1215-69.7624 51.1297-69.7624L91.3701-69.7624Q99.3356-69.7624 101.934-63.3358L112.556-37.3135Q111.058-37.8257 109.435-38.1008Q107.813-38.3759 106.084-38.3759L36.3523-38.3759Q34.6338-38.3759 33.0068-38.0961Q31.3798-37.8164 29.9007-37.3043ZM99.4544-15.476Q99.4544-12.814 101.326-10.982Q103.198-9.14996 105.817-9.18452Q108.4-9.18555 110.266-11.009Q112.133-12.8325 112.133-15.476Q112.133-18.0052 110.261-19.8864Q108.389-21.7675 105.817-21.7675Q103.208-21.7675 101.331-19.8864Q99.4544-18.0052 99.4544-15.476Z"/>
  </g>
  <g id="Regular-M" transform="matrix(1 0 0 1 1379.76 1126)">
   <path d="M12.4609-15.5268Q12.4609-9.2967 15.4316-4.31261Q18.4022 0.671481 23.627 3.59115Q28.8517 6.51082 35.631 6.51082L104.536 6.51082Q111.326 6.51082 116.54 3.59115Q121.753 0.671481 124.729-4.31261Q127.706-9.2967 127.706-15.5268Q127.706-18.2511 127.006-20.763Q126.307-23.2749 125.372-25.563L108.894-65.0479Q106.482-70.8984 101.682-73.8916Q96.8819-76.8848 90.3518-76.8848L49.8657-76.8848Q43.2846-76.8848 38.4848-73.8916Q33.6849-70.8984 31.2721-65.0479L14.7831-25.563Q13.8599-23.2749 13.1604-20.763Q12.4609-18.2511 12.4609-15.5268ZM20.3096-15.5268Q20.3096-19.571 22.2185-22.7855Q24.1273-25.9999 27.5768-27.8522Q31.0262-29.7044 35.631-29.7044L104.536-29.7044Q109.14-29.7044 112.59-27.8522Q116.039-25.9999 117.948-22.7855Q119.857-19.571 119.857-15.5268Q119.857-11.0239 117.948-7.86043Q116.039-4.69693 112.59-3.04288Q109.14-1.38883 104.536-1.38883L35.631-1.38883Q31.0262-1.38883 27.5768-3.24672Q24.1273-5.10461 22.2185-8.29359Q20.3096-11.4826 20.3096-15.5268ZM28.1989-36.2837L38.8547-63.0035Q41.6359-69.9874 50.2845-69.9874L89.933-69.9874Q98.5307-69.9874 101.312-63.0035L111.968-36.2951Q110.257-36.9127 108.39-37.2386Q106.524-37.5644 104.536-37.5644L35.631-37.5644Q33.6426-37.5644 31.7704-37.2329Q29.8982-36.9014 28.1989-36.2837ZM98.3335-15.5268Q98.3335-12.9554 100.137-11.1996Q101.941-9.44381 104.462-9.47208Q106.937-9.46074 108.741-11.2194Q110.545-12.9781 110.545-15.5268Q110.545-17.9509 108.741-19.7662Q106.937-21.5815 104.462-21.5815Q101.941-21.5815 100.137-19.7662Q98.3335-17.9509 98.3335-15.5268Z"/>
  </g>
  <g id="Light-M" transform="matrix(1 0 0 1 1084.13 1126)">
   <path d="M12.4609-15.2508Q12.4609-9.4255 15.2476-4.74499Q18.0342-0.0644788 22.891 2.6896Q27.7478 5.44368 33.9015 5.44368L104.112 5.44368Q110.296 5.44368 115.123 2.6896Q119.95-0.0644788 122.751-4.74499Q125.553-9.4255 125.553-15.2508Q125.553-17.8463 124.881-20.2386Q124.209-22.6309 123.275-24.7903L105.84-64.9559Q103.556-70.2912 99.2071-73.036Q94.858-75.7809 88.9535-75.7809L49.0929-75.7809Q43.1559-75.7809 38.8068-73.036Q34.4577-70.2912 32.1737-64.9559L14.7095-24.7903Q13.8047-22.6309 13.1328-20.2386Q12.4609-17.8463 12.4609-15.2508ZM18.4881-15.2508Q18.4881-19.387 20.4614-22.7119Q22.4346-26.0367 25.9209-27.9625Q29.4071-29.8884 33.9015-29.8884L104.112-29.8884Q108.607-29.8884 112.093-27.9625Q115.579-26.0367 117.552-22.7119Q119.526-19.387 119.526-15.2508Q119.526-10.8215 117.552-7.52925Q115.579-4.23696 112.093-2.42652Q108.607-0.616072 104.112-0.616072L33.9015-0.616072Q29.4071-0.616072 25.9209-2.55676Q22.4346-4.49744 20.4614-7.80601Q18.4881-11.1146 18.4881-15.2508ZM25.531-34.0022L38.0083-63.3347Q40.9551-70.429 49.1806-70.429L88.8658-70.429Q97.0587-70.429 100.006-63.3347L112.483-34.032Q110.625-34.944 108.51-35.4447Q106.395-35.9453 104.112-35.9453L33.9015-35.9453Q31.6188-35.9453 29.489-35.4298Q27.3592-34.9143 25.531-34.0022ZM98.0575-15.2508Q98.0575-12.753 99.8063-11.08Q101.555-9.40702 104.02-9.38009Q106.367-9.35034 108.115-11.0814Q109.864-12.8125 109.864-15.2508Q109.864-17.5645 108.115-19.343Q106.367-21.1215 104.02-21.1215Q101.555-21.1215 99.8063-19.343Q98.0575-17.5645 98.0575-15.2508Z"/>
  </g>
  <g id="Thin-M" transform="matrix(1 0 0 1 788.844 1126)">
   <path d="M12.4609-14.8858Q12.4609-9.59583 15.0042-5.31684Q17.5475-1.03785 21.9176 1.49723Q26.2877 4.0323 31.6141 4.0323L103.553 4.0323Q108.933 4.0323 113.249 1.49723Q117.565-1.03785 120.135-5.31684Q122.706-9.59583 122.706-14.8858Q122.706-17.311 122.07-19.5451Q121.435-21.7792 120.5-23.7683L101.801-64.8342Q99.6871-69.4882 95.9342-71.9045Q92.1813-74.3208 87.1041-74.3208L48.0709-74.3208Q42.9855-74.3208 39.2326-71.9045Q35.4797-69.4882 33.3661-64.8342L14.6122-23.7683Q13.7317-21.7792 13.0963-19.5451Q12.4609-17.311 12.4609-14.8858ZM16.079-14.8858Q16.079-19.1437 18.1375-22.6145Q20.1959-26.0854 23.7308-28.1086Q27.2657-30.1317 31.6141-30.1317L103.553-30.1317Q107.901-30.1317 111.436-28.1086Q114.971-26.0854 117.029-22.6145Q119.088-19.1437 119.088-14.8858Q119.088-10.5539 117.029-7.09124Q114.971-3.6286 111.436-1.61132Q107.901 0.405963 103.553 0.405963L31.6141 0.405963Q27.2657 0.405963 23.7308-1.64423Q20.1959-3.69441 18.1375-7.16116Q16.079-10.6279 16.079-14.8858ZM22.0026-30.9848L36.889-63.7727Q40.0548-71.013 47.7205-71.013L87.4545-71.013Q95.112-71.013 98.2778-63.7727L113.164-31.0389Q111.112-32.3403 108.668-33.0721Q106.225-33.8039 103.553-33.8039L31.6141-33.8039Q28.942-33.8039 26.4715-33.045Q24.001-32.2862 22.0026-30.9848ZM97.6925-14.8858Q97.6925-12.4853 99.3683-10.9218Q101.044-9.35835 103.436-9.25842Q105.612-9.20434 107.288-10.8989Q108.964-12.5935 108.964-14.8858Q108.964-17.0535 107.288-18.7833Q105.612-20.5132 103.436-20.5132Q101.044-20.5132 99.3683-18.7833Q97.6925-17.0535 97.6925-14.8858Z"/>
  </g>
  <g id="Ultralight-M" transform="matrix(1 0 0 1 492.863 1126)">
   <path d="M12.4609-14.6988Q12.4609-9.68308 14.8796-5.60974Q17.2983-1.5364 21.4191 0.886498Q25.5399 3.30939 30.4425 3.30939L103.266 3.30939Q108.235 3.30939 112.289 0.886498Q116.344-1.5364 118.796-5.60974Q121.248-9.68308 121.248-14.6988Q121.248-17.0368 120.631-19.1899Q120.014-21.343 119.08-23.2448L99.7317-64.7719Q97.7053-69.0769 94.2578-71.3249Q90.8102-73.573 86.1568-73.573L47.5474-73.573Q42.8983-73.573 39.4507-71.3249Q36.0032-69.0769 33.9768-64.7719L14.5623-23.2448Q13.6943-21.343 13.0776-19.1899Q12.4609-17.0368 12.4609-14.6988ZM14.8451-14.6988Q14.8451-19.019 16.9472-22.5647Q19.0492-26.1103 22.609-28.1833Q26.1689-30.2563 30.4425-30.2563L103.266-30.2563Q107.54-30.2563 111.099-28.1833Q114.659-26.1103 116.761-22.5647Q118.863-19.019 118.863-14.6988Q118.863-10.4168 116.761-6.86689Q114.659-3.31701 111.099-1.19378Q107.54 0.929445 103.266 0.929445L30.4425 0.929445Q26.1689 0.929445 22.609-1.17683Q19.0492-3.28311 16.9472-6.83087Q14.8451-10.3786 14.8451-14.6988ZM20.1953-29.4393L36.3156-63.9971Q39.5936-71.3122 46.9727-71.3122L86.7316-71.3122Q94.1149-71.3122 97.3929-63.9971L113.513-29.5058Q111.361-31.0066 108.749-31.8569Q106.138-32.7071 103.266-32.7071L30.4425-32.7071Q27.571-32.7071 24.926-31.8236Q22.281-30.9401 20.1953-29.4393ZM97.5056-14.6988Q97.5056-12.3482 99.1439-10.8408Q100.782-9.33342 103.137-9.1961Q105.226-9.12955 106.864-10.8054Q108.503-12.4813 108.503-14.6988Q108.503-16.7918 106.864-18.4967Q105.226-20.2016 103.137-20.2016Q100.782-20.2016 99.1439-18.4967Q97.5056-16.7918 97.5056-14.6988Z"/>
  </g>
  <g id="Black-S" transform="matrix(1 0 0 1 2873.15 696)">
   <path d="M9.76562-19.5312Q9.76562-13.1348 12.4512-8.34961Q15.1367-3.56445 19.9707-0.90332Q24.8047 1.75781 31.25 1.75781L89.2578 1.75781Q95.7031 1.75781 100.537-0.90332Q105.371-3.56445 108.057-8.34961Q110.742-13.1348 110.742-19.5312Q110.742-22.7051 110.01-25.4395Q109.277-28.1738 108.154-30.5664L93.9941-60.8887Q91.5039-66.2598 87.085-69.2139Q82.666-72.168 76.3184-72.168L44.2871-72.168Q37.9395-72.168 33.5205-69.2139Q29.1016-66.2598 26.6113-60.8887L12.8906-31.4453Q11.6699-28.8574 10.7178-25.9277Q9.76562-22.998 9.76562-19.5312ZM22.4609-19.5312Q22.4609-22.1191 23.5596-24.0479Q24.6582-25.9766 26.6357-27.0508Q28.6133-28.125 31.25-28.125L89.2578-28.125Q91.8945-28.125 93.8721-27.0508Q95.8496-25.9766 96.9482-24.0479Q98.0469-22.1191 98.0469-19.5312Q98.0469-16.9434 96.9482-15.0146Q95.8496-13.0859 93.8721-12.0117Q91.8945-10.9375 89.2578-10.9375L31.25-10.9375Q28.6133-10.9375 26.6357-12.0117Q24.6582-13.0859 23.5596-15.0146Q22.4609-16.9434 22.4609-19.5312ZM30.0293-40.7715L38.3301-58.5938Q39.6484-61.4258 43.3594-61.4258L77.2461-61.4258Q80.957-61.4258 82.2754-58.5938L90.5762-40.7715Q90.2344-40.7715 89.917-40.7959Q89.5996-40.8203 89.2578-40.8203L31.25-40.8203Q30.957-40.8203 30.6396-40.7959Q30.3223-40.7715 30.0293-40.7715ZM82.373-19.5312Q82.373-17.0898 84.1064-15.3564Q85.8398-13.623 88.2812-13.6719Q90.7227-13.7207 92.4316-15.4053Q94.1406-17.0898 94.1406-19.5312Q94.1406-21.9238 92.4072-23.6572Q90.6738-25.3906 88.2812-25.3906Q85.8887-25.3906 84.1309-23.6572Q82.373-21.9238 82.373-19.5312Z"/>
  </g>
  <g id="Heavy-S" transform="matrix(1 0 0 1 2577.57 696)">
   <path d="M9.76562-19.6234Q9.76562-13.5381 12.3878-8.92583Q15.0099-4.31354 19.7114-1.72156Q24.4129 0.870429 30.6623 0.870429L87.5752 0.870429Q93.8246 0.870429 98.5261-1.72156Q103.228-4.31354 105.85-8.92583Q108.472-13.5381 108.472-19.6234Q108.472-22.5668 107.78-25.1341Q107.088-27.7013 106.057-29.9671L92.3-60.3585Q89.9366-65.6029 85.6214-68.4417Q81.3061-71.2806 75.1774-71.2806L43.1462-71.2806Q37.006-71.2806 32.6907-68.4417Q28.3755-65.6029 26.0121-60.3585L12.591-30.6386Q11.4855-28.2236 10.6256-25.5071Q9.76562-22.7906 9.76562-19.6234ZM21.1241-19.6234Q21.1241-22.3381 22.3092-24.3936Q23.4942-26.4491 25.6389-27.604Q27.7835-28.7588 30.6623-28.7588L87.5752-28.7588Q90.454-28.7588 92.5986-27.604Q94.7433-26.4491 95.9283-24.3936Q97.1134-22.3381 97.1134-19.6234Q97.1134-16.8051 95.9283-14.7611Q94.7433-12.7172 92.5986-11.6084Q90.454-10.4996 87.5752-10.4996L30.6623-10.4996Q27.7835-10.4996 25.6389-11.6545Q23.4942-12.8094 22.3092-14.8591Q21.1241-16.9088 21.1241-19.6234ZM28.462-39.9187L36.5668-58.1789Q38.0696-61.6217 42.5527-61.6217L75.771-61.6217Q80.2425-61.6217 81.7453-58.1789L89.8501-39.9187Q89.2894-39.9993 88.73-40.0583Q88.1706-40.1173 87.5752-40.1173L30.6623-40.1173Q30.1042-40.1173 29.5448-40.0583Q28.9854-39.9993 28.462-39.9187ZM81.1515-19.6234Q81.1515-17.2742 82.8157-15.6157Q84.48-13.9573 86.8176-14.0061Q89.1553-14.0434 90.8009-15.6588Q92.4465-17.2742 92.4465-19.6234Q92.4465-21.9123 90.7823-23.5766Q89.118-25.2408 86.8176-25.2408Q84.5173-25.2408 82.8344-23.5766Q81.1515-21.9123 81.1515-19.6234Z"/>
  </g>
  <g id="Bold-S" transform="matrix(1 0 0 1 2282.13 696)">
   <path d="M9.76562-19.7266Q9.76562-13.9893 12.3169-9.57031Q14.8682-5.15137 19.4214-2.63672Q23.9746-0.12207 30.0049-0.12207L85.6934-0.12207Q91.7236-0.12207 96.2769-2.63672Q100.83-5.15137 103.381-9.57031Q105.933-13.9893 105.933-19.7266Q105.933-22.4121 105.286-24.7925Q104.639-27.1729 103.711-29.2969L90.4053-59.7656Q88.1836-64.8682 83.9844-67.5781Q79.7852-70.2881 73.9014-70.2881L41.8701-70.2881Q35.9619-70.2881 31.7627-67.5781Q27.5635-64.8682 25.3418-59.7656L12.2559-29.7363Q11.2793-27.5146 10.5225-25.0366Q9.76562-22.5586 9.76562-19.7266ZM19.6289-19.7266Q19.6289-22.583 20.9106-24.7803Q22.1924-26.9775 24.5239-28.2227Q26.8555-29.4678 30.0049-29.4678L85.6934-29.4678Q88.8428-29.4678 91.1743-28.2227Q93.5059-26.9775 94.7876-24.7803Q96.0693-22.583 96.0693-19.7266Q96.0693-16.6504 94.7876-14.4775Q93.5059-12.3047 91.1743-11.1572Q88.8428-10.0098 85.6934-10.0098L30.0049-10.0098Q26.8555-10.0098 24.5239-11.2549Q22.1924-12.5 20.9106-14.6851Q19.6289-16.8701 19.6289-19.7266ZM26.709-38.9648L34.5947-57.7148Q36.3037-61.8408 41.6504-61.8408L74.1211-61.8408Q79.4434-61.8408 81.1523-57.7148L89.0381-38.9648Q88.2324-39.1357 87.4023-39.2334Q86.5723-39.3311 85.6934-39.3311L30.0049-39.3311Q29.1504-39.3311 28.3203-39.2334Q27.4902-39.1357 26.709-38.9648ZM79.7852-19.7266Q79.7852-17.4805 81.3721-15.9058Q82.959-14.3311 85.1807-14.3799Q87.4023-14.4043 88.9771-15.9424Q90.5518-17.4805 90.5518-19.7266Q90.5518-21.8994 88.9648-23.4863Q87.3779-25.0732 85.1807-25.0732Q82.9834-25.0732 81.3843-23.4863Q79.7852-21.8994 79.7852-19.7266Z"/>
  </g>
  <g id="Semibold-S" transform="matrix(1 0 0 1 1986.29 696)">
   <path d="M9.76562-19.7977Q9.76562-14.3003 12.268-10.0146Q14.7704-5.729 19.2214-3.26768Q23.6725-0.806348 29.5517-0.806348L84.3959-0.806348Q90.2751-0.806348 94.7261-3.26768Q99.1771-5.729 101.68-10.0146Q104.182-14.3003 104.182-19.7977Q104.182-22.3055 103.566-24.557Q102.95-26.8085 102.094-28.8348L89.0989-59.3568Q86.975-64.3616 82.8558-66.9827Q78.7365-69.6038 73.0216-69.6038L40.9903-69.6038Q35.2421-69.6038 31.1229-66.9827Q27.0036-64.3616 24.8797-59.3568L12.0248-29.1143Q11.1371-27.0259 10.4514-24.7123Q9.76562-22.3986 9.76562-19.7977ZM18.598-19.7977Q18.598-22.7519 19.9464-25.0469Q21.2948-27.3419 23.7552-28.6492Q26.2156-29.9565 29.5517-29.9565L84.3959-29.9565Q87.7319-29.9565 90.1923-28.6492Q92.6527-27.3419 94.0011-25.0469Q95.3495-22.7519 95.3495-19.7977Q95.3495-16.5437 94.0011-14.282Q92.6527-12.0203 90.1923-10.8462Q87.7319-9.67207 84.3959-9.67207L29.5517-9.67207Q26.2156-9.67207 23.7552-10.9794Q21.2948-12.2867 19.9464-14.5651Q18.598-16.8435 18.598-19.7977ZM25.5004-38.3072L33.2351-57.3949Q35.0862-61.9919 41.0283-61.9919L72.9836-61.9919Q78.8924-61.9919 80.7436-57.3949L88.4782-38.3072Q87.5037-38.5403 86.487-38.6646Q85.4703-38.789 84.3959-38.789L29.5517-38.789Q28.4928-38.789 27.4761-38.6646Q26.4594-38.5403 25.5004-38.3072ZM78.8432-19.7977Q78.8432-17.6227 80.3768-16.1057Q81.9104-14.5888 84.0521-14.6376Q86.1937-14.6531 87.7196-16.1379Q89.2454-17.6227 89.2454-19.7977Q89.2454-21.8905 87.7118-23.4241Q86.1782-24.9577 84.0521-24.9577Q81.9259-24.9577 80.3845-23.4241Q78.8432-21.8905 78.8432-19.7977Z"/>
  </g>
  <g id="Medium-S" transform="matrix(1 0 0 1 1690.25 696)">
   <path d="M9.76562-19.8516Q9.76562-14.5361 12.231-10.3516Q14.6963-6.16699 19.0698-3.74609Q23.4434-1.3252 29.208-1.3252L83.4121-1.3252Q89.1768-1.3252 93.5503-3.74609Q97.9238-6.16699 100.389-10.3516Q102.854-14.5361 102.854-19.8516Q102.854-22.2246 102.262-24.3784Q101.67-26.5322 100.867-28.4844L88.1084-59.0469Q86.0586-63.9775 82-66.5312Q77.9414-69.085 72.3545-69.085L40.3232-69.085Q34.6963-69.085 30.6377-66.5312Q26.5791-63.9775 24.5293-59.0469L11.8496-28.6426Q11.0293-26.6553 10.3975-24.4663Q9.76562-22.2773 9.76562-19.8516ZM17.8164-19.8516Q17.8164-22.8799 19.2153-25.249Q20.6143-27.6182 23.1724-28.9727Q25.7305-30.3271 29.208-30.3271L83.4121-30.3271Q86.8896-30.3271 89.4478-28.9727Q92.0059-27.6182 93.4048-25.249Q94.8037-22.8799 94.8037-19.8516Q94.8037-16.4629 93.4048-14.1338Q92.0059-11.8047 89.4478-10.6104Q86.8896-9.41602 83.4121-9.41602L29.208-9.41602Q25.7305-9.41602 23.1724-10.7705Q20.6143-12.125 19.2153-14.4741Q17.8164-16.8232 17.8164-19.8516ZM24.584-37.8086L32.2041-57.1523Q34.1631-62.1064 40.5566-62.1064L72.1211-62.1064Q78.4746-62.1064 80.4336-57.1523L88.0537-37.8086Q86.9512-38.0889 85.793-38.2334Q84.6348-38.3779 83.4121-38.3779L29.208-38.3779Q27.9941-38.3779 26.8359-38.2334Q25.6777-38.0889 24.584-37.8086ZM78.1289-19.8516Q78.1289-17.7305 79.6221-16.2573Q81.1152-14.7842 83.1963-14.833Q85.2773-14.8418 86.7661-16.2861Q88.2549-17.7305 88.2549-19.8516Q88.2549-21.8838 86.7617-23.377Q85.2686-24.8701 83.1963-24.8701Q81.124-24.8701 79.6265-23.377Q78.1289-21.8838 78.1289-19.8516Z"/>
  </g>
  <g id="Regular-S" transform="matrix(1 0 0 1 1394.4 696)">
   <path d="M9.76562-19.9219Q9.76562-14.8438 12.1826-10.791Q14.5996-6.73828 18.8721-4.37012Q23.1445-2.00195 28.7598-2.00195L82.1289-2.00195Q87.7441-2.00195 92.0166-4.37012Q96.2891-6.73828 98.7061-10.791Q101.123-14.8438 101.123-19.9219Q101.123-22.1191 100.562-24.1455Q100-26.1719 99.2676-28.0273L86.8164-58.6426Q84.8633-63.4766 80.8838-65.9424Q76.9043-68.4082 71.4844-68.4082L39.4531-68.4082Q33.9844-68.4082 30.0049-65.9424Q26.0254-63.4766 24.0723-58.6426L11.6211-28.0273Q10.8887-26.1719 10.3271-24.1455Q9.76562-22.1191 9.76562-19.9219ZM16.7969-19.9219Q16.7969-23.0469 18.2617-25.5127Q19.7266-27.9785 22.4121-29.3945Q25.0977-30.8105 28.7598-30.8105L82.1289-30.8105Q85.791-30.8105 88.4766-29.3945Q91.1621-27.9785 92.627-25.5127Q94.0918-23.0469 94.0918-19.9219Q94.0918-16.3574 92.627-13.9404Q91.1621-11.5234 88.4766-10.3027Q85.791-9.08203 82.1289-9.08203L28.7598-9.08203Q25.0977-9.08203 22.4121-10.498Q19.7266-11.9141 18.2617-14.3555Q16.7969-16.7969 16.7969-19.9219ZM23.3887-37.1582L30.8594-56.8359Q32.959-62.2559 39.9414-62.2559L70.9961-62.2559Q77.9297-62.2559 80.0293-56.8359L87.5-37.1582Q86.2305-37.5 84.8877-37.6709Q83.5449-37.8418 82.1289-37.8418L28.7598-37.8418Q27.3438-37.8418 26.001-37.6709Q24.6582-37.5 23.3887-37.1582ZM77.1973-19.9219Q77.1973-17.8711 78.6377-16.4551Q80.0781-15.0391 82.0801-15.0879Q84.082-15.0879 85.5225-16.4795Q86.9629-17.8711 86.9629-19.9219Q86.9629-21.875 85.5225-23.3154Q84.082-24.7559 82.0801-24.7559Q80.0781-24.7559 78.6377-23.3154Q77.1973-21.875 77.1973-19.9219Z"/>
  </g>
  <g id="Light-S" transform="matrix(1 0 0 1 1098.64 696)">
   <path d="M9.76562-19.6777Q9.76562-14.9577 12.0199-11.1735Q14.2741-7.38932 18.221-5.16764Q22.168-2.94596 27.2298-2.94596L81.7546-2.94596Q86.8327-2.94596 90.7633-5.16764Q94.694-7.38932 96.9564-11.1735Q99.2188-14.9577 99.2188-19.6777Q99.2188-21.7611 98.6816-23.6816Q98.1445-25.6022 97.4121-27.3438L84.1146-58.5612Q82.2754-62.9395 78.6947-65.1855Q75.1139-67.4316 70.2474-67.4316L38.7695-67.4316Q33.8704-67.4316 30.2897-65.1855Q26.709-62.9395 24.8698-58.5612L11.556-27.3438Q10.8398-25.6022 10.3027-23.6816Q9.76562-21.7611 9.76562-19.6777ZM15.1855-19.6777Q15.1855-22.8841 16.7074-25.4476Q18.2292-28.0111 20.9473-29.4922Q23.6654-30.9733 27.2298-30.9733L81.7546-30.9733Q85.319-30.9733 88.0371-29.4922Q90.7552-28.0111 92.277-25.4476Q93.7988-22.8841 93.7988-19.6777Q93.7988-16.1784 92.277-13.6475Q90.7552-11.1165 88.0371-9.75749Q85.319-8.39844 81.7546-8.39844L27.2298-8.39844Q23.6654-8.39844 20.9473-9.8877Q18.2292-11.377 16.7074-13.9242Q15.1855-16.4714 15.1855-19.6777ZM21.0286-35.14L30.1107-57.1289Q32.3568-62.6465 38.9648-62.6465L70.0521-62.6465Q76.6276-62.6465 78.8737-57.1289L87.9557-35.1562Q86.556-35.7585 84.9935-36.084Q83.431-36.4095 81.7546-36.4095L27.2298-36.4095Q25.5534-36.4095 23.9827-36.0758Q22.4121-35.7422 21.0286-35.14ZM76.9531-19.6777Q76.9531-17.6921 78.3447-16.3493Q79.7363-15.0065 81.6895-15.0065Q83.5775-14.9902 84.9691-16.3574Q86.3607-17.7246 86.3607-19.6777Q86.3607-21.5332 84.9691-22.9411Q83.5775-24.349 81.6895-24.349Q79.7363-24.349 78.3447-22.9411Q76.9531-21.5332 76.9531-19.6777Z"/>
  </g>
  <g id="Thin-S" transform="matrix(1 0 0 1 803.193 696)">
   <path d="M9.76562-19.3548Q9.76562-15.1084 11.8046-11.6794Q13.8436-8.25038 17.36-6.22244Q20.8764-4.19449 25.2063-4.19449L81.2595-4.19449Q85.6272-4.19449 89.1058-6.22244Q92.5844-8.25038 94.6423-11.6794Q96.7002-15.1084 96.7002-19.3548Q96.7002-21.2875 96.1953-23.0681Q95.6905-24.8488 94.9581-26.4396L80.5412-58.4536Q78.8527-62.2291 75.7994-64.1846Q72.746-66.1401 68.6114-66.1401L37.8654-66.1401Q33.7198-66.1401 30.6664-64.1846Q27.6131-62.2291 25.9246-58.4536L11.4699-26.4396Q10.7753-24.8488 10.2704-23.0681Q9.76562-21.2875 9.76562-19.3548ZM13.0544-19.3548Q13.0544-22.6689 14.6516-25.3615Q16.2487-28.0541 19.0099-29.6213Q21.771-31.1886 25.2063-31.1886L81.2595-31.1886Q84.6947-31.1886 87.4559-29.6213Q90.217-28.0541 91.8142-25.3615Q93.4114-22.6689 93.4114-19.3548Q93.4114-15.9416 91.8142-13.26Q90.217-10.5784 87.4559-9.03635Q84.6947-7.49433 81.2595-7.49433L25.2063-7.49433Q21.771-7.49433 19.0099-9.08046Q16.2487-10.6666 14.6516-13.3537Q13.0544-16.0408 13.0544-19.3548ZM17.9073-32.4707L29.1205-57.5164Q31.5603-63.1631 37.6733-63.1631L68.8036-63.1631Q74.9055-63.1631 77.3453-57.5164L88.5585-32.5085Q86.9865-33.4551 85.1334-33.9852Q83.2803-34.5152 81.2595-34.5152L25.2063-34.5152Q23.1855-34.5152 21.3135-33.9663Q19.4415-33.4173 17.9073-32.4707ZM76.6302-19.3548Q76.6302-17.4553 77.9573-16.2094Q79.2843-14.9635 81.1728-14.8989Q82.9102-14.8611 84.2372-16.196Q85.5642-17.5309 85.5642-19.3548Q85.5642-21.0811 84.2372-22.446Q82.9102-23.8108 81.1728-23.8108Q79.2843-23.8108 77.9573-22.446Q76.6302-21.0811 76.6302-19.3548Z"/>
  </g>
  <g id="Ultralight-S" transform="matrix(1 0 0 1 507.128 696)">
   <path d="M9.76562-19.1895Q9.76562-15.1855 11.6943-11.9385Q13.623-8.69141 16.9189-6.7627Q20.2148-4.83398 24.1699-4.83398L81.0059-4.83398Q85.0098-4.83398 88.2568-6.7627Q91.5039-8.69141 93.457-11.9385Q95.4102-15.1855 95.4102-19.1895Q95.4102-21.0449 94.9219-22.7539Q94.4336-24.4629 93.7012-25.9766L78.7109-58.3984Q77.0996-61.8652 74.3164-63.6719Q71.5332-65.4785 67.7734-65.4785L37.4023-65.4785Q33.6426-65.4785 30.8594-63.6719Q28.0762-61.8652 26.4648-58.3984L11.4258-25.9766Q10.7422-24.4629 10.2539-22.7539Q9.76562-21.0449 9.76562-19.1895ZM11.9629-19.1895Q11.9629-22.5586 13.5986-25.3174Q15.2344-28.0762 18.0176-29.6875Q20.8008-31.2988 24.1699-31.2988L81.0059-31.2988Q84.375-31.2988 87.1582-29.6875Q89.9414-28.0762 91.5771-25.3174Q93.2129-22.5586 93.2129-19.1895Q93.2129-15.8203 91.5771-13.0615Q89.9414-10.3027 87.1582-8.66699Q84.375-7.03125 81.0059-7.03125L24.1699-7.03125Q20.8008-7.03125 18.0176-8.66699Q15.2344-10.3027 13.5986-13.0615Q11.9629-15.8203 11.9629-19.1895ZM16.3086-31.1035L28.6133-57.7148Q31.1523-63.4277 37.0117-63.4277L68.1641-63.4277Q74.0234-63.4277 76.5625-57.7148L88.8672-31.1523Q87.207-32.2754 85.2051-32.9102Q83.2031-33.5449 81.0059-33.5449L24.1699-33.5449Q21.9727-33.5449 19.9463-32.8857Q17.9199-32.2266 16.3086-31.1035ZM76.4648-19.1895Q76.4648-17.334 77.7588-16.1377Q79.0527-14.9414 80.9082-14.8438Q82.5684-14.7949 83.8623-16.1133Q85.1562-17.4316 85.1562-19.1895Q85.1562-20.8496 83.8623-22.1924Q82.5684-23.5352 80.9082-23.5352Q79.0527-23.5352 77.7588-22.1924Q76.4648-20.8496 76.4648-19.1895Z"/>
  </g>
 </g>
</svg>
