<svg xmlns="http://www.w3.org/2000/svg" overflow="visible" viewBox="0 0 344 104.47"><path d="M305.96 43.36c5.44 0 8.9 3.623 8.9 8.84 0 5.005-3.39 8.83-8.96 8.83-5.08 0-8.84-3.948-8.84-8.713 0-5.334 3.62-8.958 8.9-8.958m8.9-6.024v4.514h-.12c-2.2-3.64-6.16-5.27-10.36-5.27-9.27 0-14.85 6.897-14.85 15.802 0 8.516 5.96 15.415 14.98 15.415 3.77 0 7.65-1.436 9.86-4.38h.1v2.197c0 5.95-2.24 10.09-9.52 10.09-4.2 0-7.33-1.574-10.34-4.347l-4.51 6.155c4.25 3.776 9.34 4.957 14.92 4.957 11.73 0 16.98-6.904 16.98-17.742v-27.39h-7.14zm-44.98 0h7.53V42.1h.13c1.63-3.446 4.94-5.52 8.89-5.52.95 0 1.82.19 2.7.446v7.268c-1.25-.31-2.45-.56-3.64-.56-7.08 0-8.08 5.958-8.08 7.59v16.1h-7.53V37.336zm-27.84 12.037c.57-4.332 3.33-7.15 7.77-7.15 4.7 0 7.59 2.76 7.65 7.15h-15.42zm22.95 5.64v-2.065c0-10.473-5.71-16.364-14.1-16.364-9.11 0-16.37 6.333-16.37 15.798s7.26 15.79 16.37 15.79c4.75 0 9.21-1.692 12.71-6.01l-5.39-4.066c-1.88 2.307-4.33 4.066-8.08 4.066-4.2 0-7.59-2.7-8.09-7.15h22.95zm-41.39-2.63c0 4.705-3.32 9.022-8.84 9.022s-8.85-4.317-8.85-9.023c0-4.7 3.33-9.033 8.85-9.033s8.84 4.33 8.84 9.032m-24.95 15.04h7.15v-4.51h.11c2.21 3.625 6.15 5.258 10.36 5.258 9.26 0 14.85-6.894 14.85-15.79 0-8.9-5.96-15.797-14.55-15.797-5.63 0-8.65 2.626-10.21 4.583h-.19V22h-7.52v45.423zm-52.73-30.086h7.15v4.706h.11c1.32-2.822 4.2-5.463 9.22-5.463 4.64 0 7.85 1.813 9.41 5.58 2.19-3.816 5.39-5.58 9.89-5.58 8.03 0 10.85 5.712 10.85 12.92v17.924h-7.52V50.376c0-3.757-1.12-7.017-5.58-7.017-4.7 0-6.46 3.883-6.46 7.763v16.3h-7.51V49.5c0-3.708-1.51-6.14-5.14-6.14-4.95 0-6.9 3.623-6.9 7.64v16.423h-7.52V37.336zM116.13 52.38c0-4.7 3.32-9.022 8.84-9.022s8.83 4.322 8.83 9.022-3.31 9.023-8.83 9.023-8.84-4.322-8.84-9.023m-7.52 0c0 9.465 7.27 15.79 16.36 15.79s16.37-6.324 16.37-15.79-7.28-15.798-16.37-15.798c-9.1 0-16.36 6.333-16.36 15.798m-28.6 0c0-4.7 3.325-9.022 8.842-9.022s8.83 4.322 8.83 9.022-3.313 9.023-8.83 9.023c-5.518 0-8.84-4.322-8.84-9.023m-7.524 0c0 9.465 7.267 15.79 16.364 15.79 9.086 0 16.368-6.324 16.368-15.79s-7.28-15.798-16.368-15.798c-9.097 0-16.364 6.333-16.364 15.798M59.955 22v45.424h7.5V22h-7.5zm-30.058 7.813h6.52c5.96 0 8.585 1.883 8.585 5.708 0 3.325-2.626 5.582-7.897 5.582h-7.208v-11.29zM22 67.423h15.98c8.398 0 16.796-3 16.796-12.657 0-5.708-4.002-10.09-9.58-10.724v-.132c4.564-1.367 7.71-4.69 7.71-9.706 0-8.088-6.902-11.157-13.61-11.157H22v44.376zm7.897-19.555h7.582c6.39 0 9.41 1.632 9.41 6.274 0 5.82-5.654 6.515-9.726 6.515h-7.267v-12.79z"/></svg>