<svg id="Layer_1" xmlns="http://www.w3.org/2000/svg" viewBox="-149 299 1076.6 512"><path fill="#D81921" d="M474.8 15654.9c-35.8-2.5-66.1-32.6-66.1-75v-201.8c0-7.3-5.4-13.6-13.3-13.6h-63c-136.4-.2-124.3 174.2-8.2 174.4H394v50.7h-72.2c-46.3 0-80.6-17.3-103.7-43-23.2-25.8-34.8-60.4-34.8-95-.1-34.6 11.4-69 35.1-94.8 23.7-25.7 59.5-43 108.6-43h118.9c7.8 0 14.3 6.8 14.3 14.6v246.1c-.1 12.7 7.1 22.5 16.4 25.4 9.3 2.9 20.2-.8 26.6-10l.3-.3c33.8-55.3 168-270.6 168.2-271 3.7-5.2 8.1-6.2 11.3-5.1 3.2 1.1 6.4 4.5 6.4 13.1v247.9c-.1 12.7 7.1 22.5 16.4 25.4 9.3 2.9 20-.8 26.4-10v-.3h.5c33.8-55.3 168-270.6 168.2-271 3.6-5.2 7.9-6.2 11.3-5.1 3.4 1.1 6.7 4.3 6.7 12.8v327.3h-51v-191s-30.4 51.9-82.4 141.4c-51 87.6-147.3 51.3-147.3-24.1v-117.3s-29.9 51.9-82 141.4c-22.4 38.3-53.5 53-81.4 50.9zm-144.1-1.3c-283.6 0-280.9-404.2 3.8-404.4h111.4c47.9 0 78.4 28.3 78.4 80.7v102.5s62.5-103.4 87.1-143.9c41.7-68.9 142.4-55.3 142.1 30.7v113.2s62.3-103.4 86.8-143.9c41.7-68.9 142.7-55.3 142.4 30.7v334.5h-51v-327.3c.1-12.6-6.5-21.9-15.6-24.8-9.1-3-19.5.8-25.9 9.7h-.2v.5s-134.3 214.7-168.5 270.7c-.1.1-.2-.1-.3 0-.1 0 .1.3 0 .3-3.5 4.7-8.1 5.7-11.8 4.6-3.8-1.2-7.5-4.5-7.4-12.8v-247.9c.1-12.5-6.4-22.3-15.4-25.4-9-3-19.3 1-25.6 10v.3h-.3s-134.4 215.1-168.5 271c-3.6 5.1-8.2 6.3-12 5.1s-7.5-4.5-7.4-12.8v-246.4c0-14.9-12.3-27.4-27.2-27.4H326.8c-52.2 0-91.7 18.8-117.8 47.1-26.1 28.3-39 65.9-39 103.5.1 37.5 12.9 75.4 38.4 103.7s63.7 47.1 113.2 47.1h72.2v51.2l-63.1-.1z" transform="matrix(1.24707 0 0 -1.24707 -297.97 19822.06)"/></svg>