<svg xmlns="http://www.w3.org/2000/svg" viewBox="0 0 1391 363.9"><g fill="#33629a"><path d="M673.5 99c-11.6 0-17.9 1.3-27.3 5.6-17.1 7.9-30 20.7-41.5 41.4l-3.6 6.5.5-11.5c.3-6.3.7-18.1.9-26.2l.5-14.8h-2.5c-3.2 0-102.2 19.8-105.2 21-1.9.8-2.2 1.7-2.2 6.4 0 4.9.2 5.6 2.2 6 1.2.3 5.8 1.1 10.1 2 8.8 1.7 11.4 3 15 7.8 6.7 8.8 8 24.4 8 90.3-.1 53.9-1.2 80.7-3.7 89.1-3.1 10.3-8.7 15.5-18.4 17.4-3.1.6-7.3 1.4-9.2 1.8l-3.5.7-.3 6.9c-.2 4.9.1 7.2 1 7.7.7.5 34.6.7 75.3.6l74-.2.3-7.8c.2-4.3-.1-7.8-.5-7.8-5.8 0-23.4-2.4-26.2-3.6-8.3-3.5-12.4-11-14.1-26.2-2-17.9-3.3-62.2-2.7-98.6.6-36.7.6-36.9 2.9-39.3 5.4-5.8 19-10.2 31.1-10.3 9.8 0 19.8 2.5 30.5 7.6 5.1 2.5 9.9 4.3 10.5 4 1.3-.5 25.6-64.7 25.6-67.7.1-4.3-13.7-8.8-27.5-8.8M1384.4 245.9c-8.4-16.8-23.9-28.3-56.3-41.9-26.5-11.1-39.8-18.7-47.9-27.6-6.6-7.2-8.5-13-7.9-23.8.6-9.9 3-15.9 9.3-22.5 8-8.5 19-11.5 32.2-8.8 21.6 4.6 35.5 19.5 47.4 51.2 4.3 11.3 4.8 11.6 12.4 8.8l4.8-1.8-.2-13c-.1-7.2-.5-22.2-.8-33.4l-.6-20.4-3.6-1.5c-19.8-8.4-57.5-13.6-82.1-11.3-27.9 2.5-48.4 11.4-64.2 27.7-15.7 16.2-22.8 35.3-21.5 57.9 1 18.7 6.6 32.1 18.1 43.9 10.7 10.9 19.7 16.1 45.4 26.2 41.5 16.2 52.5 25.8 52.4 45.8-.1 16.9-9 29.2-25.4 35-5.8 2.1-20.6 2-28.5 0-20.6-5.4-36.4-23.3-49.9-56.5l-3.5-8.5-4.1.2c-2.2.1-5.3.8-6.8 1.5l-2.8 1.3.3 14.5c.1 8 .5 24.8.9 37.3l.6 22.8 4.6 2c9.4 4.1 37.8 10.3 55.6 12.2 2.2.2 14.3.3 27 .2 22-.2 23.5-.4 34.6-3.3 32.6-8.5 53.7-26.7 63-54.2 2.9-8.5 3.3-11 3.7-23.6.8-16.7-.7-25.4-6.2-36.4M132.2 34h31.5c36.2 0 42.1.8 54.9 7 18.6 9.1 32.1 27.2 44 58.5 4.8 12.7 4.8 12.7 15.5 9.5l7.1-2.2-.7-46.1c-.4-25.4-.9-48-1.3-50.2l-.6-4-138-.3c-75.9-.1-139.5 0-141.3.3L0 7.1l.3 8.2.3 8.2 10.5 1.3c13.6 1.6 21.8 5.5 26.6 12.5 10.9 15.9 12.9 37.5 12.8 140.2 0 109.4-2.3 136-12.8 149.8-5.4 7.1-9.8 9.4-22.1 11.7-16 3-15.5 2.6-15.5 10.9 0 4.6.4 7.1 1.2 7.4 1.8.7 178.3.8 180.2.1 2.4-.9 2.3-14-.2-15.2-1-.5-6.9-1.7-13.2-2.6-6.3-.9-13.3-2.5-15.5-3.5-11.6-5-18-18.9-20.4-44.1-1.7-18.1-3.1-51.3-3.1-75.9v-22.6l10.8.3c22.9.7 34.7 1.9 39.5 4 10.4 4.6 18.7 17.4 23.1 35.2l2.3 9.5 8.2.3 8.2.3V122.9l-8.2.3-8.2.3-2.4 9.5c-4.6 18.4-12.2 29.7-23.2 34.8-4.5 2.1-7.7 2.7-18.5 3.3-7.2.4-17.2.8-22.3.8l-9.2.1v-29.8c0-29.8 1.6-93.2 2.6-103l.4-5.2M1132.4 109.2c-27.5-13.8-69.9-12.8-100.9 2.4-29.4 14.3-49.6 38.2-60.9 72-5.9 17.6-7.7 31.7-7.1 54.5.4 14.4 1 21.9 2.5 28.5 11.6 51.7 47.1 86.9 96.7 95.9 10.9 2 35.7 2 46.8.1 15.8-2.8 33.9-9.8 45.4-17.5 14-9.5 28.3-23.7 28.3-28.1 0-2.7-4.8-8.9-6.9-8.9-.9 0-4.8 2-8.6 4.5-13.7 8.8-26.8 12.5-45 12.5-25.1 0-41-6.2-57-22.4-7.1-7.2-10-11-13.7-18.1-8.1-15.6-12.4-33.5-13.1-53.7l-.3-8.7 74-.3 74-.3.3-5c.2-2.8-.2-10-.8-16-4.6-45-22.8-76-53.7-91.4m-38.4 90.2c-9.6.3-25.8.7-36.1.9l-18.8.3v-4c0-2.2.6-8.1 1.4-13 6.2-40.3 21.3-64.4 40.1-64.5 17.3 0 28 23.8 30.2 67.4l.6 12.4-17.4.5"/><path d="M493.2 210.5c-5.2-44.4-24-76.9-55.1-95.1-34.5-20.3-87-21.5-124.2-2.8-26.9 13.5-48.9 39.5-58.7 69.4-10.1 30.8-10.1 71.3 0 102.8 6.5 20.2 15.2 34.9 28.7 48.3 16.2 16 37.4 26.3 61.7 29.8 8.7 1.3 36.1 1.3 45 0 4.2-.6 11.6-2.2 16.3-3.6 44-12.7 74-46.5 84.3-94.9 2.5-11.7 3.6-40.3 2-53.9m-90.9 113.8c-4.7 8.9-13.4 17.1-20.5 19.2-27.3 8.1-46.9-17.9-54.5-72.5-2.4-17.6-2.4-65.7 0-85.8 5.4-43.9 18.9-66.1 40.2-66.2 9.6 0 14.9 2.3 22.5 9.9 17.9 18 26.4 52.5 26.3 106.6 0 43.2-4.3 70.4-14 88.8M941.2 189.5c-10-45.7-38.5-77.2-77-85.2-5.9-1.2-11.2-1.5-22.7-1.1-17.2.6-29.1 3.2-42 9.1-4.3 2-8 3.6-8.3 3.6s-.2-26.1.1-58c.5-45 .3-58-.6-58-3.2.1-105.3 19.5-106.4 20.4-.8.7-1.2 2.8-1 6.1.3 5.7-.3 5.2 12.1 8 3.7.8 8.1 2.5 9.7 3.6 4.2 3 7.6 9.4 10 18.5 1.9 7.2 2.1 12.4 3 61.4.9 50 .7 101.4-.7 195.6l-.6 39.1 7.3 1.7c10.6 2.4 40.9 7.4 50.8 8.5 14.5 1.5 48.5 1.3 59.3-.4 46.9-7.1 82.2-34.3 98.7-76 4.4-11 8.6-28.1 10-40.7 1.9-14.6.9-44.3-1.7-56.2m-76 67c-4.5 34.9-15.9 63.1-31.1 76.8-6.1 5.4-11.7 8.3-19 9.7-5.3 1-6.8 1-16.4.3-4-.3-4.9-.8-5.8-2.9-1.3-3.4-2.8-120.6-2.2-167.4l.5-36.5 6.6-2c4.4-1.3 9.6-2 15.7-2 8.5 0 9.6.2 16.7 3.8 17.2 8.5 29 29.6 34.5 61.7 2.1 11.9 2.3 44.3.5 58.5"/></g></svg>