<svg xmlns="http://www.w3.org/2000/svg" viewBox="0 0 912.30664 130.90668" height="130.91" width="912.31" id="svg2"><g transform="matrix(1.33333 0 0 -1.33333 0 130.907)" id="g10"><g transform="scale(.1)" id="g12" fill="#100f0d"><path id="path14" d="M1121.32 117.23v747.993c0 38.843 8.86 68.007 26.58 87.422 17.7 19.421 40.63 29.152 68.7 29.152 28.96 0 52.39-9.629 70.34-28.836 17.92-19.211 26.91-48.441 26.91-87.738V117.23c0-39.277-8.99-68.64-26.91-88.066C1268.99 9.72 1245.56 0 1216.6 0c-27.66 0-50.45 9.832-68.39 29.48-17.93 19.649-26.89 48.915-26.89 87.75"/><path id="path16" d="M6351.68 782.59c-161.01 0-292-131.004-292-292.008 0-160.988 130.99-291.984 292-291.984 160.99 0 291.99 130.996 291.99 291.984 0 161.004-131 292.008-291.99 292.008m0-782.59c-270.51 0-490.6 220.086-490.6 490.582 0 270.531 220.09 490.606 490.6 490.606 270.53 0 490.58-220.075 490.58-490.606C6842.26 220.086 6622.21 0 6351.68 0"/><path id="path18" d="M4149.33 782.59c-160.99 0-291.98-131.004-291.98-292.008 0-160.988 130.99-291.984 291.98-291.984 161.02 0 291.98 130.996 291.98 291.984 0 161.004-130.96 292.008-291.98 292.008m0-782.59c-270.51 0-490.58 220.086-490.58 490.582 0 270.531 220.07 490.606 490.58 490.606 270.52 0 490.6-220.075 490.6-490.606C4639.93 220.086 4419.85 0 4149.33 0"/><path id="path20" d="M5248.07 201c-23.74-1.547-49.28-1.816-76.75-1.816h-128.8v583.425h128.8c27.47 0 53.01-.304 76.75-1.812 85.15-10.18 159.13-57.055 205.61-124.457 32.38-46.93 51.45-103.664 51.58-164.856 0-.16.02-.316.02-.484v-.215c0-.156-.02-.316-.02-.472-.13-61.192-19.2-117.93-51.58-164.872-46.48-67.398-120.46-114.25-205.61-124.441m455.83 289.898v.133c-.06 108.27-35.36 208.399-94.94 289.641-86.67 118.152-224.8 196.141-381.09 200.738-4.85.149-9.69.387-14.59.387l-246.35-.317c-42.06 0-72.52-9.582-91.34-28.734-18.85-19.156-28.27-50.109-28.27-92.891V121.941c0-42.78 9.42-73.726 28.27-92.902C4894.41 9.875 4924.87.305 4966.93.305L5213.28 0c4.9 0 9.74.238 14.59.371 156.29 4.613 294.42 82.598 381.09 200.754 59.58 81.242 94.88 181.371 94.94 289.637v.136"/><path id="path22" d="M3380.91 977.422c-35.85 11.137-74.58-2.953-95.46-34.766l-295.8-450.586-295.79 450.586c-20.86 31.813-59.61 45.903-95.46 34.766-35.84-11.149-60.31-44.934-60.31-83.231V93.363c0-48.054 38.11-87.004 85.09-87.004 47.01 0 85.11 38.95 85.11 87.004v515.024L2918.31 288.5c.14-.223.28-.426.42-.652l.26-.383c.25-.395.55-.746.81-1.141 1.31-1.914 2.66-3.82 4.15-5.644.65-.813 1.33-1.535 2-2.301 1.18-1.344 2.32-2.695 3.57-3.969 1.12-1.148 2.32-2.222 3.51-3.324.86-.781 1.72-1.613 2.62-2.379 1.68-1.41 3.38-2.672 5.14-3.914.5-.348.94-.766 1.45-1.105.06-.055.13-.079.22-.133 1.87-1.274 3.81-2.426 5.79-3.551.54-.316 1.08-.688 1.63-.969 1.47-.812 2.99-1.48 4.53-2.199 8.61-4.023 17.63-6.539 26.71-7.477.08 0 .13-.007.18-.031 1.81-.156 3.61-.191 5.39-.269.99-.036 1.99-.125 2.96-.125 1.01 0 1.98.089 2.97.125 1.81.078 3.6.113 5.4.269.05.024.12.031.17.031 9.1.938 18.11 3.454 26.73 7.477 1.52.719 3.06 1.387 4.52 2.199.57.281 1.08.653 1.65.969 1.97 1.125 3.9 2.277 5.77 3.551.09.054.17.078.24.133.5.339.94.757 1.43 1.105 1.76 1.242 3.49 2.504 5.15 3.914.91.766 1.75 1.598 2.65 2.41 1.16 1.071 2.35 2.145 3.47 3.27 1.27 1.297 2.41 2.66 3.58 4.004.68.754 1.37 1.496 2 2.289 1.48 1.824 2.83 3.73 4.15 5.644.26.395.56.746.82 1.141l.24.383c.15.226.28.429.44.652l209.99 319.887V93.363c0-48.054 38.08-87.004 85.14-87.004 46.96 0 85.1 38.95 85.1 87.004v800.828c0 38.297-24.5 72.082-60.35 83.231"/><path id="path24" d="M2248.45 29.852h-636.17c-33.46 0-70.64 20.933-84.41 53.511-13.78 32.547-16.6 76.864 13.03 112.18l520.39 603.797h-429.92c-47 0-85.12 40.707-85.12 90.93 0 50.222 38.12 80.894 85.12 80.894h579.74c33.45 0 68.1-5.32 98.37-38.484 27.66-30.305 26.44-95.711-4.54-134.715l-502.81-586.277h446.32c47.01 0 81.23-40.708 81.23-90.907 0-50.21-34.22-90.93-81.23-90.93"/><path id="path26" d="M487.047 0C345.879 0 217.852 55.973 126.551 157.609 46.113 247.152 0 365.137 0 481.316 0 845.91 303.078 981.785 494.133 981.785c187.84 0 325.73-92.113 331.504-96.015 42.304-28.711 53.625-86.723 25.285-129.571-28.274-42.703-85.274-54.246-127.539-25.859-2.465 1.578-100.281 64.672-229.25 64.672-119.754 0-284.895-79.035-284.895-313.696 0-133.496 99.301-290.949 281.367-290.949 102.438 0 174.458 27.293 216.325 53.934v138.847H565.066c-50.921 0-92.207 41.801-92.207 93.387 0 51.574 41.286 93.387 92.207 93.387h234.079c50.918 0 92.203-41.813 92.203-93.387V198.77c0-25.266-10.102-49.422-27.985-67.02C801.543 70.977 665.895 0 487.047 0"/></g></g></svg>