<svg xmlns="http://www.w3.org/2000/svg" viewBox="0 0 795.18665 197.98666" height="197.99" width="795.19" id="svg2"><g transform="matrix(1.33333 0 0 -1.33333 0 197.987)" id="g10"><g transform="scale(.1)" id="g12" fill="#87b827"><path id="path14" d="M228.734 16.602H0V1470.18l228.734-14.75V16.602"/><path id="path16" d="M603.184 16.602H374.449V1053.29l228.735-12.91zM488.816 1368.73c71.942 0 130.969-59.03 130.969-130.97 0-71.95-59.027-130.98-130.969-130.98-71.941 0-130.968 59.03-130.968 130.98 0 71.94 59.027 130.97 130.968 130.97"/><path id="path18" d="M1149.19 844.852V616.117H977.637V17.602H748.902V1154.75c0 173.39 143.879 330.19 313.588 330.19 57.18 0 103.3-16.61 114.37-23.98l-9.23-219.51h-105.14c-46.12 0-84.853-38.74-84.853-86.7V844.852h171.553"/><path id="path20" d="M1470.45 645.633H1642v106.98c0 47.969-38.74 86.703-84.86 86.703-47.96 0-86.69-38.734-86.69-86.703zm-228.74 106.98c0 173.407 140.19 315.437 315.43 315.437 173.4 0 313.59-142.03 313.59-315.437V531.254c0-64.555-51.65-114.356-114.36-114.356h-285.92v-99.617c0-47.949 38.73-86.699 86.69-86.699h219.52l7.38-193.691-206.6-31.352c-199.23-33.207-335.73 138.352-335.73 311.742v435.332"/><path id="path22" d="M2066.33 16.602V1460.96h147.58v-439.02c40.58 12.91 105.14 18.44 149.41 18.44 156.8 0 278.54-142.036 278.54-302.525V16.602h-143.88v721.253c0 79.325-64.56 142.043-143.88 142.043h-140.19V16.602h-147.58"/><path id="path24" d="M3181.74 295.141v249.031H3039.7c-79.31 0-142.03-62.723-142.03-142.031v-107c0-79.309 62.72-143.871 142.03-143.871 79.33 0 142.04 64.562 142.04 143.871zm0 466.699c0 83.012-38.74 149.422-143.88 138.344h1.84c-59.03-1.84-134.65-9.219-197.37-12.907-1.84 53.496-3.69 73.786-5.53 114.363 49.8 18.45 121.74 36.9 182.62 38.74 184.46 3.69 306.21-145.728 306.21-306.204V295.141c0-158.629-127.28-289.602-285.93-289.602-158.63 0-289.6 130.973-289.6 289.602v90.39c0 158.641 108.83 278.539 289.6 278.539 68.26 0 103.3-7.379 142.04-18.437V761.84"/><path id="path26" d="M3738.89 1040.38c158.65 0 289.61-129.118 289.61-289.607v-18.449c-57.18-1.847-103.3-1.847-145.72-3.687v22.136c0 77.473-64.57 142.032-143.89 142.032-77.47 0-140.2-64.559-140.2-142.032V289.609c0-81.16 62.73-142.039 140.2-142.039 77.48 0 142.04 59.032 143.89 136.512 71.93-5.543 140.19-9.23 145.72-9.23C4021.12 121.75 3892 0 3738.89 0c-158.63 0-287.77 129.129-287.77 289.609v461.164c0 160.489 129.14 289.607 287.77 289.607"/><path id="path28" d="M4609.91 16.602L4329.53 505.44c-27.68 47.95-27.68 53.489 5.53 110.676l247.18 409.503h167.87l-278.55-472.229 300.68-536.79zM4292.63 1457.27V16.602h-147.57V1457.27h147.57"/><path id="path30" d="M4950.89 593.98h284.08v154.954c0 79.312-64.57 143.871-142.04 143.871-79.32 0-142.04-64.559-142.04-143.871zm-147.57 154.954c0 160.476 129.13 291.446 289.61 291.446 158.63 0 287.77-130.97 287.77-291.446V522.035c0-42.433-33.21-73.785-73.79-73.785h-356.02V291.461c0-79.32 62.72-143.891 142.04-143.891h186.31c1.84-47.949 3.69-81.172 7.38-114.36L5109.53 5.54c-180.77-31.36-306.21 125.429-306.21 285.921v457.473"/><path id="path32" d="M5657.71 16.602h-147.58v719.414c0 160.488 125.44 309.894 309.9 306.214 62.72-1.85 101.46-16.61 143.89-36.9-1.85-44.267-3.69-81.162-5.53-114.365l-160.49 3.687c-77.48 0-140.19-83.011-140.19-158.636V16.602"/></g></g></svg>