<svg width="2425" height="416" viewBox="0 0 2425 416" xmlns="http://www.w3.org/2000/svg"><title>Mashable</title><g id="Page-1" fill="none" fill-rule="evenodd"><g id="Mashable" transform="translate(-61 -15)" fill="#00AEEF"><g id="layer1" transform="translate(1.133 .99)"><g id="g13734" transform="matrix(1 0 0 -1 .4 422.39)"><path d="M417.887 0v269.537L315.254 0h-46.469L165.483 269.537V0H60.343v407.607h146.093L292.02 182.7l84.914 224.907h146.094V0h-105.14z" id="path13736"/></g><g id="g13738" transform="matrix(1 0 0 -1 480.513 507.463)"><g id="g13740-Clipped"><g id="g13740" transform="translate(1.169 .494)"><g id="g13746" transform="translate(2.368 1)"><path d="M250.732 83.577v29.336c-18.303-21.98-53.824-36.69-91.684-36.69-45.216 0-101.463 31.174-101.463 97.2 0 71.459 56.247 95.362 101.463 95.362 39.114 0 73.966-12.87 91.684-34.852v29.336c0 25.658-21.98 43.377-59.925 43.377-29.335 0-58.671-11.618-82.49-31.76l-34.852 65.358c37.944 32.428 88.675 45.8 133.89 45.8 70.874 0 137.486-26.243 137.486-117.928V83.577h-94.109zm0 75.805v26.244c-9.778 14.04-31.76 20.81-52.57 20.81-24.404 0-47.054-11.032-47.054-34.266 0-23.235 22.65-34.184 47.054-34.184 20.81 0 42.792 7.272 52.57 21.396z" id="path13748"/></g><g id="g13750" transform="translate(353.895 39.496)"><path d="M0 83.577l39.114 67.197c21.981-19.557 69.035-39.7 103.887-39.7 28.082 0 39.7 7.94 39.7 20.811 0 36.607-171.669-1.253-171.669 118.513 0 51.985 45.216 97.2 126.453 97.2 50.146 0 91.684-15.88 123.444-39.114l-36.022-66.61c-17.719 17.133-51.317 32.344-86.753 32.344-22.065 0-36.691-8.525-36.691-20.143 0-32.344 171.083 1.254 171.083-119.766 0-56.248-49.478-96.532-133.807-96.532-53.156 0-107.565 17.718-138.739 45.8" id="path13752"/></g><g id="g13754" transform="translate(587.753 84.577)"><path d="M250.732 0v171.752c0 36.022-18.972 47.639-48.892 47.639-27.497 0-45.8-15.295-56.833-28.75V0H50.899v407.607h94.108V259.09c17.718 20.81 52.57 43.377 102.048 43.377 67.196 0 97.786-37.86 97.786-92.27V0h-94.109z" id="path13756"/></g><g id="g13758" transform="translate(888.398 1)"><path d="M250.732 83.577v29.336c-18.303-21.98-53.824-36.69-91.684-36.69-45.216 0-101.463 31.174-101.463 97.2 0 71.459 56.247 95.362 101.463 95.362 39.114 0 73.966-12.87 91.684-34.852v29.336c0 25.658-21.98 43.377-59.925 43.377-29.335 0-58.671-11.618-82.49-31.76l-34.852 65.358c37.944 32.428 88.675 45.8 133.89 45.8 70.874 0 137.486-26.243 137.486-117.928V83.577h-94.109zm0 75.805v26.244c-9.778 14.04-31.76 20.81-52.57 20.81-24.404 0-47.054-11.032-47.054-34.266 0-23.235 22.65-34.184 47.054-34.184 20.81 0 42.792 7.272 52.57 21.396z" id="path13760"/></g><g id="g13762" transform="translate(1265.583 1)"><path d="M0 83.577v407.608h94.108V343.92c23.235 29.336 54.994 42.123 87.422 42.123 73.966 0 130.13-58.003 130.13-154.618 0-100.21-57.417-155.203-130.13-155.203-33.013 0-62.934 13.456-87.422 41.538V83.577H0zm150.356 75.805c37.275 0 65.357 27.497 65.357 72.044 0 44.045-28.082 71.542-65.357 71.542-20.142 0-44.63-11.032-56.248-26.912v-90.43c11.617-15.88 36.106-26.244 56.248-26.244z" id="path13764"/></g></g></g></g><path d="M2069.945 14.793h94.108V422.4h-94.108V14.793z" id="path13766"/><g id="g13776" transform="matrix(1 0 0 -1 2177.46 441.653)"><path d="M0 167.155c0 85.583 64.187 154.618 156.457 154.618 87.422 0 150.94-64.187 150.94-164.397v-21.395H97.202c6.686-26.244 31.174-48.308 73.882-48.308 20.81 0 55.078 9.193 72.127 25.073l40.953-61.68c-29.335-26.327-78.228-39.114-123.444-39.114C69.704 11.952 0 71.208 0 167.155m156.457 78.813c-40.953 0-56.833-24.404-60.51-45.8h121.605c-2.424 20.81-17.718 45.8-61.095 45.8" id="path13778"/></g></g></g></g></svg>