<svg width="727" height="103" viewBox="0 0 727 103" xmlns="http://www.w3.org/2000/svg"><title>new-york-times</title><g id="Page-1" fill="none" fill-rule="evenodd"><g id="new-york-times" fill-rule="nonzero" fill="#000"><path d="M326.93 19.898c0-4.068-2.03-6.1-4.74-6.1-4.07-.68-4.75 5.422-4.75 5.422s-.68-4.746 2.71-8.134c2.04-2.035 6.1-5.424 11.53-4.068 6.1 1.355 8.13 6.1 8.13 10.167V73.45s2.03.68 3.39.68c2.03.68 3.39.68 3.39.68V7.018h.68v9.49l12.2-10.168 9.49 8.134 4.06-3.388h.68l-4.74 4.066V67.35c0 3.39-.68 6.78-4.07 8.81-6.78 4.75-15.59-.68-23.72-1.35-5.43-1.36-14.24-2.04-16.95 3.38-.68 1.36-.68 4.07 2.03 6.11 5.43 3.39 28.47-6.11 36.61-2.04 7.45 3.39 7.45 8.14 6.1 12.21-2.03 6.77-10.85 8.13-10.85 8.13s4.75-2.71 3.39-6.78c-.68-2.04-2.03-2.71-6.78-2.04-10.16 1.36-21.69 6.11-29.82 2.72-4.07-2.03-7.46-6.78-6.78-12.2 0-7.46 8.81-10.17 8.81-10.17V47.01c-.68-.675-4.74-.675-6.1 1.358-1.35 3.39 2.04 4.747 2.04 4.747s-2.72 0-5.43-2.713c-.68-1.357-3.39-5.424 0-10.167 2.04-3.39 5.43-4.067 9.49-4.067v-16.27zm20.34 55.582s4.06.68 6.1-1.35c3.39-2.71 2.71-5.43 2.71-5.43V47.692s-1.36-2.714-4.07-2.714-4.74 2.714-4.74 2.714V75.48zm8.81-55.582l-5.42-4.746-3.39 2.033v19.66s2.03 2.033 4.74 2.033c2.71 0 4.07-2.034 4.07-2.034V19.898zm0 18.303s-1.36 1.354-4.07 1.354-4.74-1.353-4.74-1.353v8.135s2.03-2.034 4.74-2.034c2.71 0 4.07 2.035 4.07 2.035v-8.137zm98.31-16.946c0-4.746-2.06-7.457-4.78-7.457l15.59-10.17v60.333l4.08 4.07 2.73-2.71.66.67-12.21 10.85-8.13-8.14-3.38 3.4-.66-.68 6.1-5.43V21.255zm11.51 27.114l13.57-20.333s2.02 2.03 5.41 2.71c4.08 1.352 8.12-2.71 8.12-2.71-.66 5.42-3.38 11.52-9.49 12.2-4.74.676-9.48-3.39-9.48-3.39l-.66 2.033 18.97 29.152 4.04-3.39.7.68-13.57 11.52-17.61-28.472zm-31.88-12.2l7.47-7.457s.7.678 2.06 1.354c.66.68 2.68 1.357 4.74.68 1.32-.68 1.32-1.356 2.68-2.033 0 6.1-2.68 10.168-6.1 11.525-2.02.676-6.11 2.033-10.85-3.39v27.795l5.44 4.06 3.39-2.71h.7l-12.21 10.85-9.49-8.81-3.42 3.39-.66-.68 4.74-4.75V42.268l-3.38-5.424-3.38 2.71h-.7l12.21-10.843 6.76 7.458zm-23.71 2.71l3.38-2.71h.7l-3.38 3.386v25.766s-6.81 3.38-10.85 6.1c-4.75 2.71-9.53 5.42-9.53 5.42l-12.18-10.16-2.71 2.71h-.68l3.39-3.4V38.2s5.42-2.032 10.16-4.746c4.08-2.71 8.83-5.42 8.83-5.42l12.87 10.845zm-20.34 23.052l9.49 8.81V42.945l-9.49-8.81v27.796zm312.51 18.3c-1.36.68-6.76-.68-8.12-6.78-1.37-6.1 2.72-9.49 8.78-16.27l-7.42-6.102V38.2s5.4-2.032 9.48-4.746c4.05-2.71 8.13-5.42 8.13-5.42s3.38 4.063 6.76 3.387c5.45-.676 5.45-4.743 4.75-5.42 1.36 1.355 3.42 6.097-6.11 17.625l8.17 6.1v16.265s-9.49 4.75-17.65 10.85c0 0-4.75-6.1-8.79-3.39-3.38 2.03-2.06 5.42 2.02 6.78zm-6.76-12.2s4.04-6.78 11.5-5.42c6.77 1.35 8.83 8.13 8.83 8.13V54.468l-4.74-4.066c-4.75 5.423-14.23 12.878-15.59 17.628v.001zm10.84-34.576v12.88l4.05 4.068s9.48-7.457 12.87-14.91c0 0-4.05 6.1-10.15 4.062-4.74-1.353-6.77-6.1-6.77-6.1zM554.04.916c2.02 0 5.41.678 8.13 3.39 2.02 2.034 2.72 6.1 2.02 9.49-.66 2.712-2.02 4.747-4.74 6.78-3.39 2.033-6.77 2.033-6.77 2.033V35.49l6.1 5.42-6.1 4.746v18.302s6.1-4.07 10.15-12.202l.7-1.356c0 2.713 0 6.778-2.72 12.878-1.36 4.07-5.45 8.14-9.49 10.85-7.47 4.06-13.57 4.06-19.67 3.39-6.77-2.04-13.57-6.1-17.62-12.88-3.38-4.75-4.74-10.848-4.74-16.948 0-12.2 9.49-22.37 19.64-26.438 1.36-.678 2.06-.678 4.08-.678-1.36 0-2.02.678-3.38 2.033-3.39 2.032-6.11 6.1-7.47 9.487l20.33-8.81v28.47l-16.25 8.133c2.02 2.72 7.43 6.79 12.21 6.79 8.13 1.35 12.87-2.72 12.87-2.72V45.658l-6.1-4.747 6.1-5.418V22.61c-3.38-.68-7.47-2.034-10.19-2.712-3.38-.678-15.59-4.068-17.61-4.068-1.36-.678-4.08-.678-5.44.678-1.32 1.357-2.02 3.39-2.02 5.423.7 1.357 1.36 2.035 2.02 2.712 0 0-.66 0-2.02-.677-2.03-1.356-4.05-4.067-4.05-7.457-.7-4.067 1.32-8.135 4.75-10.846 3.38-2.035 6.76-3.39 10.84-2.713 6.07.677 14.23 4.068 21 6.1 3.38.678 5.44.678 7.46-.677.66-.678 2.02-2.033.66-4.066-1.36-2.713-4.04-2.713-6.76-3.39 2.02-.68 2.72-.68 4.08 0V.916zM530.29 57.18V29.388l-8.13 4.066s-2.72 4.747-2.02 11.524c0 5.424 3.38 11.522 5.4 14.242l4.75-2.04zm35.92-39.315l8.16-7.46 7.43 7.46L573.01 26l-6.8-8.135zM582.5 63.28V38.878l4.08-3.386v-.68l-4.08 3.39-8.13-9.49-11.54 10.166 3.38-2.71 4.74 6.1V66.68l-3.38 3.38.7.68 3.38-3.39 8.13 9.49 11.55-10.16-.7-.69-3.39 2.71-4.74-5.42zm33.9 2.04l-2.06 2.03 8.17 8.81 8.78-8.13-3.38-3.39V38.2l2.02-2.032 6.81 7.457V64.64l-2.06 2.04 8.82 10.16 12.21-11.52-.7-.68-2.68 2.71-4.75-4.74V38.2l4.05-3.39v-.675l-4.75 3.386-8.12-8.81-11.51 8.81-8.16-8.81-11.51 8.81-8.13-8.81-12.21 10.844h.66l3.43-2.71 5.4 6.1v21.696l-2.72 2.04 8.82 10.16 8.83-8.81-3.42-4.07V38.2l2.06-2.032 6.1 7.457V65.32zm64.39-37.285s-6.77 4.062-10.85 6.776c-4.08 2.034-9.49 4.744-9.49 4.744v26.436l-4.08 2.71.7.69 3.38-2.71 11.51 10.16 20.33-15.59-.66-.68-10.84 8.82-9.49-8.82v-2.71l18.31-13.56-8.82-16.266zm0 21.69L671.3 56.5V34.135l9.49 15.59zM253.72 76.84l-10.17-8.14-4.07 3.4-.67-.68 4.74-3.39V45.658c0-9.49-8.81-6.78-8.13-16.947 0-4.068 4.06-7.456 6.78-8.812 2.03-.678 4.74-.678 4.74-.678s-4.07 2.034-3.39 6.102c1.36 5.422 10.85 5.422 11.53 12.88v25.758l6.77 5.43 2.04-1.36V40.235l-4.07-3.39 9.49-8.81 8.81 8.133-3.39 3.386V63.96l8.82 6.78 1.35-.68V40.235l-4.07-3.39 9.49-8.81 9.5 7.457 3.39-3.395.67.68-8.13 7.458V63.96l-21.02 12.88-10.84-8.14-10.17 8.14zm-27.79-48.805s-6.1 4.062-10.85 6.776l-9.49 4.744v26.436l-4.07 2.71.68.69 4.07-2.71 10.84 10.16 20.34-15.59-.68-.68-10.84 8.82-8.82-8.82v-2.71l17.63-13.56-8.81-16.266zm0 21.69l-8.82 6.775V34.135l8.82 15.59zM160.85 84.3c-5.42-.68-7.46-3.39-7.46-6.11 0-1.35 2.04-4.74 4.75-4.74 3.39-.68 6.1.68 8.81 4.07l12.2-13.56h-.68l-3.39 3.39c-2.71-3.39-7.45-6.1-12.2-6.78V20.576l30.51 56.264s.67.68 2.03.68c.68 0 .68-.68.68-.68V20.576c2.71-.678 6.1-2.033 8.13-3.39 6.11-6.1 3.39-12.88 2.71-13.56 0 2.714-2.71 5.425-6.1 6.102-4.74 0-8.13-4.066-8.13-4.066L181.18 19.22l.68.678 3.39-4.068c4.07 4.068 6.78 4.068 10.17 4.746v32.54l-23.05-41.352c-2.03-3.39-4.74-6.78-10.17-6.78-5.42 0-9.49 4.744-10.16 9.49-.68 4.746 0 6.102 0 6.102s.67-5.424 4.07-5.424c3.38 0 4.74 2.713 6.09 4.746v12.2c-3.38 0-11.52 0-11.52 8.813 0 2.715 2.03 6.1 3.39 7.458 2.03 1.357 4.07 1.357 4.07 1.357s-2.71-1.357-2.04-4.067c.68-2.713 6.1-2.713 6.1-2.033v16.945c-2.71 0-10.16 0-14.23 6.78-2.03 4.07-2.03 8.81.68 12.2 2.03 2.71 5.42 6.1 12.2 4.75V84.3zm-88.81 2.71c2.72 0 6.78.68 12.88-2.03 6.11-3.39 8.82-9.5 8.82-16.28l.68-9.48V38.2l3.38-2.708v-.68l-4.06 2.71-8.82-9.487-11.52 9.486V4.308L59.166 15.152c.676.678 2.71.678 2.71 4.068v46.77l-6.1 4.07.68.68 2.71-2.04 8.134 7.46 12.88-10.17-.68-.67-2.71 2.71-3.39-3.39V38.878l3.39-3.386 6.1 6.776V64.64c0 6.1 0 13.55-3.39 16.95-3.39 4.06-4.07 4.06-7.46 5.42zm52.2-58.975s-6.78 4.062-10.84 6.776l-9.49 4.744v26.436l-4.07 2.71.68.69 3.39-2.71 11.52 10.16 20.34-15.59-.68-.68-10.85 8.82-9.49-8.82v-2.71l18.31-13.56-8.82-16.266zm0 21.69l-9.49 6.775V34.135l9.49 15.59zM45.61.915c2.032 0 4.742.68 7.456 3.392 2.71 2.033 2.71 6.1 2.033 9.49-.68 2.71-1.358 4.746-4.748 6.78-3.386 2.032-6.777 2.032-6.777 2.032V35.49l6.1 5.42-6.1 4.746v18.302s6.1-4.07 10.167-12.202l.677-1.356c0 2.713 0 6.778-2.71 12.878-1.358 4.07-4.744 8.14-9.49 10.85-7.458 4.06-12.882 4.06-18.983 3.39-7.457-2.04-14.236-6.1-18.303-12.88C1.544 59.888.186 53.79.186 47.69c.678-12.2 9.49-22.37 19.66-26.438 1.355-.678 2.033-.678 4.066-.678-.677 0-2.033.678-3.388 2.033-3.39 2.032-6.102 6.1-7.457 9.487l20.336-8.81v28.47l-16.27 8.133c2.034 2.72 7.458 6.79 12.202 6.79 8.814 1.35 13.557-2.72 13.557-2.72V45.658l-6.777-4.747 6.777-5.418V22.61c-3.386-.68-8.133-2.034-10.166-2.712-4.07-.678-16.273-4.068-17.628-4.068-2.033-.678-4.744-.678-6.1.678-1.357 1.357-2.035 3.39-1.357 5.423 0 1.357.678 2.035 1.356 2.712 0 0-.677 0-2.033-.677-2.033-1.356-4.066-4.067-4.066-7.457 0-4.067 1.357-8.135 5.423-10.846 2.713-2.035 6.1-3.39 10.17-2.713 6.1.677 14.236 4.068 21.692 6.1 2.71.678 4.743.678 6.78-.677.677-.678 2.71-2.033 1.354-4.066-2.035-2.713-4.745-2.713-7.458-3.39 2.033-.68 2.713-.68 4.747 0l.004-.002zM21.202 57.18V29.388l-8.134 4.066s-2.034 4.747-2.034 11.524c.677 5.424 3.388 11.522 5.42 14.242l4.748-2.04z" id="Shape"/></g></g></svg>