<svg id="svg2" xmlns="http://www.w3.org/2000/svg" viewBox="602 101 2908.3 512"><path id="path2384" fill="#B2C9D9" d="M790.5 223.1h-59.9l.3-64-88.7 13.2v49.4l-40.3 6.1v39.3h41.6l-.3 172.3c.3 6.2 10.2 62.1 70.7 58.6 68.6-4 74.5-11.8 80.6-15.9-.5.5 0-33.5 0-33.5l-37.2 1s-21-1.4-24.4-24.7c-.1 0-.7-157-.7-157l58.2.3c.1-.1.1-45.1.1-45.1z"/><path id="path2396" fill="#B2C9D9" d="M919.4 101l-119.7 17.2.2 22.8 31.8 14.2.3 299-30.1 11.8.3 24.5 146.9.2v-24.4l-29.6-12.9.2-176.8s16.8-7.4 39.9-7.4c23.2 0 33.8 14.9 33.8 24V454l-27.1 12v24.7h146.5V467l-30.1-14.7V271.2s.7-57.5-66-54.7c-40.6.2-69.3 13-97.6 35.4.1-.1.1-150.7.3-150.9z"/><path fill="#B2C9D9" d="M1366 364.1c3.4-59-2.8-153.1-121.8-147.4-116.7 5.5-131.4 94.8-130.7 152.4 6.7 93.2 54.8 127.8 145 129.2 71.3-2.4 97.2-40 97.2-40v-25.2s-33.5 10.1-68.7 9.8c-83.3-.6-82.3-78.9-82.3-78.9H1366zm-161.6-31.4s-.5-38 7.1-62.2c6.1-19.3 18.3-25.6 32.4-25.7 23.5 0 29.4 13.1 32 29.3 3.8 23.3 3.2 54.9 2.9 55.1l-74.4 3.5z"/><path fill="#00417B" d="M1592 432.9h-106.3s-15.9-1.7-16.6-17.9c-.7-16.2 10.8-20.3 10.8-20.3s22.7 6.8 46.4 6.8 116.8-9.8 116.8-90.4c0-36.6-28.8-57.5-28.8-57.5l51.5 13.8-.9-52.9-74.3 13.7s-38.6-14-66-14c-18.4 0-113.6 7.3-117 90.8-2.4 59 47.3 81 47 81-.3 0-47.4 29.1-47.7 65.3-.3 34.9 39.5 45.6 42.5 46.3h0c-3.8-.1-64.8 11.3-64.8 54.2 0 41 67.7 60.9 139.4 61.3 71.8.3 150.6-20 150.6-104.9s-82.6-75.3-82.6-75.3zm-68.1-186.6c33-.2 33.2 34 33.3 48.4v25.6s4.4 46-30.5 46.2c-34.9.2-33.8-26.7-33.8-46.2v-30.1s-1.9-43.7 31-43.9zm.2 334.2c-49.1 0-66.7-20-66.7-39.3 0-19.3 12-27.2 12-27.2l106.4-.2s21.2 2.4 21.2 21c.1 28.6-23.8 45.7-72.9 45.7z"/><path id="path3188" fill="#00417B" d="M1794 216l-119.8 18.6V258l30.8 14.9v150.6s1.6 74 74.1 74.8c58.9.7 88.3-40.3 88.3-40.3v39.6l116.1-13.9v-21.3l-29.7-17.1V216.7l-119.3 18.6v22.3l31.5 15.9v160.8s-8.1 6.8-34.2 8.8c-26.1 2-37.9-22.7-37.9-22.7l.1-204.4z"/><path id="path3190" fill="#00417B" d="M2008.1 235.3s57.2-20.8 104.3-20.8c47.1 0 115.4 16 115.4 74.7v162.5L2257 467v19.4s-20.8 11.2-51.5 11.2c-30.6 0-57.2-15.6-57.2-39-6.7.1-9.1 38.5-80.9 38.5-83.8 0-77.3-74.2-77.3-75.6s-2.4-55.4 58.6-67c60.3-11.5 88.3-16 88.3-16l-.3-54.6s-5-33-33.5-32.8c-28.5.2-28.2.5-28.2.5l-20.1 54.8h-47.1l.3-71.1zm131.2 204.5v-73.7s-60.1-5.4-60.2 42.7c-.1 36.2 22.7 40.4 33 40.4 11.9-.7 19.8-4.9 27.2-9.4z"/><path id="path3195" fill="#00417B" d="M2379.5 213.5l-117 18.4v24.4l30.2 14.4v181.2l-28 14.4v23h154.1v-22l-36.9-14.8.2-149.6s23.5-9.3 47.1-9.3c23.7 0 35.4 2.6 35.4 2.6v-78.3s-50.2-15.7-85.7 54.3c.1.2.6-58.7.6-58.7z"/><path id="path3197" fill="#00417B" d="M2611.4 124.3V148l29.4 14.1v64.1s-20.6-9.8-45.5-9.8-126.6 3.8-129.5 143.6c-2.9 139.8 105.8 137.8 104.8 137.8s49.8 1.4 72.8-28.2c-.1 0-.2 28.1-.2 28.1l115-14V461l-27.6-14.1-.2-341.3-119 18.7zm29.3 138.5v181.6s-9.5 4.8-27.2 4.8c-28.7 0-53.1-19.6-52.9-82.6.2-55 8.2-98.3 32.3-109.6 24.1-11.2 46.7 4.3 47.8 5.8z"/><path id="path3220" fill="#00417B" d="M2889.3 150.2c0 27-21.9 48.9-48.9 48.9s-48.9-21.9-48.9-48.9 21.9-48.9 48.9-48.9 48.9 21.9 48.9 48.9zm-2.1 64.4l-121.5 17.3v23.4l31.8 15.6v181.4l-29.1 13.2v24.7h146.2v-23.7l-27.8-13.5.4-238.4z"/><path id="path3224" fill="#00417B" d="M2942.7 235s57.2-20.8 104.3-20.8c47.1 0 115.4 16 115.4 74.7v162.5l29.2 15.3V486s-20.8 11.3-51.5 11.3c-30.6 0-57.2-15.6-57.2-39-6.7.1-9.1 38.5-80.9 38.5-83.8 0-77.3-74.2-77.3-75.6 0-1.4-2.4-55.4 58.6-67 60.3-11.5 88.3-16 88.3-16l-.3-54.6s-5-33-33.5-32.8c-28.5.2-28.2.5-28.2.5l-20.1 54.8h-47.1l.3-71.1zM3074 439.5v-73.7s-60.1-5.4-60.2 42.7c-.1 36.2 22.7 40.4 33 40.4 11.9-.7 19.7-4.9 27.2-9.4z"/><path id="path3228" fill="#00417B" d="M3315.4 214l-119.5 19v22.7l32.2 15.2v182.8l-29.4 11.8v25.4h146.2v-25l-27.1-12.9V276.2s14.6-6.8 35.9-6.8c21.3 0 37.9 9.5 37.9 30.5v153l-30 14.7-.1 22.5h148.9v-24l-29.1-12.2V284.4s2-67.7-66.7-67.7-98.8 36.2-98.8 36.2l-.4-38.9z"/></svg>