<svg id="Layer_1" xmlns="http://www.w3.org/2000/svg" width="449.84" height="140.01" viewBox="0 0 449.838 140.006"><linearGradient id="a" gradientUnits="userSpaceOnUse" x1="346.43" y1="37.11" x2="380.66" y2="56.87"><stop offset="0" stop-color="#c7140b"/><stop offset=".75" stop-color="#ff3c1f"/></linearGradient><path d="M401.838.005L379.82 64.927l-13.568-52.922C363.176 0 359.219 0 356.967 0c0 0-4.938.001-9.873 1.413l-10.639 47.145 20.539 91.447h41l51.844-140h-48z" fill="url(#a)"/><linearGradient id="b" gradientUnits="userSpaceOnUse" x1="255.04" y1="57.94" x2="300.99" y2="84.47"><stop offset="0" stop-color="#c7140b"/><stop offset=".75" stop-color="#ff3c1f"/></linearGradient><path d="M298.326 65.089l-16.842-52.973C277.884.795 272.718.001 269.589.001c0 0-5.875 0-12.105 1.412v82.271l22 56.32 6.432.001 21.523-1.412-9.113-73.504z" fill="url(#b)"/><linearGradient id="c" gradientUnits="userSpaceOnUse" x1="321.44" y1="140" x2="321.44" y2=".01"><stop offset="0" stop-color="#ff3c1f"/><stop offset=".85" stop-color="#ff3c1f"/><stop offset=".95" stop-color="#f70"/></linearGradient><path d="M356.967.008l-37.225.009c-2.783 0-10.141-.009-12.17 11.988l-21.656 128h33.941l27.92-128c2.618-12 8.358-11.997 9.19-11.997z" fill="url(#c)"/><linearGradient id="d" gradientUnits="userSpaceOnUse" x1="13.35" y1="75.72" x2="140.63" y2="53.27"><stop offset="0" stop-color="#ff3c1f"/><stop offset=".7" stop-color="#ff3c1f"/><stop offset="1" stop-color="#c7140b"/></linearGradient><path d="M131.484 1.413s-6-1.408-11.999-1.408H0l14.812 40h36.672v100h40v-100h40V1.413z" fill="url(#d)"/><linearGradient id="e" gradientUnits="userSpaceOnUse" x1="194.54" y1="140" x2="194.54"><stop offset="0" stop-color="#ff3c1f"/><stop offset=".85" stop-color="#ff3c1f"/><stop offset=".95" stop-color="#f70"/></linearGradient><path d="M231.484.001c-6.627 0-12 5.377-12 12.004V62.48L176.343 7.933c-3.927-5.186-10.24-7.906-15.93-7.906L119.484.006s9.999 0 9.999 12.001v127.999h40V63.731l54.436 68.834c3.979 4.933 9.823 7.477 15.704 7.439h19.861v-128c0-7.092 4.52-12.004 10.105-12.004h-38.105z" fill="url(#e)"/></svg>