<svg xmlns="http://www.w3.org/2000/svg" height="92.32" width="298" viewBox="0 0 298 92.320587"><path fill="#e90606" d="M142.27.951s-3.33.07-5.26.037c-.08.81-1.01 8.15-1.81 14.053-.92 5.463-8.21 45.988-10.68 58.12-.65 3.662-2.66 14.01-2.85 15.044-2.32.277-5.06.533-6.85.602-.24.008-.64.086-.83.086v2.101c.22-.009 1.38.08 2.2.045 1.97-.063 7.56-.328 8.62-.328 4.02 0 6.7.266 10.42.34.05 0 1.07-.004 1.52-.06v-2.124c-.31 0-.72-.01-.96-.01-1.05.033-4.92-.264-6.88-.53.23-1.389 3.65-22.377 5.29-30.77 3.12-15.535 5.28-26.545 5.28-26.545l.58 1.367 24.65 58.752 4.5.023s2.57-6.362 5.62-13.498c.08-.169.3-.68.61-1.41 3.2-7.41 19.06-45.017 19.06-45.017s.15.677.4 1.888c1.51 7.371 6.62 33.935 7.71 40.344.51 3.297.99 6.641 1.27 8.6.41 2.774.68 5.49.68 6.27-.5.022-5.52.476-7.42.558-.27-.009-.78.016-.81.021v2.137c.68 0 1.34.03 2 .015 3.88-.074 7.61-.378 11.49-.376 4.36.004 11.43.385 15.96.414.51 0 1.42-.045 1.42-.045v-2.159c-.26-.002-1.4-.058-1.82-.09-2.03-.16-5.45-.477-6.32-.535 0 0-.56-3.103-1.3-6.687-2.96-14.337-11.39-57.916-12.68-68.639-.44-3.685-1.69-11.96-1.69-11.96l-5.07-.002-4.95 14.207c-1.61 4.63-3.8 10.346-5.47 14.729-8.24 21.656-17.48 41.836-17.48 41.836s-19.64-46.862-20.68-49.572c-1.05-2.711-7.47-21.231-7.47-21.231zM1.09.971l.043 4.953-.084 12.062 1.307-.037.136-10.728s7.166-.062 8.092-.061l13.361.006 8.623.043.014 74.607.002 6.444-.182.025c-1.148.089-5.565.359-7.359.424-.402.013-.659.023-.703.018l.008 2.183a38.4 38.4 0 0 0 1.312.033c4.244-.055 9.987-.424 14.06-.42 4.136.002 9.958.404 13.561.446.357.002.78-.033 1.123-.033v-2.047l-.447.004c-1.148-.005-7.497-.414-8.154-.5a2244.97 2244.97 0 0 1-.145-5.94L45.69 7.2l6.565-.018 17.13.012 5.716.078c.038.409.327 5.843.322 5.99-.013.396.214 4.444.205 5.44l1.355.016-.097-12.2.062-5.488c-5.034.137-17.863.31-37.773.299C22.1 1.32 5.644 1.176 1.09.97zm79.746.02l.021 2.136c.676.037 4.65.388 5.616.436.771.094 1.847.19 2.617.265 0 .684.012 5.405.023 7.268.129 17.659.019 56.687-.033 70.496l-.027 6.566c-.487.146-1.583.201-2.768.281-1.013.069-4.643.374-5.453.391v2.137c.336 0 .952.071 1.303.068 4.109.001 9.822-.509 14.031-.506 4.254.003 9.934.521 13.284.522l-.01.002c.29.004.98-.072 1.27-.071v-2.136h-.29c-.13-.028-4.45-.21-5.5-.319-.55-.035-2.93-.241-2.96-.32-.01-.042-.02-.681-.02-1.746.01-1.011.01-2.692.01-4.514.01-13.929.05-55.298.06-71.111 0-3.056.01-5.54.01-6.871.93-.059 4.73-.456 6.09-.576.06-.006 1.86-.11 2.6-.155V1.008c-4.65-.002-10.803.362-15.341.36C90.623 1.363 84.776.991 80.836.99zm215.2.06l-1.4.004c-3.11.013-11.07.072-20.38.123-5.72.033-10.19.079-16.08.076-4.13.048-9.91.208-13.48.201-5.7-.01-10.35-.36-12.88-.371-1.2-.005-1.87.04-2.2.02.02.03.02 2.109.02 2.109.22.038.66.087 1.07.078 1.43.096 4.11.313 5.47.492.27.05.73.126 2.01.268-.01.473.06 5.827.05 9.043 0 2.98-.03 69.47-.03 69.47 0 .108-.15 5.347-.15 5.77-2.26.387-6.6.625-8.08.631h-.44v2.115c.21-.001 1.18.037 1.73.037 2.39-.001 8.55-.381 14.84-.385 4.41-.004 9.26.161 14.17.231 6.05.084 12.17.088 17.67.166 9.07.128 16.42.139 18.81.142 0 0 .29-16.823.29-18.179l-1.31.015c0 1.431-.53 6.76-.55 6.993-.17 2.006-.35 4.108-.49 5.144 0 0-.64.051-.95.045-1.49-.028-6.25.145-6.35.145l-21.23.009-14.91-.25-.1-4.136-.01-32.112c2.66-.09 6.72-.231 9.19-.226 2.1.004 7.05-.114 9.82-.108 6.73.012 12.71.055 13.19.069 1.11.032 3.17.1 3.95.148.03.283.12.725.13.85.4 2.459.62 4.162.89 6.576.04.217.06.427.09.625h1.53s.04-.863.02-1.4c-.03-1.893-.15-5.669-.15-9.854-.01-2.901.16-7.336.18-9.469.01-.577-.06-.987-.06-1.152l-1.4.027c-.01.461-.12 1.141-.12 1.141-.12 1.59-.57 3.622-.93 5.766-.1.267-.17.64-.17.64-.16.054-4.55.288-4.94.285-.15-.001-6.54.178-6.65.178l-24.56-.092.04-35.41s3.12-.11 3.99-.105c3.54 0 9.3-.032 15.17-.024 8.59.01 16.93.064 16.95.076.05.025 2.59.06 2.64.104.06.048 3.24.143 4.02.168 0 0 .06.263.1.595.35 3.734.64 8.168.77 9.739l.01.629 1.31-.004c0-2.299-.12-9.34-.14-13.819-.01-1.439.02-2.61.02-3.277v-.57z"/></svg>