<svg xmlns="http://www.w3.org/2000/svg" width="1500" height="300"><path id="Y" d="M0 150v150h300V0H0v150m131.5-38.3c9.9 20.5 18.2 37.2 18.5 37.3.3 0 8.9-16.9 19.3-37.5L188 74h11c6.7 0 11 .4 11 1s-11.2 22.1-25 47.9l-25 47V231h-21v-62l-24.5-45.9C101 97.8 89.7 76.4 89.4 75.6c-.6-1.5.7-1.6 11.7-1.4l12.3.3 18.1 37.2z" fill="#fc6520"/><path id="C" d="M444 68.5c-18.9 5.3-32.2 16.8-41.6 36-6.2 12.7-8.5 22.3-9.1 38.6-.6 14.7 1.1 28.9 4.7 39.4 7 20.2 21.1 34.9 40 41.6 5.5 2 8.5 2.3 19.5 2.4 14.9 0 23.5-2 35.6-8l7-3.6-4.7-6c-2.6-3.3-5-5.8-5.3-5.6-.3.1-4 2-8.2 4-18.6 9.2-42 5.4-54.7-8.9-6-6.7-9.7-14-12.4-24.6-1.8-7.3-2-10.3-1.5-28.2.5-22.5 1.6-28.4 7.4-40.3 6.3-13 16.4-20.9 29.9-23.4 10.4-1.9 24.1.7 33.1 6.4l4 2.5 4.2-5.3c2.4-3 4.3-5.7 4.3-6.2 0-1.4-9.1-6.5-16.5-9-9.3-3.2-27.3-4.1-35.7-1.8z" fill="#fc6520"/><path id="o1" d="M551.5 110.7c-12 4.3-20.9 12.3-26.5 23.6-4.8 10-6.4 18.3-6.3 34.2.1 21.7 4.2 34.3 15.1 45.7 17.4 18.3 50 17.9 67.1-.8 10.6-11.6 14.6-25.5 13.9-48.3-.4-12.3-.9-15.8-3.2-22.4-4.9-14.5-13.2-24.3-25.4-30-6-2.8-7.7-3.1-18.2-3.4-9.1-.3-12.5 0-16.5 1.4m27.6 15.1c11.8 6.1 16.1 17.8 16.1 44.2.1 18.6-1.5 26-7.2 33.9-8.7 12-31.5 12.4-41.6.9-6.4-7.2-10.1-26-9.1-45.3.9-15.9 3.5-24.1 9.4-29.7 7.7-7.4 22.5-9.2 32.4-4z" fill="#fc6520"/><path id="m" d="M653.2 110.9c-4 1-7.4 2-7.6 2.2-.3.2.3 2.9 1.2 5.9 1.3 4.6 1.6 13.7 2 55.7l.4 50.3H665v-84.8l4.8-4.1c2.6-2.3 7.8-5.7 11.6-7.6 8.3-4.2 16-4.8 21.4-1.5 6.1 3.8 6.2 4.3 6.2 53.5V225h18v-83.8l6.8-5.7c9.8-8.2 15.3-10.9 22.9-10.9 7.1-.1 10.7 1.9 13.5 7.5 1.6 3.1 1.8 7.5 1.8 48.1V225h18.1l-.3-46.8c-.4-53.3-.3-52.8-8.8-61.3-12.1-12.1-31-10.2-49.9 5.3-3.9 3.1-6.6 4.7-6.9 4-.2-.7-1.8-3.4-3.5-6-2.4-3.4-4.9-5.5-9.7-8-6-3.2-7-3.4-13.7-3-8.5.6-17.3 4.4-25.9 11.4-2.9 2.4-5.6 4.4-5.9 4.4-.3 0-.5-1-.5-2.2 0-2.9-3.1-13.8-3.9-13.7-.3 0-3.9.9-7.9 1.8z" fill="#fc6520"/><path id="b" d="M832.3 60.4c-3.5.7-6.5 1.5-6.7 1.7-.3.3 0 2.2.6 4.4.8 2.7 1.3 25.6 1.5 70.9.4 62.2 0 77.4-2.3 85.3-.6 2.3-.5 2.3 8 2.3h8.6l1.7-6 1.6-5.9 4 3.5c13.7 12.5 35.8 13.9 49.9 3.3 17.2-12.9 25.2-40.5 20.3-69.5-6.5-37.9-40.8-53.1-69.1-30.6l-5.2 4.1-.5-28.7c-.3-15.8-.9-30.3-1.4-32.2-1-4.1-2.1-4.4-11-2.6m54.2 67.3c11.6 6.1 16.5 20 15.1 43.3-1.7 29.9-11.3 42.2-31.6 40.8-7.6-.6-15.7-4-21.3-9.1l-3.7-3.5v-59.8l4.3-4c5.1-4.9 7.9-6.7 13.8-8.8 6.1-2.2 18-1.7 23.4 1.1z" fill="#fc6520"/><path id="i" d="M967.5 109.5c-.5.2-4.3.9-8.2 1.5l-7.3 1.2V225h18v-58c0-31.9-.3-58-.7-57.9-.5 0-1.2.2-1.8.4z" fill="#fc6520"/><path id="i-dot" d="M954.5 64.8c-9.4 5.9-8.8 19.7 1.1 23.8 7.2 3 14.3.2 17.8-6.9 2.4-5 1.5-9.8-2.8-14.4-2.7-3-4.1-3.6-8.2-4-3.6-.3-5.7.1-7.9 1.5z" fill="#fc6520"/><path id="n" d="M1013 111.3c-4.1 1.1-7.6 2.1-7.8 2.3-.2.1.5 2.8 1.4 6 1.5 5.1 1.8 12.5 2.1 55.6l.5 49.8h15.8v-85l5.3-4.1c2.8-2.3 8.5-5.8 12.6-7.7 6.2-3 8.6-3.6 14.2-3.6 7.3-.1 10.2 1.3 14.3 6.8 2 2.7 2.1 4.1 2.4 48.2l.3 45.4h18l-.3-46.3c-.4-50.9-.4-50.6-6.8-58.7-3.8-4.8-13.2-9.6-20.4-10.5-9.8-1.2-22.4 3.4-33 12-3.1 2.5-5.8 4.5-6.1 4.5-.3 0-.5-1-.5-2.3 0-2.7-2.8-12.9-3.8-13.8-.4-.4-4.1.3-8.2 1.4z" fill="#fc6520"/><path id="1" d="M1157 110.5c-8.1 1.8-13.7 3.9-22 8.1-10.1 5.2-9.8 4.4-5.1 11.2l4.1 6.1 4.4-2.9c8.9-6 21.5-10 31.9-10 11.2 0 17.3 4.8 18.7 15.1.5 3.5 1 8.7 1 11.5v5.1l-13.2.6c-21.3.9-35.7 5.8-45.1 15.1-17.5 17.5-11.6 48.5 10.5 55.1 16.3 4.8 31.4 1.7 43.3-8.7 2.7-2.4 5-3.8 5.2-3.3 1.2 3.5 5.3 9.2 8.3 11.6 5.5 4.4 6.6 4.1 11.3-2.4l4.1-5.8-3.2-2.5c-5.1-4-5.4-6.9-5-45.8.3-31.6.1-35.6-1.5-40.2-2.4-6.9-7.6-12.7-14.4-16-4.8-2.4-7-2.8-16.2-3.1-6.7-.2-13 .3-17.1 1.2m29.7 56.5h2.5l-.3 15.3c-.4 15-.5 15.5-3.2 19.5-3.7 5.2-11.8 10.8-18 12.3-6.2 1.5-14.8.6-19.1-2.1-2-1.2-4.4-4-5.6-6.6-1.9-3.9-2.2-5.8-1.8-13.5.4-7.9.7-9.4 3.4-13.1 3.2-4.6 8.4-8.1 14.9-10 4.9-1.4 17.9-2.7 21.9-2.2 1.6.2 4 .4 5.3.4z" fill="#fc6520"/><path id="t" d="M1257.7 81c-4.3 1-8.1 2.1-8.5 2.4-.3.4-1.1 7-1.6 14.6l-.9 14H1232v13h15v41.8c0 45.9.4 49.4 5.7 54.4 4.7 4.4 9.3 6.1 17.6 6.6 7.8.5 20-1.8 21.3-4 .3-.5 0-3.1-.6-5.8-1.1-4.6-1.3-4.8-3.7-3.9-3.3 1.2-12.3 1.2-16.1-.2-1.7-.6-3.9-2.3-4.9-3.7-1.7-2.5-1.8-6-2.1-44l-.3-41.2H1287.6l2.6-6.3 2.6-6.2-14.1-.3-14-.3.6-13.2c.4-7.3 1-14.7 1.3-16.5.4-1.8.3-3.2-.2-3.1-.5 0-4.4.9-8.7 1.9z" fill="#fc6520"/><path id="o2" d="M1343.3 111.1c-14 4.4-25 17.2-29.9 35-2.6 9.1-2.6 34.7 0 43.9 5.9 21.6 19 34.2 38.7 37.1 15.6 2.3 32.1-3 41.5-13.4 6.1-6.8 11-17.2 13-27.8 2-10.1 1.4-30.1-1.1-39.4-4.8-18.2-15.9-30.7-31.6-35.6-8.2-2.6-22.2-2.5-30.6.2m24.9 13.1c4.9 1.4 12.3 7.8 14.8 12.8 3.7 7.3 5.2 18.8 4.8 36.3-.5 17.7-2 24.1-7.3 31.1-8.4 11-30.3 11.7-40.7 1.2-6.8-6.9-9.2-17.4-9.3-39.6 0-15.5.3-18.3 2.3-24.8 2.6-8.4 7.6-14.1 14.5-16.6 5.1-1.8 15.6-2 20.9-.4z" fill="#fc6520"/><path id="r" d="M1446 111.3c-4.1 1.1-7.6 2.1-7.8 2.2-.1.1.4 3.1 1.3 6.6 1.2 5.2 1.5 15.3 1.5 55.6V225h18v-39.5c0-31 .3-40.3 1.4-42.8 1.8-4.4 10.5-12.1 15.4-13.5 2.1-.7 6.1-1.2 8.8-1.2h4.9l3.3-8.9c1.7-4.8 3.2-9.1 3.2-9.5 0-.3-2.9-.6-6.4-.6-8.5 0-18.2 4.7-25.5 12.5-2.9 3-5.4 5.5-5.7 5.5-.2 0-.4-1.9-.4-4.3 0-4.4-2.6-13.8-3.8-13.6-.4 0-4.1 1-8.2 2.2z" fill="#fc6520"/></svg>