<?xml version="1.0" encoding="UTF-8"?>
<svg width="474px" height="474px" viewBox="0 0 474 474" version="1.1" xmlns="http://www.w3.org/2000/svg" xmlns:xlink="http://www.w3.org/1999/xlink">
    <title>AppIcon (Big Sur)</title>
    <defs>
        <linearGradient x1="50%" y1="0%" x2="50%" y2="100%" id="linearGradient-1">
            <stop stop-color="#FF93F9" offset="0%"></stop>
            <stop stop-color="#FF9C5A" offset="100%"></stop>
        </linearGradient>
        <path d="M427.710938,165.079325 C427.710938,160.551346 427.710938,156.022903 427.68497,151.494461 C427.662288,147.679793 427.618314,143.866051 427.514627,140.053235 C427.29059,131.74299 426.800392,123.36146 425.322394,115.143792 C423.823565,106.807625 421.375817,99.0491438 417.518578,91.4748921 C413.726606,84.0302493 408.773251,77.2179128 402.863107,71.3119128 C396.954352,65.4059128 390.140189,60.4557785 382.692797,56.6661068 C375.110705,52.8079274 367.34392,50.3610965 358.998527,48.862725 C350.779965,47.3870351 342.396152,46.8977615 334.085938,46.6732603 C330.270359,46.5700361 326.45478,46.5265245 322.638275,46.5029172 C318.107535,46.4751439 313.576795,46.4774583 309.046055,46.4774583 L256.439851,46.2890625 L217.094439,46.2890625 L165.419101,46.4774583 C160.879566,46.4774583 156.340031,46.4751439 151.800496,46.5029172 C147.976122,46.5265245 144.1536,46.5700361 140.330614,46.6732603 C132.000959,46.8977615 123.598168,47.387498 115.360165,48.8650394 C107.003662,50.3629481 99.2253054,52.8088532 91.6330296,56.6642552 C84.1698993,60.4543898 77.3409245,65.404987 71.4196714,71.3119128 C65.4993441,77.2174499 60.5367305,84.0283978 56.7378152,91.4716519 C52.8699298,99.0496067 50.4175534,106.812717 48.9150216,115.153513 C47.4356341,123.36794 46.9454365,131.746693 46.7200105,140.053235 C46.6172495,143.866514 46.5728124,147.680256 46.549668,151.494461 C46.5218948,156.023366 46.2890625,161.648855 46.2890625,166.177298 L46.2890625,217.136741 L46.2890625,256.90353 L46.5242092,308.945671 C46.5242092,313.480131 46.5223576,318.014591 46.549668,322.549051 C46.5728124,326.36881 46.6172495,330.187644 46.7204734,334.006015 C46.9454365,342.326907 47.4365599,350.720472 48.917336,358.949248 C50.419405,367.296525 52.8713185,375.066115 56.7359637,382.650088 C60.5353418,390.105377 65.4988812,396.926509 71.4196714,402.840841 C77.3404616,408.755173 84.1675849,413.711787 91.6293265,417.507014 C99.2262312,421.370285 107.008291,423.820356 115.369885,425.320579 C123.604186,426.798583 132.0042,427.288783 140.330614,427.513284 C144.1536,427.616508 147.976585,427.660483 151.800959,427.683627 C156.340494,427.710938 160.879566,427.710938 165.419101,427.710938 L217.561492,427.710938 L257.004573,427.710938 L309.046055,427.710938 C313.576795,427.710938 318.107535,427.710938 322.638275,427.683627 C326.45478,427.660483 330.270359,427.616508 334.085938,427.513284 C342.399392,427.28832 350.785982,426.797658 359.008248,425.318727 C367.348549,423.818504 375.111631,421.369359 382.689557,417.508402 C390.138338,413.713639 396.953889,408.756098 402.863107,402.840841 C408.772325,396.927434 413.725218,390.107229 417.51719,382.653328 C421.376743,375.065653 423.824491,367.292359 425.324245,358.939528 C426.800855,350.713991 427.29059,342.323666 427.51509,334.006015 C427.618314,330.187181 427.662288,326.368347 427.68497,322.549051 C427.710938,318.014591 427.710938,313.480131 427.710938,308.945671 C427.710938,308.945671 427.710938,257.822365 427.710938,256.90353 L427.710938,217.095081 C427.710938,216.416486 427.710938,165.079325 427.710938,165.079325" id="path-2"></path>
        <filter x="-5.2%" y="-2.6%" width="110.5%" height="110.5%" filterUnits="objectBoundingBox" id="filter-4">
            <feOffset dx="0" dy="10" in="SourceAlpha" result="shadowOffsetOuter1"></feOffset>
            <feGaussianBlur stdDeviation="5" in="shadowOffsetOuter1" result="shadowBlurOuter1"></feGaussianBlur>
            <feColorMatrix values="0 0 0 0 0   0 0 0 0 0   0 0 0 0 0  0 0 0 0.3 0" type="matrix" in="shadowBlurOuter1"></feColorMatrix>
        </filter>
        <filter x="-36.4%" y="-13.6%" width="172.8%" height="128.7%" filterUnits="objectBoundingBox" id="filter-5">
            <feOffset dx="0" dy="5" in="SourceAlpha" result="shadowOffsetOuter1"></feOffset>
            <feGaussianBlur stdDeviation="10" in="shadowOffsetOuter1" result="shadowBlurOuter1"></feGaussianBlur>
            <feColorMatrix values="0 0 0 0 0   0 0 0 0 0   0 0 0 0 0  0 0 0 0.5 0" type="matrix" in="shadowBlurOuter1" result="shadowMatrixOuter1"></feColorMatrix>
            <feMerge>
                <feMergeNode in="shadowMatrixOuter1"></feMergeNode>
                <feMergeNode in="SourceGraphic"></feMergeNode>
            </feMerge>
        </filter>
    </defs>
    <g id="Page-1" stroke="none" stroke-width="1" fill="none" fill-rule="evenodd">
        <g id="AppIcon-(Big-Sur)">
            <mask id="mask-3" fill="white">
                <use xlink:href="#path-2"></use>
            </mask>
            <g id="Background">
                <use fill="black" fill-opacity="1" filter="url(#filter-4)" xlink:href="#path-2"></use>
                <use fill="url(#linearGradient-1)" fill-rule="evenodd" xlink:href="#path-2"></use>
            </g>
            <g id="Icon" filter="url(#filter-5)" transform="translate(170.343750, 59.250000)" stroke="#FFFFFF" stroke-width="11">
                <ellipse id="OuterVane" fill="#44D7B6" cx="66.65625" cy="132.386719" rx="61.15625" ry="126.886719"></ellipse>
                <ellipse id="InnerVane" fill="#32C5FF" cx="67.1191406" cy="132.849609" rx="38.4746094" ry="87.5410156"></ellipse>
                <line x1="37.03125" y1="332.355469" x2="66.65625" y2="313.839844" id="LowerLeftAfterfeather" stroke-linecap="round" transform="translate(51.843750, 323.097656) scale(-1, 1) translate(-51.843750, -323.097656) "></line>
                <line x1="66.65625" y1="331.429687" x2="96.28125" y2="312.914062" id="LowerRightAfterfeather" stroke-linecap="round"></line>
                <line x1="67.5820312" y1="304.582031" x2="97.2070312" y2="286.066406" id="HigherLeftAfterfeather" stroke-linecap="round"></line>
                <line x1="66.1115771" y1="44.8768538" x2="66.1933594" y2="355.060646" id="Rachies" stroke-linecap="round"></line>
                <line x1="66.65625" y1="160.160156" x2="92.578125" y2="142.570312" id="LowerBarb" stroke-linecap="round"></line>
                <line x1="84.686942" y1="128.683594" x2="102.320871" y2="117.078265" id="HigherBarb" stroke-linecap="round"></line>
            </g>
        </g>
    </g>
</svg>