<svg width="40" height="40" viewBox="0 0 40 40" xmlns="http://www.w3.org/2000/svg"><title>icon</title><g id="styleguide" fill="none" fill-rule="evenodd"><g id="Unicorn-Styleguide" transform="translate(-252 -2103)"><g id="Icons" transform="translate(76 1963)"><g id="icon" transform="translate(176 140)"><circle id="Oval" fill="#E9F1FF" cx="20" cy="20" r="20"/><g id="Group-2" transform="translate(14 13)" fill-rule="nonzero"><path d="M9.723 5.901a.287.287 0 0 0-.26-.166H6.065L9.42.44A.287.287 0 0 0 9.177 0H4.588a.287.287 0 0 0-.256.159L.03 8.762a.286.286 0 0 0 .257.414h2.949L.022 16.808a.287.287 0 0 0 .484.296L9.683 6.207a.287.287 0 0 0 .04-.306z" id="Shape" fill="#4D61FC"/><path d="M12.973 5.901a.287.287 0 0 0-.26-.166H9.315L12.67.44a.287.287 0 0 0-.242-.44H7.838a.287.287 0 0 0-.256.159L3.28 8.762a.286.286 0 0 0 .257.414h2.949l-3.214 7.632a.287.287 0 0 0 .484.296l9.177-10.897a.287.287 0 0 0 .04-.306z" stroke="#E9F1FF" fill="#00396B"/></g></g></g></g></g></svg>