<svg width="40" height="40" viewBox="0 0 40 40" xmlns="http://www.w3.org/2000/svg"><title>abstract-icon</title><g id="styleguide" fill="none" fill-rule="evenodd"><g id="Unicorn-Styleguide" transform="translate(-133 -2103)"><g id="Icons" transform="translate(76 1963)"><g id="abstract-icon" transform="translate(57 140)"><g id="icon"><circle id="Oval" fill="#E9F1FF" cx="20" cy="20" r="20"/><g id="yin-yang" transform="translate(13 13)" fill-rule="nonzero"><path d="M6.607 6.275h.025a3.14 3.14 0 0 0 3.137-3.138A3.14 3.14 0 0 0 6.632 0 6.64 6.64 0 0 0 0 6.632a6.639 6.639 0 0 0 3.643 5.919 3.832 3.832 0 0 1-.862-2.425 3.855 3.855 0 0 1 3.826-3.85z" id="Shape" fill="#4D61FC"/><path d="M10.357 1.45c.539.662.862 1.506.862 2.424a3.855 3.855 0 0 1-3.85 3.851 3.14 3.14 0 0 0-3.138 3.138A3.14 3.14 0 0 0 7.368 14h.003A6.64 6.64 0 0 0 14 7.368a6.639 6.639 0 0 0-3.643-5.918z" fill="#00396B"/></g></g></g></g></g></g></svg>